<svg width="77" height="76" viewBox="0 0 77 76" fill="none" xmlns="http://www.w3.org/2000/svg">
<rect x="0.5" width="76" height="76" rx="38" fill="#E4FFF1" fill-opacity="0.39"/>
<path d="M27.4987 45.8338C26.7627 46.3865 26.6142 47.4313 27.1671 48.1673C27.7199 48.9033 28.7647 49.0518 29.5006 48.499L27.4987 45.8338ZM33.0007 51.999C32.4479 52.735 32.5964 53.7798 33.3324 54.3327C34.0683 54.8855 35.1131 54.737 35.6658 54.001L33.0007 51.999ZM47.4987 48.499C48.2347 49.0518 49.2795 48.9033 49.8323 48.1673C50.3852 47.4313 50.2367 46.3865 49.5007 45.8338L47.4987 48.499ZM41.3335 54.001C41.8862 54.737 42.931 54.8855 43.667 54.3327C44.403 53.7798 44.5515 52.735 43.9987 51.999L41.3335 54.001ZM33.833 31.3333H43.1663V28H33.833V31.3333ZM46.833 35V47.6666H50.1663V35H46.833ZM43.1663 51.3333H33.833V54.6667H43.1663V51.3333ZM30.1663 47.6666V35H26.833V47.6666H30.1663ZM33.833 51.3333C32.8721 51.3333 32.2516 51.332 31.7794 51.2935C31.3266 51.2565 31.1588 51.1937 31.0764 51.1517L29.5631 54.1217C30.1937 54.443 30.8491 54.5618 31.508 54.6157C32.1474 54.668 32.9271 54.6667 33.833 54.6667V51.3333ZM26.833 47.6666C26.833 48.5726 26.8317 49.3523 26.884 49.9916C26.9378 50.6507 27.0567 51.306 27.378 51.9366L30.348 50.4233C30.306 50.3408 30.2432 50.173 30.2062 49.7203C30.1676 49.248 30.1663 48.6276 30.1663 47.6666H26.833ZM31.0764 51.1517C30.7628 50.9918 30.5078 50.737 30.348 50.4233L27.378 51.9366C27.8573 52.8775 28.6222 53.6423 29.5631 54.1217L31.0764 51.1517ZM46.833 47.6666C46.833 48.6276 46.8317 49.248 46.7932 49.7203C46.7562 50.173 46.6933 50.3408 46.6513 50.4233L49.6213 51.9366C49.9427 51.306 50.0615 50.6507 50.1153 49.9916C50.1677 49.3523 50.1663 48.5726 50.1663 47.6666H46.833ZM43.1663 54.6667C44.0723 54.6667 44.852 54.668 45.4913 54.6157C46.1503 54.5618 46.8057 54.443 47.4363 54.1217L45.923 51.1517C45.8405 51.1937 45.6727 51.2565 45.22 51.2935C44.7477 51.332 44.1273 51.3333 43.1663 51.3333V54.6667ZM46.6513 50.4233C46.4915 50.737 46.2367 50.9918 45.923 51.1517L47.4363 54.1217C48.3772 53.6423 49.142 52.8775 49.6213 51.9366L46.6513 50.4233ZM43.1663 31.3333C44.1273 31.3333 44.7477 31.3346 45.22 31.3732C45.6727 31.4102 45.8405 31.473 45.923 31.515L47.4363 28.545C46.8057 28.2236 46.1503 28.1048 45.4913 28.0509C44.852 27.9987 44.0723 28 43.1663 28V31.3333ZM45.923 31.515C46.2367 31.6748 46.4915 31.9297 46.6513 32.2433L49.6213 30.73C49.142 29.7892 48.3772 29.0243 47.4363 28.545L45.923 31.515ZM33.833 28C32.9271 28 32.1474 27.9987 31.508 28.0509C30.8491 28.1048 30.1937 28.2236 29.5631 28.545L31.0764 31.515C31.1588 31.473 31.3266 31.4102 31.7794 31.3732C32.2516 31.3346 32.8721 31.3333 33.833 31.3333V28ZM29.5631 28.545C28.6222 29.0243 27.8573 29.7892 27.378 30.73L30.348 32.2433C30.5078 31.9297 30.7628 31.6748 31.0764 31.515L29.5631 28.545ZM40.1663 38C40.1663 38.9205 39.4202 39.6667 38.4997 39.6667V43C41.2612 43 43.4997 40.7615 43.4997 38H40.1663ZM38.4997 39.6667C37.5792 39.6667 36.833 38.9205 36.833 38H33.4997C33.4997 40.7615 35.7382 43 38.4997 43V39.6667ZM36.833 38C36.833 37.0795 37.5792 36.3333 38.4997 36.3333V33C35.7382 33 33.4997 35.2385 33.4997 38H36.833ZM38.4997 36.3333C39.4202 36.3333 40.1663 37.0795 40.1663 38H43.4997C43.4997 35.2385 41.2612 33 38.4997 33V36.3333ZM28.833 24.6666H48.1663V21.3333H28.833V24.6666ZM51.833 28.3333V29.3333H55.1663V28.3333H51.833ZM25.1663 29.3333V28.3333H21.833V29.3333H25.1663ZM21.833 29.3333C21.833 30.2392 21.8317 31.0189 21.884 31.6584C21.9378 32.3173 22.0567 32.9726 22.378 33.6033L25.348 32.09C25.306 32.0076 25.2432 31.8397 25.2062 31.3869C25.1676 30.9147 25.1663 30.2942 25.1663 29.3333H21.833ZM26.0764 32.8183C25.7628 32.6585 25.5078 32.4036 25.348 32.09L22.378 33.6033C22.8573 34.5441 23.6222 35.309 24.5631 35.7883L26.0764 32.8183ZM51.833 29.3333C51.833 30.2942 51.8317 30.9147 51.7932 31.3869C51.7562 31.8397 51.6933 32.0076 51.6513 32.09L54.6213 33.6033C54.9427 32.9726 55.0615 32.3173 55.1153 31.6584C55.1677 31.0189 55.1663 30.2392 55.1663 29.3333H51.833ZM51.6513 32.09C51.4915 32.4036 51.2367 32.6585 50.923 32.8183L52.4363 35.7883C53.3772 35.309 54.142 34.5441 54.6213 33.6033L51.6513 32.09ZM48.1663 24.6666C49.1273 24.6666 49.7477 24.6679 50.22 24.7065C50.6727 24.7435 50.8405 24.8063 50.923 24.8483L52.4363 21.8783C51.8057 21.557 51.1503 21.4381 50.4913 21.3843C49.852 21.332 49.0723 21.3333 48.1663 21.3333V24.6666ZM55.1663 28.3333C55.1663 27.4274 55.1677 26.6477 55.1153 26.0083C55.0615 25.3494 54.9427 24.694 54.6213 24.0634L51.6513 25.5767C51.6933 25.6591 51.7562 25.8269 51.7932 26.2797C51.8317 26.7519 51.833 27.3724 51.833 28.3333H55.1663ZM50.923 24.8483C51.2367 25.0081 51.4915 25.2631 51.6513 25.5767L54.6213 24.0634C54.142 23.1225 53.3772 22.3576 52.4363 21.8783L50.923 24.8483ZM28.833 21.3333C27.9271 21.3333 27.1474 21.332 26.508 21.3843C25.8491 21.4381 25.1937 21.557 24.5631 21.8783L26.0764 24.8483C26.1588 24.8063 26.3266 24.7435 26.7794 24.7065C27.2516 24.6679 27.8721 24.6666 28.833 24.6666V21.3333ZM25.1663 28.3333C25.1663 27.3724 25.1676 26.7519 25.2062 26.2797C25.2432 25.8269 25.306 25.6591 25.348 25.5767L22.378 24.0634C22.0567 24.694 21.9378 25.3494 21.884 26.0083C21.8317 26.6477 21.833 27.4274 21.833 28.3333H25.1663ZM24.5631 21.8783C23.6222 22.3576 22.8573 23.1225 22.378 24.0634L25.348 25.5767C25.5078 25.2631 25.7628 25.0081 26.0764 24.8483L24.5631 21.8783ZM30.9997 48C32.3804 48 33.4997 49.1193 33.4997 50.5H36.833C36.833 47.2783 34.2213 44.6667 30.9997 44.6667V48ZM29.5006 48.499C29.9183 48.1852 30.435 48 30.9997 48V44.6667C29.6884 44.6667 28.4738 45.1013 27.4987 45.8338L29.5006 48.499ZM33.4997 50.5C33.4997 51.0647 33.3144 51.5813 33.0007 51.999L35.6658 54.001C36.3983 53.0258 36.833 51.8113 36.833 50.5H33.4997ZM43.4997 50.5C43.4997 49.1193 44.619 48 45.9997 48V44.6667C42.778 44.6667 40.1663 47.2783 40.1663 50.5H43.4997ZM45.9997 48C46.5643 48 47.081 48.1852 47.4987 48.499L49.5007 45.8338C48.5255 45.1013 47.311 44.6667 45.9997 44.6667V48ZM43.9987 51.999C43.6848 51.5813 43.4997 51.0647 43.4997 50.5H40.1663C40.1663 51.8113 40.601 53.0258 41.3335 54.001L43.9987 51.999ZM48.5008 36.3331C49.3077 36.3327 50.0163 36.3283 50.614 36.2715C51.2308 36.213 51.8438 36.0903 52.4363 35.7883L50.923 32.8183C50.8462 32.8575 50.6928 32.9157 50.2987 32.9531C49.8855 32.9924 49.3388 32.9993 48.4983 32.9999L48.5008 36.3331ZM50.1663 35C50.1663 34.8855 50.1663 34.7738 50.1662 34.6653L46.8328 34.6678C46.833 34.7748 46.833 34.8853 46.833 35H50.1663ZM50.1662 34.6653C50.1657 33.8586 50.1613 33.1499 50.1045 32.5523C50.046 31.9354 49.9233 31.3225 49.6213 30.73L46.6513 32.2433C46.6905 32.3201 46.7487 32.4735 46.7862 32.8675C46.8255 33.2807 46.8323 33.8273 46.8328 34.6678L50.1662 34.6653ZM28.5011 32.9999C27.6605 32.9993 27.1138 32.9924 26.7006 32.9531C26.3066 32.9157 26.1531 32.8575 26.0764 32.8183L24.5631 35.7883C25.1556 36.0903 25.7685 36.213 26.3853 36.2715C26.983 36.3283 27.6917 36.3327 28.4985 36.3331L28.5011 32.9999ZM30.1663 35C30.1663 34.8853 30.1663 34.7748 30.1664 34.6678L26.8331 34.6653C26.833 34.7738 26.833 34.8855 26.833 35H30.1663ZM30.1664 34.6678C30.1671 33.8273 30.1739 33.2807 30.2132 32.8675C30.2506 32.4735 30.3089 32.3201 30.348 32.2433L27.378 30.73C27.0761 31.3225 26.9534 31.9354 26.8948 32.5523C26.838 33.1499 26.8337 33.8586 26.8331 34.6653L30.1664 34.6678Z" fill="#E5288E"/>
</svg>
