<svg width="76" height="76" viewBox="0 0 76 76" fill="none" xmlns="http://www.w3.org/2000/svg">
<rect width="76" height="76" rx="38" fill="#E4FFF1"/>
<path d="M26.9992 45.8339C26.2632 46.3865 26.1147 47.4314 26.6675 48.1674C27.2204 48.9034 28.2651 49.0519 29.0011 48.499L26.9992 45.8339ZM32.5012 51.999C31.9484 52.735 32.0969 53.7799 32.8328 54.3327C33.5688 54.8855 34.6136 54.737 35.1663 54.001L32.5012 51.999ZM46.9992 48.499C47.7352 49.0519 48.78 48.9034 49.3328 48.1674C49.8857 47.4314 49.7372 46.3865 49.0012 45.8339L46.9992 48.499ZM40.834 54.001C41.3867 54.737 42.4315 54.8855 43.1675 54.3327C43.9035 53.7799 44.052 52.735 43.4992 51.999L40.834 54.001ZM33.3335 31.3334H42.6668V28H33.3335V31.3334ZM46.3335 35V47.6667H49.6668V35H46.3335ZM42.6668 51.3334H33.3335V54.6667H42.6668V51.3334ZM29.6668 47.6667V35H26.3335V47.6667H29.6668ZM33.3335 51.3334C32.3726 51.3334 31.7521 51.332 31.2799 51.2935C30.8271 51.2565 30.6592 51.1937 30.5768 51.1517L29.0635 54.1217C29.6942 54.443 30.3495 54.5619 31.0084 54.6157C31.6479 54.668 32.4276 54.6667 33.3335 54.6667V51.3334ZM26.3335 47.6667C26.3335 48.5727 26.3322 49.3524 26.3844 49.9917C26.4383 50.6507 26.5571 51.306 26.8785 51.9367L29.8485 50.4234C29.8065 50.3409 29.7437 50.173 29.7067 49.7204C29.6681 49.248 29.6668 48.6277 29.6668 47.6667H26.3335ZM30.5768 51.1517C30.2632 50.9919 30.0083 50.737 29.8485 50.4234L26.8785 51.9367C27.3578 52.8775 28.1227 53.6424 29.0635 54.1217L30.5768 51.1517ZM46.3335 47.6667C46.3335 48.6277 46.3322 49.248 46.2937 49.7204C46.2567 50.173 46.1938 50.3409 46.1518 50.4234L49.1218 51.9367C49.4432 51.306 49.562 50.6507 49.6158 49.9917C49.6682 49.3524 49.6668 48.5727 49.6668 47.6667H46.3335ZM42.6668 54.6667C43.5728 54.6667 44.3525 54.668 44.9918 54.6157C45.6508 54.5619 46.3062 54.443 46.9368 54.1217L45.4235 51.1517C45.341 51.1937 45.1732 51.2565 44.7205 51.2935C44.2482 51.332 43.6278 51.3334 42.6668 51.3334V54.6667ZM46.1518 50.4234C45.992 50.737 45.7372 50.9919 45.4235 51.1517L46.9368 54.1217C47.8777 53.6424 48.6425 52.8775 49.1218 51.9367L46.1518 50.4234ZM42.6668 31.3334C43.6278 31.3334 44.2482 31.3347 44.7205 31.3733C45.1732 31.4102 45.341 31.473 45.4235 31.515L46.9368 28.545C46.3062 28.2237 45.6508 28.1048 44.9918 28.051C44.3525 27.9987 43.5728 28 42.6668 28V31.3334ZM45.4235 31.515C45.7372 31.6748 45.992 31.9298 46.1518 32.2434L49.1218 30.7301C48.6425 29.7893 47.8777 29.0244 46.9368 28.545L45.4235 31.515ZM33.3335 28C32.4276 28 31.6479 27.9987 31.0084 28.051C30.3495 28.1048 29.6942 28.2237 29.0635 28.545L30.5768 31.515C30.6592 31.473 30.8271 31.4102 31.2799 31.3733C31.7521 31.3347 32.3726 31.3334 33.3335 31.3334V28ZM29.0635 28.545C28.1227 29.0244 27.3578 29.7893 26.8785 30.7301L29.8485 32.2434C30.0083 31.9298 30.2632 31.6748 30.5768 31.515L29.0635 28.545ZM39.6668 38C39.6668 38.9205 38.9207 39.6667 38.0002 39.6667V43C40.7617 43 43.0002 40.7615 43.0002 38H39.6668ZM38.0002 39.6667C37.0797 39.6667 36.3335 38.9205 36.3335 38H33.0002C33.0002 40.7615 35.2387 43 38.0002 43V39.6667ZM36.3335 38C36.3335 37.0795 37.0797 36.3334 38.0002 36.3334V33C35.2387 33 33.0002 35.2385 33.0002 38H36.3335ZM38.0002 36.3334C38.9207 36.3334 39.6668 37.0795 39.6668 38H43.0002C43.0002 35.2385 40.7617 33 38.0002 33V36.3334ZM28.3335 24.6667H47.6668V21.3334H28.3335V24.6667ZM51.3335 28.3334V29.3334H54.6668V28.3334H51.3335ZM24.6668 29.3334V28.3334H21.3335V29.3334H24.6668ZM21.3335 29.3334C21.3335 30.2393 21.3322 31.019 21.3844 31.6584C21.4383 32.3173 21.5571 32.9727 21.8785 33.6033L24.8485 32.09C24.8065 32.0076 24.7437 31.8398 24.7067 31.387C24.6681 30.9148 24.6668 30.2943 24.6668 29.3334H21.3335ZM25.5768 32.8184C25.2632 32.6586 25.0083 32.4036 24.8485 32.09L21.8785 33.6033C22.3578 34.5441 23.1227 35.309 24.0635 35.7884L25.5768 32.8184ZM51.3335 29.3334C51.3335 30.2943 51.3322 30.9148 51.2937 31.387C51.2567 31.8398 51.1938 32.0076 51.1518 32.09L54.1218 33.6033C54.4432 32.9727 54.562 32.3173 54.6158 31.6584C54.6682 31.019 54.6668 30.2393 54.6668 29.3334H51.3335ZM51.1518 32.09C50.992 32.4036 50.7372 32.6586 50.4235 32.8184L51.9368 35.7884C52.8777 35.309 53.6425 34.5441 54.1218 33.6033L51.1518 32.09ZM47.6668 24.6667C48.6278 24.6667 49.2482 24.668 49.7205 24.7066C50.1732 24.7436 50.341 24.8064 50.4235 24.8484L51.9368 21.8783C51.3062 21.557 50.6508 21.4382 49.9918 21.3843C49.3525 21.3321 48.5728 21.3334 47.6668 21.3334V24.6667ZM54.6668 28.3334C54.6668 27.4275 54.6682 26.6478 54.6158 26.0083C54.562 25.3494 54.4432 24.6941 54.1218 24.0634L51.1518 25.5767C51.1938 25.6591 51.2567 25.827 51.2937 26.2798C51.3322 26.752 51.3335 27.3725 51.3335 28.3334H54.6668ZM50.4235 24.8484C50.7372 25.0082 50.992 25.2631 51.1518 25.5767L54.1218 24.0634C53.6425 23.1226 52.8777 22.3577 51.9368 21.8783L50.4235 24.8484ZM28.3335 21.3334C27.4276 21.3334 26.6479 21.3321 26.0084 21.3843C25.3495 21.4382 24.6942 21.557 24.0635 21.8783L25.5768 24.8484C25.6592 24.8064 25.8271 24.7436 26.2799 24.7066C26.7521 24.668 27.3726 24.6667 28.3335 24.6667V21.3334ZM24.6668 28.3334C24.6668 27.3725 24.6681 26.752 24.7067 26.2798C24.7437 25.827 24.8065 25.6591 24.8485 25.5767L21.8785 24.0634C21.5571 24.6941 21.4383 25.3494 21.3844 26.0083C21.3322 26.6478 21.3335 27.4275 21.3335 28.3334H24.6668ZM24.0635 21.8783C23.1227 22.3577 22.3578 23.1226 21.8785 24.0634L24.8485 25.5767C25.0083 25.2631 25.2632 25.0082 25.5768 24.8484L24.0635 21.8783ZM30.5002 48C31.8809 48 33.0002 49.1194 33.0002 50.5H36.3335C36.3335 47.2784 33.7218 44.6667 30.5002 44.6667V48ZM29.0011 48.499C29.4188 48.1852 29.9354 48 30.5002 48V44.6667C29.1889 44.6667 27.9743 45.1014 26.9992 45.8339L29.0011 48.499ZM33.0002 50.5C33.0002 51.0647 32.8149 51.5814 32.5012 51.999L35.1663 54.001C35.8988 53.0259 36.3335 51.8114 36.3335 50.5H33.0002ZM43.0002 50.5C43.0002 49.1194 44.1195 48 45.5002 48V44.6667C42.2785 44.6667 39.6668 47.2784 39.6668 50.5H43.0002ZM45.5002 48C46.0648 48 46.5815 48.1852 46.9992 48.499L49.0012 45.8339C48.026 45.1014 46.8115 44.6667 45.5002 44.6667V48ZM43.4992 51.999C43.1853 51.5814 43.0002 51.0647 43.0002 50.5H39.6668C39.6668 51.8114 40.1015 53.0259 40.834 54.001L43.4992 51.999ZM48.0013 36.3332C48.8082 36.3327 49.5168 36.3284 50.1145 36.2715C50.7313 36.213 51.3443 36.0904 51.9368 35.7884L50.4235 32.8184C50.3467 32.8575 50.1933 32.9158 49.7992 32.9532C49.386 32.9925 48.8393 32.9993 47.9988 33L48.0013 36.3332ZM49.6668 35C49.6668 34.8855 49.6668 34.7739 49.6667 34.6653L46.3333 34.6679C46.3335 34.7749 46.3335 34.8854 46.3335 35H49.6668ZM49.6667 34.6653C49.6662 33.8587 49.6618 33.1499 49.605 32.5523C49.5465 31.9355 49.4238 31.3226 49.1218 30.7301L46.1518 32.2434C46.191 32.3202 46.2492 32.4736 46.2867 32.8676C46.326 33.2808 46.3328 33.8274 46.3333 34.6679L49.6667 34.6653ZM28.0015 33C27.1609 32.9993 26.6143 32.9925 26.2011 32.9532C25.8071 32.9158 25.6536 32.8575 25.5768 32.8184L24.0635 35.7884C24.656 36.0904 25.269 36.213 25.8858 36.2715C26.4835 36.3284 27.1922 36.3327 27.9989 36.3332L28.0015 33ZM29.6668 35C29.6668 34.8854 29.6668 34.7749 29.6669 34.6679L26.3336 34.6653C26.3335 34.7739 26.3335 34.8855 26.3335 35H29.6668ZM29.6669 34.6679C29.6676 33.8274 29.6744 33.2808 29.7137 32.8676C29.7511 32.4736 29.8094 32.3202 29.8485 32.2434L26.8785 30.7301C26.5766 31.3226 26.4539 31.9355 26.3953 32.5523C26.3385 33.1499 26.3342 33.8587 26.3336 34.6653L29.6669 34.6679Z" fill="#069B40"/>
</svg>
