<svg width="138" height="50" viewBox="0 0 138 50" fill="none" xmlns="http://www.w3.org/2000/svg">
<rect x="1" y="1" width="136" height="48" rx="24" fill="#000001"/>
<path d="M37.9275 24.4219C37.9275 21.9319 39.9727 20.7764 40.0613 20.6878C38.9058 18.9979 37.1273 18.8207 36.5053 18.7312C34.9935 18.5539 33.5713 19.6209 32.7711 19.6209C31.9709 19.6209 30.8145 18.7312 29.5704 18.7312C27.97 18.7312 26.4583 19.7095 25.5695 21.1326C23.8796 24.0657 25.1246 28.5114 26.8136 30.912C27.6138 32.0684 28.5921 33.402 29.8371 33.402C31.0812 33.3134 31.5261 32.6018 33.0378 32.6018C34.5487 32.6018 34.9049 33.402 36.2385 33.402C37.5722 33.402 38.3723 32.2456 39.1716 31.0006C40.1499 29.6678 40.5062 28.3333 40.5062 28.2447C40.5062 28.3333 37.9275 27.3559 37.9275 24.4219ZM35.4384 17.2203C36.0604 16.4201 36.5939 15.2637 36.4158 14.1082C35.4384 14.1082 34.2819 14.7303 33.5713 15.62C32.9483 16.3306 32.4149 17.487 32.593 18.6426C33.6599 18.6426 34.8154 18.0205 35.4375 17.2203H35.4384ZM53.4871 30.4662H49.3081L48.3298 33.4897H46.5514L50.5523 22.4645H52.3307L56.3316 33.4897H54.554L53.4871 30.4662ZM49.7521 29.1326H53.1309L51.4419 24.2429H51.3533L49.753 29.1326H49.7521ZM64.9564 29.488C64.9564 31.978 63.6227 33.5784 61.5775 33.5784C60.422 33.5784 59.5323 33.0449 59.0875 32.1561V36.157H57.3985V25.4879H58.9989V26.8216C59.4437 25.9319 60.422 25.3984 61.5775 25.3984C63.5332 25.3098 64.9564 26.9988 64.9564 29.488ZM63.1779 29.488C63.1779 27.8885 62.3777 26.8207 61.0441 26.8207C59.7991 26.8207 58.9103 27.8876 58.9103 29.488C58.9103 31.0883 59.7991 32.1552 61.0441 32.1552C62.3777 32.1552 63.1779 31.0883 63.1779 29.488ZM73.7583 29.488C73.7583 31.978 72.4247 33.5784 70.3795 33.5784C69.224 33.5784 68.3343 33.0449 67.8895 32.1561V36.157H66.2014V25.4879H67.8017V26.8216C68.2466 25.9319 69.2249 25.3984 70.3804 25.3984C72.4256 25.3098 73.7592 26.9988 73.7592 29.488H73.7583ZM72.0685 29.488C72.0685 27.8885 71.2683 26.8207 69.9347 26.8207C68.6905 26.8207 67.8008 27.8876 67.8008 29.488C67.8008 31.0883 68.6905 32.1552 69.9347 32.1552C71.2683 32.1552 72.0685 31.0883 72.0685 29.488ZM79.6263 30.3776C79.7149 31.4445 80.7818 32.1561 82.2936 32.1561C83.7158 32.1561 84.6941 31.4445 84.6941 30.4662C84.6941 29.5775 84.0712 29.1326 82.6489 28.7773L81.2267 28.4219C79.1815 27.8885 78.2927 26.9988 78.2927 25.4879C78.2927 23.62 79.9816 22.2863 82.2936 22.2863C84.6046 22.2863 86.2058 23.62 86.2945 25.4879H84.6046C84.516 24.421 83.6272 23.7095 82.2936 23.7095C80.9599 23.7095 80.0711 24.421 80.0711 25.3984C80.0711 26.1986 80.6932 26.6435 82.1155 26.9988L83.3605 27.2655C85.5829 27.799 86.5612 28.6887 86.5612 30.289C86.5612 32.3333 84.8713 33.667 82.2936 33.667C79.8035 33.667 78.2041 32.4228 78.1146 30.3776H79.6263ZM89.94 23.5323V25.3993H91.4509V26.733H89.9409V31.1787C89.9409 31.8894 90.2067 32.1561 90.9183 32.1561H91.4518V33.4897C91.2745 33.5784 90.9183 33.5784 90.563 33.5784C88.9626 33.5784 88.3405 32.9563 88.3405 31.4454V26.8216H87.1841V25.4879H88.3405V23.6209H89.9409V23.5323H89.94ZM92.4292 29.4888C92.4292 26.9988 93.9409 25.3984 96.252 25.3984C98.5639 25.3984 100.076 26.9988 100.076 29.4888C100.076 32.0675 98.5639 33.5784 96.252 33.5784C93.8514 33.5784 92.4292 31.978 92.4292 29.4888ZM98.3858 29.4888C98.3858 27.7104 97.5856 26.733 96.252 26.733C94.9183 26.733 94.1181 27.7104 94.1181 29.4888C94.1181 31.2664 94.9183 32.2447 96.252 32.2447C97.5856 32.2447 98.3858 31.1778 98.3858 29.4888ZM101.409 25.3993H103.01V26.8216C103.275 25.9319 103.987 25.3984 104.965 25.3984C105.232 25.3984 105.41 25.3984 105.499 25.4871V26.9988C105.41 26.9102 105.054 26.9102 104.787 26.9102C103.72 26.9102 103.098 27.6218 103.098 28.7773V33.5784H101.409V25.3993ZM113.145 31.0883C112.967 32.5114 111.456 33.5784 109.678 33.5784C107.366 33.5784 105.855 31.978 105.855 29.4888C105.855 26.9988 107.277 25.3098 109.589 25.3098C111.812 25.3098 113.234 26.8216 113.234 29.3107V29.8442H107.544V29.9328C107.544 31.2673 108.433 32.2456 109.678 32.2456C110.567 32.2456 111.278 31.8008 111.545 31.0892H113.145V31.0883ZM107.544 28.6887H111.545C111.545 27.4436 110.745 26.6435 109.589 26.6435C108.433 26.6435 107.633 27.5331 107.544 28.6887ZM49.4853 14.1109C51.0857 14.1109 51.9754 15.0892 51.9754 16.7781C51.9754 18.4671 51.0857 19.4454 49.4853 19.4454H47.5305V14.1109H49.4862H49.4853ZM48.4184 18.7338H49.3967C50.4636 18.7338 51.1752 18.0232 51.1752 16.8668C51.1752 15.7112 50.5523 14.9997 49.3967 14.9997H48.4184V18.7338ZM52.9537 17.3993C52.9537 16.0657 53.6644 15.3541 54.8199 15.3541C55.9763 15.3541 56.687 16.1543 56.687 17.3993C56.687 18.7329 55.9763 19.4445 54.8199 19.4445C53.6644 19.5331 52.9528 18.7329 52.9528 17.3993H52.9537ZM55.8868 17.3993C55.8868 16.5105 55.5323 16.0657 54.8199 16.0657C54.1092 16.0657 53.753 16.5991 53.753 17.3993C53.753 18.2881 54.1092 18.8216 54.8199 18.8216C55.5314 18.8216 55.8868 18.2881 55.8868 17.3993ZM61.7556 19.4445H60.9555L60.1553 16.5114H60.0667L59.2656 19.4445H58.4654L57.3985 15.4445H58.1987L58.9103 18.4671H58.9989L59.7991 15.4445H60.5992L61.3994 18.4671H61.488L62.1996 15.4445H62.9998L61.7556 19.4454V19.4445ZM63.8 15.4436H64.6001V16.0657H64.6887C64.8669 15.6208 65.3117 15.3541 65.8451 15.3541C66.7339 15.3541 67.2674 15.8876 67.2674 16.8659V19.4445H66.4672V17.0431C66.4672 16.421 66.2014 16.0657 65.5784 16.0657C64.9555 16.0657 64.6001 16.421 64.6001 17.044V19.355H63.8V15.4436ZM68.4238 13.8441H69.224V19.4445H68.4238V13.8441ZM70.29 17.3993C70.29 16.0657 71.0016 15.3541 72.158 15.3541C73.3135 15.3541 74.0251 16.1543 74.0251 17.3993C74.0251 18.7329 73.3135 19.4445 72.158 19.4445C71.0016 19.5331 70.29 18.7329 70.29 17.3993ZM73.3135 17.3993C73.3135 16.5105 72.9581 16.0657 72.2466 16.0657C71.535 16.0657 71.1797 16.5991 71.1797 17.3993C71.1797 18.2881 71.535 18.8216 72.2466 18.8216C72.8686 18.8216 73.3135 18.2881 73.3135 17.3993ZM74.9138 18.2881C74.9138 17.5774 75.4473 17.1326 76.4256 17.1326L77.4925 17.044V16.6878C77.4925 16.2438 77.2258 16.0657 76.6923 16.0657C76.2475 16.0657 75.9807 16.2429 75.8921 16.5105H75.092C75.1806 15.799 75.8026 15.3541 76.6923 15.3541C77.6697 15.3541 78.2927 15.8876 78.2927 16.6878V19.4436H77.4925V18.9111H77.4039C77.1363 19.355 76.6923 19.5331 76.1589 19.5331C75.9943 19.5371 75.8306 19.5077 75.6777 19.4465C75.5248 19.3854 75.386 19.2938 75.2696 19.1774C75.1532 19.061 75.0616 18.9221 75.0005 18.7693C74.9393 18.6164 74.9098 18.4527 74.9138 18.2881ZM77.4925 17.9328V17.5774L76.5142 17.666C75.9808 17.666 75.714 17.9328 75.714 18.1995C75.714 18.5548 76.0694 18.7329 76.4256 18.7329C77.0477 18.8216 77.4925 18.4662 77.4925 17.9328ZM79.2701 17.4002C79.2701 16.1552 79.893 15.355 80.9599 15.355C81.4934 15.355 81.9373 15.6208 82.2041 16.0666H82.2927V13.8433H83.0937V19.4445H82.2936V18.8224H82.205C82.0793 19.041 81.8978 19.2221 81.679 19.3471C81.4601 19.4722 81.212 19.5367 80.9599 19.534C79.9816 19.534 79.2701 18.7338 79.2701 17.4002ZM80.1598 17.4002C80.1598 18.289 80.6037 18.7338 81.2267 18.7338C81.8487 18.7338 82.2936 18.2004 82.2936 17.4002C82.2936 16.6 81.8487 16.0666 81.2267 16.0666C80.5151 16.0666 80.1598 16.6 80.1598 17.4002ZM86.2945 17.3993C86.2945 16.0657 87.0051 15.3541 88.1615 15.3541C89.3171 15.3541 90.0286 16.1543 90.0286 17.3993C90.0286 18.7329 89.3171 19.4445 88.1615 19.4445C87.0051 19.5331 86.2945 18.7329 86.2945 17.3993ZM89.3171 17.3993C89.3171 16.5105 88.9617 16.0657 88.2502 16.0657C87.5395 16.0657 87.1833 16.5991 87.1833 17.3993C87.1833 18.2881 87.5386 18.8216 88.2502 18.8216C88.8731 18.8216 89.3171 18.2881 89.3171 17.3993ZM91.1842 15.4436H91.9843V16.0657H92.0729C92.2511 15.6208 92.6959 15.3541 93.2293 15.3541C94.1181 15.3541 94.6516 15.8876 94.6516 16.8659V19.4445H93.8514V17.0431C93.8514 16.421 93.5856 16.0657 92.9626 16.0657C92.3397 16.0657 91.9843 16.421 91.9843 17.044V19.355H91.1842V15.4436ZM99.0087 14.4644V15.4427H99.8975V16.1543H99.0087V18.1995C99.0087 18.6443 99.1859 18.8216 99.5422 18.8216H99.808V19.4445H99.3641C98.4753 19.4445 98.119 19.1778 98.119 18.3776V16.1543H97.497V15.5322H98.119V14.4644H99.0087ZM100.964 13.8441H101.765V16.0666H101.853C102.031 15.6217 102.476 15.355 103.098 15.355C103.987 15.355 104.52 15.8885 104.52 16.8668V19.4454H103.72V17.044C103.72 16.4219 103.454 16.0666 102.831 16.0666C102.209 16.0666 101.853 16.5105 101.853 17.044V19.3559H101.053V13.8441H100.964ZM109.055 18.3776C108.878 19.0883 108.255 19.5331 107.277 19.5331C106.121 19.5331 105.41 18.7329 105.41 17.4879C105.41 16.2438 106.121 15.3541 107.277 15.3541C108.433 15.3541 109.055 16.1543 109.055 17.3993V17.666H106.21C106.21 18.3776 106.654 18.8216 107.277 18.8216C107.721 18.8216 108.077 18.6443 108.255 18.3776H109.055ZM106.21 17.044H108.255C108.255 16.421 107.811 15.9771 107.277 15.9771C106.654 16.0657 106.299 16.421 106.21 17.044Z" fill="white"/>
<rect x="1" y="1" width="136" height="48" rx="24" stroke="#D0D5DD" stroke-width="2"/>
</svg>
