<svg width="76" height="76" viewBox="0 0 76 76" fill="none" xmlns="http://www.w3.org/2000/svg">
<rect width="76" height="76" rx="38" fill="#E3F5FF"/>
<path fill-rule="evenodd" clip-rule="evenodd" d="M44.9565 37.3043H44.2198C44.1016 36.2484 43.7154 35.2403 43.0977 34.3757L43.5548 33.9234C43.6521 33.8265 43.7293 33.7115 43.7821 33.5847C43.835 33.458 43.8623 33.3221 43.8626 33.1848C43.8629 33.0475 43.8361 32.9114 43.7838 32.7845C43.7316 32.6575 43.6548 32.5421 43.5579 32.4448C43.461 32.3475 43.346 32.2704 43.2192 32.2176C43.0925 32.1648 42.9566 32.1373 42.8193 32.1371C42.6819 32.1368 42.5459 32.1636 42.419 32.2159C42.292 32.2681 42.1766 32.3449 42.0793 32.4417L41.6216 32.9008C40.7575 32.2845 39.7504 31.8991 38.6957 31.7809V31.3913C38.6957 31.1146 38.5857 30.8492 38.39 30.6535C38.1943 30.4578 37.9289 30.3478 37.6522 30.3478C37.3754 30.3478 37.11 30.4578 36.9143 30.6535C36.7186 30.8492 36.6087 31.1146 36.6087 31.3913V31.8991C35.8072 32.0849 35.0497 32.4252 34.3784 32.9008L33.9207 32.4417C33.7242 32.2461 33.458 32.1365 33.1807 32.1371C32.9035 32.1376 32.6377 32.2483 32.4421 32.4448C32.2464 32.6413 32.1369 32.9075 32.1374 33.1848C32.138 33.4621 32.2487 33.7277 32.4452 33.9234L32.9023 34.3757C32.2846 35.2403 31.8984 36.2484 31.7802 37.3043H31.0435C30.7667 37.3043 30.5013 37.4144 30.3056 37.6101C30.1099 37.8057 30 38.0711 30 38.3478C30 38.6246 30.1099 38.8899 30.3056 39.0856C30.5013 39.2813 30.7667 39.3913 31.0435 39.3913H31.9005C32.0842 40.1943 32.4246 40.9532 32.9023 41.6243L32.4452 42.0766C32.3479 42.1735 32.2707 42.2885 32.2179 42.4153C32.165 42.542 32.1377 42.6779 32.1374 42.8152C32.1371 42.9525 32.1639 43.0886 32.2162 43.2155C32.2684 43.3425 32.3452 43.4579 32.4421 43.5552C32.539 43.6525 32.654 43.7296 32.7808 43.7824C32.9075 43.8353 33.0434 43.8627 33.1807 43.8629C33.3181 43.8632 33.4541 43.8364 33.581 43.7841C33.708 43.7319 33.8234 43.6551 33.9207 43.5583L34.3784 43.0992C35.0497 43.5749 35.8072 43.9151 36.6087 44.1009V44.6087C36.6087 44.8854 36.7186 45.1508 36.9143 45.3465C37.11 45.5422 37.3754 45.6522 37.6522 45.6522C37.9289 45.6522 38.1943 45.5422 38.39 45.3465C38.5857 45.1508 38.6957 44.8854 38.6957 44.6087V44.2191C39.7504 44.1009 40.7575 43.7155 41.6216 43.0992L42.0793 43.5583C42.1766 43.6551 42.292 43.7319 42.419 43.7841C42.5459 43.8364 42.6819 43.8632 42.8193 43.8629C42.9566 43.8627 43.0925 43.8353 43.2192 43.7824C43.346 43.7296 43.461 43.6525 43.5579 43.5552C43.6548 43.4579 43.7316 43.3425 43.7838 43.2155C43.8361 43.0886 43.8629 42.9525 43.8626 42.8152C43.8623 42.6779 43.835 42.542 43.7821 42.4153C43.7293 42.2885 43.6521 42.1735 43.5548 42.0766L43.0977 41.6243C43.5754 40.9532 43.9158 40.1943 44.0995 39.3913H44.9565C45.2333 39.3913 45.4987 39.2813 45.6944 39.0856C45.8901 38.8899 46 38.6246 46 38.3478C46 38.0711 45.8901 37.8057 45.6944 37.6101C45.4987 37.4144 45.2333 37.3043 44.9565 37.3043ZM38 42.1739C37.1745 42.1739 36.3675 41.9291 35.6811 41.4704C34.9947 41.0118 34.4597 40.36 34.1438 39.5973C33.8279 38.8346 33.7452 37.9953 33.9063 37.1856C34.0673 36.376 34.4649 35.6323 35.0486 35.0486C35.6323 34.4648 36.3761 34.0673 37.1857 33.9062C37.9954 33.7452 38.8346 33.8279 39.5973 34.1439C40.36 34.4598 41.0119 34.9946 41.4705 35.681C41.9291 36.3674 42.1739 37.1745 42.1739 38C42.1739 39.107 41.7341 40.1687 40.9514 40.9514C40.1686 41.7342 39.107 42.1739 38 42.1739ZM51.913 22H24.087C23.5335 22 23.0026 22.2199 22.6112 22.6112C22.2199 23.0026 22 23.5335 22 24.087V51.913C22 52.4665 22.2199 52.9974 22.6112 53.3888C23.0026 53.7801 23.5335 54 24.087 54H51.913C52.4665 54 52.9974 53.7801 53.3888 53.3888C53.7801 52.9974 54 52.4665 54 51.913V24.087C54 23.5335 53.7801 23.0026 53.3888 22.6112C52.9974 22.2199 52.4665 22 51.913 22ZM24.087 35.2174H26.1739V40.7826H24.087V35.2174ZM24.087 42.8696H28.2609V44.9565H24.087V42.8696ZM28.2609 47.0435C28.8144 47.0435 29.3452 46.8236 29.7366 46.4322C30.128 46.0409 30.3478 45.51 30.3478 44.9565V42.8696C30.3478 42.3161 30.128 41.7852 29.7366 41.3939C29.3452 41.0025 28.8144 40.7826 28.2609 40.7826V35.2174C28.8144 35.2174 29.3452 34.9975 29.7366 34.6061C30.128 34.2148 30.3478 33.6839 30.3478 33.1304V31.0435C30.3478 30.49 30.128 29.9591 29.7366 29.5678C29.3452 29.1764 28.8144 28.9565 28.2609 28.9565V28.2609H47.7391V47.7391H28.2609V47.0435ZM28.2609 31.0435V33.1304H24.087V31.0435H28.2609ZM51.913 51.913H24.087V47.0435H26.1739V47.7391C26.1739 48.2926 26.3938 48.8235 26.7852 49.2148C27.1765 49.6062 27.7074 49.8261 28.2609 49.8261H47.7391C48.2926 49.8261 48.8235 49.6062 49.2148 49.2148C49.6062 48.8235 49.8261 48.2926 49.8261 47.7391V28.2609C49.8261 27.7074 49.6062 27.1765 49.2148 26.7852C48.8235 26.3938 48.2926 26.1739 47.7391 26.1739H28.2609C27.7074 26.1739 27.1765 26.3938 26.7852 26.7852C26.3938 27.1765 26.1739 27.7074 26.1739 28.2609V28.9565H24.087V24.087H51.913V51.913Z" fill="#3296FF"/>
</svg>
