<svg width="111" height="96" viewBox="0 0 111 96" fill="none" xmlns="http://www.w3.org/2000/svg">
<path d="M96.7046 90.851L99.3134 104.921L5.51158 122.313L2.9028 108.243C2.42452 105.663 4.14374 103.161 6.7233 102.683L91.145 87.0305C93.7245 86.5522 96.2264 88.2714 96.7046 90.851Z" fill="#525252" stroke="#525252" stroke-width="7.15504" stroke-miterlimit="10" stroke-linecap="round" stroke-linejoin="round"/>
<path d="M19.3958 66.3741L10.0156 68.1133L16.1028 100.944L25.483 99.2047L19.3958 66.3741Z" fill="#525252"/>
<path d="M38.1566 62.8956L28.7764 64.6348L34.8635 97.4654L44.2437 95.7262L38.1566 62.8956Z" fill="#525252"/>
<path d="M56.9173 59.4171L47.5371 61.1562L53.6243 93.9869L63.0044 92.2477L56.9173 59.4171Z" fill="#525252"/>
<path d="M76.8304 55.6055L67.4502 57.3447L73.5373 90.1754L82.9175 88.4362L76.8304 55.6055Z" fill="#525252"/>
<path d="M82.2271 29.2553L36.8857 20.1973C35.8781 19.996 34.2835 20.2917 33.415 20.8408L-5.66527 45.5515C-7.18505 46.5125 -8.14175 48.6789 -7.8113 50.4611L-4.92425 66.0322C-4.44598 68.6118 -1.94412 70.331 0.635432 69.8527L85.0571 54.2C87.6366 53.7218 89.3559 51.2199 88.8776 48.6404L85.9905 33.0693C85.6601 31.287 83.9903 29.6076 82.2271 29.2553ZM40.6723 50.3012C36.7795 51.0229 33.0545 48.4632 32.3328 44.5704C31.611 40.6776 34.1707 36.9526 38.0635 36.2309C41.9563 35.5091 45.6813 38.0688 46.403 41.9616C47.1248 45.8544 44.5651 49.5794 40.6723 50.3012Z" fill="#525252"/>
</svg>
