<svg width="50" height="50" viewBox="0 0 50 50" fill="none" xmlns="http://www.w3.org/2000/svg">
<rect width="50" height="50" rx="25" fill="white" fill-opacity="0.2"/>
<path d="M16.7644 19.6672C17.3177 20.1558 17.6667 20.8705 17.6667 21.6667C17.6667 23.1395 16.4728 24.3334 15 24.3334C14.2038 24.3334 13.4891 23.9844 13.0005 23.4311M16.7644 19.6672C16.9219 19.6667 17.089 19.6667 17.2667 19.6667H32.7333C32.9109 19.6667 33.0781 19.6667 33.2356 19.6672M16.7644 19.6672C15.598 19.6708 14.9586 19.7013 14.456 19.9574C13.9543 20.213 13.5463 20.621 13.2907 21.1227C13.0346 21.6253 13.0041 22.2647 13.0005 23.4311M13.0005 23.4311C13 23.5886 13 23.7558 13 23.9334V31.4C13 31.5776 13 31.7448 13.0005 31.9023M13.0005 31.9023C13.4891 31.349 14.2038 31 15 31C16.4728 31 17.6667 32.1939 17.6667 33.6667C17.6667 34.4628 17.3177 35.1776 16.7644 35.6662M13.0005 31.9023C13.0041 33.0687 13.0346 33.708 13.2907 34.2107C13.5463 34.7124 13.9543 35.1204 14.456 35.376C14.9586 35.6322 15.598 35.6626 16.7644 35.6662M16.7644 35.6662C16.9219 35.6667 17.089 35.6667 17.2667 35.6667H32.7333C32.9109 35.6667 33.0781 35.6667 33.2356 35.6662M37 31.9028C36.5113 31.3492 35.7964 31 35 31C33.5272 31 32.3333 32.1939 32.3333 33.6667C32.3333 34.4628 32.6823 35.1776 33.2356 35.6662M37 31.9028C37.0005 31.7452 37 31.5779 37 31.4V23.9334C37 23.7558 37 23.5886 36.9995 23.4311M37 31.9028C36.9964 33.0688 36.9653 33.7082 36.7093 34.2107C36.4537 34.7124 36.0457 35.1204 35.544 35.376C35.0415 35.6322 34.402 35.6626 33.2356 35.6662M36.9995 23.4311C36.5109 23.9844 35.7961 24.3334 35 24.3334C33.5272 24.3334 32.3333 23.1395 32.3333 21.6667C32.3333 20.8705 32.6823 20.1558 33.2356 19.6672M36.9995 23.4311C36.9959 22.2647 36.9655 21.6253 36.7093 21.1227C36.4537 20.621 36.0457 20.213 35.544 19.9574C35.0415 19.7013 34.402 19.6708 33.2356 19.6672M19.6667 19.6667V18.6C19.6667 17.1066 19.6667 16.3598 19.9573 15.7894C20.213 15.2876 20.6209 14.8797 21.1227 14.624C21.6931 14.3334 22.4399 14.3334 23.9333 14.3334H26.0667C27.5601 14.3334 28.3069 14.3334 28.8773 14.624C29.3791 14.8797 29.7871 15.2876 30.0427 15.7894C30.3333 16.3598 30.3333 17.1066 30.3333 18.6V19.6667M27.6667 27.6667C27.6667 29.1395 26.4728 30.3334 25 30.3334C23.5272 30.3334 22.3333 29.1395 22.3333 27.6667C22.3333 26.1939 23.5272 25 25 25C26.4728 25 27.6667 26.1939 27.6667 27.6667Z" stroke="#FFA500" stroke-width="2" stroke-linecap="round" stroke-linejoin="round"/>
</svg>
