<svg width="18" height="18" viewBox="0 0 18 18" fill="none" xmlns="http://www.w3.org/2000/svg">
<path d="M14.25 11.25C12.5925 11.25 11.25 12.5925 11.25 14.25C11.25 14.8125 11.4075 15.345 11.685 15.795C12.2025 16.665 13.155 17.25 14.25 17.25C15.345 17.25 16.2975 16.665 16.815 15.795C17.0925 15.345 17.25 14.8125 17.25 14.25C17.25 12.5925 15.9075 11.25 14.25 11.25ZM15.8025 13.9275L14.205 15.405C14.1 15.5025 13.9575 15.555 13.8225 15.555C13.68 15.555 13.5375 15.5025 13.425 15.39L12.6825 14.6475C12.465 14.43 12.465 14.07 12.6825 13.8525C12.9 13.635 13.26 13.635 13.4775 13.8525L13.8375 14.2125L15.0375 13.1025C15.2625 12.8925 15.6225 12.9075 15.8325 13.1325C16.0425 13.3575 16.0275 13.71 15.8025 13.9275Z" fill="#008E10"/>
<path d="M16.5 5.6623V5.9998C16.5 6.4123 16.1625 6.7498 15.75 6.7498H2.25C1.8375 6.7498 1.5 6.4123 1.5 5.9998V5.6548C1.5 3.9373 2.8875 2.5498 4.605 2.5498H13.3875C15.105 2.5498 16.5 3.9448 16.5 5.6623Z" fill="#008E10"/>
<path d="M1.5 8.62518V12.3452C1.5 14.0627 2.8875 15.4502 4.605 15.4502H9.3C9.735 15.4502 10.11 15.0827 10.0725 14.6477C9.9675 13.5002 10.335 12.2552 11.355 11.2652C11.775 10.8527 12.2925 10.5377 12.855 10.3577C13.7925 10.0577 14.7 10.0952 15.5025 10.3652C15.99 10.5302 16.5 10.1777 16.5 9.66018V8.61768C16.5 8.20518 16.1625 7.86768 15.75 7.86768H2.25C1.8375 7.87518 1.5 8.21268 1.5 8.62518ZM6 12.9377H4.5C4.1925 12.9377 3.9375 12.6827 3.9375 12.3752C3.9375 12.0677 4.1925 11.8127 4.5 11.8127H6C6.3075 11.8127 6.5625 12.0677 6.5625 12.3752C6.5625 12.6827 6.3075 12.9377 6 12.9377Z" fill="#008E10"/>
</svg>
