<svg width="50" height="50" viewBox="0 0 50 50" fill="none" xmlns="http://www.w3.org/2000/svg">
<rect width="50" height="50" rx="25" fill="white" fill-opacity="0.2"/>
<path d="M22.3333 34.3333H17.2667C15.7732 34.3333 15.0265 34.3333 14.456 34.0426C13.9543 33.787 13.5463 33.379 13.2907 32.8773C13 32.3069 13 31.5601 13 30.0666V19.9333C13 18.4398 13 17.6931 13.2907 17.1227C13.5463 16.6209 13.9543 16.2129 14.456 15.9573C15.0265 15.6666 15.7732 15.6666 17.2667 15.6666H32.7333C34.2268 15.6666 34.9736 15.6666 35.544 15.9573C36.0457 16.2129 36.4537 16.6209 36.7093 17.1227C37 17.6931 37 18.4398 37 19.9333V20.3333M21 21.6666V20.3333M21 21.6666H23.6668M21 21.6666C19.5104 21.6666 18.3366 21.8348 18.3335 23.4433C18.3311 24.6437 18.3335 25 21.0001 25C23.6668 25 23.6668 25.274 23.6668 26.5556C23.6668 27.5186 23.6667 28.3333 21 28.3333M21 29.6666V28.3333M21 28.3333H18.3335M27.6667 22.3333H31.6667M27.6667 35.6666L30.3667 35.1266C30.602 35.0796 30.7197 35.056 30.8295 35.0129C30.9269 34.9748 31.0196 34.9252 31.1053 34.8653C31.2021 34.7978 31.2869 34.713 31.4568 34.5432L37 29C37.7364 28.2636 37.7364 27.0697 37 26.3333C36.2636 25.5969 35.0697 25.5969 34.3333 26.3333L28.7901 31.8765C28.6203 32.0464 28.5355 32.1312 28.468 32.228C28.4081 32.3137 28.3585 32.4064 28.3204 32.5038C28.2773 32.6136 28.2537 32.7313 28.2067 32.9666L27.6667 35.6666Z" stroke="#05E71E" stroke-width="2" stroke-linecap="round" stroke-linejoin="round"/>
</svg>
