<svg width="160" height="160" viewBox="0 0 160 160" fill="none" xmlns="http://www.w3.org/2000/svg">
<rect width="160" height="160" rx="80" fill="#B5E2C9"/>
<mask id="mask0_3738_46687" style="mask-type:alpha" maskUnits="userSpaceOnUse" x="0" y="0" width="160" height="160">
<circle cx="79.7377" cy="79.7377" r="79.7377" fill="#D9D9D9"/>
</mask>
<g mask="url(#mask0_3738_46687)">
<path d="M123.451 145.569C123.085 145.83 122.667 146.092 122.301 146.353C121.883 146.614 121.517 146.876 121.098 147.085C120.732 147.294 120.419 147.503 120.053 147.713C120 147.765 119.948 147.765 119.896 147.817C118.693 148.549 117.438 149.229 116.183 149.856C115.817 150.065 115.399 150.275 115.033 150.431C115.033 150.431 114.981 150.484 114.929 150.484C114.51 150.693 114.092 150.902 113.674 151.111C112.837 151.53 111.948 151.896 111.112 152.262C110.693 152.471 110.223 152.628 109.804 152.784C109.386 152.941 108.915 153.15 108.497 153.307C108.079 153.464 107.608 153.673 107.19 153.83C107.19 153.83 107.19 153.83 107.138 153.83C106.719 153.987 106.249 154.144 105.831 154.301C104.889 154.614 103.896 154.928 102.955 155.242C102.641 155.347 102.275 155.451 101.961 155.556C100.968 155.869 99.9743 156.131 98.9809 156.34C98.6148 156.445 98.2488 156.497 97.8305 156.601C96.8894 156.811 95.8959 157.02 94.9547 157.229C94.7456 157.281 94.5887 157.281 94.3795 157.333C94.0658 157.386 93.6998 157.438 93.3861 157.49C92.9155 157.543 92.4972 157.647 92.0266 157.699C91.8175 157.752 91.6083 157.752 91.3992 157.804C91.1377 157.856 90.824 157.909 90.5103 157.909C89.6737 158.013 88.7848 158.118 87.9482 158.222C87.6867 158.275 87.373 158.275 87.1116 158.327H87.0593C86.6933 158.379 86.3273 158.379 85.9612 158.431C85.5952 158.484 85.2292 158.484 84.8632 158.484C84.6541 158.484 84.3926 158.536 84.1835 158.536C83.7652 158.536 83.3992 158.588 83.0331 158.588C82.5103 158.588 82.0397 158.641 81.5168 158.641C80.9939 158.641 80.5233 158.641 80.0005 158.641C79.6344 158.641 79.2684 158.641 78.9024 158.641C56.8371 158.327 37.0201 148.967 22.8501 134.118C22.8501 134.118 22.8501 134.065 22.7979 134.065C21.2292 132.654 22.5887 125.124 28.9155 120.366C36.8632 114.353 55.8959 110.588 55.8959 110.588C55.8959 110.588 63.2684 109.386 90.6148 115.085C106.615 118.431 118.798 123.294 125.595 136.471C127.007 139.19 128.419 143.373 123.451 145.569Z" fill="white"/>
<path d="M90.7715 114.51C100.811 116.549 111.53 118.745 119.791 125.386C122.562 127.634 124.392 130.928 125.909 134.118C126.641 135.687 127.373 137.307 127.948 139.033C128.262 140.183 128.732 141.49 128.471 142.85C128.419 143.216 128.105 143.687 127.843 143.948C126.641 145.151 125.334 145.883 124.026 146.824C116.34 152.157 107.503 155.922 98.3532 157.909C77.961 162.353 55.8956 158.902 37.961 148.183C32.0002 144.575 26.51 140.183 21.8041 135.007C21.2812 134.379 21.2812 133.334 21.2812 132.654C21.3335 131.085 21.7518 129.569 22.2747 128.157C23.5296 124.915 25.1505 121.673 27.9218 119.425C29.9087 118.066 32.0525 116.915 34.2486 115.974C41.1505 113.046 48.4185 111.007 55.8956 110.17C56.5231 110.118 56.6277 111.007 56.0002 111.111C48.8368 112.575 41.7257 114.771 35.0852 117.752C32.6799 118.955 30.1179 120 28.1832 121.883C26.3531 123.87 25.046 126.327 24.0002 128.837C23.3205 130.353 22.8499 132.758 23.059 133.961C26.3531 137.883 30.2224 141.334 34.4054 144.314C57.3074 160.314 92.0786 161.36 116.445 148.026C118.641 146.824 120.785 145.464 122.824 144.053C123.817 143.373 124.863 142.798 125.647 142.013C125.7 141.961 125.647 142.013 125.647 142.066C125.647 142.118 125.595 142.17 125.595 142.17C125.647 141.543 125.438 140.706 125.177 139.87C124.236 136.837 122.719 133.647 121.098 130.876C118.536 126.745 114.196 124.131 109.804 122.039C106.771 120.628 103.582 119.53 100.34 118.484C97.0982 117.438 93.8041 116.549 90.51 115.765C89.6734 115.556 89.9349 114.353 90.7715 114.51Z" fill="black"/>
<path d="M140.811 177.987H8.57617C8.57617 177.987 10.72 156.444 18.8768 139.242C21.8572 132.967 22.8507 123.765 28.7592 119.739C34.8245 115.608 47.7396 112.314 52.2363 111.791C54.7461 111.477 54.1709 111.268 55.9487 110.797C56.5239 112.366 62.3278 127.739 76.2363 133.386C88.2102 138.248 95.3213 135.007 96.4193 129.621C97.099 126.17 94.9552 120.523 93.8572 118.693C93.2298 118.17 92.8115 117.386 92.6023 116.601L92.184 114.876C93.1252 114.667 94.0141 114.405 94.9552 114.144C95.4258 114.248 95.9487 114.196 96.367 114.457C100.759 116.863 113.988 120.261 120.89 127.529C123.609 130.353 127.844 140.392 128.524 146.928C130.459 164.863 140.811 177.987 140.811 177.987Z" fill="white"/>
<path d="M141.543 178.301C102.328 178.405 47.2687 178.876 8.62816 178.719C8.15757 178.719 7.79156 178.301 7.84385 177.83C8.31444 174.118 8.94189 170.51 9.67391 166.85C11.6086 156.863 14.5367 147.033 18.9288 137.883C20.7066 133.595 21.5955 129.098 23.7393 124.915C24.9942 122.405 26.8765 120 29.3863 118.588C33.4125 116.183 37.8569 114.667 42.3014 113.307C44.968 112.523 47.687 111.791 50.4059 111.268C51.7654 110.954 53.1249 111.007 54.3798 110.484C55.0595 110.222 56.3667 109.438 56.785 110.432C60.602 120.314 67.9746 129.673 78.2752 133.177C83.6086 135.111 92.8635 136.732 95.5824 130.196C96.419 127.739 95.6347 125.072 94.9027 122.615C94.4844 121.36 93.9615 120.052 93.334 119.007L93.4909 119.164C92.5497 118.379 92.0269 117.124 91.87 115.974L91.6086 114.928C91.504 114.51 91.7654 114.092 92.1837 113.987C93.1249 113.83 94.0661 113.517 95.0072 113.255C95.5301 113.255 96.3667 113.36 97.0465 113.726C102.798 116.392 109.334 118.327 114.824 121.673C117.909 123.503 121.046 125.647 123.033 128.732C126.694 134.85 129.046 141.804 129.726 148.863C131.19 158.954 135.269 168.628 141.125 176.941L141.334 177.203L141.439 177.307L141.491 177.36C141.491 177.36 141.491 177.307 141.543 177.464C141.595 177.778 141.595 178.144 141.543 178.301ZM140.131 177.621C140.027 177.778 140.027 178.144 140.131 178.301C140.236 178.405 140.184 178.353 140.184 178.353L140.131 178.301L140.027 178.144L139.818 177.883C136.524 172.863 133.805 167.477 131.818 161.883C130.249 157.752 129.099 153.464 128.471 149.072C128.262 147.503 128.001 145.412 127.635 143.896C126.432 138.876 124.497 133.856 121.726 129.517C120.837 128.105 119.53 127.007 118.223 125.961C114.092 122.824 109.229 120.889 104.419 119.007L99.504 117.177C97.8831 116.549 95.9484 115.869 94.955 114.876H95.3733C94.4321 115.19 93.4909 115.451 92.5497 115.66L93.1249 114.719L93.3863 115.765C93.5955 116.706 93.8046 117.543 94.5367 118.17C94.589 118.222 94.6412 118.275 94.6935 118.327C96.1053 120.889 96.9419 123.556 97.3602 126.432C98.2491 131.399 95.1118 135.32 90.3014 136.262C83.6608 137.569 75.7131 134.693 70.2229 130.981C63.321 126.118 58.3537 118.902 55.321 111.111L56.2622 111.582C55.7916 111.739 55.4778 111.896 55.0072 112.105C54.5367 112.366 53.9615 112.523 53.4386 112.628C53.4909 112.941 53.334 112 53.5432 113.255C52.5497 113.36 51.7654 113.412 50.8242 113.621C48.1576 114.039 45.4909 114.667 42.8765 115.399C39.3733 116.34 35.9223 117.49 32.6805 119.007C31.0595 119.791 29.4909 120.628 28.2883 121.726C27.0334 122.824 26.0399 124.288 25.2033 125.856C22.7458 130.615 21.5432 136.314 19.0334 141.124C13.8046 152.785 10.8765 165.49 9.46476 178.196L8.68045 177.36C46.6412 177.203 101.543 177.412 140.131 177.621Z" fill="black"/>
<path d="M98.3534 143.791C96.5233 144.314 90.1442 137.674 88.8371 136.523C87.6344 137.883 79.1639 147.451 74.9808 146.824C70.3795 146.144 58.6148 138.249 52.654 125.857C49.3599 119.059 49.2554 114.928 49.6214 112.68C49.7782 111.634 50.092 110.955 50.2488 110.589C50.7717 109.386 54.5364 104.732 55.4776 104.785V104.837C55.9482 109.857 57.5691 114.719 60.288 118.955C63.6344 124.131 68.9155 130.353 76.288 133.334C88.2619 138.196 94.4841 133.386 95.5299 128C96.2096 124.549 95.007 120.471 93.909 118.641C93.2815 118.118 92.8632 117.334 92.6541 116.549L92.2357 114.824C93.1769 114.615 94.0658 114.353 95.007 114.092C95.2684 113.987 95.5822 113.935 95.8436 113.83C96.0005 114.04 96.2096 114.249 96.3665 114.458C98.5625 116.968 100.863 120.419 102.118 126.275C104.21 135.634 100.393 143.164 98.3534 143.791Z" fill="black"/>
<path d="M88.6807 136.209C88.6807 136.209 92.4977 138.406 92.3931 140.236C92.2885 142.066 93.3865 147.87 93.3865 147.87" stroke="black" stroke-width="3" stroke-miterlimit="10" stroke-linecap="round" stroke-linejoin="round"/>
<path d="M88.6279 143.164C89.321 143.164 89.8828 142.602 89.8828 141.909C89.8828 141.216 89.321 140.654 88.6279 140.654C87.9349 140.654 87.373 141.216 87.373 141.909C87.373 142.602 87.9349 143.164 88.6279 143.164Z" fill="black"/>
<path d="M89.0459 148.079C89.739 148.079 90.3008 147.517 90.3008 146.824C90.3008 146.131 89.739 145.569 89.0459 145.569C88.3529 145.569 87.791 146.131 87.791 146.824C87.791 147.517 88.3529 148.079 89.0459 148.079Z" fill="black"/>
<path d="M34.4584 177.987L32.1055 158.588" stroke="#544D4D" stroke-width="3" stroke-miterlimit="10" stroke-linecap="round" stroke-linejoin="round"/>
<path d="M125.804 152C125.804 152 124.236 155.817 124.706 159.634C125.177 163.451 126.536 169.046 124.602 177.987" stroke="#544D4D" stroke-width="3" stroke-miterlimit="10" stroke-linecap="round" stroke-linejoin="round"/>
<path d="M55.4774 104.785C55.4774 104.785 72.3663 99.5558 95.8957 113.778C95.8957 113.778 102.379 131.242 98.3533 133.909C94.3271 136.575 81.6735 136.837 72.8369 133.909C63.948 131.033 52.5493 116.654 55.4774 104.785Z" fill="black"/>
<path d="M95.686 128.419C94.588 133.804 87.4769 137.046 75.503 132.183C63.0586 127.164 57.673 115.19 56.3135 111.634C63.686 97.8303 58.5618 88.2617 58.5618 88.2617C75.5553 86.7976 90.405 106.667 90.405 106.667L92.7056 116.497C92.9148 117.334 93.3331 118.066 93.9605 118.588C95.0586 120.523 96.3658 124.968 95.686 128.419Z" fill="white"/>
<path d="M56.0523 111.791C57.0458 110.275 57.6732 108.497 58.0915 106.772C58.8758 103.164 59.1373 99.5035 59.1896 95.8434V94.4839C59.0327 93.1244 58.5621 91.7127 58.0392 90.4578C57.3595 88.7846 59.817 87.7388 60.6013 89.412C60.7059 89.6212 60.7059 89.9872 60.7059 90.1963C60.8628 97.3075 61.1765 106.458 56.6798 112.366C56.366 112.68 55.7386 112.209 56.0523 111.791Z" fill="black"/>
<path d="M90.9807 106.562C91.765 107.033 92.0265 107.66 92.131 108.288C92.4448 109.543 92.3402 110.902 92.6539 112.209C92.9153 113.464 93.6997 114.667 93.9088 115.974C94.1703 117.334 94.9546 120.209 95.2683 121.621C95.3729 121.935 95.1637 122.301 94.7977 122.353C94.5886 122.406 94.4317 122.353 94.2748 122.249C93.5951 121.674 93.2814 121.098 92.8631 120.366C92.1833 119.111 91.7127 117.961 91.2944 116.549C90.9284 115.294 91.0853 113.935 90.7716 112.628C90.5101 111.373 89.7781 110.17 89.5166 108.863C89.3598 108.236 89.3075 107.556 89.7781 106.772C90.0918 106.458 90.6147 106.353 90.9807 106.562Z" fill="black"/>
<path d="M94.7448 120.366C84.7579 119.843 76.601 116.706 68.6533 102.536C75.3461 108.445 83.2416 110.693 91.5553 111.739L92.6533 116.549C92.8625 117.386 94.1174 119.843 94.7448 120.366Z" fill="black"/>
<path d="M94.3268 118.432C96.1046 121.778 97.1504 125.961 96.0523 129.674C95.2157 132.288 92.8105 134.223 90.1961 134.955C84.1308 136.576 77.1242 134.014 71.7386 131.138C65.0981 127.425 60.183 121.203 57.0458 114.406C56.8366 113.883 57.5687 113.464 57.8824 113.987C58.9804 116.183 60.2353 118.327 61.6471 120.262C63.0589 122.249 64.6798 124.079 66.5098 125.7C71.8432 130.51 79.0589 133.491 86.2745 133.491C93.6994 133.281 96.5229 129.36 94.7974 122.144C94.536 120.994 94.1177 119.791 93.5425 118.798C93.2288 118.38 94.0131 117.909 94.3268 118.432Z" fill="black"/>
<path d="M114.562 55.634C115.503 60.0262 114.771 62.9543 114.353 75.085C113.934 87.0066 110.483 103.843 106.248 108.078C103.006 111.268 92.601 113.778 83.3461 111.425C78.6402 110.222 74.6663 107.503 71.4245 105.569C67.3461 103.111 63.7905 95.5295 60.8624 90.6667C58.5617 86.8497 58.7709 91.451 55.7905 88.1569C51.6598 83.6602 46.6925 74.6144 49.15 58.6144C53.1238 32.6798 73.6729 29.6471 88.8885 32.5229C104.209 35.3987 112.052 44.0785 114.562 55.634Z" fill="white"/>
<path d="M58.4055 92.7584C57.2029 90.7715 55.6342 88.9937 54.2225 87.1114C52.131 84.2356 50.5623 80.9414 49.5166 77.5427C44.9676 63.0068 47.7388 43.9741 61.4905 35.399C73.9872 27.4512 98.2486 30.3271 108.392 41.2029C112.209 45.1244 114.667 50.2486 115.713 55.582C115.765 55.8957 115.922 56.4709 115.974 56.7846C116.026 57.046 116.183 57.3597 116.131 57.6735C116.026 58.8238 115.817 59.9741 115.713 61.1244C114.928 68.0787 115.138 75.1898 114.249 82.1441C113.464 89.4643 112.419 96.7846 110.222 103.843C109.543 105.987 108.236 107.922 106.51 109.334C102.641 112.575 97.5689 113.673 92.7061 113.883C82.9807 114.353 73.0983 110.902 67.4512 102.693C67.2421 102.379 67.6604 102.013 67.9218 102.327C72.6277 107.399 79.0068 110.641 85.8042 111.373C93.3336 112.262 104.68 111.582 107.974 103.53C111.791 92.131 113.778 80.0525 113.987 68.0787C113.987 65.1506 113.83 62.2225 113.83 59.2421C113.83 58.8761 113.883 58.0395 113.883 57.6735C113.883 57.6212 113.883 57.6735 113.883 57.6735C113.883 57.7258 113.883 57.7258 113.883 57.6735C113.464 56.6277 113.307 55.4774 112.994 54.4316C111.843 50.0918 109.752 45.961 106.771 42.6669C96.8891 31.582 74.8761 28.8107 62.5362 37.1244C52.7584 43.6081 50.144 56.0525 49.4643 67.0329C48.8891 75.2421 51.2944 83.2944 57.5166 88.9414L59.9741 91.5035C61.0199 92.6539 59.2421 94.0133 58.4055 92.7584Z" fill="black"/>
<path d="M64.5754 76.1308C64.5754 76.1308 62.9545 68.2876 55.3205 69.2288C48.7322 70.0654 46.4316 85.8563 61.3858 90.2484" fill="white"/>
<path d="M60.706 83.3989C59.5034 82.7192 58.6668 81.5689 58.6145 80.1571C58.6668 79.1114 58.8237 77.9087 58.5622 76.863C58.4054 75.8695 57.3596 75.6081 56.5753 75.6604C55.7387 75.8172 55.2158 76.863 55.059 77.6996C55.059 77.7519 55.0067 77.9087 55.0067 77.961C54.9544 78.2225 54.5361 78.2225 54.4315 77.961C53.7518 75.9218 55.2681 73.6735 57.4642 73.9349C60.5491 74.144 60.9674 77.3859 60.3923 79.8434C60.0786 80.8891 60.4969 81.8303 61.072 82.7192L61.1766 82.8761C61.438 83.1898 61.0197 83.6081 60.706 83.3989Z" fill="black"/>
<path d="M102.537 70.5887C103.321 74.3011 104.785 77.7521 106.615 80.9939C108.236 84.9677 104.053 88.7324 100.341 88.5756C99.9222 88.5756 99.87 88.0004 100.236 87.8959C102.589 87.1638 104.733 85.5952 105.099 83.19C105.256 82.4579 105.046 81.8305 104.68 81.203C102.955 77.9612 101.909 74.2488 102.171 70.5887C102.171 70.3272 102.537 70.3272 102.537 70.5887Z" fill="black"/>
<path d="M64.3143 76.1832C63.1117 73.0983 60.4973 70.1702 56.9941 70.2225C56.6803 70.1702 56.1575 70.2747 55.8437 70.2747C54.9548 70.327 54.2228 70.6408 53.5431 71.2682C50.1967 74.6146 50.7718 80.5231 53.4908 84.2355C54.432 85.5427 55.6346 86.693 56.9941 87.6342C58.3535 88.5754 59.8699 89.3074 61.4908 89.9349C61.8568 90.0394 61.6999 90.6146 61.3339 90.5623C57.8307 89.8303 54.4843 88.1048 52.1836 85.229C48.628 80.9414 47.896 73.778 52.1313 69.595C53.0725 68.7584 54.3797 68.131 55.6869 68.131C56.1052 68.131 56.7326 68.0264 57.1509 68.131C59.347 68.2355 61.4385 69.3336 62.798 71.0591C64.0006 72.5231 64.6803 74.3009 64.8895 76.0787C64.8895 76.3924 64.4189 76.497 64.3143 76.1832Z" fill="black"/>
<path d="M98.562 93.804C95.2156 96.9936 88.8888 94.4315 87.2156 90.5622C87.0064 90.0916 87.5293 89.6733 87.9476 89.8825C88.8365 90.353 89.6208 90.8236 90.4574 91.1896C92.8626 92.2877 95.3724 93.1766 98.0391 92.9151C98.562 92.8106 98.928 93.438 98.562 93.804Z" fill="#040404"/>
<path d="M90.7192 65.0456C91.8695 65.2025 92.7584 63.9998 92.3401 62.8495C92.131 62.2221 91.7649 61.6469 91.1898 61.2809C89.412 60.1829 82.7715 60.0783 79.2682 62.5881C76.131 64.8887 85.4904 64.3136 90.7192 65.0456Z" fill="black"/>
<path d="M105.203 65.6207C104.261 65.6207 103.686 64.4181 104.157 63.4246C104.418 62.9017 104.784 62.4311 105.307 62.1697C106.928 61.3854 111.268 61.856 113.203 64.5226C114.928 66.8756 109.542 65.5684 105.203 65.6207Z" fill="black"/>
<path d="M88.785 71.7906C86.1183 70.6403 83.0857 70.954 80.3144 71.5815C80.0007 71.6861 79.7916 71.2678 80.053 71.0586C82.4582 69.0717 87.0072 68.8102 88.9419 71.5292C89.0987 71.6338 88.9942 71.8429 88.785 71.7906Z" fill="black"/>
<path d="M109.334 72.8886C108.079 71.9997 106.249 72.1566 104.785 72.3134C104.262 72.3657 103.739 72.4703 103.164 72.6272C103.007 72.6794 102.85 72.418 102.955 72.3134L103.059 72.2089C104.367 70.8494 106.406 70.5357 108.184 71.2154C108.811 71.4768 109.438 71.8429 109.752 72.5749C109.909 72.8363 109.543 73.0977 109.334 72.8886Z" fill="black"/>
<path d="M113.205 85.0719C113.309 88.1569 113.466 90.1438 113.466 90.1438L119.375 88.5229C119.375 88.5229 117.597 78.2745 118.486 69.4379C120.211 52.7059 118.486 48 118.486 48C117.597 43.6602 114.721 39.7909 108.342 38.6405C106.407 37.4379 104.263 36.4968 101.91 35.7124C93.4922 32.7321 74.9824 26.5098 60.7602 35.8693C46.5379 45.2288 46.0151 62.6405 44.0804 74.2484C42.1458 85.8562 29.4922 94.3268 29.4922 94.3268L32.4203 98.5098C33.9889 99.6602 38.2242 94.4837 38.904 94.3268C39.5837 94.17 35.087 99.6079 35.087 99.6079C36.2373 104.261 41.1523 106.98 41.1523 106.98C41.1523 106.98 48.7863 102.065 47.2177 104.314C45.649 106.562 42.7209 108.34 42.7209 108.34C42.7209 108.34 50.3549 115.085 53.4922 114.51C56.6294 113.935 61.1262 106.771 60.7602 108.34C60.4464 109.909 57.8843 115.66 57.8843 115.66L62.0151 118.013C75.0347 113.83 64.6817 97.4118 72.1066 87.3203C79.4791 77.2288 70.0673 71.8432 75.9758 68.4968C77.4922 67.6079 78.9562 66.6667 80.2634 65.6209L88.734 67.085C88.734 67.085 94.2242 66.9804 92.6556 56C92.0804 51.9739 93.4399 47.6863 93.9628 46.2745C94.0151 46.2745 94.0151 46.2745 94.0673 46.2745C93.8582 47.6863 93.4922 51.8693 94.6948 57.2549C96.368 64.8366 91.1392 67.7647 91.1392 67.7647L96.4203 69.4379C101.806 66.7713 97.466 58.2484 96.4203 51.451C96.1066 49.2549 96.5249 47.8954 97.2569 47.1111C100.917 48.2092 103.27 49.4641 103.479 48.366C112.107 50.5098 112.211 61.8562 112.473 62.17C112.368 64.2615 112.107 67.817 112.054 72.4183C112.054 74.5621 112.263 78.6928 112.107 81.0981C111.95 84.0262 111.688 86.7451 111.27 89.4641C110.486 93.6471 109.283 98.0392 107.558 100.758C104.107 106.144 101.388 110.693 96.4203 112.993C91.5053 115.242 85.9105 115.712 85.9105 115.712C85.9105 115.712 87.4791 116.706 91.1915 116.915C94.9039 117.124 97.5706 115.66 100.29 115.242C103.009 114.771 109.231 116.497 109.231 116.497C109.91 115.294 109.44 110.85 110.12 111.739C110.799 112.627 110.695 116.497 110.695 116.497L116.29 117.49C117.492 114.667 117.649 109.647 117.649 109.647C117.649 108.81 117.597 107.974 117.544 107.033C116.656 98.1438 113.152 96.6275 113.205 85.0719Z" fill="black"/>
<path d="M91.5033 82.4051C89.0981 82.4573 81.6732 82.5096 79.3726 82.5619C75.3987 82.6142 72.4183 79.1632 72.7843 75.2417C72.8366 73.9345 72.7843 72.1044 72.8366 70.7972C72.9412 67.3985 75.9739 64.5227 79.3726 64.6273L88.2092 64.7319C88.8889 64.7319 90.8235 64.7841 91.5033 64.7841C94.3268 64.7319 96.9935 66.8234 97.6209 69.5946C97.8301 70.3789 97.7778 71.2155 97.7778 71.8953V76.3397C97.7255 79.6338 94.7974 82.4573 91.5033 82.4051ZM91.5033 81.2547C94.2222 81.3593 96.732 79.0064 96.7843 76.2874C96.8366 74.8756 96.7843 73.3593 96.7843 71.8953C97.0981 68.7057 94.6928 65.7776 91.451 65.8822C89.2026 65.9345 81.6732 65.9868 79.3203 66.039C76.4967 66.039 74.0915 68.6011 74.3007 71.4247C74.3007 71.7907 74.3007 72.7319 74.3007 73.0979C74.353 74.2482 74.1961 76.2351 74.4575 77.2809C74.9804 79.477 77.0719 81.1502 79.3203 81.1502H80.4183C81.9347 81.1502 89.9347 81.2547 91.5033 81.2547Z" fill="black"/>
<path d="M112.575 66.1439L108.444 66.1961C107.294 66.2484 105.934 66.0393 104.941 66.719C104 67.3465 103.581 68.4968 103.634 69.5948C103.634 70.9543 103.634 72.3661 103.581 73.7256L103.529 73.5164C104.261 76.0785 105.254 78.536 106.771 80.6798L106.248 80.3661C106.666 80.4707 107.398 80.4707 107.817 80.4707C109.385 80.5229 111.215 80.6275 112.784 80.6275C114.248 80.6275 115.66 79.5295 115.973 78.0654C116.078 77.6471 116.078 76.9151 116.078 76.4968C116.078 74.2484 116.13 72.0524 116.026 69.804C116.13 67.8171 114.614 66.0393 112.575 66.1439ZM112.575 64.5752C115.346 64.5752 117.281 67.2419 116.81 69.8563C116.705 72.1046 116.758 74.3007 116.758 76.5491C117.019 79.1635 115.451 81.5164 112.732 81.7256C111.581 81.7778 110.483 81.7778 109.385 81.8301C108.81 81.8301 107.398 81.9347 106.875 81.9347C106.614 81.987 106.196 81.9347 105.934 81.9347C105.725 81.9347 105.516 81.7779 105.411 81.621C103.79 79.2158 102.64 76.5491 101.96 73.7778C101.96 72.0001 101.803 70.2223 101.96 68.4445C102.274 66.353 104.156 64.5752 106.3 64.5229C107.764 64.4707 111.111 64.5752 112.575 64.5752Z" fill="black"/>
<path d="M97.2021 69.3858C98.6139 68.7584 100.183 68.4969 101.751 68.6015C102.274 68.6538 102.797 68.8107 103.268 69.229L103.947 69.8041C104.627 70.3793 103.79 71.3728 103.111 70.7976C102.274 70.0656 101.281 70.1701 100.287 70.2224C99.2937 70.327 98.3525 70.5362 97.4113 70.9022C96.5224 71.2682 95.9473 69.961 96.7839 69.5427L97.2021 69.3858Z" fill="black"/>
<path d="M73.6731 71.2678C73.3071 72.1044 72.8888 72.209 72.2091 72.1567L70.6927 72.209C67.66 72.209 64.5751 72.1567 61.5424 71.6861C60.4966 71.6339 60.4444 70.1698 61.4901 70.1175L73.6208 69.6992C73.9868 69.6992 74.2483 70.0652 74.0914 70.379L73.6731 71.2678Z" fill="black"/>
<path d="M150.693 44.0785C182.431 105.203 126.64 174.17 60.1304 157.333C30.2742 149.909 6.2742 124.026 1.30688 93.6471C-4.34018 63.4249 9.30688 30.9543 34.8232 13.8563C69.8036 -10.196 118.274 -2.19602 143.32 32.2092C143.477 32.3661 143.425 32.6275 143.215 32.7844C143.059 32.9412 142.797 32.889 142.64 32.6798C139.189 28.2354 135.268 24.2092 130.98 20.6014C123.921 14.5883 115.66 9.88241 106.928 6.69287C62.4833 -9.41171 13.699 17.3595 3.97355 63.8432C-7.00685 115.922 37.2807 163.869 90.0912 156.706C130.823 151.582 161.098 113.987 157.751 73.0981C157.019 63.2157 154.405 53.438 150.065 44.4445C149.96 44.2876 150.065 44.0785 150.222 43.9739C150.379 43.8693 150.588 43.9216 150.693 44.0785Z" fill="black"/>
</g>
</svg>
