<svg width="160" height="160" viewBox="0 0 160 160" fill="none" xmlns="http://www.w3.org/2000/svg">
<rect width="160" height="160" rx="80" fill="#6944FF"/>
<mask id="mask0_3738_46688" style="mask-type:alpha" maskUnits="userSpaceOnUse" x="0" y="0" width="160" height="160">
<circle cx="79.7377" cy="79.7377" r="79.7377" fill="#D9D9D9"/>
</mask>
<g mask="url(#mask0_3738_46688)">
<path d="M123.451 145.569C123.085 145.83 122.667 146.092 122.301 146.353C121.883 146.614 121.517 146.876 121.098 147.085C120.732 147.294 120.419 147.503 120.053 147.713C120 147.765 119.948 147.765 119.896 147.817C118.693 148.549 117.438 149.229 116.183 149.856C115.817 150.065 115.399 150.275 115.033 150.431C115.033 150.431 114.981 150.484 114.929 150.484C114.51 150.693 114.092 150.902 113.674 151.111C112.837 151.53 111.948 151.896 111.112 152.262C110.693 152.471 110.223 152.628 109.804 152.784C109.386 152.941 108.915 153.15 108.497 153.307C108.079 153.464 107.608 153.673 107.19 153.83C107.19 153.83 107.19 153.83 107.138 153.83C106.719 153.987 106.249 154.144 105.831 154.301C104.889 154.614 103.896 154.928 102.955 155.242C102.641 155.347 102.275 155.451 101.961 155.556C100.968 155.869 99.9743 156.131 98.9809 156.34C98.6148 156.445 98.2488 156.497 97.8305 156.601C96.8894 156.811 95.8959 157.02 94.9547 157.229C94.7456 157.281 94.5887 157.281 94.3795 157.333C94.0658 157.386 93.6998 157.438 93.3861 157.49C92.9155 157.543 92.4972 157.647 92.0266 157.699C91.8175 157.752 91.6083 157.752 91.3992 157.804C91.1377 157.856 90.824 157.909 90.5103 157.909C89.6737 158.013 88.7848 158.118 87.9482 158.222C87.6867 158.275 87.373 158.275 87.1116 158.327H87.0593C86.6933 158.379 86.3273 158.379 85.9612 158.431C85.5952 158.484 85.2292 158.484 84.8632 158.484C84.6541 158.484 84.3926 158.536 84.1835 158.536C83.7652 158.536 83.3992 158.588 83.0331 158.588C82.5103 158.588 82.0397 158.641 81.5168 158.641C80.9939 158.641 80.5233 158.641 80.0005 158.641C79.6344 158.641 79.2684 158.641 78.9024 158.641C56.8371 158.327 37.0201 148.967 22.8501 134.118C22.8501 134.118 22.8501 134.065 22.7979 134.065C21.2292 132.654 22.5887 125.124 28.9155 120.366C36.8632 114.353 55.8959 110.588 55.8959 110.588C55.8959 110.588 63.2684 109.386 90.6148 115.085C106.615 118.431 118.798 123.294 125.595 136.471C127.007 139.19 128.419 143.373 123.451 145.569Z" fill="white"/>
<path d="M90.7715 114.51C100.811 116.549 111.53 118.745 119.791 125.386C122.562 127.634 124.392 130.928 125.909 134.118C126.641 135.687 127.373 137.307 127.948 139.033C128.262 140.183 128.732 141.49 128.471 142.85C128.419 143.216 128.105 143.687 127.843 143.948C126.641 145.151 125.334 145.883 124.026 146.824C116.34 152.157 107.503 155.922 98.3532 157.909C77.961 162.353 55.8956 158.902 37.961 148.183C32.0002 144.575 26.51 140.183 21.8041 135.007C21.2812 134.379 21.2812 133.334 21.2812 132.654C21.3335 131.085 21.7518 129.569 22.2747 128.157C23.5296 124.915 25.1505 121.673 27.9218 119.425C29.9087 118.066 32.0525 116.915 34.2486 115.974C41.1505 113.046 48.4185 111.007 55.8956 110.17C56.5231 110.118 56.6277 111.007 56.0002 111.111C48.8368 112.575 41.7257 114.771 35.0852 117.752C32.6799 118.955 30.1179 120 28.1832 121.883C26.3531 123.87 25.046 126.327 24.0002 128.837C23.3205 130.353 22.8499 132.758 23.059 133.961C26.3531 137.883 30.2224 141.334 34.4054 144.314C57.3074 160.314 92.0786 161.36 116.445 148.026C118.641 146.824 120.785 145.464 122.824 144.053C123.817 143.373 124.863 142.798 125.647 142.013C125.7 141.961 125.647 142.013 125.647 142.066C125.647 142.118 125.595 142.17 125.595 142.17C125.647 141.543 125.438 140.706 125.177 139.87C124.236 136.837 122.719 133.647 121.098 130.876C118.536 126.745 114.196 124.131 109.804 122.039C106.771 120.628 103.582 119.53 100.34 118.484C97.0982 117.438 93.8041 116.549 90.51 115.765C89.6734 115.556 89.9349 114.353 90.7715 114.51Z" fill="black"/>
<path d="M141.7 178.196L9.25586 175.268C17.4127 148.026 21.9617 124.026 28.0794 120.366C39.6872 113.411 50.1447 112.313 56.367 111.738C57.9356 115.608 63.8964 128.313 76.2885 133.333C88.2624 138.196 95.3735 134.954 96.4715 129.568C97.1513 126.117 95.0075 120.47 93.9095 118.64C93.282 118.117 92.8637 117.333 92.6545 116.549L92.2362 114.823C93.1251 114.614 94.014 114.405 94.9029 114.091C104.419 115.764 118.851 123.608 121.936 128C125.648 133.281 130.772 146.51 130.563 153.778C130.249 165.595 141.7 178.196 141.7 178.196Z" fill="white"/>
<path d="M142.955 178.771C103.53 178.196 48.1051 177.621 9.25543 176.627C8.52341 176.627 7.94824 176 7.94824 175.268C12.1835 160.993 15.5822 146.614 20.1312 132.392C20.7064 130.614 21.3339 128.889 22.0659 127.111C23.3208 124.34 24.5757 121.255 27.1901 119.372C28.7064 118.484 30.3273 117.595 31.896 116.81C39.4777 113.046 47.896 111.111 56.262 110.431C56.8894 110.379 57.4123 110.745 57.6214 111.268C61.5953 120.784 68.811 129.621 78.9025 132.915C83.8698 134.64 92.7064 136.104 95.0593 129.935C95.8437 126.954 94.6933 123.817 93.6476 120.993C93.3862 120.418 93.1247 119.843 92.8633 119.372L93.1247 119.686C92.1312 118.85 91.5038 117.438 91.2946 116.183L91.0332 115.137C90.8764 114.405 91.3469 113.673 92.079 113.516C92.9678 113.307 93.8045 113.098 94.6411 112.836C101.961 113.359 116.968 120.784 122.144 126.013C125.177 129.516 126.902 134.065 128.628 138.301C129.883 141.699 130.981 145.202 131.608 148.81C131.87 150.17 132.027 151.582 132.027 152.993C131.974 155.085 132.131 157.229 132.706 159.32C134.432 165.856 138.249 171.869 142.589 177.046L142.693 177.15L142.746 177.202C142.746 177.202 142.693 177.15 142.902 177.359C143.059 177.778 143.112 178.405 142.955 178.771ZM140.497 177.673C140.445 177.83 140.34 178.039 140.393 178.301C140.393 178.562 140.497 178.771 140.602 178.928C140.759 179.137 140.706 179.033 140.706 179.085L140.654 179.033C140.288 178.51 139.556 177.464 139.19 176.889C134.902 170.144 130.667 162.667 130.51 154.457C130.615 149.072 128.942 143.895 127.164 138.928C125.909 135.582 124.445 132.34 122.563 129.307C122.092 128.575 121.621 127.843 120.994 127.216C119.112 125.385 116.811 123.921 114.51 122.614C108.393 119.216 101.752 116.392 94.7979 115.503L95.4254 115.451C94.4842 115.765 93.543 115.974 92.6018 116.183L93.6476 114.562C93.9613 115.66 94.0136 116.967 94.9025 117.699C95.4777 118.379 95.7914 119.268 96.1574 120C96.994 121.987 97.5692 124.026 97.9352 126.17C98.8763 131.294 95.8437 135.529 90.8241 136.68C86.5888 137.673 82.1443 136.784 78.1182 135.477C67.2946 132.026 59.4515 122.562 55.2162 112.314L56.5757 113.15C48.3143 113.046 40.1051 114.667 32.628 118.222C31.0071 119.006 29.3339 119.895 27.8175 120.836C25.6737 122.562 24.628 125.281 23.5299 127.738C20.1312 136.314 18.1443 145.307 15.896 154.196C14.3273 160.47 12.2358 169.359 10.6672 175.686L9.41229 173.961C47.2685 174.745 102.014 176.418 140.497 177.673Z" fill="black"/>
<path d="M32.4708 177.987C32.4708 177.987 31.7911 161.045 31.1113 157.908" stroke="black" stroke-width="5.1512" stroke-miterlimit="10" stroke-linecap="round" stroke-linejoin="round"/>
<path d="M125.124 177.987C125.124 177.987 123.556 167.477 123.556 165.647C123.556 163.869 124.915 158.013 125.124 152.889" stroke="black" stroke-width="5.1512" stroke-miterlimit="10" stroke-linecap="round" stroke-linejoin="round"/>
<path d="M47.8965 164.81V158.588L62.903 164.706C62.8507 164.706 50.7723 165.019 47.8965 164.81Z" fill="white"/>
<path d="M83.6607 144.575L81.7783 183.582C81.7783 183.582 98.3535 194.876 98.3535 194.562C98.3535 194.248 106.197 180.549 106.197 180.549L93.9613 143.006C93.9613 143.006 92.3927 144.627 83.6607 144.575Z" fill="black"/>
<path d="M87.4254 132.026C87.4254 132.026 80.262 138.771 79.3208 140.549C78.3796 142.327 83.3469 145.15 83.3469 145.15C83.3469 145.15 91.3469 146.823 94.9548 143.581C94.9548 143.581 96.994 141.333 96.5757 139.189C96.2097 137.098 87.4254 132.026 87.4254 132.026Z" fill="black"/>
<path d="M54.2226 106.719C54.2749 106.666 54.3272 106.614 54.3795 106.562C54.9547 105.882 55.7913 105.464 56.7324 105.359C61.1246 104.836 61.5952 105.307 62.5364 106.771C67.0854 113.882 72.9939 127.477 87.4775 132.078L73.5168 146.3C72.7847 147.242 71.4775 147.398 70.5364 146.719C66.0396 143.372 57.0462 133.124 52.0788 120.627C51.0331 118.013 50.8239 115.137 51.3468 112.418C51.2422 112.313 53.3337 107.974 54.2226 106.719Z" fill="white"/>
<path d="M53.8563 106.457C54.6406 105.725 55.5295 105.098 56.6276 104.941C58.0916 104.784 59.6079 104.47 61.1243 104.784C62.6929 105.255 63.2681 106.98 64.157 108.183C68.0785 114.614 72.157 121.15 78.17 125.699C80.3138 127.425 82.7713 128.732 85.2812 129.778C86.2223 130.144 87.2158 130.457 88.157 130.876C88.9413 131.242 89.0981 132.392 88.4184 132.915C84.5491 136.052 80.889 139.451 77.2811 142.954C76.4445 143.791 74.5099 145.725 73.7779 146.457C72.9413 147.555 71.2681 147.712 70.2223 146.876L69.6994 146.457C67.9217 144.993 66.3008 143.32 64.7321 141.647C59.1374 135.477 54.4315 128.47 51.2942 120.732C50.1962 117.961 49.9347 114.823 50.6145 111.948C51.3988 110.013 52.4445 108.078 53.8563 106.457ZM54.9021 107.189C53.7517 108.81 52.7583 110.797 51.9217 112.627L51.974 112.47C51.6602 114.196 51.6602 115.974 52.0262 117.647C52.34 119.425 53.1243 120.993 53.804 122.614C55.2158 125.961 56.9936 129.15 58.8759 132.235C60.7583 135.32 62.9021 138.3 65.3073 141.072C66.9282 142.954 68.6537 144.784 70.6406 146.3C70.7975 146.457 70.9544 146.51 71.1635 146.614C71.8955 146.928 72.7844 146.666 73.255 146.039L74.9805 144.261L76.706 142.431C80.157 138.823 83.4511 135.059 86.536 131.137L87.0589 133.281C83.2942 132.131 79.7387 130.091 76.6537 127.529C70.5361 122.562 66.5622 115.66 62.7975 108.967C62.3269 108.235 61.8563 107.294 61.3857 106.614C61.1766 106.3 61.0197 106.196 60.706 106.091C59.5034 105.778 58.0916 105.987 56.8367 106.144C56.0001 106.248 55.3204 106.614 54.9021 107.189Z" fill="black"/>
<path d="M102.066 141.124C101.752 142.85 100.497 144.47 98.4057 142.327L87.373 132.026C87.373 132.026 93.8044 125.908 92.2358 114.823C94.3796 114.353 96.4188 113.673 98.3011 112.784C98.3534 112.889 99.0855 114.301 99.9221 116.653C101.7 121.516 103.948 130.457 102.066 141.124Z" fill="white"/>
<path d="M102.379 141.176C102.066 143.686 100.183 144.732 98.2486 142.797L94.5362 139.346L90.8238 135.895L87.1114 132.444C86.9022 132.235 86.9022 131.921 87.0591 131.712C89.9349 128.366 91.399 123.817 91.399 119.424C91.399 117.856 91.1898 116.34 90.9284 114.771C90.8238 114.143 91.3467 113.568 92.0264 113.516C94.1179 113.464 96.2094 113.202 98.3009 112.679C98.3532 112.627 98.4578 112.679 98.4578 112.732C102.641 121.516 103.948 131.607 102.379 141.176ZM101.804 141.072C103.059 131.764 101.7 122.091 97.3597 113.777L97.2552 113.621C97.2029 113.568 97.1506 113.464 97.1506 113.464L98.9284 113.987C96.8891 114.98 94.7454 115.66 92.5493 116.13L93.595 114.614C93.9088 117.856 93.6473 121.15 92.7061 124.235C91.7127 127.32 90.144 130.143 87.7911 132.444V131.66C89.6735 133.385 93.3859 136.889 95.2159 138.614L98.8761 142.117C100.183 143.477 101.438 142.954 101.804 141.072Z" fill="black"/>
<path d="M95.686 128.418C94.588 133.804 87.4769 137.046 75.503 132.183C63.0586 127.163 57.673 115.189 56.3135 111.634C63.686 97.8298 58.5618 88.2612 58.5618 88.2612C75.5553 86.7971 90.405 106.666 90.405 106.666L92.7056 116.496C92.9148 117.333 93.3331 118.065 93.9605 118.588C95.0586 120.523 96.3658 124.967 95.686 128.418Z" fill="white"/>
<path d="M56.0523 111.791C57.0458 110.274 57.6732 108.497 58.0915 106.771C58.8758 103.163 59.1373 99.503 59.1896 95.8429V94.4834C59.0327 93.124 58.5621 91.7122 58.0392 90.4573C57.3595 88.7841 59.817 87.7383 60.6013 89.4115C60.7059 89.6207 60.7059 89.9867 60.7059 90.1959C60.8628 97.307 61.1765 106.457 56.6798 112.366C56.366 112.68 55.7386 112.209 56.0523 111.791Z" fill="black"/>
<path d="M90.9807 106.562C91.765 107.033 92.0265 107.66 92.131 108.287C92.4448 109.542 92.3402 110.902 92.6539 112.209C92.9153 113.464 93.6997 114.667 93.9088 115.974C94.1703 117.333 94.9546 120.209 95.2683 121.621C95.3729 121.934 95.1637 122.301 94.7977 122.353C94.5886 122.405 94.4317 122.353 94.2748 122.248C93.5951 121.673 93.2814 121.098 92.8631 120.366C92.1833 119.111 91.7127 117.961 91.2944 116.549C90.9284 115.294 91.0853 113.934 90.7716 112.627C90.5101 111.372 89.7781 110.17 89.5166 108.863C89.3598 108.235 89.3075 107.555 89.7781 106.771C90.0918 106.457 90.6147 106.353 90.9807 106.562Z" fill="black"/>
<path d="M94.7448 120.366C84.7579 119.843 76.601 116.706 68.6533 102.536C75.3461 108.444 83.2416 110.693 91.5553 111.738L92.6533 116.549C92.8625 117.385 94.1174 119.843 94.7448 120.366Z" fill="black"/>
<path d="M94.3268 118.431C96.1046 121.778 97.1504 125.961 96.0523 129.673C95.2157 132.288 92.8105 134.222 90.1961 134.954C84.1308 136.575 77.1242 134.013 71.7386 131.137C65.0981 127.425 60.183 121.203 57.0458 114.405C56.8366 113.882 57.5687 113.464 57.8824 113.987C58.9804 116.183 60.2353 118.327 61.6471 120.261C63.0589 122.248 64.6798 124.078 66.5098 125.699C71.8432 130.51 79.0589 133.49 86.2745 133.49C93.6994 133.281 96.5229 129.359 94.7974 122.144C94.536 120.993 94.1177 119.791 93.5425 118.797C93.2288 118.379 94.0131 117.908 94.3268 118.431Z" fill="black"/>
<path d="M114.562 55.6341C115.503 60.0262 112.366 64.7321 112.366 76.4445C112.366 88.4184 110.17 101.438 101.124 110.484C93.333 118.275 84.3918 117.961 73.882 109.752C72.418 108.601 67.2938 104.732 65.9866 103.425C64.4702 101.909 63.6336 100.811 62.9016 99.6602C62.2742 98.6145 62.431 92.5491 61.5421 91.1374C59.2415 87.3204 58.7709 91.4511 55.7905 88.1047C51.6598 83.6079 46.6925 74.5622 49.15 58.5622C53.1238 32.6275 73.6729 29.5949 88.8885 32.4707C104.209 35.3988 112.052 44.0785 114.562 55.6341Z" fill="white"/>
<path d="M58.4053 92.7581C57.2027 90.7712 55.6864 88.9934 54.2746 87.1634C52.8628 85.2287 51.7125 83.1895 50.7713 80.9934C45.438 68.0784 46.2223 51.1895 55.6864 40.3137C62.17 32.8889 72.4184 30.4314 81.8302 30.9542C91.2419 31.5294 101.02 33.9346 107.974 40.732C112 44.6536 114.562 49.8823 115.713 55.3202C116.079 57.0457 115.817 58.9281 115.399 60.549C114.196 65.098 113.046 69.4379 112.941 74.1438C112.994 81.1503 112.784 88.3137 110.745 95.0588C109.281 99.5555 107.556 104.052 104.837 107.974C102.013 111.948 97.7779 115.137 92.9151 116.078C83.1373 118.065 73.987 111.895 67.5034 105.203C67.2419 104.889 67.6079 104.523 67.9216 104.732C71.6341 107.556 75.4511 110.17 79.5818 111.948C91.5034 117.438 101.386 112.366 106.614 100.863C111.007 92.4967 112.262 83.451 111.896 74.0915C111.896 71.7385 112 69.3856 112.314 67.0327C112.628 63.634 113.778 60.2353 113.726 56.8889C112.837 51.451 110.327 46.2222 106.562 42.1961C97.621 32.732 80.4707 29.9608 68.4445 34.2483C54.2746 39.268 50.4576 53.5425 49.6733 67.1895C49.1504 75.3464 51.5556 83.3464 57.7256 88.9412L60.1831 91.5033C61.0197 92.6536 59.2419 94.0131 58.4053 92.7581Z" fill="black"/>
<path d="M64.5754 76.1308C64.5754 76.1308 62.9545 68.2876 55.3205 69.2288C48.7322 70.0654 46.4316 85.8563 61.3858 90.2484" fill="white"/>
<path d="M60.706 83.3985C59.5034 82.7187 58.6668 81.5684 58.6145 80.1566C58.6668 79.1109 58.8237 77.9083 58.5622 76.8625C58.4054 75.869 57.3596 75.6076 56.5753 75.6599C55.7387 75.8168 55.2158 76.8625 55.059 77.6991C55.059 77.7514 55.0067 77.9083 55.0067 77.9605C54.9544 78.222 54.5361 78.222 54.4315 77.9605C53.7518 75.9213 55.2681 73.673 57.4642 73.9344C60.5491 74.1436 60.9674 77.3854 60.3923 79.8429C60.0786 80.8886 60.4969 81.8298 61.072 82.7187L61.1766 82.8756C61.438 83.1893 61.0197 83.6076 60.706 83.3985Z" fill="black"/>
<path d="M102.536 70.5882C103.32 74.3006 104.784 77.7516 106.614 80.9934C108.235 84.9672 104.052 88.732 100.34 88.5751C99.9213 88.5751 99.869 87.9999 100.235 87.8954C102.588 87.1633 104.732 85.5947 105.098 83.1895C105.255 82.4574 105.045 81.83 104.679 81.2025C102.954 77.9607 101.908 74.2483 102.17 70.5882C102.17 70.3267 102.536 70.3267 102.536 70.5882Z" fill="black"/>
<path d="M64.3143 76.1827C63.1117 73.0978 60.4973 70.1697 56.9941 70.222C56.6803 70.1697 56.1575 70.2742 55.8437 70.2742C54.9548 70.3265 54.2228 70.6403 53.5431 71.2677C50.1967 74.6141 50.7718 80.5226 53.4908 84.235C54.432 85.5422 55.6346 86.6926 56.9941 87.6337C58.3535 88.5749 59.8699 89.3069 61.4908 89.9344C61.8568 90.039 61.6999 90.6141 61.3339 90.5618C57.8307 89.8298 54.4843 88.1043 52.1836 85.2285C48.628 80.9409 47.896 73.7775 52.1313 69.5945C53.0725 68.7579 54.3797 68.1305 55.6869 68.1305C56.1052 68.1305 56.7326 68.0259 57.1509 68.1305C59.347 68.235 61.4385 69.3331 62.798 71.0586C64.0006 72.5226 64.6803 74.3004 64.8895 76.0782C64.8895 76.3919 64.4189 76.4965 64.3143 76.1827Z" fill="black"/>
<path d="M99.0323 93.5427C98.1434 94.1702 96.8362 93.6473 95.895 94.0656C95.2153 94.2748 94.1172 95.2159 92.5486 95.1114C91.2937 95.0068 90.6662 94.3793 89.6205 93.9088C88.5225 93.5427 87.3721 92.863 86.6401 91.9741C86.4832 91.8172 86.4832 91.6081 86.6401 91.4512C86.8493 91.2421 87.0584 91.399 87.2676 91.5035C87.7381 91.765 88.1042 91.9741 88.4702 92.0787C88.8362 92.1833 89.2022 92.0787 89.7774 92.0787C90.3525 92.0264 91.1891 92.2878 91.712 92.7061C92.078 92.9676 92.4963 93.1244 92.81 93.1767C93.6466 93.3336 94.6924 92.6539 95.5813 92.5493C96.2087 92.4447 96.8885 92.497 97.4114 92.6539C97.9342 92.8107 98.3002 92.9153 98.7185 92.8107C99.1891 92.7061 99.4506 93.3336 99.0323 93.5427Z" fill="black"/>
<path d="M90.7192 65.0456C91.8695 65.2025 92.7584 63.9998 92.3401 62.8495C92.131 62.2221 91.7649 61.6469 91.1898 61.2809C89.412 60.1829 82.7715 60.0783 79.2682 62.5881C76.131 64.8887 85.4904 64.3136 90.7192 65.0456Z" fill="black"/>
<path d="M105.203 65.6207C104.261 65.6207 103.686 64.4181 104.157 63.4246C104.418 62.9017 104.784 62.4311 105.307 62.1697C106.928 61.3854 111.268 61.856 113.203 64.5226C114.928 66.8756 109.542 65.5684 105.203 65.6207Z" fill="black"/>
<path d="M88.9937 71.9475C87.1637 73.5684 84.3401 73.5684 82.1441 72.7318C81.7781 72.575 79.6865 71.6338 80.1048 71.1109C80.1571 71.0586 80.2617 71.0063 80.314 71.0063C81.7781 71.0586 83.1375 71.2155 84.5493 71.3201C85.9611 71.4246 87.216 71.3724 88.68 71.3201C89.046 71.3201 89.2552 71.7384 88.9937 71.9475Z" fill="black"/>
<path d="M109.648 72.8364C107.974 74.771 104.576 74.5096 103.007 72.6272C102.85 72.4704 103.007 72.1566 103.216 72.2089C103.791 72.2612 104.314 72.3658 104.837 72.4181C106.406 72.6795 107.713 72.6272 109.386 72.5749C109.648 72.4704 109.752 72.7318 109.648 72.8364Z" fill="black"/>
<path d="M89.7258 28.6537C66.301 26.4054 58.5102 34.2485 55.4252 37.0198C51.0853 40.8368 44.4971 55.9479 44.7585 64.5753C45.0723 76.6015 54.6932 89.3073 55.1115 89.9348C57.2553 93.1243 59.4513 95.059 60.0265 95.7387C59.7128 94.5884 59.1899 90.4577 59.6605 89.7256C46.5886 84.706 48.9415 70.1178 55.3206 69.2812C62.0134 68.4446 64.1049 74.4054 64.4709 75.8694C64.4709 75.8694 64.4709 76.0263 64.5232 76.2877C64.5755 76.2877 64.6278 76.34 64.6801 76.34C66.9807 77.1243 69.1245 74.8237 68.3402 72.5753C67.1376 69.2812 65.7781 65.4642 65.569 63.0067C65.2553 55.8956 68.1311 47.791 89.3075 48.9413C92.0265 49.0982 94.3794 49.5165 96.6801 49.9871C97.8304 50.3008 100.915 51.5034 99.8696 54.4838C98.8762 57.3596 96.837 55.0067 96.2618 55.2681C95.9481 55.425 97.935 58.0917 100.863 57.5688C103.268 57.1505 105.203 54.693 104.366 51.4511C105.203 51.5557 106.092 51.6603 106.981 51.7649C112.628 52.1832 117.7 47.791 117.543 42.1439C117.386 36.3923 112 30.7975 89.7258 28.6537Z" fill="black"/>
<path d="M60.1832 95.948C60.1832 95.8957 60.1309 95.8434 60.0264 95.6865C60.1309 96.0002 60.1832 96.1048 60.1832 95.948Z" fill="black"/>
<path d="M150.693 44.0785C182.431 105.203 126.64 174.17 60.1304 157.333C30.2742 149.909 6.2742 124.026 1.30688 93.6471C-4.34018 63.4249 9.30688 30.9543 34.8232 13.8563C69.8036 -10.196 118.274 -2.19602 143.32 32.2092C143.477 32.3661 143.425 32.6275 143.215 32.7844C143.059 32.9412 142.797 32.889 142.64 32.6798C139.189 28.2354 135.268 24.2092 130.98 20.6014C123.921 14.5883 115.66 9.88241 106.928 6.69287C62.4833 -9.41171 13.699 17.3595 3.97355 63.8432C-7.00685 115.922 37.2807 163.869 90.0912 156.706C130.823 151.582 161.098 113.987 157.751 73.0981C157.019 63.2157 154.405 53.438 150.065 44.4445C149.96 44.2876 150.065 44.0785 150.222 43.9739C150.379 43.8693 150.588 43.9216 150.693 44.0785Z" fill="black"/>
</g>
</svg>
