<svg width="160" height="160" viewBox="0 0 160 160" fill="none" xmlns="http://www.w3.org/2000/svg">
<rect width="160" height="160" rx="80" fill="#F7C0B5"/>
<mask id="mask0_3738_46686" style="mask-type:alpha" maskUnits="userSpaceOnUse" x="0" y="0" width="160" height="160">
<circle cx="79.7377" cy="79.7377" r="79.7377" fill="#D9D9D9"/>
</mask>
<g mask="url(#mask0_3738_46686)">
<path d="M123.451 145.569C123.085 145.83 122.667 146.092 122.301 146.353C121.883 146.614 121.517 146.876 121.098 147.085C120.732 147.294 120.419 147.503 120.053 147.713C120 147.765 119.948 147.765 119.896 147.817C118.693 148.549 117.438 149.229 116.183 149.856C115.817 150.065 115.399 150.275 115.033 150.431C115.033 150.431 114.981 150.484 114.929 150.484C114.51 150.693 114.092 150.902 113.674 151.111C112.837 151.53 111.948 151.896 111.112 152.262C110.693 152.471 110.223 152.628 109.804 152.784C109.386 152.941 108.915 153.15 108.497 153.307C108.079 153.464 107.608 153.673 107.19 153.83C107.19 153.83 107.19 153.83 107.138 153.83C106.719 153.987 106.249 154.144 105.831 154.301C104.889 154.614 103.896 154.928 102.955 155.242C102.641 155.347 102.275 155.451 101.961 155.556C100.968 155.869 99.9743 156.131 98.9809 156.34C98.6148 156.445 98.2488 156.497 97.8305 156.601C96.8894 156.811 95.8959 157.02 94.9547 157.229C94.7456 157.281 94.5887 157.281 94.3795 157.333C94.0658 157.386 93.6998 157.438 93.3861 157.49C92.9155 157.543 92.4972 157.647 92.0266 157.699C91.8175 157.752 91.6083 157.752 91.3992 157.804C91.1377 157.856 90.824 157.909 90.5103 157.909C89.6737 158.013 88.7848 158.118 87.9482 158.222C87.6867 158.275 87.373 158.275 87.1116 158.327H87.0593C86.6933 158.379 86.3273 158.379 85.9612 158.431C85.5952 158.484 85.2292 158.484 84.8632 158.484C84.6541 158.484 84.3926 158.536 84.1835 158.536C83.7652 158.536 83.3992 158.588 83.0331 158.588C82.5103 158.588 82.0397 158.641 81.5168 158.641C80.9939 158.641 80.5233 158.641 80.0005 158.641C79.6344 158.641 79.2684 158.641 78.9024 158.641C56.8371 158.327 37.0201 148.967 22.8501 134.118C22.8501 134.118 22.8501 134.065 22.7979 134.065C21.2292 132.654 22.5887 125.124 28.9155 120.366C36.8632 114.353 55.8959 110.588 55.8959 110.588C55.8959 110.588 63.2684 109.386 90.6148 115.085C106.615 118.431 118.798 123.294 125.595 136.471C127.007 139.19 128.419 143.373 123.451 145.569Z" fill="white"/>
<path d="M90.7715 114.51C100.811 116.549 111.53 118.745 119.791 125.386C122.562 127.634 124.392 130.928 125.909 134.118C126.641 135.687 127.373 137.307 127.948 139.033C128.262 140.183 128.732 141.49 128.471 142.85C128.419 143.216 128.105 143.687 127.843 143.948C126.641 145.151 125.334 145.883 124.026 146.824C116.34 152.157 107.503 155.922 98.3532 157.909C77.961 162.353 55.8956 158.902 37.961 148.183C32.0002 144.575 26.51 140.183 21.8041 135.007C21.2812 134.379 21.2812 133.334 21.2812 132.654C21.3335 131.085 21.7518 129.569 22.2747 128.157C23.5296 124.915 25.1505 121.673 27.9218 119.425C29.9087 118.066 32.0525 116.915 34.2486 115.974C41.1505 113.046 48.4185 111.007 55.8956 110.17C56.5231 110.118 56.6277 111.007 56.0002 111.111C48.8368 112.575 41.7257 114.771 35.0852 117.752C32.6799 118.955 30.1179 120 28.1832 121.883C26.3531 123.87 25.046 126.327 24.0002 128.837C23.3205 130.353 22.8499 132.758 23.059 133.961C26.3531 137.883 30.2224 141.334 34.4054 144.314C57.3074 160.314 92.0786 161.36 116.445 148.026C118.641 146.824 120.785 145.464 122.824 144.053C123.817 143.373 124.863 142.798 125.647 142.013C125.7 141.961 125.647 142.013 125.647 142.066C125.647 142.118 125.595 142.17 125.595 142.17C125.647 141.543 125.438 140.706 125.177 139.87C124.236 136.837 122.719 133.647 121.098 130.876C118.536 126.745 114.196 124.131 109.804 122.039C106.771 120.628 103.582 119.53 100.34 118.484C97.0982 117.438 93.8041 116.549 90.51 115.765C89.6734 115.556 89.9349 114.353 90.7715 114.51Z" fill="black"/>
<path d="M48.0527 101.281C48.0527 101.281 52.9155 100.13 54.9547 99.9736L55.5821 105.673C55.5821 105.621 48.105 102.745 48.0527 101.281Z" fill="black"/>
<path d="M130.824 177.987H8.5752C8.5752 177.987 16.366 161.307 19.085 142.483C20.9674 129.359 23.2157 122.3 30.17 118.117C38.0131 113.411 50.6667 111.268 55.7909 109.908C55.7909 110.17 55.8432 110.379 55.8432 110.64C55.8432 110.64 61.4902 127.425 76.183 133.385C88.1569 138.248 95.268 135.006 96.366 129.621C97.0458 126.17 94.902 120.523 93.8039 118.693C93.1765 118.17 92.7582 117.385 92.549 116.601L92.1307 114.876C93.4379 114.614 94.6928 114.248 95.8955 113.777C102.641 115.555 115.66 118.954 123.608 129.045C125.595 131.555 131.817 144.889 130.667 167.425C130.248 179.137 130.824 177.987 130.824 177.987Z" fill="black"/>
<path d="M34.4574 177.987L32.1045 158.588" stroke="white" stroke-width="3" stroke-miterlimit="10" stroke-linecap="round" stroke-linejoin="round"/>
<path d="M125.804 152C125.804 152 124.236 155.816 124.706 159.633C125.177 163.45 126.536 169.045 124.602 177.986" stroke="white" stroke-width="3" stroke-miterlimit="10" stroke-linecap="round" stroke-linejoin="round"/>
<path d="M72.2611 143.111C43.3461 134.745 36.0781 117.752 36.0781 117.752C36.0781 117.752 40.6271 114.928 42.7709 112C44.0781 110.222 55.8428 108.183 55.8428 108.183C56.052 110.431 55.8428 108.183 55.9997 110.641C55.9997 110.641 61.6468 127.425 76.3396 133.386C88.3134 138.248 95.4245 135.007 96.5226 129.621C97.2023 126.17 95.0585 120.523 93.9605 118.693C93.333 118.17 92.9147 117.386 92.7056 116.601L92.2873 114.876C95.2677 114.248 98.0912 113.098 100.549 111.582C100.653 111.739 100.706 111.896 100.758 112.052C101.856 114.719 105.202 117.124 105.202 117.124C112.157 133.647 101.699 151.634 72.2611 143.111Z" fill="black"/>
<path d="M107.294 116.392C107.294 116.392 109.699 115.242 112.104 115.503C114.51 115.764 125.961 125.019 127.059 126.954C128.209 128.889 128.157 135.059 126.797 135.843C125.438 136.627 124.653 134.902 124.653 134.902C124.653 134.902 125.647 129.255 124.549 128.209C123.451 127.163 112.836 118.274 112.47 118.222C112.104 118.17 110.117 119.843 110.117 119.843L107.294 116.392Z" fill="black"/>
<path d="M43.9214 113.202C43.9214 113.202 38.4835 110.431 36.4443 110.431C34.4051 110.431 22.5358 117.751 20.9149 121.568C19.294 125.385 21.49 133.072 21.49 133.072L24.3659 129.778C24.3659 129.778 23.5815 124.026 24.4181 121.934C25.2548 119.843 34.7188 113.673 35.5554 113.83C36.392 113.934 41.0456 116.915 41.0456 116.915L43.9214 113.202Z" fill="black"/>
<path d="M56.2617 123.294C61.2813 132.915 71.3205 145.725 88.1049 151.738C103.216 157.176 102.275 138.928 100.079 128C85.0199 131.294 69.9088 131.555 56.2617 123.294Z" fill="white"/>
<path d="M100.078 128.052C99.5027 125.176 98.823 122.823 98.3524 121.516C97.3067 118.693 95.738 116.183 94.3263 114.301C93.6465 114.51 92.9668 114.667 92.2871 114.823L92.7054 116.549C92.9145 117.385 93.3328 118.117 93.9603 118.64C94.0648 118.85 94.2217 119.111 94.3786 119.425C82.5093 124.026 68.4962 117.961 68.4962 117.961C64.2609 117.751 64.5746 121.934 66.5616 126.902C59.0322 119.738 55.9472 110.64 55.9472 110.64C55.8426 109.072 55.738 107.555 55.5812 106.039C55.5812 106.039 51.7119 108.183 52.3916 112.993C52.7054 115.033 53.908 118.85 56.2609 123.294C69.908 131.555 85.0191 131.294 100.078 128.052Z" fill="white"/>
<path d="M99.8689 127.895C99.712 127.634 99.6597 127.477 99.5551 127.163C98.9277 125.124 98.248 122.98 97.3068 121.098C96.2087 118.902 94.797 116.915 93.2283 115.085L94.6924 115.555L92.5486 116.131L93.5944 114.51C93.6989 114.98 93.9604 116.078 94.0649 116.497C94.2218 117.124 94.6924 117.542 95.0584 118.013C95.0061 118.431 94.9538 118.85 94.8493 119.216C94.9538 119.529 94.8493 119.895 94.5355 120.052C93.0192 120.784 91.346 121.359 89.6728 121.725C83.5028 122.98 77.2283 121.569 71.3198 119.843C70.1695 119.477 69.1238 119.216 67.8689 119.32L68.3394 119.425C68.0257 119.425 67.6597 119.425 67.346 119.529C65.7774 120 66.5094 122.719 66.8231 124.026C67.0845 124.863 67.346 125.699 67.712 126.536C68.0257 127.216 67.6597 128 66.98 128.314C66.4571 128.523 65.9342 128.366 65.5682 128C64.3656 126.797 63.2153 125.595 62.1695 124.287C58.98 120.314 56.4702 115.974 54.6401 111.216L55.895 112.104C55.163 112.104 54.5878 111.529 54.5355 110.85L54.1695 106.301L56.1564 107.346C53.8035 108.758 53.1238 111.686 53.9081 114.196C54.6924 117.124 55.9473 120.052 57.3591 122.771L56.8362 122.248C69.5421 130.771 85.3852 131.451 99.8689 127.895ZM100.287 128.157C98.5617 129.412 95.5813 130.457 93.3852 130.928C88.2087 132.078 82.7708 131.399 77.5943 130.562C75.9734 130.301 73.6205 129.987 71.9473 129.725L69.1761 129.15C65.4636 128.261 61.8035 127.059 58.2479 125.595L56.9408 125.02L55.5813 124.444C55.4244 124.392 55.2676 124.235 55.163 124.078C53.4375 120.732 51.8689 117.229 51.1368 113.464C50.4571 110.17 52.0257 106.562 54.9538 104.837C55.7904 104.366 56.8885 104.941 56.9408 105.882L57.3068 110.484C57.3068 110.484 55.9473 109.229 55.9996 109.229C56.5747 109.229 57.0976 109.595 57.2545 110.118C58.8754 114.51 61.3329 118.745 64.3133 122.405C65.3068 123.66 66.4048 124.758 67.5029 125.908L65.3591 127.372C64.3133 124.549 62.9015 120.941 64.7839 118.118C65.6728 116.967 67.1891 116.549 68.6009 116.601L69.0715 116.706C69.8035 117.647 70.8493 118.065 71.8427 118.379C76.9669 120.052 82.5094 120.366 87.895 119.948C90.0388 119.738 92.1303 119.32 94.2218 118.797L93.9081 119.634C93.5421 119.477 93.2283 119.372 92.8623 119.32L93.1238 119.634C92.1303 118.797 91.5029 117.386 91.2937 116.131L91.0323 115.085C90.8754 114.353 91.346 113.621 92.078 113.464L94.0127 112.993H94.1172C94.6401 112.837 95.2153 113.098 95.4767 113.516C97.5682 116.758 99.1368 120.418 99.8166 124.235C100.026 125.124 100.13 126.118 100.287 127.059C100.235 127.372 100.287 127.843 100.287 128.157Z" fill="black"/>
<path d="M48.0527 101.281C48.0527 101.281 60.9678 101.699 70.7978 104.313C71.739 104.575 71.739 110.64 71.8436 111.634C72.2096 115.189 64.7848 121.255 65.6214 124.444C66.7194 128.575 96.3665 151.791 96.6279 154.51C96.8893 157.228 75.1377 156.549 62.2227 141.072C49.2553 125.594 50.2488 122.771 50.2488 122.771C50.2488 122.771 48.0527 107.921 48.0527 101.281Z" fill="black"/>
<path d="M106.039 106.875L109.385 108.287C110.431 108.706 110.954 109.908 110.588 111.006C109.072 115.608 105.307 127.059 105.15 131.032C104.941 136.052 94.5879 168.313 94.5879 168.313C94.5879 168.313 88.2611 160 92.9147 151.791C96.5749 145.307 96.784 131.451 96.418 129.621C95.9474 127.215 93.9605 121.568 92.8625 118.013C92.2873 116.078 92.1827 114.875 92.1827 114.875C92.1827 114.875 99.3984 113.673 106.039 106.875Z" fill="black"/>
<path d="M67.1374 115.451C67.9749 115.451 68.6538 114.678 68.6538 113.725C68.6538 112.773 67.9749 112 67.1374 112C66.3 112 65.6211 112.773 65.6211 113.725C65.6211 114.678 66.3 115.451 67.1374 115.451Z" fill="white"/>
<path d="M94.0655 150.274C93.6472 153.098 93.2289 155.974 93.4381 158.849C94.1178 163.085 94.3793 167.32 94.7453 171.555C94.7976 172.601 93.2812 172.706 93.1766 171.66C93.0198 167.424 92.9152 163.137 92.3923 158.902C92.2878 155.921 92.8106 152.993 93.3858 150.117C93.4904 149.751 94.1178 149.856 94.0655 150.274Z" fill="white"/>
<path d="M108.549 118.797C107.608 123.451 106.562 128.157 104.837 132.601C102.222 138.144 98.6666 143.163 95.6339 148.392C95.3725 148.863 94.6404 148.497 94.8496 148.026C97.3594 142.117 101.02 136.836 103.477 130.98C103.686 130.353 104.837 126.902 105.046 126.222C105.882 123.66 106.771 121.098 107.765 118.588C107.974 118.117 108.654 118.274 108.549 118.797Z" fill="black"/>
<path d="M101.333 149.49C102.286 149.49 103.058 148.718 103.058 147.765C103.058 146.812 102.286 146.039 101.333 146.039C100.38 146.039 99.6074 146.812 99.6074 147.765C99.6074 148.718 100.38 149.49 101.333 149.49Z" fill="white"/>
<path d="M95.6851 128.418C94.587 133.804 87.4759 137.046 75.502 132.183C63.0576 127.163 57.672 115.189 56.3125 111.634C63.685 97.8298 58.5609 88.2612 58.5609 88.2612C75.5543 86.7971 90.404 106.666 90.404 106.666L92.7047 116.496C92.9138 117.333 93.3321 118.065 93.9596 118.588C95.0576 120.523 96.3648 124.967 95.6851 128.418Z" fill="white"/>
<path d="M56.0513 111.791C57.0448 110.274 57.6722 108.497 58.0905 106.771C58.8749 103.163 59.1363 99.503 59.1886 95.8429V94.4834C59.0317 93.124 58.5611 91.7122 58.0383 90.4573C57.3585 88.7841 59.816 87.7383 60.6003 89.4115C60.7049 89.6207 60.7049 89.9867 60.7049 90.1959C60.8618 97.307 61.1755 106.457 56.6788 112.366C56.3651 112.68 55.7376 112.209 56.0513 111.791Z" fill="black"/>
<path d="M90.9797 106.562C91.764 107.033 92.0255 107.66 92.1301 108.287C92.4438 109.542 92.3392 110.902 92.6529 112.209C92.9144 113.464 93.6987 114.667 93.9078 115.974C94.1693 117.333 94.9536 120.209 95.2673 121.621C95.3719 121.934 95.1627 122.3 94.7967 122.353C94.5876 122.405 94.4307 122.353 94.2738 122.248C93.5941 121.673 93.2804 121.098 92.8621 120.366C92.1823 119.111 91.7118 117.961 91.2935 116.549C90.9274 115.294 91.0843 113.934 90.7706 112.627C90.5091 111.372 89.7771 110.17 89.5157 108.863C89.3588 108.235 89.3065 107.555 89.7771 106.771C90.0908 106.457 90.6137 106.353 90.9797 106.562Z" fill="black"/>
<path d="M94.7438 120.366C84.7569 119.843 76.6001 116.706 68.6523 102.536C75.3452 108.444 83.2406 110.693 91.5543 111.738L92.6523 116.549C92.8615 117.385 94.1164 119.843 94.7438 120.366Z" fill="black"/>
<path d="M94.3259 118.431C96.1036 121.778 97.1494 125.961 96.0513 129.673C95.2147 132.288 92.8095 134.222 90.1951 134.954C84.1298 136.575 77.1232 134.013 71.7376 131.137C65.0971 127.425 60.1821 121.203 57.0448 114.405C56.8357 113.882 57.5677 113.464 57.8814 113.987C58.9794 116.183 60.2343 118.327 61.6461 120.261C63.0579 122.248 64.6788 124.078 66.5089 125.699C71.8422 130.51 79.0579 133.49 86.2736 133.49C93.6984 133.281 96.5219 129.359 94.7964 122.144C94.535 120.993 94.1167 119.791 93.5415 118.797C93.2278 118.379 94.0121 117.908 94.3259 118.431Z" fill="black"/>
<path d="M114.562 55.6336C115.503 60.0257 115.974 63.5813 113.411 75.2937C110.902 86.9538 117.019 89.3591 102.536 108.026C96.6271 115.66 82.3003 113.516 70.6925 105.621C66.7709 102.954 65.0977 96.1042 62.1696 91.2414C59.8689 87.4244 58.8232 91.3983 55.7905 88.1042C51.6598 83.6074 46.6925 74.5617 49.15 58.5617C53.1238 32.6271 73.6729 29.5944 88.8885 32.4702C104.209 35.3983 112.052 44.078 114.562 55.6336Z" fill="white"/>
<path d="M58.4047 92.758C57.2021 90.7188 55.6334 88.941 54.1694 87.0586C52.7576 85.124 51.6073 82.9802 50.6661 80.7841C44.4439 65.5161 46.8491 44.0259 62.1171 35.0325C68.4439 31.3723 76.0779 30.4835 83.189 31.0586C98.4047 32.1567 112.365 39.1632 115.66 55.2678C117.437 62.3789 115.032 69.6992 113.673 76.6534C113.045 80.1044 113.568 83.6599 113.516 87.2155C113.463 90.8233 112.47 94.4312 111.111 97.7776C110.274 100.078 108.81 102.117 107.294 104C104.784 107.032 102.274 110.117 99.0844 112.47C98.3524 112.993 97.0452 113.255 96.1563 113.359C93.6988 113.725 91.2935 113.83 88.836 113.673C79.2151 113.255 68.9145 108.601 65.0452 99.2939C64.8883 98.9279 65.4112 98.6665 65.6203 98.9802C70.64 106.928 79.8426 110.849 88.9929 111.372C91.8164 111.529 94.6922 111.477 97.4635 110.902C98.823 110.222 100.026 109.019 101.176 107.921C103.999 105.098 106.875 102.065 108.914 98.6142C111.372 93.9606 112.731 88.8887 112.313 83.6076C112.209 81.2547 112.156 78.7972 112.627 76.4442C113.045 74.0913 113.568 71.8429 113.882 69.4377C114.196 67.1371 114.352 64.7841 114.352 62.4835C114.091 55.7384 111.895 48.7841 107.607 43.5554C98.1432 31.7906 75.7641 28.7057 63.1628 36.758C55.2151 41.673 51.5027 50.8756 50.3001 59.8168C48.47 70.5358 48.9929 81.0978 57.5158 88.8887L60.0256 91.5031C61.019 92.6534 59.2413 94.0129 58.4047 92.758Z" fill="black"/>
<path d="M64.5744 76.1303C64.5744 76.1303 62.9535 68.2871 55.3195 69.2283C48.7313 70.0649 46.4306 85.8558 61.3849 90.2479" fill="white"/>
<path d="M60.705 83.3985C59.5024 82.7187 58.6658 81.5684 58.6135 80.1566C58.6658 79.1109 58.8227 77.9083 58.5612 76.8625C58.4044 75.869 57.3586 75.6076 56.5743 75.6599C55.7377 75.8168 55.2148 76.8625 55.058 77.6991C55.058 77.7514 55.0057 77.9083 55.0057 77.9606C54.9534 78.222 54.5351 78.222 54.4305 77.9606C53.7508 75.9213 55.2671 73.673 57.4632 73.9344C60.5482 74.1436 60.9665 77.3854 60.3913 79.8429C60.0776 80.8887 60.4959 81.8298 61.0711 82.7187L61.1756 82.8756C61.4371 83.1893 61.0188 83.6076 60.705 83.3985Z" fill="black"/>
<path d="M102.536 70.5882C103.32 74.3006 104.784 77.7516 106.614 80.9934C108.235 84.9673 104.052 88.732 100.34 88.5751C99.9213 88.5751 99.869 87.9999 100.235 87.8954C102.588 87.1633 104.732 85.5947 105.098 83.1895C105.255 82.4575 105.045 81.83 104.679 81.2025C102.954 77.9607 101.908 74.2483 102.17 70.5882C102.17 70.3267 102.536 70.3267 102.536 70.5882Z" fill="black"/>
<path d="M64.3133 76.1827C63.1107 73.0978 60.4963 70.1697 56.9931 70.222C56.6794 70.1697 56.1565 70.2742 55.8428 70.2742C54.9539 70.3265 54.2218 70.6403 53.5421 71.2677C50.1957 74.6141 50.7709 80.5226 53.4898 84.235C54.431 85.5422 55.6336 86.6926 56.9931 87.6337C58.3526 88.5749 59.8689 89.3069 61.4898 89.9344C61.8558 90.039 61.699 90.6141 61.3329 90.5618C57.8297 89.8298 54.4833 88.1043 52.1826 85.2285C48.6271 80.9409 47.895 73.7775 52.1303 69.5945C53.0715 68.7579 54.3787 68.1305 55.6859 68.1305C56.1042 68.1305 56.7316 68.0259 57.1499 68.1305C59.346 68.235 61.4375 69.3331 62.797 71.0586C63.9996 72.5226 64.6794 74.3004 64.8885 76.0782C64.8885 76.3919 64.4179 76.4965 64.3133 76.1827Z" fill="black"/>
<path d="M98.5617 93.7514C96.9408 95.0586 94.6924 95.1109 92.7578 94.6403C92.1303 94.4835 91.3983 94.3789 91.0323 93.6991C90.6663 93.124 91.0323 92.392 91.712 92.2874C92.3918 92.1305 92.8101 92.4442 93.3852 92.6011C94.9016 93.124 96.5748 93.4377 98.1434 92.9148C98.5617 92.8103 98.98 93.4377 98.5617 93.7514Z" fill="black"/>
<path d="M92.8104 90.405C93.9084 92.3397 92.3398 94.6403 90.4575 95.3724C90.0392 95.5815 88.0522 95.9998 88.1045 95.2155C88.1045 95.1109 88.2091 95.0064 88.3137 94.9541C90.196 94.1175 91.5555 92.392 91.8692 90.405C91.9215 89.9867 92.4967 89.8822 92.7058 90.2482L92.8104 90.405Z" fill="black"/>
<path d="M83.0321 75.9213C81.7772 75.869 80.836 74.8233 80.9406 73.5684L80.9928 72.1043C81.0451 70.8494 82.0909 69.9082 83.3458 70.0128C84.6007 70.0651 85.5419 71.1109 85.4373 72.3658L85.385 73.8298C85.3327 75.0324 84.287 75.9736 83.0321 75.9213Z" fill="black"/>
<path d="M105.046 76.7058C103.895 76.6535 103.007 75.6601 103.059 74.5097L103.111 73.1502C103.163 71.9999 104.157 71.111 105.307 71.1633C106.458 71.2156 107.346 72.2091 107.294 73.3594L107.242 74.7189C107.19 75.8692 106.196 76.7581 105.046 76.7058Z" fill="black"/>
<path d="M87.7383 73.0977C86.0128 71.9474 84.1304 71.1631 82.0389 71.5814C81.3592 71.686 80.6795 71.8951 80.2612 72.3657C80.1043 72.5749 79.7383 72.5226 79.7383 72.2089C79.7906 71.1631 80.6795 70.4834 81.5161 70.0651C83.137 69.2285 85.3853 69.3853 86.8494 70.4834C87.3723 70.7971 89.15 72.7317 88.2089 73.15C87.9997 73.2546 87.8951 73.2023 87.7383 73.0977Z" fill="black"/>
<path d="M102.692 73.3594C102.692 71.1633 105.411 70.379 107.085 71.1633C108.026 71.5816 108.705 72.4182 108.967 73.4117C109.071 73.7254 108.601 73.9868 108.392 73.7254C107.503 72.6797 105.987 72.1568 104.784 72.7842C104.418 72.9934 104.366 73.1502 104.261 73.3594C104.261 74.4051 102.745 74.3529 102.692 73.3594Z" fill="black"/>
<path d="M90.2482 64.4704C91.3462 64.8364 92.4442 63.843 92.2351 62.6403C92.1305 62.0129 91.8691 61.3854 91.3462 60.9148C89.7776 59.5031 83.2939 58.2482 79.3723 60.0782C75.9214 61.7514 85.2286 62.7972 90.2482 64.4704Z" fill="black"/>
<path d="M105.882 65.307C104.993 65.6208 104.052 64.6796 104.209 63.5815C104.261 63.0064 104.47 62.4312 104.888 62.0129C106.143 60.758 110.431 59.7646 113.15 61.6992C115.503 63.3201 109.96 63.7907 105.882 65.307Z" fill="black"/>
<path d="M108.444 40.3659C105.778 37.9084 102.431 35.5032 98.353 33.8823C86.2746 28.9672 75.0327 29.1241 66.1961 32.9411C65.9347 27.8169 64.5752 19.9738 58.5621 18.6666C49.4641 16.6274 52.6014 26.562 55.4249 32.7842C55.4249 32.7842 44.5491 23.0587 39.7909 29.647C35.2419 35.9738 46.6406 42.8757 46.6406 42.8757C46.6406 42.8757 29.7517 44.2352 33.3072 53.8561C35.3987 59.3986 42.4053 57.5685 48.0001 55.0587C43.451 73.0979 51.3465 85.3855 55.4249 90.3006C59.6079 95.3202 59.9739 99.1372 59.9739 99.1372C62.1177 97.9346 59.5556 92.5489 59.6602 89.7254C46.5883 84.7058 48.9412 70.1176 55.3203 69.281C62.0131 68.4444 64.1046 74.4051 64.4706 75.8692C66.8759 72.9934 66.8759 70.2221 66.4053 67.3463C64.5752 56.8365 65.621 51.1372 71.9478 49.7777C82.0393 47.5816 91.1373 52.7058 103.163 54.3267C107.608 54.9542 110.379 50.8757 113.673 52.3398C114.039 53.4378 114.353 54.5359 114.614 55.6862C114.824 56.5751 114.98 57.4117 115.085 58.3006C115.608 50.9803 114.092 45.5947 108.444 40.3659Z" fill="black"/>
<path d="M150.693 44.0785C182.431 105.203 126.64 174.17 60.1304 157.333C30.2742 149.909 6.2742 124.026 1.30688 93.6471C-4.34018 63.4249 9.30688 30.9543 34.8232 13.8563C69.8036 -10.196 118.274 -2.19602 143.32 32.2092C143.477 32.3661 143.425 32.6275 143.215 32.7844C143.059 32.9412 142.797 32.889 142.64 32.6798C139.189 28.2354 135.268 24.2092 130.98 20.6014C123.921 14.5883 115.66 9.88241 106.928 6.69287C62.4833 -9.41171 13.699 17.3595 3.97355 63.8432C-7.00685 115.922 37.2807 163.869 90.0912 156.706C130.823 151.582 161.098 113.987 157.751 73.0981C157.019 63.2157 154.405 53.438 150.065 44.4445C149.96 44.2876 150.065 44.0785 150.222 43.9739C150.379 43.8693 150.588 43.9216 150.693 44.0785Z" fill="black"/>
</g>
</svg>
