<svg width="160" height="160" viewBox="0 0 160 160" fill="none" xmlns="http://www.w3.org/2000/svg">
<rect width="160" height="160" rx="80" fill="#4CBA5E"/>
<mask id="mask0_3738_46689" style="mask-type:alpha" maskUnits="userSpaceOnUse" x="0" y="0" width="160" height="160">
<circle cx="79.7377" cy="79.7377" r="79.7377" fill="#D9D9D9"/>
</mask>
<g mask="url(#mask0_3738_46689)">
<path d="M123.451 145.569C123.085 145.83 122.667 146.092 122.301 146.353C121.883 146.614 121.517 146.876 121.098 147.085C120.732 147.294 120.419 147.503 120.053 147.713C120 147.765 119.948 147.765 119.896 147.817C118.693 148.549 117.438 149.229 116.183 149.856C115.817 150.065 115.399 150.275 115.033 150.431C115.033 150.431 114.981 150.484 114.929 150.484C114.51 150.693 114.092 150.902 113.674 151.111C112.837 151.53 111.948 151.896 111.112 152.262C110.693 152.471 110.223 152.628 109.804 152.784C109.386 152.941 108.915 153.15 108.497 153.307C108.079 153.464 107.608 153.673 107.19 153.83C107.19 153.83 107.19 153.83 107.138 153.83C106.719 153.987 106.249 154.144 105.831 154.301C104.889 154.614 103.896 154.928 102.955 155.242C102.641 155.347 102.275 155.451 101.961 155.556C100.968 155.869 99.9743 156.131 98.9809 156.34C98.6148 156.445 98.2488 156.497 97.8305 156.601C96.8894 156.811 95.8959 157.02 94.9547 157.229C94.7456 157.281 94.5887 157.281 94.3795 157.333C94.0658 157.386 93.6998 157.438 93.3861 157.49C92.9155 157.543 92.4972 157.647 92.0266 157.699C91.8175 157.752 91.6083 157.752 91.3992 157.804C91.1377 157.856 90.824 157.909 90.5103 157.909C89.6737 158.013 88.7848 158.118 87.9482 158.222C87.6867 158.275 87.373 158.275 87.1116 158.327H87.0593C86.6933 158.379 86.3273 158.379 85.9612 158.431C85.5952 158.484 85.2292 158.484 84.8632 158.484C84.6541 158.484 84.3926 158.536 84.1835 158.536C83.7652 158.536 83.3992 158.588 83.0331 158.588C82.5103 158.588 82.0397 158.641 81.5168 158.641C80.9939 158.641 80.5233 158.641 80.0005 158.641C79.6344 158.641 79.2684 158.641 78.9024 158.641C56.8371 158.327 37.0201 148.967 22.8501 134.118C22.8501 134.118 22.8501 134.065 22.7979 134.065C21.2292 132.654 22.5887 125.124 28.9155 120.366C36.8632 114.353 55.8959 110.588 55.8959 110.588C55.8959 110.588 63.2684 109.386 90.6148 115.085C106.615 118.431 118.798 123.294 125.595 136.471C127.007 139.19 128.419 143.373 123.451 145.569Z" fill="white"/>
<path d="M90.7715 114.51C100.811 116.549 111.53 118.745 119.791 125.386C122.562 127.634 124.392 130.928 125.909 134.118C126.641 135.687 127.373 137.307 127.948 139.033C128.262 140.183 128.732 141.49 128.471 142.85C128.419 143.216 128.105 143.687 127.843 143.948C126.641 145.151 125.334 145.883 124.026 146.824C116.34 152.157 107.503 155.922 98.3532 157.909C77.961 162.353 55.8956 158.902 37.961 148.183C32.0002 144.575 26.51 140.183 21.8041 135.007C21.2812 134.379 21.2812 133.334 21.2812 132.654C21.3335 131.085 21.7518 129.569 22.2747 128.157C23.5296 124.915 25.1505 121.673 27.9218 119.425C29.9087 118.066 32.0525 116.915 34.2486 115.974C41.1505 113.046 48.4185 111.007 55.8956 110.17C56.5231 110.118 56.6277 111.007 56.0002 111.111C48.8368 112.575 41.7257 114.771 35.0852 117.752C32.6799 118.955 30.1179 120 28.1832 121.883C26.3531 123.87 25.046 126.327 24.0002 128.837C23.3205 130.353 22.8499 132.758 23.059 133.961C26.3531 137.883 30.2224 141.334 34.4054 144.314C57.3074 160.314 92.0786 161.36 116.445 148.026C118.641 146.824 120.785 145.464 122.824 144.053C123.817 143.373 124.863 142.798 125.647 142.013C125.7 141.961 125.647 142.013 125.647 142.066C125.647 142.118 125.595 142.17 125.595 142.17C125.647 141.543 125.438 140.706 125.177 139.87C124.236 136.837 122.719 133.647 121.098 130.876C118.536 126.745 114.196 124.131 109.804 122.039C106.771 120.628 103.582 119.53 100.34 118.484C97.0982 117.438 93.8041 116.549 90.51 115.765C89.6734 115.556 89.9349 114.353 90.7715 114.51Z" fill="black"/>
<path d="M123.451 145.569C123.085 145.83 122.667 146.092 122.301 146.353C121.883 146.614 121.517 146.876 121.099 147.085C120.733 147.294 120.419 147.503 120.053 147.713C120 147.765 119.948 147.765 119.896 147.817C118.693 148.549 117.438 149.229 116.183 149.856C115.817 150.065 115.399 150.275 115.033 150.431C115.033 150.431 114.981 150.484 114.929 150.484C114.51 150.693 114.092 150.902 113.674 151.111C112.837 151.53 111.948 151.896 111.112 152.262C110.693 152.471 110.223 152.628 109.804 152.784C109.386 152.941 108.916 153.15 108.497 153.307C108.079 153.464 107.608 153.673 107.19 153.83C107.19 153.83 107.19 153.83 107.138 153.83C106.719 153.987 106.249 154.144 105.831 154.301C104.889 154.614 103.896 154.928 102.955 155.242C102.641 155.347 102.275 155.451 101.961 155.556C100.968 155.869 99.9743 156.131 98.9809 156.34C98.6149 156.445 98.2489 156.497 97.8306 156.601C96.8894 156.811 95.8959 157.02 94.9547 157.229C94.7456 157.281 94.5887 157.281 94.3796 157.333C94.0658 157.386 93.6998 157.438 93.3861 157.49C92.9155 157.543 92.4972 157.647 92.0266 157.699C91.8175 157.752 91.6083 157.752 91.3992 157.804C91.1377 157.856 90.824 157.909 90.5103 157.909C89.6737 158.013 88.7848 158.118 87.9482 158.222C87.6868 158.275 87.373 158.275 87.1116 158.327H87.0593C86.6933 158.379 86.3273 158.379 85.9613 158.431C85.5953 158.484 85.2292 158.484 84.8632 158.484C84.6541 158.484 84.3926 158.536 84.1835 158.536C83.7652 158.536 83.3992 158.588 83.0332 158.588C82.5103 158.588 82.0397 158.641 81.5168 158.641C80.9939 158.641 80.5234 158.641 80.0005 158.641C79.6345 158.641 79.2685 158.641 78.9024 158.641C56.8371 158.327 37.0201 148.967 22.8502 134.118C22.8502 134.118 22.8502 134.065 22.7979 134.065C21.2292 133.281 22.3273 124.34 28.6541 119.582C36.6018 113.569 55.8959 110.588 55.8959 110.588C55.8959 110.588 63.2685 109.386 90.6149 115.085C105.255 118.118 118.85 122.928 123.817 131.294C125.177 133.595 128.471 138.092 127.896 141.49C127.582 143.32 125.02 144.157 123.451 145.569Z" fill="white"/>
<path d="M90.7717 114.51C100.497 116.601 111.896 118.432 119.896 124.758C125.02 128.837 126.693 135.32 129.151 141.177C129.36 141.543 129.151 141.909 128.994 142.222C127.582 144.418 125.281 145.883 123.19 147.347C117.072 151.477 110.223 154.615 103.164 156.654C79.5299 163.503 52.8109 159.216 32.7848 144.837C28.7586 141.961 25.0462 138.667 21.7521 135.007L22.0135 135.216C21.1769 134.641 20.9678 133.595 20.9678 132.706C21.2292 129.046 22.8501 125.7 24.471 122.458C24.9939 121.517 25.5691 120.471 26.4057 119.739C34.092 112.68 46.7456 109.961 56.8371 109.02C57.4645 108.968 57.5168 109.856 56.9416 109.961C47.5822 111.686 37.8567 113.883 29.909 119.32C28.8632 120.157 27.6083 120.994 26.8763 122.144C25.6737 124.026 21.4384 132.183 23.007 133.856C33.9351 146.876 50.3534 154.353 67.0331 156.34C83.4514 158.536 100.759 156.288 115.451 148.497C117.543 147.399 119.582 146.196 121.517 144.837C123.295 143.634 125.072 142.484 126.432 140.863L126.38 140.968L126.327 141.909C126.17 139.974 125.177 138.092 124.549 136.262C123.817 134.432 123.033 132.497 122.092 130.824C120.21 127.425 116.968 125.02 113.569 123.19C110.066 121.307 106.249 119.948 102.327 118.798C98.4057 117.647 94.4841 116.654 90.458 115.765C89.6736 115.556 89.9351 114.353 90.7717 114.51Z" fill="black"/>
<path d="M29.752 118.431C29.752 118.431 32.3663 118.745 35.9742 120.941C42.7193 125.072 53.2814 150.745 34.8761 166.118C34.8761 166.118 31.582 185.36 34.8761 189.02C34.8761 189.02 95.1114 192.052 121.098 189.02C121.098 189.02 124.549 177.726 122.876 165.647C120.785 150.327 121.412 134.222 111.321 120.471C106.719 114.196 83.6605 108.758 70.3271 108.863C56.8369 109.02 51.2421 110.431 47.6866 111.32C44.0787 112.262 30.0134 115.66 29.752 118.431Z" fill="black" stroke="black" stroke-width="5.1257" stroke-miterlimit="10" stroke-linecap="round" stroke-linejoin="round"/>
<path d="M31.3203 120.523C37.6471 114.719 36.9151 119.634 48.7844 117.7C53.3334 116.968 58.719 113.203 65.6733 113.36C70.6929 113.464 76.1308 117.229 82.5621 118.066C87.7386 118.745 93.9085 116.392 100.078 117.647C105.255 118.745 110.065 123.294 116.026 124.915" stroke="white" stroke-width="4" stroke-miterlimit="10" stroke-linecap="round" stroke-linejoin="round"/>
<path d="M31.791 127.477C39.2159 123.033 37.8041 127.686 49.5688 126.066C54.2224 125.438 59.7649 121.569 66.6668 121.621C71.791 121.673 77.3335 125.386 83.8172 126.013C89.0982 126.536 95.2681 123.974 101.49 125.02C106.824 125.961 111.791 130.458 117.804 131.869" stroke="white" stroke-width="4" stroke-miterlimit="10" stroke-linecap="round" stroke-linejoin="round"/>
<path d="M32.2617 134.484C40.4186 131.242 38.6408 135.634 50.3009 134.379C55.1114 133.857 60.7584 129.987 67.6604 129.987C72.8892 129.987 78.5885 133.647 85.0722 134.17C90.4578 134.589 96.68 131.765 102.902 132.654C108.34 133.438 113.517 137.83 119.634 139.033" stroke="white" stroke-width="4" stroke-miterlimit="10" stroke-linecap="round" stroke-linejoin="round"/>
<path d="M32.7324 141.595C41.3599 139.451 39.3729 143.582 50.9285 142.641C55.8435 142.222 61.6475 138.405 68.5494 138.353C73.935 138.301 79.7912 141.961 86.2749 142.327C91.8174 142.641 97.9873 139.556 104.314 140.235C109.909 140.811 115.347 145.098 121.517 146.092" stroke="white" stroke-width="4" stroke-miterlimit="10" stroke-linecap="round" stroke-linejoin="round"/>
<path d="M33.0986 148.706C42.0398 147.451 39.896 151.373 51.4516 150.798C56.5235 150.536 62.4843 146.719 69.4385 146.667C74.9287 146.615 80.9418 150.327 87.4777 150.536C93.1248 150.745 99.347 147.451 105.726 147.87C111.478 148.288 117.177 152.419 123.399 153.098" stroke="white" stroke-width="4" stroke-miterlimit="10" stroke-linecap="round" stroke-linejoin="round"/>
<path d="M33.4639 155.818C42.6142 155.295 40.4181 159.112 51.9737 158.85C57.2024 158.746 63.3201 154.981 70.2743 154.981C75.9214 154.981 82.039 158.693 88.6273 158.798C94.4312 158.903 100.706 155.399 107.085 155.608C112.993 155.818 118.954 159.791 125.281 160.157" stroke="white" stroke-width="4" stroke-miterlimit="10" stroke-linecap="round" stroke-linejoin="round"/>
<path d="M95.6851 128.418C94.587 133.804 87.4759 137.046 75.502 132.183C63.0576 127.163 57.672 115.189 56.3125 111.634C63.685 97.8298 58.5609 88.2612 58.5609 88.2612C75.5543 86.7971 90.404 106.666 90.404 106.666L92.7047 116.496C92.9138 117.333 93.3321 118.065 93.9596 118.588C95.0576 120.523 96.3648 124.967 95.6851 128.418Z" fill="white"/>
<path d="M56.0513 111.791C57.0448 110.274 57.6722 108.497 58.0905 106.771C58.8749 103.163 59.1363 99.503 59.1886 95.8429V94.4834C59.0317 93.124 58.5611 91.7122 58.0383 90.4573C57.3585 88.7841 59.816 87.7383 60.6003 89.4115C60.7049 89.6207 60.7049 89.9867 60.7049 90.1959C60.8618 97.307 61.1755 106.457 56.6788 112.366C56.3651 112.68 55.7376 112.209 56.0513 111.791Z" fill="black"/>
<path d="M90.9797 106.562C91.764 107.033 92.0255 107.66 92.1301 108.287C92.4438 109.542 92.3392 110.902 92.6529 112.209C92.9144 113.464 93.6987 114.667 93.9078 115.974C94.1693 117.333 94.9536 120.209 95.2673 121.621C95.3719 121.934 95.1627 122.3 94.7967 122.353C94.5876 122.405 94.4307 122.353 94.2738 122.248C93.5941 121.673 93.2804 121.098 92.8621 120.366C92.1823 119.111 91.7118 117.961 91.2935 116.549C90.9274 115.294 91.0843 113.934 90.7706 112.627C90.5091 111.372 89.7771 110.17 89.5157 108.863C89.3588 108.235 89.3065 107.555 89.7771 106.771C90.0908 106.457 90.6137 106.353 90.9797 106.562Z" fill="black"/>
<path d="M94.7438 120.366C84.7569 119.843 76.6001 116.706 68.6523 102.536C75.3452 108.444 83.2406 110.693 91.5543 111.738L92.6523 116.549C92.8615 117.385 94.1164 119.843 94.7438 120.366Z" fill="black"/>
<path d="M94.3259 118.431C96.1036 121.778 97.1494 125.961 96.0513 129.673C95.2147 132.288 92.8095 134.222 90.1951 134.954C84.1298 136.575 77.1232 134.013 71.7376 131.137C65.0971 127.425 60.1821 121.203 57.0448 114.405C56.8357 113.882 57.5677 113.464 57.8814 113.987C58.9794 116.183 60.2343 118.327 61.6461 120.261C63.0579 122.248 64.6788 124.078 66.5089 125.699C71.8422 130.51 79.0579 133.49 86.2736 133.49C93.6984 133.281 96.5219 129.359 94.7964 122.144C94.535 120.993 94.1167 119.791 93.5415 118.797C93.2278 118.379 94.0121 117.908 94.3259 118.431Z" fill="black"/>
<path d="M114.562 55.6336C115.503 60.0257 115.974 63.5813 113.411 75.2937C110.902 86.9538 117.019 89.3591 102.536 108.026C96.6271 115.66 82.3003 113.516 70.6925 105.621C66.7709 102.954 65.0977 96.1042 62.1696 91.2414C59.8689 87.4244 58.8232 91.3983 55.7905 88.1042C51.6598 83.6074 46.6925 74.5617 49.15 58.5617C53.1238 32.6271 73.6729 29.5944 88.8885 32.4702C104.209 35.3983 112.052 44.078 114.562 55.6336Z" fill="white"/>
<path d="M58.4047 92.758C57.2021 90.7188 55.6334 88.941 54.1694 87.0586C52.7576 85.124 51.6073 82.9802 50.6661 80.7841C44.4439 65.5161 46.8491 44.0259 62.1171 35.0325C68.4439 31.3723 76.0779 30.4835 83.189 31.0586C98.4047 32.1567 112.365 39.1632 115.66 55.2678C117.437 62.3789 115.032 69.6992 113.673 76.6534C113.045 80.1044 113.568 83.6599 113.516 87.2155C113.463 90.8233 112.47 94.4312 111.111 97.7776C110.274 100.078 108.81 102.117 107.294 104C104.784 107.032 102.274 110.117 99.0844 112.47C98.3524 112.993 97.0452 113.255 96.1563 113.359C93.6988 113.725 91.2935 113.83 88.836 113.673C79.2151 113.255 68.9145 108.601 65.0452 99.2939C64.8883 98.9279 65.4112 98.6665 65.6203 98.9802C70.64 106.928 79.8426 110.849 88.9929 111.372C91.8164 111.529 94.6922 111.477 97.4635 110.902C98.823 110.222 100.026 109.019 101.176 107.921C103.999 105.098 106.875 102.065 108.914 98.6142C111.372 93.9606 112.731 88.8887 112.313 83.6076C112.209 81.2547 112.156 78.7972 112.627 76.4442C113.045 74.0913 113.568 71.8429 113.882 69.4377C114.196 67.1371 114.352 64.7841 114.352 62.4835C114.091 55.7384 111.895 48.7841 107.607 43.5554C98.1432 31.7906 75.7641 28.7057 63.1628 36.758C55.2151 41.673 51.5027 50.8756 50.3001 59.8168C48.47 70.5358 48.9929 81.0978 57.5158 88.8887L60.0256 91.5031C61.019 92.6534 59.2413 94.0129 58.4047 92.758Z" fill="black"/>
<path d="M64.5744 76.1303C64.5744 76.1303 62.9535 68.2871 55.3195 69.2283C48.7313 70.0649 46.4306 85.8558 61.3849 90.2479" fill="white"/>
<path d="M60.705 83.3985C59.5024 82.7187 58.6658 81.5684 58.6135 80.1566C58.6658 79.1109 58.8227 77.9083 58.5612 76.8625C58.4044 75.869 57.3586 75.6076 56.5743 75.6599C55.7377 75.8168 55.2148 76.8625 55.058 77.6991C55.058 77.7514 55.0057 77.9083 55.0057 77.9606C54.9534 78.222 54.5351 78.222 54.4305 77.9606C53.7508 75.9213 55.2671 73.673 57.4632 73.9344C60.5482 74.1436 60.9665 77.3854 60.3913 79.8429C60.0776 80.8887 60.4959 81.8298 61.0711 82.7187L61.1756 82.8756C61.4371 83.1893 61.0188 83.6076 60.705 83.3985Z" fill="black"/>
<path d="M102.536 70.5882C103.32 74.3006 104.784 77.7516 106.614 80.9934C108.235 84.9673 104.052 88.732 100.34 88.5751C99.9213 88.5751 99.869 87.9999 100.235 87.8954C102.588 87.1633 104.732 85.5947 105.098 83.1895C105.255 82.4575 105.045 81.83 104.679 81.2025C102.954 77.9607 101.908 74.2483 102.17 70.5882C102.17 70.3267 102.536 70.3267 102.536 70.5882Z" fill="black"/>
<path d="M64.3133 76.1827C63.1107 73.0978 60.4963 70.1697 56.9931 70.222C56.6794 70.1697 56.1565 70.2742 55.8428 70.2742C54.9539 70.3265 54.2218 70.6403 53.5421 71.2677C50.1957 74.6141 50.7709 80.5226 53.4898 84.235C54.431 85.5422 55.6336 86.6926 56.9931 87.6337C58.3526 88.5749 59.8689 89.3069 61.4898 89.9344C61.8558 90.039 61.699 90.6141 61.3329 90.5618C57.8297 89.8298 54.4833 88.1043 52.1826 85.2285C48.6271 80.9409 47.895 73.7775 52.1303 69.5945C53.0715 68.7579 54.3787 68.1305 55.6859 68.1305C56.1042 68.1305 56.7316 68.0259 57.1499 68.1305C59.346 68.235 61.4375 69.3331 62.797 71.0586C63.9996 72.5226 64.6794 74.3004 64.8885 76.0782C64.8885 76.3919 64.4179 76.4965 64.3133 76.1827Z" fill="black"/>
<path d="M97.3599 93.5947C97.4122 94.4313 96.7847 95.8953 95.6344 96.9411C89.7259 93.3332 87.0592 95.2156 87.0592 95.2156C84.9677 92.026 85.4383 87.6862 90.5102 90.9803C94.0135 93.2809 96.2095 93.6469 97.3599 93.5947Z" fill="black"/>
<path d="M95.582 96.9932C94.3271 98.0912 92.4447 98.771 89.8827 97.7252C88.68 97.2546 87.7389 96.3134 87.0068 95.2677C87.0591 95.2677 89.6735 93.3853 95.582 96.9932Z" fill="white"/>
<path d="M98.3529 93.438C98.3529 93.438 96.1568 94.6406 90.5097 91.0328C83.7646 86.6929 85.1241 95.791 89.8823 97.7256C94.8496 99.7648 97.4117 95.3204 97.3594 93.6472" stroke="black" stroke-width="3" stroke-miterlimit="10" stroke-linecap="round" stroke-linejoin="round"/>
<path d="M87.0586 95.2677C87.0586 95.2677 89.7253 93.3853 95.6338 96.9932" stroke="black" stroke-width="3" stroke-miterlimit="10" stroke-linecap="round" stroke-linejoin="round"/>
<path d="M90.7192 65.0456C91.8695 65.2025 92.7584 63.9998 92.3401 62.8495C92.131 62.2221 91.7649 61.6469 91.1898 61.2809C89.412 60.1829 82.7715 60.0783 79.2682 62.5881C76.131 64.8887 85.4904 64.3136 90.7192 65.0456Z" fill="black"/>
<path d="M105.203 65.6207C104.261 65.6207 103.686 64.4181 104.157 63.4246C104.418 62.9017 104.784 62.4311 105.307 62.1697C106.928 61.3854 111.268 61.856 113.203 64.5226C114.928 66.8756 109.542 65.5684 105.203 65.6207Z" fill="black"/>
<path d="M88.785 71.7906C86.1183 70.6403 83.0857 70.954 80.3144 71.5815C80.0007 71.6861 79.7916 71.2678 80.053 71.0586C82.4582 69.0717 87.0072 68.8102 88.9419 71.5292C89.0987 71.6338 88.9942 71.8429 88.785 71.7906Z" fill="black"/>
<path d="M109.334 72.8886C108.079 71.9997 106.249 72.1566 104.785 72.3134C104.262 72.3657 103.739 72.4703 103.164 72.6272C103.007 72.6794 102.85 72.418 102.955 72.3134L103.059 72.2089C104.367 70.8494 106.406 70.5357 108.184 71.2154C108.811 71.4768 109.438 71.8429 109.752 72.5749C109.909 72.8363 109.543 73.0977 109.334 72.8886Z" fill="black"/>
<path d="M118.747 64.366C121.1 56.3137 117.022 50.7189 114.093 48C112.734 44.3398 110.433 40.732 106.773 37.9608C106.041 37.3856 105.257 36.8627 104.368 36.3921C103.636 35.9738 102.852 35.6078 102.067 35.2418C95.1654 32.2614 84.1327 28.7581 73.2046 30.6405C69.0216 31.3202 64.8386 32.8366 60.917 35.3987C60.8647 35.3987 60.8647 35.451 60.8647 35.451C60.551 35.6601 60.2373 35.8693 59.9758 36.0784C59.2438 35.1895 58.4072 34.4052 57.466 33.6732C50.9301 28.7581 43.819 29.5947 38.9039 36.183C33.9889 42.7189 33.1523 52.4967 39.6883 57.4117C41.7275 58.9281 44.0281 59.8693 46.3811 60.2353C46.3288 60.4967 46.3288 60.8104 46.2765 61.0719C43.4007 86.8496 63.1131 98.4575 61.5968 90.3529C61.1784 90.1961 60.9693 90.0392 60.9693 89.9346C46.4856 85.3333 48.7863 69.8562 55.3222 69.0196C57.6752 68.7059 59.4007 69.281 60.7601 70.1176C61.283 70.6405 61.7536 71.1111 62.2242 71.5817C63.4791 73.1503 64.5771 75.1372 64.5771 75.9215C64.6294 75.2941 64.6817 74.5621 64.8386 73.83C71.1654 78.5359 76.8647 76.8627 87.2177 60.3398C94.0673 49.4117 98.1458 47.2679 100.394 47.5817C101.283 47.8954 102.12 48.5751 102.904 49.7255C103.113 50.0392 103.322 50.3529 103.479 50.6666C108.08 50.5621 110.224 53.2287 111.322 56C111.322 56 111.322 56 111.322 56.0523C112.211 58.4052 112.316 60.8104 112.42 61.4379C112.42 61.5425 112.42 61.5947 112.473 61.5947C112.368 63.6862 112.107 67.2418 112.054 71.8431C112.054 73.9346 112.263 78.1176 112.107 80.5229C112.054 81.2549 112.002 81.9869 111.95 82.6666C111.897 83.0327 111.897 83.3987 111.845 83.7124C111.793 84.0261 111.793 84.3921 111.741 84.7581C111.688 85.1764 111.636 85.5425 111.636 85.9608C112.682 87.2157 114.198 87.4248 115.453 88.2614C115.767 84.7059 114.826 81.7255 114.459 77.6993C114.773 79.0588 115.192 80.366 115.819 81.7255C117.91 86.2222 116.76 89.5163 116.76 89.5163L120.211 89.7255C120.577 88.732 120.891 86.9019 119.793 84.4967C118.12 80.7843 118.015 79.0588 118.015 79.0588C118.015 79.0588 118.904 82.0915 120.577 84.1307C121.884 85.8039 122.407 88.0523 121.884 89.83L123.139 89.9346C126.904 84.2876 115.244 76.2353 118.747 64.366ZM76.0804 68.915C72.1066 71.7908 68.7601 71.2157 66.7209 70.3268C66.7732 70.3268 66.8255 70.2745 66.8255 70.2745C68.0804 70.1699 69.3353 69.9085 70.5379 69.4379C76.2896 67.3987 81.6229 62.1176 86.3288 57.2549C82.3549 62.1699 78.5379 67.1372 76.0804 68.915Z" fill="black"/>
<path d="M150.693 44.0785C182.431 105.203 126.64 174.17 60.1304 157.333C30.2742 149.909 6.2742 124.026 1.30688 93.6471C-4.34018 63.4249 9.30688 30.9543 34.8232 13.8563C69.8036 -10.196 118.274 -2.19602 143.32 32.2092C143.477 32.3661 143.425 32.6275 143.215 32.7844C143.059 32.9412 142.797 32.889 142.64 32.6798C139.189 28.2354 135.268 24.2092 130.98 20.6014C123.921 14.5883 115.66 9.88241 106.928 6.69287C62.4833 -9.41171 13.699 17.3595 3.97355 63.8432C-7.00685 115.922 37.2807 163.869 90.0912 156.706C130.823 151.582 161.098 113.987 157.751 73.0981C157.019 63.2157 154.405 53.438 150.065 44.4445C149.96 44.2876 150.065 44.0785 150.222 43.9739C150.379 43.8693 150.588 43.9216 150.693 44.0785Z" fill="black"/>
</g>
</svg>
