<svg width="226" height="432" viewBox="0 0 226 432" fill="none" xmlns="http://www.w3.org/2000/svg">
<g clip-path="url(#clip0_3530_46862)">
<rect width="762" height="428" fill="#F8FFF9"/>
<g opacity="0.4">
<circle r="3.52301" transform="matrix(-1 0 0 1 170.113 315.364)" fill="#49F95D" fill-opacity="0.46"/>
<circle r="3.52301" transform="matrix(-1 0 0 1 170.113 329.456)" fill="#49F95D" fill-opacity="0.46"/>
<circle r="3.52301" transform="matrix(-1 0 0 1 170.113 343.548)" fill="#49F95D" fill-opacity="0.46"/>
<circle r="3.52301" transform="matrix(-1 0 0 1 170.113 357.64)" fill="#49F95D" fill-opacity="0.46"/>
<circle r="3.52301" transform="matrix(-1 0 0 1 170.113 371.732)" fill="#49F95D" fill-opacity="0.46"/>
<circle r="3.52301" transform="matrix(-1 0 0 1 170.113 385.824)" fill="#49F95D" fill-opacity="0.46"/>
<circle r="3.52301" transform="matrix(-1 0 0 1 170.113 399.916)" fill="#49F95D" fill-opacity="0.46"/>
<circle r="3.52301" transform="matrix(-1 0 0 1 170.113 414.008)" fill="#49F95D" fill-opacity="0.46"/>
<circle r="3.52301" transform="matrix(-1 0 0 1 170.113 428.1)" fill="#49F95D" fill-opacity="0.46"/>
<circle r="3.52301" transform="matrix(-1 0 0 1 84.6799 315.364)" fill="#49F95D" fill-opacity="0.46"/>
<circle r="3.52301" transform="matrix(-1 0 0 1 84.6799 329.456)" fill="#49F95D" fill-opacity="0.46"/>
<circle r="3.52301" transform="matrix(-1 0 0 1 84.6799 343.548)" fill="#49F95D" fill-opacity="0.46"/>
<circle r="3.52301" transform="matrix(-1 0 0 1 84.6799 357.64)" fill="#49F95D" fill-opacity="0.46"/>
<circle r="3.52301" transform="matrix(-1 0 0 1 84.6799 371.732)" fill="#49F95D" fill-opacity="0.46"/>
<circle r="3.52301" transform="matrix(-1 0 0 1 84.6799 385.824)" fill="#49F95D" fill-opacity="0.46"/>
<circle r="3.52301" transform="matrix(-1 0 0 1 84.6799 399.916)" fill="#49F95D" fill-opacity="0.46"/>
<circle r="3.52301" transform="matrix(-1 0 0 1 84.6799 414.008)" fill="#49F95D" fill-opacity="0.46"/>
<circle r="3.52301" transform="matrix(-1 0 0 1 84.6799 428.1)" fill="#49F95D" fill-opacity="0.46"/>
<circle r="3.52301" transform="matrix(-1 0 0 1 126.956 315.364)" fill="#49F95D" fill-opacity="0.46"/>
<circle r="3.52301" transform="matrix(-1 0 0 1 126.956 329.456)" fill="#49F95D" fill-opacity="0.46"/>
<circle r="3.52301" transform="matrix(-1 0 0 1 126.956 343.548)" fill="#49F95D" fill-opacity="0.46"/>
<circle r="3.52301" transform="matrix(-1 0 0 1 126.956 357.64)" fill="#49F95D" fill-opacity="0.46"/>
<circle r="3.52301" transform="matrix(-1 0 0 1 126.956 371.732)" fill="#49F95D" fill-opacity="0.46"/>
<circle r="3.52301" transform="matrix(-1 0 0 1 126.956 385.824)" fill="#49F95D" fill-opacity="0.46"/>
<circle r="3.52301" transform="matrix(-1 0 0 1 126.956 399.916)" fill="#49F95D" fill-opacity="0.46"/>
<circle r="3.52301" transform="matrix(-1 0 0 1 126.956 414.008)" fill="#49F95D" fill-opacity="0.46"/>
<circle r="3.52301" transform="matrix(-1 0 0 1 126.956 428.1)" fill="#49F95D" fill-opacity="0.46"/>
<circle r="3.52301" transform="matrix(-1 0 0 1 41.5229 315.364)" fill="#49F95D" fill-opacity="0.46"/>
<circle r="3.52301" transform="matrix(-1 0 0 1 41.5229 329.456)" fill="#49F95D" fill-opacity="0.46"/>
<circle r="3.52301" transform="matrix(-1 0 0 1 41.5229 343.548)" fill="#49F95D" fill-opacity="0.46"/>
<circle r="3.52301" transform="matrix(-1 0 0 1 41.5229 357.64)" fill="#49F95D" fill-opacity="0.46"/>
<circle r="3.52301" transform="matrix(-1 0 0 1 41.5229 371.732)" fill="#49F95D" fill-opacity="0.46"/>
<circle r="3.52301" transform="matrix(-1 0 0 1 41.5229 385.824)" fill="#49F95D" fill-opacity="0.46"/>
<circle r="3.52301" transform="matrix(-1 0 0 1 41.5229 399.916)" fill="#49F95D" fill-opacity="0.46"/>
<circle r="3.52301" transform="matrix(-1 0 0 1 41.5229 414.008)" fill="#49F95D" fill-opacity="0.46"/>
<circle r="3.52301" transform="matrix(-1 0 0 1 41.5229 428.1)" fill="#49F95D" fill-opacity="0.46"/>
<circle r="3.52301" transform="matrix(-1 0 0 1 156.021 315.364)" fill="#49F95D" fill-opacity="0.46"/>
<circle r="3.52301" transform="matrix(-1 0 0 1 156.021 329.456)" fill="#49F95D" fill-opacity="0.46"/>
<circle r="3.52301" transform="matrix(-1 0 0 1 156.021 343.548)" fill="#49F95D" fill-opacity="0.46"/>
<circle r="3.52301" transform="matrix(-1 0 0 1 156.021 357.64)" fill="#49F95D" fill-opacity="0.46"/>
<circle r="3.52301" transform="matrix(-1 0 0 1 156.021 371.732)" fill="#49F95D" fill-opacity="0.46"/>
<circle r="3.52301" transform="matrix(-1 0 0 1 156.021 385.824)" fill="#49F95D" fill-opacity="0.46"/>
<circle r="3.52301" transform="matrix(-1 0 0 1 156.021 399.916)" fill="#49F95D" fill-opacity="0.46"/>
<circle r="3.52301" transform="matrix(-1 0 0 1 156.021 414.008)" fill="#49F95D" fill-opacity="0.46"/>
<circle r="3.52301" transform="matrix(-1 0 0 1 156.021 428.1)" fill="#49F95D" fill-opacity="0.46"/>
<circle r="3.52301" transform="matrix(-1 0 0 1 70.5878 315.364)" fill="#49F95D" fill-opacity="0.46"/>
<circle r="3.52301" transform="matrix(-1 0 0 1 70.5878 329.456)" fill="#49F95D" fill-opacity="0.46"/>
<circle r="3.52301" transform="matrix(-1 0 0 1 70.5878 343.548)" fill="#49F95D" fill-opacity="0.46"/>
<circle r="3.52301" transform="matrix(-1 0 0 1 70.5878 357.64)" fill="#49F95D" fill-opacity="0.46"/>
<circle r="3.52301" transform="matrix(-1 0 0 1 70.5878 371.732)" fill="#49F95D" fill-opacity="0.46"/>
<circle r="3.52301" transform="matrix(-1 0 0 1 70.5878 385.824)" fill="#49F95D" fill-opacity="0.46"/>
<circle r="3.52301" transform="matrix(-1 0 0 1 70.5878 399.916)" fill="#49F95D" fill-opacity="0.46"/>
<circle r="3.52301" transform="matrix(-1 0 0 1 70.5878 414.008)" fill="#49F95D" fill-opacity="0.46"/>
<circle r="3.52301" transform="matrix(-1 0 0 1 70.5878 428.1)" fill="#49F95D" fill-opacity="0.46"/>
<circle r="3.52301" transform="matrix(-1 0 0 1 112.864 315.364)" fill="#49F95D" fill-opacity="0.46"/>
<circle r="3.52301" transform="matrix(-1 0 0 1 112.864 329.456)" fill="#49F95D" fill-opacity="0.46"/>
<circle r="3.52301" transform="matrix(-1 0 0 1 112.864 343.548)" fill="#49F95D" fill-opacity="0.46"/>
<circle r="3.52301" transform="matrix(-1 0 0 1 112.864 357.64)" fill="#49F95D" fill-opacity="0.46"/>
<circle r="3.52301" transform="matrix(-1 0 0 1 112.864 371.732)" fill="#49F95D" fill-opacity="0.46"/>
<circle r="3.52301" transform="matrix(-1 0 0 1 112.864 385.824)" fill="#49F95D" fill-opacity="0.46"/>
<circle r="3.52301" transform="matrix(-1 0 0 1 112.864 399.916)" fill="#49F95D" fill-opacity="0.46"/>
<circle r="3.52301" transform="matrix(-1 0 0 1 112.864 414.008)" fill="#49F95D" fill-opacity="0.46"/>
<circle r="3.52301" transform="matrix(-1 0 0 1 112.864 428.1)" fill="#49F95D" fill-opacity="0.46"/>
<circle r="3.52301" transform="matrix(-1 0 0 1 141.929 315.364)" fill="#49F95D" fill-opacity="0.46"/>
<circle r="3.52301" transform="matrix(-1 0 0 1 141.929 329.456)" fill="#49F95D" fill-opacity="0.46"/>
<circle r="3.52301" transform="matrix(-1 0 0 1 141.929 343.548)" fill="#49F95D" fill-opacity="0.46"/>
<circle r="3.52301" transform="matrix(-1 0 0 1 141.929 357.64)" fill="#49F95D" fill-opacity="0.46"/>
<circle r="3.52301" transform="matrix(-1 0 0 1 141.929 371.732)" fill="#49F95D" fill-opacity="0.46"/>
<circle r="3.52301" transform="matrix(-1 0 0 1 141.929 385.824)" fill="#49F95D" fill-opacity="0.46"/>
<circle r="3.52301" transform="matrix(-1 0 0 1 141.929 399.916)" fill="#49F95D" fill-opacity="0.46"/>
<circle r="3.52301" transform="matrix(-1 0 0 1 141.929 414.008)" fill="#49F95D" fill-opacity="0.46"/>
<circle r="3.52301" transform="matrix(-1 0 0 1 141.929 428.1)" fill="#49F95D" fill-opacity="0.46"/>
<circle r="3.52301" transform="matrix(-1 0 0 1 56.4958 315.364)" fill="#49F95D" fill-opacity="0.46"/>
<circle r="3.52301" transform="matrix(-1 0 0 1 56.4958 329.456)" fill="#49F95D" fill-opacity="0.46"/>
<circle r="3.52301" transform="matrix(-1 0 0 1 56.4958 343.548)" fill="#49F95D" fill-opacity="0.46"/>
<circle r="3.52301" transform="matrix(-1 0 0 1 56.4958 357.64)" fill="#49F95D" fill-opacity="0.46"/>
<circle r="3.52301" transform="matrix(-1 0 0 1 56.4958 371.732)" fill="#49F95D" fill-opacity="0.46"/>
<circle r="3.52301" transform="matrix(-1 0 0 1 56.4958 385.824)" fill="#49F95D" fill-opacity="0.46"/>
<circle r="3.52301" transform="matrix(-1 0 0 1 56.4958 399.916)" fill="#49F95D" fill-opacity="0.46"/>
<circle r="3.52301" transform="matrix(-1 0 0 1 56.4958 414.008)" fill="#49F95D" fill-opacity="0.46"/>
<circle r="3.52301" transform="matrix(-1 0 0 1 56.4958 428.1)" fill="#49F95D" fill-opacity="0.46"/>
<circle r="3.52301" transform="matrix(-1 0 0 1 98.7719 315.364)" fill="#49F95D" fill-opacity="0.46"/>
<circle r="3.52301" transform="matrix(-1 0 0 1 98.7719 329.456)" fill="#49F95D" fill-opacity="0.46"/>
<circle r="3.52301" transform="matrix(-1 0 0 1 98.7719 343.548)" fill="#49F95D" fill-opacity="0.46"/>
<circle r="3.52301" transform="matrix(-1 0 0 1 98.7719 357.64)" fill="#49F95D" fill-opacity="0.46"/>
<circle r="3.52301" transform="matrix(-1 0 0 1 98.7719 371.732)" fill="#49F95D" fill-opacity="0.46"/>
<circle r="3.52301" transform="matrix(-1 0 0 1 98.7719 385.824)" fill="#49F95D" fill-opacity="0.46"/>
<circle r="3.52301" transform="matrix(-1 0 0 1 98.7719 399.916)" fill="#49F95D" fill-opacity="0.46"/>
<circle r="3.52301" transform="matrix(-1 0 0 1 98.7719 414.008)" fill="#49F95D" fill-opacity="0.46"/>
<circle r="3.52301" transform="matrix(-1 0 0 1 98.7719 428.1)" fill="#49F95D" fill-opacity="0.46"/>
<circle r="3.52301" transform="matrix(-1 0 0 1 170.994 174.444)" fill="#49F95D" fill-opacity="0.46"/>
<circle r="3.52301" transform="matrix(-1 0 0 1 170.994 188.536)" fill="#49F95D" fill-opacity="0.46"/>
<circle r="3.52301" transform="matrix(-1 0 0 1 170.994 202.628)" fill="#49F95D" fill-opacity="0.46"/>
<circle r="3.52301" transform="matrix(-1 0 0 1 170.994 216.72)" fill="#49F95D" fill-opacity="0.46"/>
<circle r="3.52301" transform="matrix(-1 0 0 1 170.994 230.812)" fill="#49F95D" fill-opacity="0.46"/>
<circle r="3.52301" transform="matrix(-1 0 0 1 170.994 244.904)" fill="#49F95D" fill-opacity="0.46"/>
<circle r="3.52301" transform="matrix(-1 0 0 1 170.994 258.996)" fill="#49F95D" fill-opacity="0.46"/>
<circle r="3.52301" transform="matrix(-1 0 0 1 170.994 273.088)" fill="#49F95D" fill-opacity="0.46"/>
<circle r="3.52301" transform="matrix(-1 0 0 1 170.994 287.18)" fill="#49F95D" fill-opacity="0.46"/>
<circle r="3.52301" transform="matrix(-1 0 0 1 170.994 301.272)" fill="#49F95D" fill-opacity="0.46"/>
<circle r="3.52301" transform="matrix(-1 0 0 1 85.5607 174.444)" fill="#49F95D" fill-opacity="0.46"/>
<circle r="3.52301" transform="matrix(-1 0 0 1 85.5607 188.536)" fill="#49F95D" fill-opacity="0.46"/>
<circle r="3.52301" transform="matrix(-1 0 0 1 85.5607 202.628)" fill="#49F95D" fill-opacity="0.46"/>
<circle r="3.52301" transform="matrix(-1 0 0 1 85.5607 216.72)" fill="#49F95D" fill-opacity="0.46"/>
<circle r="3.52301" transform="matrix(-1 0 0 1 85.5607 230.812)" fill="#49F95D" fill-opacity="0.46"/>
<circle r="3.52301" transform="matrix(-1 0 0 1 85.5607 244.904)" fill="#49F95D" fill-opacity="0.46"/>
<circle r="3.52301" transform="matrix(-1 0 0 1 85.5607 258.996)" fill="#49F95D" fill-opacity="0.46"/>
<circle r="3.52301" transform="matrix(-1 0 0 1 85.5607 273.088)" fill="#49F95D" fill-opacity="0.46"/>
<circle r="3.52301" transform="matrix(-1 0 0 1 85.5607 287.18)" fill="#49F95D" fill-opacity="0.46"/>
<circle r="3.52301" transform="matrix(-1 0 0 1 85.5607 301.272)" fill="#49F95D" fill-opacity="0.46"/>
<circle r="3.52301" transform="matrix(-1 0 0 1 127.837 174.444)" fill="#49F95D" fill-opacity="0.46"/>
<circle r="3.52301" transform="matrix(-1 0 0 1 127.837 188.536)" fill="#49F95D" fill-opacity="0.46"/>
<circle r="3.52301" transform="matrix(-1 0 0 1 127.837 202.628)" fill="#49F95D" fill-opacity="0.46"/>
<circle r="3.52301" transform="matrix(-1 0 0 1 127.837 216.72)" fill="#49F95D" fill-opacity="0.46"/>
<circle r="3.52301" transform="matrix(-1 0 0 1 127.837 230.812)" fill="#49F95D" fill-opacity="0.46"/>
<circle r="3.52301" transform="matrix(-1 0 0 1 127.837 244.904)" fill="#49F95D" fill-opacity="0.46"/>
<circle r="3.52301" transform="matrix(-1 0 0 1 127.837 258.996)" fill="#49F95D" fill-opacity="0.46"/>
<circle r="3.52301" transform="matrix(-1 0 0 1 127.837 273.088)" fill="#49F95D" fill-opacity="0.46"/>
<circle r="3.52301" transform="matrix(-1 0 0 1 127.837 287.18)" fill="#49F95D" fill-opacity="0.46"/>
<circle r="3.52301" transform="matrix(-1 0 0 1 127.837 301.272)" fill="#49F95D" fill-opacity="0.46"/>
<circle r="3.52301" transform="matrix(-1 0 0 1 42.4037 174.444)" fill="#49F95D" fill-opacity="0.46"/>
<circle r="3.52301" transform="matrix(-1 0 0 1 42.4037 188.536)" fill="#49F95D" fill-opacity="0.46"/>
<circle r="3.52301" transform="matrix(-1 0 0 1 42.4037 202.628)" fill="#49F95D" fill-opacity="0.46"/>
<circle r="3.52301" transform="matrix(-1 0 0 1 42.4037 216.72)" fill="#49F95D" fill-opacity="0.46"/>
<circle r="3.52301" transform="matrix(-1 0 0 1 42.4037 230.812)" fill="#49F95D" fill-opacity="0.46"/>
<circle r="3.52301" transform="matrix(-1 0 0 1 42.4037 244.904)" fill="#49F95D" fill-opacity="0.46"/>
<circle r="3.52301" transform="matrix(-1 0 0 1 42.4037 258.996)" fill="#49F95D" fill-opacity="0.46"/>
<circle r="3.52301" transform="matrix(-1 0 0 1 42.4037 273.088)" fill="#49F95D" fill-opacity="0.46"/>
<circle r="3.52301" transform="matrix(-1 0 0 1 42.4037 287.18)" fill="#49F95D" fill-opacity="0.46"/>
<circle r="3.52301" transform="matrix(-1 0 0 1 42.4037 301.272)" fill="#49F95D" fill-opacity="0.46"/>
<circle r="3.52301" transform="matrix(-1 0 0 1 156.902 174.444)" fill="#49F95D" fill-opacity="0.46"/>
<circle r="3.52301" transform="matrix(-1 0 0 1 156.902 188.536)" fill="#49F95D" fill-opacity="0.46"/>
<circle r="3.52301" transform="matrix(-1 0 0 1 156.902 202.628)" fill="#49F95D" fill-opacity="0.46"/>
<circle r="3.52301" transform="matrix(-1 0 0 1 156.902 216.72)" fill="#49F95D" fill-opacity="0.46"/>
<circle r="3.52301" transform="matrix(-1 0 0 1 156.902 230.812)" fill="#49F95D" fill-opacity="0.46"/>
<circle r="3.52301" transform="matrix(-1 0 0 1 156.902 244.904)" fill="#49F95D" fill-opacity="0.46"/>
<circle r="3.52301" transform="matrix(-1 0 0 1 156.902 258.996)" fill="#49F95D" fill-opacity="0.46"/>
<circle r="3.52301" transform="matrix(-1 0 0 1 156.902 273.088)" fill="#49F95D" fill-opacity="0.46"/>
<circle r="3.52301" transform="matrix(-1 0 0 1 156.902 287.18)" fill="#49F95D" fill-opacity="0.46"/>
<circle r="3.52301" transform="matrix(-1 0 0 1 156.902 301.272)" fill="#49F95D" fill-opacity="0.46"/>
<circle r="3.52301" transform="matrix(-1 0 0 1 71.4687 174.444)" fill="#49F95D" fill-opacity="0.46"/>
<circle r="3.52301" transform="matrix(-1 0 0 1 71.4687 188.536)" fill="#49F95D" fill-opacity="0.46"/>
<circle r="3.52301" transform="matrix(-1 0 0 1 71.4687 202.628)" fill="#49F95D" fill-opacity="0.46"/>
<circle r="3.52301" transform="matrix(-1 0 0 1 71.4687 216.72)" fill="#49F95D" fill-opacity="0.46"/>
<circle r="3.52301" transform="matrix(-1 0 0 1 71.4687 230.812)" fill="#49F95D" fill-opacity="0.46"/>
<circle r="3.52301" transform="matrix(-1 0 0 1 71.4687 244.904)" fill="#49F95D" fill-opacity="0.46"/>
<circle r="3.52301" transform="matrix(-1 0 0 1 71.4687 258.996)" fill="#49F95D" fill-opacity="0.46"/>
<circle r="3.52301" transform="matrix(-1 0 0 1 71.4687 273.088)" fill="#49F95D" fill-opacity="0.46"/>
<circle r="3.52301" transform="matrix(-1 0 0 1 71.4687 287.18)" fill="#49F95D" fill-opacity="0.46"/>
<circle r="3.52301" transform="matrix(-1 0 0 1 71.4687 301.272)" fill="#49F95D" fill-opacity="0.46"/>
<circle r="3.52301" transform="matrix(-1 0 0 1 113.745 174.444)" fill="#49F95D" fill-opacity="0.46"/>
<circle r="3.52301" transform="matrix(-1 0 0 1 113.745 188.536)" fill="#49F95D" fill-opacity="0.46"/>
<circle r="3.52301" transform="matrix(-1 0 0 1 113.745 202.628)" fill="#49F95D" fill-opacity="0.46"/>
<circle r="3.52301" transform="matrix(-1 0 0 1 113.745 216.72)" fill="#49F95D" fill-opacity="0.46"/>
<circle r="3.52301" transform="matrix(-1 0 0 1 113.745 230.812)" fill="#49F95D" fill-opacity="0.46"/>
<circle r="3.52301" transform="matrix(-1 0 0 1 113.745 244.904)" fill="#49F95D" fill-opacity="0.46"/>
<circle r="3.52301" transform="matrix(-1 0 0 1 113.745 258.996)" fill="#49F95D" fill-opacity="0.46"/>
<circle r="3.52301" transform="matrix(-1 0 0 1 113.745 273.088)" fill="#49F95D" fill-opacity="0.46"/>
<circle r="3.52301" transform="matrix(-1 0 0 1 113.745 287.18)" fill="#49F95D" fill-opacity="0.46"/>
<circle r="3.52301" transform="matrix(-1 0 0 1 113.745 301.272)" fill="#49F95D" fill-opacity="0.46"/>
<circle r="3.52301" transform="matrix(-1 0 0 1 142.81 174.444)" fill="#49F95D" fill-opacity="0.46"/>
<circle r="3.52301" transform="matrix(-1 0 0 1 142.81 188.536)" fill="#49F95D" fill-opacity="0.46"/>
<circle r="3.52301" transform="matrix(-1 0 0 1 142.81 202.628)" fill="#49F95D" fill-opacity="0.46"/>
<circle r="3.52301" transform="matrix(-1 0 0 1 142.81 216.72)" fill="#49F95D" fill-opacity="0.46"/>
<circle r="3.52301" transform="matrix(-1 0 0 1 142.81 230.812)" fill="#49F95D" fill-opacity="0.46"/>
<circle r="3.52301" transform="matrix(-1 0 0 1 142.81 244.904)" fill="#49F95D" fill-opacity="0.46"/>
<circle r="3.52301" transform="matrix(-1 0 0 1 142.81 258.996)" fill="#49F95D" fill-opacity="0.46"/>
<circle r="3.52301" transform="matrix(-1 0 0 1 142.81 273.088)" fill="#49F95D" fill-opacity="0.46"/>
<circle r="3.52301" transform="matrix(-1 0 0 1 142.81 287.18)" fill="#49F95D" fill-opacity="0.46"/>
<circle r="3.52301" transform="matrix(-1 0 0 1 142.81 301.272)" fill="#49F95D" fill-opacity="0.46"/>
<circle r="3.52301" transform="matrix(-1 0 0 1 57.3766 174.444)" fill="#49F95D" fill-opacity="0.46"/>
<circle r="3.52301" transform="matrix(-1 0 0 1 57.3766 188.536)" fill="#49F95D" fill-opacity="0.46"/>
<circle r="3.52301" transform="matrix(-1 0 0 1 57.3766 202.628)" fill="#49F95D" fill-opacity="0.46"/>
<circle r="3.52301" transform="matrix(-1 0 0 1 57.3766 216.72)" fill="#49F95D" fill-opacity="0.46"/>
<circle r="3.52301" transform="matrix(-1 0 0 1 57.3766 230.812)" fill="#49F95D" fill-opacity="0.46"/>
<circle r="3.52301" transform="matrix(-1 0 0 1 57.3766 244.904)" fill="#49F95D" fill-opacity="0.46"/>
<circle r="3.52301" transform="matrix(-1 0 0 1 57.3766 258.996)" fill="#49F95D" fill-opacity="0.46"/>
<circle r="3.52301" transform="matrix(-1 0 0 1 57.3766 273.088)" fill="#49F95D" fill-opacity="0.46"/>
<circle r="3.52301" transform="matrix(-1 0 0 1 57.3766 287.18)" fill="#49F95D" fill-opacity="0.46"/>
<circle r="3.52301" transform="matrix(-1 0 0 1 57.3766 301.272)" fill="#49F95D" fill-opacity="0.46"/>
<circle r="3.52301" transform="matrix(-1 0 0 1 99.6528 174.444)" fill="#49F95D" fill-opacity="0.46"/>
<circle r="3.52301" transform="matrix(-1 0 0 1 99.6528 188.536)" fill="#49F95D" fill-opacity="0.46"/>
<circle r="3.52301" transform="matrix(-1 0 0 1 99.6528 202.628)" fill="#49F95D" fill-opacity="0.46"/>
<circle r="3.52301" transform="matrix(-1 0 0 1 99.6528 216.72)" fill="#49F95D" fill-opacity="0.46"/>
<circle r="3.52301" transform="matrix(-1 0 0 1 99.6528 230.812)" fill="#49F95D" fill-opacity="0.46"/>
<circle r="3.52301" transform="matrix(-1 0 0 1 99.6528 244.904)" fill="#49F95D" fill-opacity="0.46"/>
<circle r="3.52301" transform="matrix(-1 0 0 1 99.6528 258.996)" fill="#49F95D" fill-opacity="0.46"/>
<circle r="3.52301" transform="matrix(-1 0 0 1 99.6528 273.088)" fill="#49F95D" fill-opacity="0.46"/>
<circle r="3.52301" transform="matrix(-1 0 0 1 99.6528 287.18)" fill="#49F95D" fill-opacity="0.46"/>
<circle r="3.52301" transform="matrix(-1 0 0 1 99.6528 301.272)" fill="#49F95D" fill-opacity="0.46"/>
<circle r="3.52301" transform="matrix(-1 0 0 1 227.362 428.1)" fill="#49F95D" fill-opacity="0.46"/>
<circle r="3.52301" transform="matrix(-1 0 0 1 184.205 428.1)" fill="#49F95D" fill-opacity="0.46"/>
<circle r="3.52301" transform="matrix(-1 0 0 1 213.27 428.1)" fill="#49F95D" fill-opacity="0.46"/>
<circle r="3.52301" transform="matrix(-1 0 0 1 199.178 428.1)" fill="#49F95D" fill-opacity="0.46"/>
<circle r="3.52301" transform="matrix(-1 0 0 1 227.362 287.18)" fill="#49F95D" fill-opacity="0.46"/>
<circle r="3.52301" transform="matrix(-1 0 0 1 227.362 301.272)" fill="#49F95D" fill-opacity="0.46"/>
<circle r="3.52301" transform="matrix(-1 0 0 1 227.362 315.364)" fill="#49F95D" fill-opacity="0.46"/>
<circle r="3.52301" transform="matrix(-1 0 0 1 227.362 329.456)" fill="#49F95D" fill-opacity="0.46"/>
<circle r="3.52301" transform="matrix(-1 0 0 1 227.362 343.548)" fill="#49F95D" fill-opacity="0.46"/>
<circle r="3.52301" transform="matrix(-1 0 0 1 227.362 357.64)" fill="#49F95D" fill-opacity="0.46"/>
<circle r="3.52301" transform="matrix(-1 0 0 1 227.362 371.732)" fill="#49F95D" fill-opacity="0.46"/>
<circle r="3.52301" transform="matrix(-1 0 0 1 227.362 385.824)" fill="#49F95D" fill-opacity="0.46"/>
<circle r="3.52301" transform="matrix(-1 0 0 1 227.362 399.916)" fill="#49F95D" fill-opacity="0.46"/>
<circle r="3.52301" transform="matrix(-1 0 0 1 227.362 414.008)" fill="#49F95D" fill-opacity="0.46"/>
<circle r="3.52301" transform="matrix(-1 0 0 1 184.205 287.18)" fill="#49F95D" fill-opacity="0.46"/>
<circle r="3.52301" transform="matrix(-1 0 0 1 184.205 301.272)" fill="#49F95D" fill-opacity="0.46"/>
<circle r="3.52301" transform="matrix(-1 0 0 1 184.205 315.364)" fill="#49F95D" fill-opacity="0.46"/>
<circle r="3.52301" transform="matrix(-1 0 0 1 184.205 329.456)" fill="#49F95D" fill-opacity="0.46"/>
<circle r="3.52301" transform="matrix(-1 0 0 1 184.205 343.548)" fill="#49F95D" fill-opacity="0.46"/>
<circle r="3.52301" transform="matrix(-1 0 0 1 184.205 357.64)" fill="#49F95D" fill-opacity="0.46"/>
<circle r="3.52301" transform="matrix(-1 0 0 1 184.205 371.732)" fill="#49F95D" fill-opacity="0.46"/>
<circle r="3.52301" transform="matrix(-1 0 0 1 184.205 385.824)" fill="#49F95D" fill-opacity="0.46"/>
<circle r="3.52301" transform="matrix(-1 0 0 1 184.205 399.916)" fill="#49F95D" fill-opacity="0.46"/>
<circle r="3.52301" transform="matrix(-1 0 0 1 184.205 414.008)" fill="#49F95D" fill-opacity="0.46"/>
<circle r="3.52301" transform="matrix(-1 0 0 1 213.27 287.18)" fill="#49F95D" fill-opacity="0.46"/>
<circle r="3.52301" transform="matrix(-1 0 0 1 213.27 301.272)" fill="#49F95D" fill-opacity="0.46"/>
<circle r="3.52301" transform="matrix(-1 0 0 1 213.27 315.364)" fill="#49F95D" fill-opacity="0.46"/>
<circle r="3.52301" transform="matrix(-1 0 0 1 213.27 329.456)" fill="#49F95D" fill-opacity="0.46"/>
<circle r="3.52301" transform="matrix(-1 0 0 1 213.27 343.548)" fill="#49F95D" fill-opacity="0.46"/>
<circle r="3.52301" transform="matrix(-1 0 0 1 213.27 357.64)" fill="#49F95D" fill-opacity="0.46"/>
<circle r="3.52301" transform="matrix(-1 0 0 1 213.27 371.732)" fill="#49F95D" fill-opacity="0.46"/>
<circle r="3.52301" transform="matrix(-1 0 0 1 213.27 385.824)" fill="#49F95D" fill-opacity="0.46"/>
<circle r="3.52301" transform="matrix(-1 0 0 1 213.27 399.916)" fill="#49F95D" fill-opacity="0.46"/>
<circle r="3.52301" transform="matrix(-1 0 0 1 213.27 414.008)" fill="#49F95D" fill-opacity="0.46"/>
<circle r="3.52301" transform="matrix(-1 0 0 1 199.178 287.18)" fill="#49F95D" fill-opacity="0.46"/>
<circle r="3.52301" transform="matrix(-1 0 0 1 199.178 301.272)" fill="#49F95D" fill-opacity="0.46"/>
<circle r="3.52301" transform="matrix(-1 0 0 1 199.178 315.364)" fill="#49F95D" fill-opacity="0.46"/>
<circle r="3.52301" transform="matrix(-1 0 0 1 199.178 329.456)" fill="#49F95D" fill-opacity="0.46"/>
<circle r="3.52301" transform="matrix(-1 0 0 1 199.178 343.548)" fill="#49F95D" fill-opacity="0.46"/>
<circle r="3.52301" transform="matrix(-1 0 0 1 199.178 357.64)" fill="#49F95D" fill-opacity="0.46"/>
<circle r="3.52301" transform="matrix(-1 0 0 1 199.178 371.732)" fill="#49F95D" fill-opacity="0.46"/>
<circle r="3.52301" transform="matrix(-1 0 0 1 199.178 385.824)" fill="#49F95D" fill-opacity="0.46"/>
<circle r="3.52301" transform="matrix(-1 0 0 1 199.178 399.916)" fill="#49F95D" fill-opacity="0.46"/>
<circle r="3.52301" transform="matrix(-1 0 0 1 199.178 414.008)" fill="#49F95D" fill-opacity="0.46"/>
<circle r="3.52301" transform="matrix(-1 0 0 1 228.243 146.259)" fill="#49F95D" fill-opacity="0.46"/>
<circle r="3.52301" transform="matrix(-1 0 0 1 228.243 160.351)" fill="#49F95D" fill-opacity="0.46"/>
<circle r="3.52301" transform="matrix(-1 0 0 1 228.243 174.444)" fill="#49F95D" fill-opacity="0.46"/>
<circle r="3.52301" transform="matrix(-1 0 0 1 228.243 188.536)" fill="#49F95D" fill-opacity="0.46"/>
<circle r="3.52301" transform="matrix(-1 0 0 1 228.243 202.628)" fill="#49F95D" fill-opacity="0.46"/>
<circle r="3.52301" transform="matrix(-1 0 0 1 228.243 216.72)" fill="#49F95D" fill-opacity="0.46"/>
<circle r="3.52301" transform="matrix(-1 0 0 1 228.243 230.812)" fill="#49F95D" fill-opacity="0.46"/>
<circle r="3.52301" transform="matrix(-1 0 0 1 228.243 244.904)" fill="#49F95D" fill-opacity="0.46"/>
<circle r="3.52301" transform="matrix(-1 0 0 1 228.243 258.996)" fill="#49F95D" fill-opacity="0.46"/>
<circle r="3.52301" transform="matrix(-1 0 0 1 228.243 273.088)" fill="#49F95D" fill-opacity="0.46"/>
<circle r="3.52301" transform="matrix(-1 0 0 1 185.086 146.259)" fill="#49F95D" fill-opacity="0.46"/>
<circle r="3.52301" transform="matrix(-1 0 0 1 185.086 160.351)" fill="#49F95D" fill-opacity="0.46"/>
<circle r="3.52301" transform="matrix(-1 0 0 1 185.086 174.444)" fill="#49F95D" fill-opacity="0.46"/>
<circle r="3.52301" transform="matrix(-1 0 0 1 185.086 188.536)" fill="#49F95D" fill-opacity="0.46"/>
<circle r="3.52301" transform="matrix(-1 0 0 1 185.086 202.628)" fill="#49F95D" fill-opacity="0.46"/>
<circle r="3.52301" transform="matrix(-1 0 0 1 185.086 216.72)" fill="#49F95D" fill-opacity="0.46"/>
<circle r="3.52301" transform="matrix(-1 0 0 1 185.086 230.812)" fill="#49F95D" fill-opacity="0.46"/>
<circle r="3.52301" transform="matrix(-1 0 0 1 185.086 244.904)" fill="#49F95D" fill-opacity="0.46"/>
<circle r="3.52301" transform="matrix(-1 0 0 1 185.086 258.996)" fill="#49F95D" fill-opacity="0.46"/>
<circle r="3.52301" transform="matrix(-1 0 0 1 185.086 273.088)" fill="#49F95D" fill-opacity="0.46"/>
<circle r="3.52301" transform="matrix(-1 0 0 1 214.151 146.259)" fill="#49F95D" fill-opacity="0.46"/>
<circle r="3.52301" transform="matrix(-1 0 0 1 214.151 160.351)" fill="#49F95D" fill-opacity="0.46"/>
<circle r="3.52301" transform="matrix(-1 0 0 1 214.151 174.444)" fill="#49F95D" fill-opacity="0.46"/>
<circle r="3.52301" transform="matrix(-1 0 0 1 214.151 188.536)" fill="#49F95D" fill-opacity="0.46"/>
<circle r="3.52301" transform="matrix(-1 0 0 1 214.151 202.628)" fill="#49F95D" fill-opacity="0.46"/>
<circle r="3.52301" transform="matrix(-1 0 0 1 214.151 216.72)" fill="#49F95D" fill-opacity="0.46"/>
<circle r="3.52301" transform="matrix(-1 0 0 1 214.151 230.812)" fill="#49F95D" fill-opacity="0.46"/>
<circle r="3.52301" transform="matrix(-1 0 0 1 214.151 244.904)" fill="#49F95D" fill-opacity="0.46"/>
<circle r="3.52301" transform="matrix(-1 0 0 1 214.151 258.996)" fill="#49F95D" fill-opacity="0.46"/>
<circle r="3.52301" transform="matrix(-1 0 0 1 214.151 273.088)" fill="#49F95D" fill-opacity="0.46"/>
<circle r="3.52301" transform="matrix(-1 0 0 1 200.059 146.259)" fill="#49F95D" fill-opacity="0.46"/>
<circle r="3.52301" transform="matrix(-1 0 0 1 200.059 160.351)" fill="#49F95D" fill-opacity="0.46"/>
<circle r="3.52301" transform="matrix(-1 0 0 1 200.059 174.444)" fill="#49F95D" fill-opacity="0.46"/>
<circle r="3.52301" transform="matrix(-1 0 0 1 200.059 188.536)" fill="#49F95D" fill-opacity="0.46"/>
<circle r="3.52301" transform="matrix(-1 0 0 1 200.059 202.628)" fill="#49F95D" fill-opacity="0.46"/>
<circle r="3.52301" transform="matrix(-1 0 0 1 200.059 216.72)" fill="#49F95D" fill-opacity="0.46"/>
<circle r="3.52301" transform="matrix(-1 0 0 1 200.059 230.812)" fill="#49F95D" fill-opacity="0.46"/>
<circle r="3.52301" transform="matrix(-1 0 0 1 200.059 244.904)" fill="#49F95D" fill-opacity="0.46"/>
<circle r="3.52301" transform="matrix(-1 0 0 1 200.059 258.996)" fill="#49F95D" fill-opacity="0.46"/>
<circle r="3.52301" transform="matrix(-1 0 0 1 200.059 273.088)" fill="#49F95D" fill-opacity="0.46"/>
<circle r="3.52301" transform="matrix(-1 0 0 1 170.994 33.523)" fill="#49F95D" fill-opacity="0.46"/>
<circle r="3.52301" transform="matrix(-1 0 0 1 170.994 47.6151)" fill="#49F95D" fill-opacity="0.46"/>
<circle r="3.52301" transform="matrix(-1 0 0 1 170.994 61.7071)" fill="#49F95D" fill-opacity="0.46"/>
<circle r="3.52301" transform="matrix(-1 0 0 1 170.994 75.7992)" fill="#49F95D" fill-opacity="0.46"/>
<circle r="3.52301" transform="matrix(-1 0 0 1 170.994 89.8912)" fill="#49F95D" fill-opacity="0.46"/>
<circle r="3.52301" transform="matrix(-1 0 0 1 170.994 103.983)" fill="#49F95D" fill-opacity="0.46"/>
<circle r="3.52301" transform="matrix(-1 0 0 1 170.994 118.075)" fill="#49F95D" fill-opacity="0.46"/>
<circle r="3.52301" transform="matrix(-1 0 0 1 170.994 132.167)" fill="#49F95D" fill-opacity="0.46"/>
<circle r="3.52301" transform="matrix(-1 0 0 1 170.994 146.259)" fill="#49F95D" fill-opacity="0.46"/>
<circle r="3.52301" transform="matrix(-1 0 0 1 170.994 160.351)" fill="#49F95D" fill-opacity="0.46"/>
<circle r="3.52301" transform="matrix(-1 0 0 1 85.5607 33.523)" fill="#49F95D" fill-opacity="0.46"/>
<circle r="3.52301" transform="matrix(-1 0 0 1 85.5607 47.6151)" fill="#49F95D" fill-opacity="0.46"/>
<circle r="3.52301" transform="matrix(-1 0 0 1 85.5607 61.7071)" fill="#49F95D" fill-opacity="0.46"/>
<circle r="3.52301" transform="matrix(-1 0 0 1 85.5607 75.7992)" fill="#49F95D" fill-opacity="0.46"/>
<circle r="3.52301" transform="matrix(-1 0 0 1 85.5607 89.8912)" fill="#49F95D" fill-opacity="0.46"/>
<circle r="3.52301" transform="matrix(-1 0 0 1 85.5607 103.983)" fill="#49F95D" fill-opacity="0.46"/>
<circle r="3.52301" transform="matrix(-1 0 0 1 85.5607 118.075)" fill="#49F95D" fill-opacity="0.46"/>
<circle r="3.52301" transform="matrix(-1 0 0 1 85.5607 132.167)" fill="#49F95D" fill-opacity="0.46"/>
<circle r="3.52301" transform="matrix(-1 0 0 1 85.5607 146.259)" fill="#49F95D" fill-opacity="0.46"/>
<circle r="3.52301" transform="matrix(-1 0 0 1 85.5607 160.351)" fill="#49F95D" fill-opacity="0.46"/>
<circle r="3.52301" transform="matrix(-1 0 0 1 127.837 33.523)" fill="#49F95D" fill-opacity="0.46"/>
<circle r="3.52301" transform="matrix(-1 0 0 1 127.837 47.6151)" fill="#49F95D" fill-opacity="0.46"/>
<circle r="3.52301" transform="matrix(-1 0 0 1 127.837 61.7071)" fill="#49F95D" fill-opacity="0.46"/>
<circle r="3.52301" transform="matrix(-1 0 0 1 127.837 75.7992)" fill="#49F95D" fill-opacity="0.46"/>
<circle r="3.52301" transform="matrix(-1 0 0 1 127.837 89.8912)" fill="#49F95D" fill-opacity="0.46"/>
<circle r="3.52301" transform="matrix(-1 0 0 1 127.837 103.983)" fill="#49F95D" fill-opacity="0.46"/>
<circle r="3.52301" transform="matrix(-1 0 0 1 127.837 118.075)" fill="#49F95D" fill-opacity="0.46"/>
<circle r="3.52301" transform="matrix(-1 0 0 1 127.837 132.167)" fill="#49F95D" fill-opacity="0.46"/>
<circle r="3.52301" transform="matrix(-1 0 0 1 127.837 146.259)" fill="#49F95D" fill-opacity="0.46"/>
<circle r="3.52301" transform="matrix(-1 0 0 1 127.837 160.351)" fill="#49F95D" fill-opacity="0.46"/>
<circle r="3.52301" transform="matrix(-1 0 0 1 42.4037 33.523)" fill="#49F95D" fill-opacity="0.46"/>
<circle r="3.52301" transform="matrix(-1 0 0 1 42.4037 47.6151)" fill="#49F95D" fill-opacity="0.46"/>
<circle r="3.52301" transform="matrix(-1 0 0 1 42.4037 61.7071)" fill="#49F95D" fill-opacity="0.46"/>
<circle r="3.52301" transform="matrix(-1 0 0 1 42.4037 75.7992)" fill="#49F95D" fill-opacity="0.46"/>
<circle r="3.52301" transform="matrix(-1 0 0 1 42.4037 89.8912)" fill="#49F95D" fill-opacity="0.46"/>
<circle r="3.52301" transform="matrix(-1 0 0 1 42.4037 103.983)" fill="#49F95D" fill-opacity="0.46"/>
<circle r="3.52301" transform="matrix(-1 0 0 1 42.4037 118.075)" fill="#49F95D" fill-opacity="0.46"/>
<circle r="3.52301" transform="matrix(-1 0 0 1 42.4037 132.167)" fill="#49F95D" fill-opacity="0.46"/>
<circle r="3.52301" transform="matrix(-1 0 0 1 42.4037 146.259)" fill="#49F95D" fill-opacity="0.46"/>
<circle r="3.52301" transform="matrix(-1 0 0 1 42.4037 160.351)" fill="#49F95D" fill-opacity="0.46"/>
<circle r="3.52301" transform="matrix(-1 0 0 1 156.902 33.523)" fill="#49F95D" fill-opacity="0.46"/>
<circle r="3.52301" transform="matrix(-1 0 0 1 156.902 47.6151)" fill="#49F95D" fill-opacity="0.46"/>
<circle r="3.52301" transform="matrix(-1 0 0 1 156.902 61.7071)" fill="#49F95D" fill-opacity="0.46"/>
<circle r="3.52301" transform="matrix(-1 0 0 1 156.902 75.7992)" fill="#49F95D" fill-opacity="0.46"/>
<circle r="3.52301" transform="matrix(-1 0 0 1 156.902 89.8912)" fill="#49F95D" fill-opacity="0.46"/>
<circle r="3.52301" transform="matrix(-1 0 0 1 156.902 103.983)" fill="#49F95D" fill-opacity="0.46"/>
<circle r="3.52301" transform="matrix(-1 0 0 1 156.902 118.075)" fill="#49F95D" fill-opacity="0.46"/>
<circle r="3.52301" transform="matrix(-1 0 0 1 156.902 132.167)" fill="#49F95D" fill-opacity="0.46"/>
<circle r="3.52301" transform="matrix(-1 0 0 1 156.902 146.259)" fill="#49F95D" fill-opacity="0.46"/>
<circle r="3.52301" transform="matrix(-1 0 0 1 156.902 160.351)" fill="#49F95D" fill-opacity="0.46"/>
<circle r="3.52301" transform="matrix(-1 0 0 1 71.4687 33.523)" fill="#49F95D" fill-opacity="0.46"/>
<circle r="3.52301" transform="matrix(-1 0 0 1 71.4687 47.6151)" fill="#49F95D" fill-opacity="0.46"/>
<circle r="3.52301" transform="matrix(-1 0 0 1 71.4687 61.7071)" fill="#49F95D" fill-opacity="0.46"/>
<circle r="3.52301" transform="matrix(-1 0 0 1 71.4687 75.7992)" fill="#49F95D" fill-opacity="0.46"/>
<circle r="3.52301" transform="matrix(-1 0 0 1 71.4687 89.8912)" fill="#49F95D" fill-opacity="0.46"/>
<circle r="3.52301" transform="matrix(-1 0 0 1 71.4687 103.983)" fill="#49F95D" fill-opacity="0.46"/>
<circle r="3.52301" transform="matrix(-1 0 0 1 71.4687 118.075)" fill="#49F95D" fill-opacity="0.46"/>
<circle r="3.52301" transform="matrix(-1 0 0 1 71.4687 132.167)" fill="#49F95D" fill-opacity="0.46"/>
<circle r="3.52301" transform="matrix(-1 0 0 1 71.4687 146.259)" fill="#49F95D" fill-opacity="0.46"/>
<circle r="3.52301" transform="matrix(-1 0 0 1 71.4687 160.351)" fill="#49F95D" fill-opacity="0.46"/>
<circle r="3.52301" transform="matrix(-1 0 0 1 113.745 33.523)" fill="#49F95D" fill-opacity="0.46"/>
<circle r="3.52301" transform="matrix(-1 0 0 1 113.745 47.6151)" fill="#49F95D" fill-opacity="0.46"/>
<circle r="3.52301" transform="matrix(-1 0 0 1 113.745 61.7071)" fill="#49F95D" fill-opacity="0.46"/>
<circle r="3.52301" transform="matrix(-1 0 0 1 113.745 75.7992)" fill="#49F95D" fill-opacity="0.46"/>
<circle r="3.52301" transform="matrix(-1 0 0 1 113.745 89.8912)" fill="#49F95D" fill-opacity="0.46"/>
<circle r="3.52301" transform="matrix(-1 0 0 1 113.745 103.983)" fill="#49F95D" fill-opacity="0.46"/>
<circle r="3.52301" transform="matrix(-1 0 0 1 113.745 118.075)" fill="#49F95D" fill-opacity="0.46"/>
<circle r="3.52301" transform="matrix(-1 0 0 1 113.745 132.167)" fill="#49F95D" fill-opacity="0.46"/>
<circle r="3.52301" transform="matrix(-1 0 0 1 113.745 146.259)" fill="#49F95D" fill-opacity="0.46"/>
<circle r="3.52301" transform="matrix(-1 0 0 1 113.745 160.351)" fill="#49F95D" fill-opacity="0.46"/>
<circle r="3.52301" transform="matrix(-1 0 0 1 142.81 33.523)" fill="#49F95D" fill-opacity="0.46"/>
<circle r="3.52301" transform="matrix(-1 0 0 1 142.81 47.6151)" fill="#49F95D" fill-opacity="0.46"/>
<circle r="3.52301" transform="matrix(-1 0 0 1 142.81 61.7071)" fill="#49F95D" fill-opacity="0.46"/>
<circle r="3.52301" transform="matrix(-1 0 0 1 142.81 75.7992)" fill="#49F95D" fill-opacity="0.46"/>
<circle r="3.52301" transform="matrix(-1 0 0 1 142.81 89.8912)" fill="#49F95D" fill-opacity="0.46"/>
<circle r="3.52301" transform="matrix(-1 0 0 1 142.81 103.983)" fill="#49F95D" fill-opacity="0.46"/>
<circle r="3.52301" transform="matrix(-1 0 0 1 142.81 118.075)" fill="#49F95D" fill-opacity="0.46"/>
<circle r="3.52301" transform="matrix(-1 0 0 1 142.81 132.167)" fill="#49F95D" fill-opacity="0.46"/>
<circle r="3.52301" transform="matrix(-1 0 0 1 142.81 146.259)" fill="#49F95D" fill-opacity="0.46"/>
<circle r="3.52301" transform="matrix(-1 0 0 1 142.81 160.351)" fill="#49F95D" fill-opacity="0.46"/>
<circle r="3.52301" transform="matrix(-1 0 0 1 57.3766 33.523)" fill="#49F95D" fill-opacity="0.46"/>
<circle r="3.52301" transform="matrix(-1 0 0 1 57.3766 47.6151)" fill="#49F95D" fill-opacity="0.46"/>
<circle r="3.52301" transform="matrix(-1 0 0 1 57.3766 61.7071)" fill="#49F95D" fill-opacity="0.46"/>
<circle r="3.52301" transform="matrix(-1 0 0 1 57.3766 75.7992)" fill="#49F95D" fill-opacity="0.46"/>
<circle r="3.52301" transform="matrix(-1 0 0 1 57.3766 89.8912)" fill="#49F95D" fill-opacity="0.46"/>
<circle r="3.52301" transform="matrix(-1 0 0 1 57.3766 103.983)" fill="#49F95D" fill-opacity="0.46"/>
<circle r="3.52301" transform="matrix(-1 0 0 1 57.3766 118.075)" fill="#49F95D" fill-opacity="0.46"/>
<circle r="3.52301" transform="matrix(-1 0 0 1 57.3766 132.167)" fill="#49F95D" fill-opacity="0.46"/>
<circle r="3.52301" transform="matrix(-1 0 0 1 57.3766 146.259)" fill="#49F95D" fill-opacity="0.46"/>
<circle r="3.52301" transform="matrix(-1 0 0 1 57.3766 160.351)" fill="#49F95D" fill-opacity="0.46"/>
<circle r="3.52301" transform="matrix(-1 0 0 1 99.6528 33.523)" fill="#49F95D" fill-opacity="0.46"/>
<circle r="3.52301" transform="matrix(-1 0 0 1 99.6528 47.6151)" fill="#49F95D" fill-opacity="0.46"/>
<circle r="3.52301" transform="matrix(-1 0 0 1 99.6528 61.7071)" fill="#49F95D" fill-opacity="0.46"/>
<circle r="3.52301" transform="matrix(-1 0 0 1 99.6528 75.7992)" fill="#49F95D" fill-opacity="0.46"/>
<circle r="3.52301" transform="matrix(-1 0 0 1 99.6528 89.8912)" fill="#49F95D" fill-opacity="0.46"/>
<circle r="3.52301" transform="matrix(-1 0 0 1 99.6528 103.983)" fill="#49F95D" fill-opacity="0.46"/>
<circle r="3.52301" transform="matrix(-1 0 0 1 99.6528 118.075)" fill="#49F95D" fill-opacity="0.46"/>
<circle r="3.52301" transform="matrix(-1 0 0 1 99.6528 132.167)" fill="#49F95D" fill-opacity="0.46"/>
<circle r="3.52301" transform="matrix(-1 0 0 1 99.6528 146.259)" fill="#49F95D" fill-opacity="0.46"/>
<circle r="3.52301" transform="matrix(-1 0 0 1 99.6528 160.351)" fill="#49F95D" fill-opacity="0.46"/>
<circle r="3.52301" transform="matrix(-1 0 0 1 228.243 33.523)" fill="#49F95D" fill-opacity="0.46"/>
<circle r="3.52301" transform="matrix(-1 0 0 1 228.243 47.6151)" fill="#49F95D" fill-opacity="0.46"/>
<circle r="3.52301" transform="matrix(-1 0 0 1 228.243 61.7071)" fill="#49F95D" fill-opacity="0.46"/>
<circle r="3.52301" transform="matrix(-1 0 0 1 228.243 75.7992)" fill="#49F95D" fill-opacity="0.46"/>
<circle r="3.52301" transform="matrix(-1 0 0 1 228.243 89.8912)" fill="#49F95D" fill-opacity="0.46"/>
<circle r="3.52301" transform="matrix(-1 0 0 1 228.243 103.983)" fill="#49F95D" fill-opacity="0.46"/>
<circle r="3.52301" transform="matrix(-1 0 0 1 228.243 118.075)" fill="#49F95D" fill-opacity="0.46"/>
<circle r="3.52301" transform="matrix(-1 0 0 1 228.243 132.167)" fill="#49F95D" fill-opacity="0.46"/>
<circle r="3.52301" transform="matrix(-1 0 0 1 228.243 146.259)" fill="#49F95D" fill-opacity="0.46"/>
<circle r="3.52301" transform="matrix(-1 0 0 1 228.243 160.351)" fill="#49F95D" fill-opacity="0.46"/>
<circle r="3.52301" transform="matrix(-1 0 0 1 185.086 33.523)" fill="#49F95D" fill-opacity="0.46"/>
<circle r="3.52301" transform="matrix(-1 0 0 1 185.086 47.6151)" fill="#49F95D" fill-opacity="0.46"/>
<circle r="3.52301" transform="matrix(-1 0 0 1 185.086 61.7071)" fill="#49F95D" fill-opacity="0.46"/>
<circle r="3.52301" transform="matrix(-1 0 0 1 185.086 75.7992)" fill="#49F95D" fill-opacity="0.46"/>
<circle r="3.52301" transform="matrix(-1 0 0 1 185.086 89.8912)" fill="#49F95D" fill-opacity="0.46"/>
<circle r="3.52301" transform="matrix(-1 0 0 1 185.086 103.983)" fill="#49F95D" fill-opacity="0.46"/>
<circle r="3.52301" transform="matrix(-1 0 0 1 185.086 118.075)" fill="#49F95D" fill-opacity="0.46"/>
<circle r="3.52301" transform="matrix(-1 0 0 1 185.086 132.167)" fill="#49F95D" fill-opacity="0.46"/>
<circle r="3.52301" transform="matrix(-1 0 0 1 185.086 146.259)" fill="#49F95D" fill-opacity="0.46"/>
<circle r="3.52301" transform="matrix(-1 0 0 1 185.086 160.351)" fill="#49F95D" fill-opacity="0.46"/>
<circle r="3.52301" transform="matrix(-1 0 0 1 214.151 33.523)" fill="#49F95D" fill-opacity="0.46"/>
<circle r="3.52301" transform="matrix(-1 0 0 1 214.151 47.6151)" fill="#49F95D" fill-opacity="0.46"/>
<circle r="3.52301" transform="matrix(-1 0 0 1 214.151 61.7071)" fill="#49F95D" fill-opacity="0.46"/>
<circle r="3.52301" transform="matrix(-1 0 0 1 214.151 75.7992)" fill="#49F95D" fill-opacity="0.46"/>
<circle r="3.52301" transform="matrix(-1 0 0 1 214.151 89.8912)" fill="#49F95D" fill-opacity="0.46"/>
<circle r="3.52301" transform="matrix(-1 0 0 1 214.151 103.983)" fill="#49F95D" fill-opacity="0.46"/>
<circle r="3.52301" transform="matrix(-1 0 0 1 214.151 118.075)" fill="#49F95D" fill-opacity="0.46"/>
<circle r="3.52301" transform="matrix(-1 0 0 1 214.151 132.167)" fill="#49F95D" fill-opacity="0.46"/>
<circle r="3.52301" transform="matrix(-1 0 0 1 214.151 146.259)" fill="#49F95D" fill-opacity="0.46"/>
<circle r="3.52301" transform="matrix(-1 0 0 1 214.151 160.351)" fill="#49F95D" fill-opacity="0.46"/>
<circle r="3.52301" transform="matrix(-1 0 0 1 200.059 33.523)" fill="#49F95D" fill-opacity="0.46"/>
<circle r="3.52301" transform="matrix(-1 0 0 1 200.059 47.6151)" fill="#49F95D" fill-opacity="0.46"/>
<circle r="3.52301" transform="matrix(-1 0 0 1 200.059 61.7071)" fill="#49F95D" fill-opacity="0.46"/>
<circle r="3.52301" transform="matrix(-1 0 0 1 200.059 75.7992)" fill="#49F95D" fill-opacity="0.46"/>
<circle r="3.52301" transform="matrix(-1 0 0 1 200.059 89.8912)" fill="#49F95D" fill-opacity="0.46"/>
<circle r="3.52301" transform="matrix(-1 0 0 1 200.059 103.983)" fill="#49F95D" fill-opacity="0.46"/>
<circle r="3.52301" transform="matrix(-1 0 0 1 200.059 118.075)" fill="#49F95D" fill-opacity="0.46"/>
<circle r="3.52301" transform="matrix(-1 0 0 1 200.059 132.167)" fill="#49F95D" fill-opacity="0.46"/>
<circle r="3.52301" transform="matrix(-1 0 0 1 200.059 146.259)" fill="#49F95D" fill-opacity="0.46"/>
<circle r="3.52301" transform="matrix(-1 0 0 1 200.059 160.351)" fill="#49F95D" fill-opacity="0.46"/>
</g>
</g>
<defs>
<clipPath id="clip0_3530_46862">
<rect width="762" height="432" fill="white"/>
</clipPath>
</defs>
</svg>
