<svg width="138" height="50" viewBox="0 0 138 50" fill="none" xmlns="http://www.w3.org/2000/svg">
<rect x="1" y="1" width="136" height="48" rx="24" fill="#000001"/>
<path d="M125.068 42.9422H12.9324C12.3418 42.948 11.7559 42.836 11.209 42.6126C10.6622 42.3892 10.1655 42.0589 9.74782 41.6412C9.33018 41.2235 9.00006 40.7266 8.77679 40.1798C8.55351 39.6329 8.44157 39.047 8.4475 38.4563V11.5448C8.44143 10.954 8.55328 10.368 8.77649 9.82101C8.99971 9.27402 9.3298 8.77706 9.74745 8.35922C10.1651 7.94138 10.6619 7.61106 11.2088 7.3876C11.7557 7.16414 12.3417 7.05203 12.9324 7.05783H125.068C125.658 7.05203 126.244 7.16414 126.791 7.3876C127.338 7.61106 127.835 7.94138 128.253 8.35922C128.67 8.77706 129 9.27402 129.223 9.82101C129.447 10.368 129.559 10.954 129.552 11.5448V38.4563C129.552 40.8784 127.578 42.9422 125.068 42.9422Z" fill="black"/>
<path d="M50.968 16.2091C50.968 16.9256 50.7884 17.5543 50.3403 18.0024C49.8024 18.5413 49.1737 18.8098 48.3663 18.8098C47.5589 18.8098 46.9312 18.5413 46.3933 18.0024C45.8554 17.4645 45.5859 16.8368 45.5859 16.0294C45.5859 15.2221 45.8554 14.5943 46.3933 14.0554C46.9312 13.5175 47.5589 13.248 48.3673 13.248C48.7256 13.248 49.0839 13.3389 49.4431 13.5175C49.8024 13.6971 50.0709 13.8768 50.2505 14.1452L49.8024 14.5943C49.4431 14.1452 48.995 13.9666 48.3673 13.9666C47.8284 13.9666 47.2905 14.1452 46.9312 14.5943C46.4831 14.9526 46.3035 15.4915 46.3035 16.1182C46.3035 16.747 46.4831 17.2849 46.9312 17.6442C47.3803 18.0034 47.8294 18.2719 48.3663 18.2719C48.995 18.2719 49.4431 18.0922 49.8922 17.6442C50.1607 17.3747 50.3403 17.0164 50.3403 16.5673H48.3663V15.9396H50.968V16.2091ZM55.0947 13.9656H52.6726V15.6701H54.9151V16.2979H52.6726V18.0024H55.0947V18.72H51.9561V13.3379H55.0947V13.9656ZM58.0557 18.72H57.3372V13.9656H55.8133V13.3379H59.5806V13.9656H58.0557V18.72ZM62.1814 18.72V13.3379H62.8999V18.72H62.1814ZM65.9497 18.72H65.2322V13.9656H63.7073V13.3379H67.3848V13.9656H65.8599V18.72H65.9497ZM74.4715 18.0034C73.9336 18.5413 73.3059 18.8108 72.4985 18.8108C71.6911 18.8108 71.0624 18.5413 70.5245 18.0034C69.9866 17.4645 69.7171 16.8368 69.7171 16.0294C69.7171 15.2221 69.9866 14.5943 70.5245 14.0554C71.0624 13.5175 71.6911 13.248 72.4985 13.248C73.3059 13.248 73.9336 13.5175 74.4715 14.0554C75.0104 14.5943 75.2789 15.2221 75.2789 16.0294C75.2789 16.8368 75.0104 17.4645 74.4715 18.0034ZM71.0634 17.5543C71.4217 17.9136 71.9596 18.1821 72.4985 18.1821C73.0364 18.1821 73.5743 18.0024 73.9336 17.5543C74.2929 17.1951 74.5613 16.6572 74.5613 16.0294C74.5613 15.4017 74.3817 14.8628 73.9336 14.5045C73.5743 14.1452 73.0364 13.8768 72.4985 13.8768C71.9596 13.8768 71.4217 14.0554 71.0634 14.5045C70.6607 14.9099 70.4347 15.458 70.4347 16.0294C70.4347 16.6572 70.6143 17.1951 71.0634 17.5543ZM76.2659 18.72V13.3379H77.0732L79.675 17.5543V13.3379H80.3915V18.72H79.675L76.8936 14.3249V18.721H76.2659V18.72Z" fill="white" stroke="white" stroke-width="0.201842" stroke-miterlimit="10"/>
<path d="M69.5384 26.6139C67.3857 26.6139 65.6812 28.2287 65.6812 30.4711C65.6774 30.9787 65.7746 31.482 65.9671 31.9516C66.1596 32.4213 66.4436 32.848 66.8025 33.207C67.1615 33.5659 67.5882 33.8499 68.0579 34.0424C68.5275 34.2349 69.0308 34.3321 69.5384 34.3283C71.692 34.3283 73.3966 32.7136 73.3966 30.4711C73.3966 28.1388 71.691 26.6139 69.5384 26.6139ZM69.5384 32.7136C68.3727 32.7136 67.3857 31.7266 67.3857 30.3813C67.3857 29.036 68.3727 28.049 69.5384 28.049C70.705 28.049 71.692 28.9462 71.692 30.3803C71.692 31.7266 70.705 32.7136 69.5384 32.7136ZM61.1963 26.6139C59.0426 26.6139 57.3381 28.2287 57.3381 30.4711C57.3343 30.9788 57.4315 31.4821 57.6241 31.9519C57.8167 32.4216 58.1007 32.8484 58.4598 33.2073C58.8188 33.5663 59.2456 33.8502 59.7154 34.0427C60.1852 34.2351 60.6886 34.3322 61.1963 34.3283C63.3489 34.3283 65.0535 32.7136 65.0535 30.4711C65.0535 28.1388 63.3489 26.6139 61.1963 26.6139ZM61.1963 32.7136C60.0296 32.7136 59.0426 31.7266 59.0426 30.3813C59.0426 29.036 60.0296 28.049 61.1963 28.049C62.3619 28.049 63.3489 28.9462 63.3489 30.3803C63.3489 31.7266 62.3619 32.7136 61.1963 32.7136ZM51.2384 27.7796V29.3943H55.0956C55.0058 30.2915 54.6475 31.009 54.1984 31.4581C53.6605 31.996 52.7633 32.6238 51.2384 32.6238C48.8163 32.6238 47.0219 30.7406 47.0219 28.3175C47.0219 25.8954 48.9061 24.0122 51.2384 24.0122C52.4939 24.0122 53.4809 24.5501 54.1984 25.1778L55.3651 24.0122C54.3781 23.114 53.1226 22.3975 51.3282 22.3975C48.0988 22.3975 45.3174 25.088 45.3174 28.3175C45.3174 31.5469 48.0988 34.2385 51.3282 34.2385C53.1226 34.2385 54.3781 33.7006 55.4549 32.5339C56.5307 31.4581 56.89 29.9322 56.89 28.7666C56.89 28.4073 56.89 28.049 56.8002 27.7796H51.2384ZM91.965 29.036C91.6067 28.1378 90.7095 26.6139 88.7355 26.6139C86.7625 26.6139 85.1478 28.1378 85.1478 30.4711C85.1478 32.6238 86.7625 34.3283 88.9152 34.3283C90.6207 34.3283 91.6965 33.2515 92.0548 32.6238L90.7994 31.7266C90.3513 32.3543 89.8124 32.8034 88.9152 32.8034C88.018 32.8034 87.4801 32.4441 87.032 31.6368L92.1446 29.4841L91.965 29.036ZM86.7625 30.2915C86.7625 28.8564 87.9292 28.049 88.7365 28.049C89.3643 28.049 89.992 28.4073 90.1716 28.8564L86.7625 30.2915ZM82.5461 33.9701H84.2516V22.7557H82.5461V33.969V33.9701ZM79.8555 27.4203C79.4064 26.9722 78.6889 26.5241 77.7917 26.5241C75.9075 26.5241 74.1141 28.2287 74.1141 30.3813C74.1141 32.5339 75.8187 34.1487 77.7917 34.1487C78.6889 34.1487 79.4064 33.7006 79.7657 33.2515H79.8545V33.7904C79.8545 35.2255 79.0471 36.0329 77.7917 36.0329C76.8047 36.0329 76.0871 35.3153 75.9075 34.6876L74.4724 35.3153C74.9215 36.3023 75.9973 37.5578 77.8815 37.5578C79.8555 37.5578 81.4702 36.3922 81.4702 33.6108V26.7926H79.8555V27.4213V27.4203ZM77.8815 32.7146C76.7149 32.7146 75.7289 31.7276 75.7289 30.3823C75.7289 29.037 76.7149 28.05 77.8815 28.05C79.0481 28.05 79.9443 29.037 79.9443 30.3813C79.9443 31.7276 79.0481 32.7146 77.8815 32.7146ZM99.7702 22.7567H95.7334V33.9701H97.4379V29.7546H99.7692C101.654 29.7546 103.448 28.4083 103.448 26.2557C103.448 24.103 101.654 22.7567 99.7702 22.7567ZM99.86 28.1399H97.4379V24.2817H99.86C101.115 24.2817 101.833 25.3585 101.833 26.1658C101.743 27.1529 101.026 28.1399 99.86 28.1399ZM110.176 26.5251C108.92 26.5251 107.664 27.063 107.216 28.2297L108.74 28.8574C109.099 28.2297 109.638 28.05 110.266 28.05C111.163 28.05 111.971 28.5879 112.06 29.4851V29.5749C111.791 29.3953 111.073 29.1259 110.356 29.1259C108.741 29.1259 107.126 30.024 107.126 31.6388C107.126 33.1627 108.472 34.1497 109.907 34.1497C111.073 34.1497 111.611 33.6118 112.06 33.0739H112.15V33.9711H113.765V29.6638C113.585 27.6897 112.06 26.5241 110.176 26.5241V26.5251ZM109.997 32.7146C109.459 32.7146 108.651 32.4451 108.651 31.7276C108.651 30.8304 109.638 30.562 110.446 30.562C111.163 30.562 111.521 30.7416 111.971 30.9202C111.791 31.997 110.894 32.7146 109.997 32.7146ZM119.416 26.7936L117.532 31.6378H117.442L115.468 26.7936H113.675L116.635 33.6118L114.931 37.3792H116.635L121.21 26.7936H119.416ZM104.345 33.9701H106.051V22.7577H104.345V33.9701Z" fill="white"/>
<path d="M17.7762 13.7871C17.5078 14.0566 17.3281 14.5047 17.3281 15.0436V34.8685C17.3281 35.4064 17.5078 35.8555 17.7762 36.1239L17.867 36.2147L28.9895 25.0902V24.9106L17.7772 13.7871H17.7762Z" fill="url(#paint0_linear_3733_50687)"/>
<path d="M32.6688 28.8585L28.9902 25.1799V24.9115L32.6688 21.2329L32.7586 21.3227L37.1537 23.8346C38.4102 24.5512 38.4102 25.7178 37.1537 26.4364L32.6688 28.8585Z" fill="url(#paint1_linear_3733_50687)"/>
<path d="M32.7581 28.7669L28.9907 24.9995L17.7764 36.2128C18.2255 36.6609 18.8532 36.6609 19.6606 36.3026L32.7591 28.7659L32.7581 28.7669Z" fill="url(#paint2_linear_3733_50687)"/>
<path d="M32.7581 21.2344L19.6596 13.7884C18.8522 13.3393 18.2245 13.4291 17.7754 13.8782L28.9907 25.0017L32.7581 21.2344Z" fill="url(#paint3_linear_3733_50687)"/>
<path opacity="0.2" d="M32.6682 28.6787L19.6606 36.0359C18.943 36.484 18.3153 36.3941 17.8662 36.0359L17.7764 36.1247L17.8672 36.2155C18.3153 36.5738 18.943 36.6636 19.6606 36.2155L32.6682 28.6777V28.6787Z" fill="black"/>
<path opacity="0.12" d="M17.7762 36.0352C17.5078 35.7667 17.418 35.3186 17.418 34.7797V34.8695C17.418 35.4074 17.5976 35.8555 17.8661 36.125V36.0352H17.7762ZM37.153 26.1651L32.6681 28.6791L32.7579 28.7679L37.153 26.2559C37.7818 25.8977 38.0512 25.4486 38.0512 25.0005C38.0512 25.4486 37.692 25.8079 37.153 26.1661V26.1651Z" fill="black"/>
<path opacity="0.25" d="M19.6614 13.8771L37.155 23.8349C37.6929 24.1932 38.0512 24.5515 38.0512 25.0006C38.0512 24.5525 37.7827 24.1034 37.155 23.7451L19.6604 13.7872C18.4059 13.0697 17.4199 13.6984 17.4199 15.1325V15.2234C17.4199 13.7872 18.4069 13.1595 19.6624 13.8771H19.6614Z" fill="white"/>
<rect x="1" y="1" width="136" height="48" rx="24" stroke="#D0D5DD" stroke-width="2"/>
<defs>
<linearGradient id="paint0_linear_3733_50687" x1="28.0035" y1="14.872" x2="12.9482" y2="29.9274" gradientUnits="userSpaceOnUse">
<stop stop-color="#00A0FF"/>
<stop offset="0.007" stop-color="#00A1FF"/>
<stop offset="0.26" stop-color="#00BEFF"/>
<stop offset="0.512" stop-color="#00D2FF"/>
<stop offset="0.76" stop-color="#00DFFF"/>
<stop offset="1" stop-color="#00E3FF"/>
</linearGradient>
<linearGradient id="paint1_linear_3733_50687" x1="38.7997" y1="25.0023" x2="17.0937" y2="25.0023" gradientUnits="userSpaceOnUse">
<stop stop-color="#FFE000"/>
<stop offset="0.409" stop-color="#FFBD00"/>
<stop offset="0.775" stop-color="#FFA500"/>
<stop offset="1" stop-color="#FF9C00"/>
</linearGradient>
<linearGradient id="paint2_linear_3733_50687" x1="30.7185" y1="27.0593" x2="10.3032" y2="47.4756" gradientUnits="userSpaceOnUse">
<stop stop-color="#FF3A44"/>
<stop offset="1" stop-color="#C31162"/>
</linearGradient>
<linearGradient id="paint3_linear_3733_50687" x1="14.993" y1="7.21848" x2="24.1102" y2="16.3347" gradientUnits="userSpaceOnUse">
<stop stop-color="#32A071"/>
<stop offset="0.069" stop-color="#2DA771"/>
<stop offset="0.476" stop-color="#15CF74"/>
<stop offset="0.801" stop-color="#06E775"/>
<stop offset="1" stop-color="#00F076"/>
</linearGradient>
</defs>
</svg>
