<svg width="77" height="76" viewBox="0 0 77 76" fill="none" xmlns="http://www.w3.org/2000/svg">
<rect x="0.5" width="76" height="76" rx="38" fill="#E3F5FF" fill-opacity="0.14"/>
<path fill-rule="evenodd" clip-rule="evenodd" d="M45.4565 37.3043H44.7198C44.6016 36.2484 44.2154 35.2403 43.5977 34.3757L44.0548 33.9234C44.1521 33.8265 44.2293 33.7115 44.2821 33.5847C44.335 33.458 44.3623 33.3221 44.3626 33.1848C44.3629 33.0475 44.3361 32.9114 44.2838 32.7845C44.2316 32.6575 44.1548 32.5421 44.0579 32.4448C43.961 32.3475 43.846 32.2704 43.7192 32.2176C43.5925 32.1648 43.4566 32.1373 43.3193 32.1371C43.1819 32.1368 43.0459 32.1636 42.919 32.2159C42.792 32.2681 42.6766 32.3449 42.5793 32.4417L42.1216 32.9008C41.2575 32.2845 40.2504 31.8991 39.1957 31.7809V31.3913C39.1957 31.1146 39.0857 30.8492 38.89 30.6535C38.6943 30.4578 38.4289 30.3478 38.1522 30.3478C37.8754 30.3478 37.61 30.4578 37.4143 30.6535C37.2186 30.8492 37.1087 31.1146 37.1087 31.3913V31.8991C36.3072 32.0849 35.5497 32.4252 34.8784 32.9008L34.4207 32.4417C34.2242 32.2461 33.958 32.1365 33.6807 32.1371C33.4035 32.1376 33.1377 32.2483 32.9421 32.4448C32.7464 32.6413 32.6369 32.9075 32.6374 33.1848C32.638 33.4621 32.7487 33.7277 32.9452 33.9234L33.4023 34.3757C32.7846 35.2403 32.3984 36.2484 32.2802 37.3043H31.5435C31.2667 37.3043 31.0013 37.4144 30.8056 37.6101C30.6099 37.8057 30.5 38.0711 30.5 38.3478C30.5 38.6246 30.6099 38.8899 30.8056 39.0856C31.0013 39.2813 31.2667 39.3913 31.5435 39.3913H32.4005C32.5842 40.1943 32.9246 40.9532 33.4023 41.6243L32.9452 42.0766C32.8479 42.1735 32.7707 42.2885 32.7179 42.4153C32.665 42.542 32.6377 42.6779 32.6374 42.8152C32.6371 42.9525 32.6639 43.0886 32.7162 43.2155C32.7684 43.3425 32.8452 43.4579 32.9421 43.5552C33.039 43.6525 33.154 43.7296 33.2808 43.7824C33.4075 43.8353 33.5434 43.8627 33.6807 43.8629C33.8181 43.8632 33.9541 43.8364 34.081 43.7841C34.208 43.7319 34.3234 43.6551 34.4207 43.5583L34.8784 43.0992C35.5497 43.5749 36.3072 43.9151 37.1087 44.1009V44.6087C37.1087 44.8854 37.2186 45.1508 37.4143 45.3465C37.61 45.5422 37.8754 45.6522 38.1522 45.6522C38.4289 45.6522 38.6943 45.5422 38.89 45.3465C39.0857 45.1508 39.1957 44.8854 39.1957 44.6087V44.2191C40.2504 44.1009 41.2575 43.7155 42.1216 43.0992L42.5793 43.5583C42.6766 43.6551 42.792 43.7319 42.919 43.7841C43.0459 43.8364 43.1819 43.8632 43.3193 43.8629C43.4566 43.8627 43.5925 43.8353 43.7192 43.7824C43.846 43.7296 43.961 43.6525 44.0579 43.5552C44.1548 43.4579 44.2316 43.3425 44.2838 43.2155C44.3361 43.0886 44.3629 42.9525 44.3626 42.8152C44.3623 42.6779 44.335 42.542 44.2821 42.4153C44.2293 42.2885 44.1521 42.1735 44.0548 42.0766L43.5977 41.6243C44.0754 40.9532 44.4158 40.1943 44.5995 39.3913H45.4565C45.7333 39.3913 45.9987 39.2813 46.1944 39.0856C46.3901 38.8899 46.5 38.6246 46.5 38.3478C46.5 38.0711 46.3901 37.8057 46.1944 37.6101C45.9987 37.4144 45.7333 37.3043 45.4565 37.3043ZM38.5 42.1739C37.6745 42.1739 36.8675 41.9291 36.1811 41.4704C35.4947 41.0118 34.9597 40.36 34.6438 39.5973C34.3279 38.8346 34.2452 37.9953 34.4063 37.1856C34.5673 36.376 34.9649 35.6323 35.5486 35.0486C36.1323 34.4648 36.8761 34.0673 37.6857 33.9062C38.4954 33.7452 39.3346 33.8279 40.0973 34.1439C40.86 34.4598 41.5119 34.9946 41.9705 35.681C42.4291 36.3674 42.6739 37.1745 42.6739 38C42.6739 39.107 42.2341 40.1687 41.4514 40.9514C40.6686 41.7342 39.607 42.1739 38.5 42.1739ZM52.413 22H24.587C24.0335 22 23.5026 22.2199 23.1112 22.6112C22.7199 23.0026 22.5 23.5335 22.5 24.087V51.913C22.5 52.4665 22.7199 52.9974 23.1112 53.3888C23.5026 53.7801 24.0335 54 24.587 54H52.413C52.9665 54 53.4974 53.7801 53.8888 53.3888C54.2801 52.9974 54.5 52.4665 54.5 51.913V24.087C54.5 23.5335 54.2801 23.0026 53.8888 22.6112C53.4974 22.2199 52.9665 22 52.413 22ZM24.587 35.2174H26.6739V40.7826H24.587V35.2174ZM24.587 42.8696H28.7609V44.9565H24.587V42.8696ZM28.7609 47.0435C29.3144 47.0435 29.8452 46.8236 30.2366 46.4322C30.628 46.0409 30.8478 45.51 30.8478 44.9565V42.8696C30.8478 42.3161 30.628 41.7852 30.2366 41.3939C29.8452 41.0025 29.3144 40.7826 28.7609 40.7826V35.2174C29.3144 35.2174 29.8452 34.9975 30.2366 34.6061C30.628 34.2148 30.8478 33.6839 30.8478 33.1304V31.0435C30.8478 30.49 30.628 29.9591 30.2366 29.5678C29.8452 29.1764 29.3144 28.9565 28.7609 28.9565V28.2609H48.2391V47.7391H28.7609V47.0435ZM28.7609 31.0435V33.1304H24.587V31.0435H28.7609ZM52.413 51.913H24.587V47.0435H26.6739V47.7391C26.6739 48.2926 26.8938 48.8235 27.2852 49.2148C27.6765 49.6062 28.2074 49.8261 28.7609 49.8261H48.2391C48.7926 49.8261 49.3235 49.6062 49.7148 49.2148C50.1062 48.8235 50.3261 48.2926 50.3261 47.7391V28.2609C50.3261 27.7074 50.1062 27.1765 49.7148 26.7852C49.3235 26.3938 48.7926 26.1739 48.2391 26.1739H28.7609C28.2074 26.1739 27.6765 26.3938 27.2852 26.7852C26.8938 27.1765 26.6739 27.7074 26.6739 28.2609V28.9565H24.587V24.087H52.413V51.913Z" fill="#FAFCFF"/>
</svg>
