<svg width="50" height="50" viewBox="0 0 50 50" fill="none" xmlns="http://www.w3.org/2000/svg">
<rect width="50" height="50" rx="25" fill="white" fill-opacity="0.2"/>
<path d="M21.0003 19C21.0003 19.7363 21.5973 20.3333 22.3337 20.3333C23.0701 20.3333 23.667 19.7363 23.667 19H21.0003ZM30.3337 35.6666C29.5973 35.6666 29.0003 36.2636 29.0003 37C29.0003 37.7364 29.5973 38.3333 30.3337 38.3333V35.6666ZM36.7097 35.544L37.8977 36.1493L36.7097 35.544ZM35.5443 36.7093L34.939 35.5213L35.5443 36.7093ZM35.5443 13.2906L34.939 14.4786L35.5443 13.2906ZM36.7097 14.456L35.5217 15.0613L36.7097 14.456ZM23.7897 13.2906L23.1843 12.1026L23.7897 13.2906ZM22.6243 14.456L21.4363 13.8507L22.6243 14.456ZM27.667 17C26.9306 17 26.3337 17.5969 26.3337 18.3333C26.3337 19.0697 26.9306 19.6666 27.667 19.6666V17ZM31.667 19.6666C32.4034 19.6666 33.0003 19.0697 33.0003 18.3333C33.0003 17.5969 32.4034 17 31.667 17V19.6666ZM27.667 22.3333C26.9306 22.3333 26.3337 22.9302 26.3337 23.6666C26.3337 24.403 26.9306 25 27.667 25V22.3333ZM31.667 25C32.4034 25 33.0003 24.403 33.0003 23.6666C33.0003 22.9302 32.4034 22.3333 31.667 22.3333V25ZM12.1034 29.3468C11.5586 29.8421 11.5184 30.6853 12.0137 31.2302C12.5091 31.775 13.3524 31.8152 13.8972 31.3198L12.1034 29.3468ZM18.8986 24.9712L18.0017 23.9846L18.8986 24.9712ZM21.7687 24.9712L20.8718 25.9578L21.7687 24.9712ZM26.7701 31.3198C27.315 31.8152 28.1582 31.775 28.6535 31.2302C29.1489 30.6853 29.1087 29.8421 28.5639 29.3468L26.7701 31.3198ZM19.9459 24.1929L19.558 22.9172L19.9459 24.1929ZM20.7215 24.1929L21.1093 22.9172L20.7215 24.1929ZM17.0003 27.909C17.0003 27.1726 16.4034 26.5757 15.667 26.5757C14.9306 26.5757 14.3337 27.1726 14.3337 27.909H17.0003ZM25.0003 34.8666H26.3337H25.0003ZM26.3337 27.909C26.3337 27.1726 25.7367 26.5757 25.0003 26.5757C24.2639 26.5757 23.667 27.1726 23.667 27.909H26.3337ZM24.2723 36.8546L23.667 35.6666L24.2723 36.8546ZM24.855 36.272L23.667 35.6666L24.855 36.272ZM15.8123 36.272L17.0003 35.6666L15.8123 36.272ZM16.395 36.8546L17.0003 35.6666L16.395 36.8546ZM26.6003 14.3333H32.7337V11.6666H26.6003V14.3333ZM35.667 17.2666V32.7333H38.3337V17.2666H35.667ZM23.667 19V17.2666H21.0003V19H23.667ZM32.7337 35.6666H30.3337V38.3333H32.7337V35.6666ZM35.667 32.7333C35.667 33.5021 35.6659 33.9984 35.6351 34.3762C35.6055 34.7384 35.5553 34.8726 35.5217 34.9386L37.8977 36.1493C38.1547 35.6448 38.2498 35.1205 38.2929 34.5933C38.3347 34.0818 38.3337 33.4581 38.3337 32.7333H35.667ZM32.7337 38.3333C33.4585 38.3333 34.0822 38.3344 34.5937 38.2925C35.1209 38.2494 35.6451 38.1544 36.1497 37.8973L34.939 35.5213C34.873 35.5549 34.7387 35.6052 34.3766 35.6348C33.9987 35.6656 33.5025 35.6666 32.7337 35.6666V38.3333ZM35.5217 34.9386C35.3938 35.1896 35.1899 35.3934 34.939 35.5213L36.1497 37.8973C36.9023 37.5138 37.5142 36.902 37.8977 36.1493L35.5217 34.9386ZM32.7337 14.3333C33.5025 14.3333 33.9987 14.3343 34.3766 14.3652C34.7387 14.3948 34.873 14.445 34.939 14.4786L36.1497 12.1026C35.6451 11.8455 35.1209 11.7505 34.5937 11.7074C34.0822 11.6656 33.4585 11.6666 32.7337 11.6666V14.3333ZM38.3337 17.2666C38.3337 16.5419 38.3347 15.9181 38.2929 15.4066C38.2498 14.8795 38.1547 14.3552 37.8977 13.8507L35.5217 15.0613C35.5553 15.1272 35.6055 15.2615 35.6351 15.6237C35.6659 16.0015 35.667 16.4979 35.667 17.2666H38.3337ZM34.939 14.4786C35.1899 14.6065 35.3938 14.8104 35.5217 15.0613L37.8977 13.8507C37.5142 13.098 36.9023 12.4861 36.1497 12.1026L34.939 14.4786ZM26.6003 11.6666C25.8755 11.6666 25.2518 11.6656 24.7403 11.7074C24.2131 11.7505 23.6889 11.8455 23.1843 12.1026L24.395 14.4786C24.461 14.445 24.5953 14.3948 24.9574 14.3652C25.3353 14.3343 25.8315 14.3333 26.6003 14.3333V11.6666ZM23.667 17.2666C23.667 16.4979 23.6681 16.0015 23.6989 15.6237C23.7285 15.2615 23.7787 15.1272 23.8123 15.0613L21.4363 13.8507C21.1793 14.3552 21.0842 14.8795 21.0411 15.4066C20.9993 15.9181 21.0003 16.5419 21.0003 17.2666H23.667ZM23.1843 12.1026C22.4317 12.4861 21.8198 13.098 21.4363 13.8507L23.8123 15.0613C23.9402 14.8104 24.1441 14.6065 24.395 14.4786L23.1843 12.1026ZM27.667 19.6666H31.667V17H27.667V19.6666ZM27.667 25H31.667V22.3333H27.667V25ZM13.8972 31.3198L19.7955 25.9578L18.0017 23.9846L12.1034 29.3468L13.8972 31.3198ZM20.8718 25.9578L26.7701 31.3198L28.5639 29.3468L22.6655 23.9846L20.8718 25.9578ZM19.7955 25.9578C20.0644 25.7134 20.21 25.5824 20.3217 25.4956C20.4205 25.419 20.4082 25.446 20.3337 25.4686L19.558 22.9172C19.1965 23.0272 18.9139 23.2128 18.6875 23.3884C18.4741 23.5538 18.2397 23.7684 18.0017 23.9846L19.7955 25.9578ZM22.6655 23.9846C22.4277 23.7684 22.1932 23.5538 21.9798 23.3884C21.7534 23.2128 21.4709 23.0272 21.1093 22.9172L20.3337 25.4686C20.2592 25.446 20.2468 25.419 20.3456 25.4956C20.4573 25.5824 20.603 25.7134 20.8718 25.9578L22.6655 23.9846ZM20.3337 25.4686L21.1093 22.9172C20.6036 22.7634 20.0637 22.7634 19.558 22.9172L20.3337 25.4686ZM14.3337 27.909V34.8666H17.0003V27.909H14.3337ZM17.8003 38.3333H22.867V35.6666H17.8003V38.3333ZM26.3337 34.8666V27.909H23.667V34.8666H26.3337ZM22.867 38.3333C23.2183 38.3333 23.5621 38.3344 23.8513 38.3108C24.1561 38.2858 24.5158 38.227 24.8777 38.0426L23.667 35.6666C23.7437 35.6276 23.7741 35.6414 23.6342 35.6529C23.4787 35.6656 23.2623 35.6666 22.867 35.6666V38.3333ZM23.667 34.8666C23.667 35.262 23.6659 35.4784 23.6533 35.6338C23.6418 35.7737 23.6279 35.7433 23.667 35.6666L26.043 36.8773C26.2274 36.5154 26.2862 36.1557 26.3111 35.8509C26.3347 35.5617 26.3337 35.218 26.3337 34.8666H23.667ZM24.8777 38.0426C25.3794 37.787 25.7874 37.379 26.043 36.8773L23.667 35.6666L24.8777 38.0426ZM14.3337 34.8666C14.3337 35.218 14.3326 35.5617 14.3563 35.8509C14.3812 36.1557 14.4399 36.5154 14.6243 36.8773L17.0003 35.6666C17.0394 35.7433 17.0255 35.7737 17.0141 35.6338C17.0014 35.4784 17.0003 35.262 17.0003 34.8666H14.3337ZM17.8003 35.6666C17.405 35.6666 17.1886 35.6656 17.0332 35.6529C16.8933 35.6414 16.9237 35.6276 17.0003 35.6666L15.7897 38.0426C16.1516 38.227 16.5112 38.2858 16.816 38.3108C17.1053 38.3344 17.449 38.3333 17.8003 38.3333V35.6666ZM14.6243 36.8773C14.88 37.379 15.2879 37.787 15.7897 38.0426L17.0003 35.6666L14.6243 36.8773Z" fill="#6893FF"/>
</svg>
