<svg width="180" height="47" viewBox="0 0 180 47" fill="none" xmlns="http://www.w3.org/2000/svg">
<path fill-rule="evenodd" clip-rule="evenodd" d="M45.9655 23.3723C45.9013 23.4957 45.7761 23.6878 45.6864 23.7995C45.5971 23.9108 45.5181 24.0621 45.5118 24.1361C45.4916 24.3641 45.392 24.6064 45.3188 24.6064C45.2802 24.6064 45.2488 24.6414 45.2488 24.6845C45.2488 24.7275 45.2152 24.8029 45.1734 24.8528C45.1322 24.9026 44.8481 25.3302 44.542 25.8032C44.2364 26.2762 43.9506 26.7038 43.9071 26.7537C43.8635 26.8035 43.8281 26.8789 43.8281 26.9219C43.8281 26.965 43.8025 27 43.772 27C43.741 27 43.6212 27.1683 43.5059 27.3738C43.3901 27.5794 43.2586 27.7476 43.2128 27.7476C43.1671 27.7476 43.1514 27.7692 43.1774 27.7952C43.2366 27.8544 42.7825 28.4957 42.6811 28.4957C42.6398 28.4957 42.6272 28.5168 42.6533 28.5424C42.7067 28.5958 42.5357 28.9543 42.3849 29.1056C42.3302 29.1608 42.1915 29.3663 42.0771 29.5615C41.9626 29.7567 41.8388 29.9169 41.8015 29.9169C41.7643 29.9169 41.7409 29.942 41.7504 29.973C41.7755 30.06 41.3496 30.6645 41.2626 30.6645C41.2199 30.6645 41.2065 30.6856 41.2321 30.7116C41.285 30.7641 41.1158 31.1209 40.9655 31.2748C40.9117 31.33 40.6195 31.7622 40.3166 32.2351C40.0142 32.7081 39.6789 33.2278 39.5721 33.3898C38.7253 34.6732 38.2174 35.4275 38.1496 35.5043C38.1052 35.5541 38.0688 35.6295 38.0688 35.6726C38.0688 35.7156 38.0352 35.7506 37.9943 35.7506C37.953 35.7506 37.9194 35.7861 37.9194 35.8292C37.9194 35.8727 37.7839 36.1078 37.6183 36.3515C37.4531 36.5952 37.2979 36.8456 37.2741 36.9084C37.2355 37.0089 37.5954 37.022 40.4073 37.022H43.5849L43.9775 36.4238C44.1934 36.0944 44.4052 35.8251 44.4483 35.8251C44.4909 35.8251 44.5044 35.8036 44.4783 35.7776C44.4204 35.7197 44.656 35.3019 44.7458 35.3019C44.7808 35.3019 44.7898 35.27 44.7655 35.2314C44.7417 35.1928 44.7651 35.1341 44.8176 35.1009C44.8696 35.0672 44.9621 34.9447 45.0222 34.828C45.0823 34.7113 45.2048 34.5368 45.2946 34.4398C45.3843 34.3429 45.4387 34.2451 45.4158 34.2218C45.3924 34.1989 45.4265 34.18 45.4916 34.18C45.602 34.18 46.1966 33.3584 46.3846 32.946C46.4313 32.8427 46.4941 32.7588 46.5237 32.7588C46.5538 32.7588 46.7221 32.5147 46.8984 32.2167C47.0743 31.9183 47.2408 31.6576 47.2687 31.637C47.3557 31.5719 47.8668 30.7399 47.8668 30.6632C47.8668 30.6228 47.8991 30.59 47.9382 30.59C47.9777 30.59 48.1024 30.4298 48.216 30.2346C48.4475 29.8348 49.3145 28.5074 49.4357 28.3665C49.4792 28.3162 49.6313 28.0806 49.774 27.8432C50.1016 27.298 50.269 27.0916 50.3067 27.1867C50.3332 27.2536 51.1351 28.4782 51.5313 29.0566C52.0505 29.8146 52.6532 30.7507 52.6532 30.7987C52.6532 30.8297 52.7483 30.9719 52.8646 31.1151C52.9803 31.2582 53.2074 31.5939 53.369 31.8613C53.5305 32.1288 53.7073 32.3944 53.7621 32.4519C53.8164 32.5093 53.96 32.7315 54.0811 32.946C54.2023 33.1605 54.3679 33.3965 54.4495 33.4705C54.5312 33.5441 54.5981 33.6325 54.5981 33.6666C54.5981 33.7371 55.1191 34.5718 55.1985 34.6288C55.2272 34.649 55.3556 34.8522 55.4835 35.0798C55.6109 35.3073 55.7761 35.5595 55.8496 35.6407C55.9232 35.7215 56.127 36.0235 56.302 36.3116C56.477 36.5992 56.6655 36.8941 56.7202 36.9659C56.8306 37.1095 63.4981 37.175 63.4981 37.0323C63.4981 36.9968 63.4057 36.8487 63.2926 36.7033C63.1795 36.5579 62.952 36.2299 62.7878 35.9737C62.0509 34.8267 61.8719 34.5475 61.591 34.1064C61.4263 33.8479 61.2221 33.5482 61.1373 33.4405C61.0525 33.3332 60.9039 33.1102 60.8074 32.946C60.5539 32.5143 59.6631 31.1707 59.5509 31.0513C59.4989 30.9952 59.4015 30.8436 59.3355 30.7139C59.2691 30.5837 59.0887 30.2925 58.9344 30.0663C58.609 29.5898 58.1966 28.9593 57.7887 28.3144C57.6307 28.0649 57.4791 27.8437 57.4512 27.823C57.4239 27.8024 57.2695 27.5663 57.1079 27.2989C56.9468 27.0314 56.7202 26.6958 56.604 26.5526C56.4878 26.4099 56.3931 26.2623 56.3931 26.225C56.3931 26.1882 56.2822 26.002 56.1472 25.8122C56.0121 25.6219 55.7554 25.2333 55.5768 24.9483C55.3978 24.6629 55.1886 24.3623 55.1119 24.2797C55.0347 24.1971 54.971 24.0939 54.9697 24.0504C54.9683 24.0064 54.8386 23.7937 54.682 23.577L54.397 23.183L50.2394 23.1655L46.0817 23.1479L45.9655 23.3723Z" fill="#93C41C"/>
<path fill-rule="evenodd" clip-rule="evenodd" d="M94.4991 6.09107C93.8031 6.22749 93.4014 6.37244 93.1214 6.58964C92.4981 7.07249 92.2576 7.27712 92.2782 7.30719C92.2903 7.32469 92.219 7.40367 92.1194 7.4822C92.0197 7.56073 91.8631 7.81921 91.7716 8.05705C91.68 8.29444 91.5746 8.55651 91.5373 8.63863C91.3596 9.02949 91.3062 9.73582 91.269 12.2098L91.2281 14.8839H89.8159H88.4037V16.1179V17.352H89.8249H91.2456V27.0001V36.6483H92.7041H94.1625V27.0001V17.352H96.444H98.725V16.1179V14.8839H96.4776H94.2298L94.2523 12.3969C94.2796 9.36471 94.3488 9.17758 95.5465 8.89397C95.752 8.8455 95.9943 8.77146 96.085 8.73017C96.1972 8.67857 96.3156 8.68036 96.4588 8.73556C96.5741 8.77998 96.8532 8.83967 97.0794 8.86749C97.306 8.89531 97.7884 9.01513 98.1519 9.1336C99.1095 9.44548 99.0243 9.55812 99.0229 7.98435C99.0216 6.38904 99.0647 6.4945 98.3512 6.33116C96.9802 6.01748 95.3858 5.91786 94.4991 6.09107ZM115.383 6.06056C113.681 6.48777 113.08 8.73421 114.332 9.98578C115.849 11.5034 118.321 10.4857 118.321 8.34335C118.321 6.73189 116.95 5.66701 115.383 6.06056ZM56.2041 7.93185C56.1292 8.09833 56.0268 8.25809 55.9766 8.28681C55.9259 8.31598 55.763 8.54798 55.6144 8.80287C55.4655 9.05731 55.3008 9.30996 55.2487 9.36381C55.115 9.50113 54.6725 10.2344 54.6725 10.3187C54.6725 10.3573 54.6258 10.4157 54.5684 10.4484C54.511 10.4816 54.3422 10.7168 54.1933 10.9717C54.0443 11.2266 53.8787 11.4788 53.8253 11.5326C53.7714 11.5865 53.587 11.866 53.4151 12.1537C53.2437 12.4418 53.0516 12.7447 52.9893 12.8268C52.9264 12.9094 52.6235 13.3635 52.3161 13.8365C52.0083 14.3095 51.6722 14.8143 51.5694 14.9584C51.4666 15.1024 51.323 15.3241 51.2512 15.4516C51.179 15.5785 50.9353 15.9573 50.7092 16.2934L50.2986 16.9042L50.1644 16.7354C50.0903 16.6425 49.9063 16.3562 49.7551 16.0991C49.6039 15.842 49.4567 15.6315 49.4284 15.6315C49.4002 15.6315 49.2678 15.4381 49.1349 15.2016C49.0017 14.9651 48.7459 14.5653 48.5668 14.3135C48.3873 14.0613 48.2406 13.8221 48.2406 13.7822C48.2406 13.7418 48.1571 13.6189 48.0548 13.5085C47.9529 13.3985 47.8304 13.2338 47.7824 13.1423C47.7348 13.0512 47.4988 12.6823 47.2578 12.3224C47.0168 11.963 46.8194 11.6421 46.8194 11.6094C46.8194 11.577 46.7355 11.4505 46.6332 11.3284C46.4137 11.0677 45.8474 10.1913 45.8474 10.1123C45.8474 10.0827 45.7433 9.97411 45.6163 9.87179C45.3089 9.62408 44.7794 8.84505 44.8453 8.7378C44.879 8.68395 44.8646 8.67363 44.8068 8.70953C44.7484 8.74543 44.7004 8.70863 44.6744 8.60856C44.6515 8.5224 44.5999 8.4515 44.559 8.4515C44.5182 8.4515 44.5043 8.40124 44.5281 8.33931C44.555 8.26931 44.5276 8.22712 44.4549 8.22712C44.3912 8.22712 44.3531 8.18539 44.3706 8.13378C44.4567 7.87755 44.2157 7.85825 40.9856 7.8578C38.767 7.8578 37.8471 7.88114 37.9395 7.93499C38.0127 7.97717 38.0526 8.04359 38.0288 8.08218C38.0046 8.12077 38.0194 8.15263 38.0611 8.15263C38.1033 8.15263 38.2294 8.31239 38.3416 8.50759C38.4538 8.70325 38.6418 9.00615 38.7594 9.18072C38.8774 9.35573 38.9568 9.49888 38.9362 9.49888C38.9156 9.49888 38.9815 9.58773 39.082 9.69678C39.183 9.80538 39.2656 9.93641 39.2656 9.98802C39.2656 10.0392 39.3181 10.1011 39.3827 10.1258C39.4469 10.1505 39.4783 10.2048 39.4527 10.2461C39.4271 10.2873 39.4406 10.3214 39.4823 10.3214C39.5241 10.3214 39.6506 10.4812 39.7628 10.6769C39.8754 10.8721 40.1308 11.2768 40.3305 11.5757C40.5302 11.875 40.6729 12.1528 40.6482 12.1927C40.6235 12.2331 40.6554 12.2659 40.7195 12.2659C40.7837 12.2659 40.8362 12.313 40.8362 12.3704C40.8362 12.4274 40.8887 12.4947 40.9533 12.5194C41.0175 12.5441 41.0489 12.5979 41.0233 12.6392C40.9978 12.681 41.0117 12.7146 41.0543 12.7146C41.1835 12.7146 41.3747 13.145 41.2652 13.189C41.2069 13.2127 41.2172 13.2289 41.2926 13.2325C41.4339 13.2392 42.1331 14.2583 42.0685 14.3633C42.0442 14.4028 42.0766 14.4351 42.1407 14.4351C42.2049 14.4351 42.2574 14.4818 42.2574 14.5392C42.2574 14.5967 42.3099 14.6635 42.3741 14.6882C42.4387 14.7129 42.4724 14.7636 42.4495 14.8004C42.4266 14.8377 42.458 14.8875 42.5195 14.9108C42.5809 14.9346 42.6312 15.0024 42.6312 15.062C42.6312 15.1217 42.6734 15.1877 42.7246 15.2083C42.795 15.237 42.7905 15.2658 42.7062 15.3255C42.6079 15.395 42.6088 15.4053 42.7147 15.4062C42.8174 15.4071 43.2294 15.9183 43.2294 16.0443C43.2294 16.0677 43.2976 16.1597 43.3811 16.249C43.4641 16.3387 43.5157 16.455 43.4955 16.5079C43.4753 16.5609 43.5081 16.6039 43.5686 16.6039C43.6288 16.6039 43.6781 16.6506 43.6781 16.708C43.6781 16.7655 43.7311 16.8324 43.7953 16.857C43.8594 16.8817 43.8935 16.9324 43.8707 16.9697C43.8473 17.0065 43.8792 17.0563 43.9407 17.0801C44.0021 17.1034 44.0524 17.1743 44.0524 17.2371C44.0524 17.3004 44.0896 17.352 44.135 17.352C44.1807 17.352 44.1982 17.4023 44.1749 17.4642C44.1511 17.5257 44.1597 17.5764 44.1938 17.5764C44.2534 17.5764 44.8 18.3536 44.8 18.4384C44.8 18.4613 44.8673 18.5524 44.9499 18.6404C45.032 18.7288 45.0993 18.8419 45.0993 18.8912C45.0993 18.9406 45.1518 19.0016 45.2165 19.0263C45.2806 19.051 45.312 19.1053 45.2865 19.147C45.2604 19.1887 45.2941 19.2435 45.3605 19.2691C45.4274 19.2946 45.4642 19.362 45.4426 19.4185C45.4211 19.4746 45.4377 19.5208 45.4799 19.5208C45.5225 19.5208 45.5369 19.5536 45.5122 19.5935C45.4606 19.6765 45.671 20.119 45.7617 20.119C45.7949 20.119 45.8685 20.2119 45.9255 20.325C45.9825 20.4381 46.1763 20.749 46.3567 21.0165L46.6839 21.5029L50.3111 21.4868L53.9388 21.4711L54.1986 21.0394C54.3413 20.802 54.4827 20.5906 54.5128 20.5691C54.563 20.5336 54.9593 19.8897 55.0468 19.7021C55.067 19.6577 55.1603 19.5231 55.2537 19.4028C55.4794 19.1116 56.1691 18.066 56.437 17.6091C56.555 17.4077 56.6959 17.1914 56.7498 17.129C56.8036 17.0666 57.0985 16.6282 57.405 16.1552C57.711 15.6822 58.0628 15.1572 58.1871 14.9884C58.311 14.8202 58.4124 14.6577 58.4124 14.6281C58.4124 14.5985 58.6309 14.2601 58.8984 13.8769C59.1659 13.4932 59.3844 13.1508 59.3848 13.1154C59.3848 13.0804 59.4719 12.9502 59.5787 12.8268C59.6855 12.7034 59.8251 12.5015 59.8892 12.3781C59.9534 12.2547 60.1859 11.897 60.4057 11.5829C60.6256 11.2692 60.8056 10.9793 60.8056 10.9389C60.8056 10.8985 60.8823 10.785 60.9761 10.6867C61.1395 10.5157 61.7031 9.63216 61.7031 9.54735C61.7031 9.52491 61.7843 9.419 61.883 9.3122C61.9822 9.20495 62.12 8.99853 62.1891 8.85268C62.2582 8.70729 62.3802 8.5224 62.4606 8.44208C62.6235 8.27918 62.8999 7.81338 62.8999 7.70164C62.8999 7.65587 61.6883 7.62894 59.6204 7.62894H56.341L56.2041 7.93185ZM11.8169 15.036V22.2187L11.9852 22.1312C12.0781 22.0836 12.4775 21.813 12.8728 21.5303C13.2686 21.2481 13.6303 21.0165 13.677 21.0165C13.7236 21.0165 13.7618 20.986 13.7618 20.9483C13.7618 20.9106 13.9381 20.7715 14.1544 20.6395C14.3703 20.5072 14.8213 20.2016 15.1569 19.9597C15.4926 19.7183 15.8 19.5208 15.8408 19.5208C15.8812 19.5208 15.9346 19.4683 15.9593 19.4037C15.984 19.3395 16.0383 19.3081 16.0796 19.3337C16.1209 19.3593 16.155 19.3454 16.155 19.3027C16.155 19.213 16.562 18.9868 16.6315 19.0375C16.6576 19.0564 16.662 19.0501 16.6423 19.0236C16.588 18.9505 17.6385 18.2329 17.7229 18.2854C17.7709 18.3146 17.7974 16.4958 17.7992 13.092L17.8023 7.85332H14.8096H11.8169V15.036ZM29.7301 9.70441C29.7552 10.7226 29.7929 13.0768 29.8136 14.9355C29.8459 17.8322 29.867 18.3101 29.959 18.2746C30.0177 18.2517 30.0662 18.2706 30.0662 18.3164C30.0662 18.3617 30.1035 18.3989 30.1492 18.3989C30.2668 18.3989 31.1881 19.086 31.1881 19.1739C31.1881 19.2139 31.2078 19.2269 31.2316 19.2031C31.2787 19.1555 32.4616 19.935 32.5518 20.0728C32.5819 20.119 32.6075 20.1316 32.6079 20.1006C32.6088 20.0701 32.8529 20.2195 33.1514 20.4327C33.6499 20.7894 35.3642 21.9589 35.5822 22.0908C35.6567 22.1357 35.6756 20.6983 35.6756 15.0006V7.85332H32.6797H29.6839L29.7301 9.70441ZM71.4634 14.3306C70.569 14.4221 69.935 14.5231 69.6684 14.6164C69.5037 14.6739 69.0258 14.8255 68.6067 14.9534C68.1871 15.0813 67.7998 15.2272 67.7464 15.2779C67.693 15.3286 67.3968 15.4942 67.0881 15.6459C66.7798 15.7975 66.4598 15.9739 66.3777 16.0372C66.2951 16.1009 66.0097 16.3132 65.7432 16.5093C65.1324 16.958 63.8055 18.2737 63.5264 18.7068C63.4106 18.8872 63.2427 19.1111 63.1534 19.2044C63.0646 19.2982 62.9452 19.4665 62.8891 19.5787C62.8326 19.6909 62.6311 20.0687 62.4408 20.4183C62.2506 20.7679 62.0154 21.2898 61.918 21.5774C61.8202 21.8655 61.7188 22.1182 61.6923 22.1384C61.5887 22.2196 61.3293 23.7332 61.2575 24.6792C61.1363 26.2705 61.375 28.634 61.7363 29.4189C61.7964 29.5486 61.9593 29.9623 62.0989 30.3375C62.2384 30.7131 62.3942 31.0663 62.4444 31.1228C62.4951 31.1793 62.6697 31.4612 62.8326 31.7493C63.3585 32.6786 64.1178 33.5855 65.0391 34.3861C65.9052 35.1387 66.1022 35.2899 66.5271 35.5273C66.774 35.6655 66.993 35.8028 67.0136 35.8329C67.067 35.9096 68.2499 36.4239 68.3738 36.4239C68.4298 36.4239 68.5555 36.4795 68.6529 36.5477C69.2349 36.9552 72.4619 37.2437 74.0491 37.0301C74.8003 36.9292 75.9881 36.6469 75.9881 36.5697C75.9881 36.5397 76.081 36.4916 76.1941 36.4634C76.5433 36.3763 77.6337 35.8863 77.6337 35.8167C77.6337 35.7804 77.6629 35.7508 77.6988 35.7508C77.8015 35.7508 78.8305 35.1391 78.8305 35.0776C78.8305 35.0476 78.9732 34.9282 79.1478 34.8124C79.3223 34.6971 79.785 34.2807 80.1759 33.8866L80.8871 33.1709L80.9073 34.9093L80.9271 36.6483H82.3842H83.8413V25.7661V14.8839H82.3828H80.9244V16.73C80.9244 18.8046 80.98 18.6794 80.3877 17.9435C79.339 16.6407 77.4793 15.3483 75.9881 14.887C75.6799 14.7914 75.2926 14.6689 75.1283 14.6146C74.4732 14.3979 72.3847 14.2359 71.4634 14.3306ZM109.211 14.3965C108.868 14.4495 108.531 14.5464 108.457 14.6133C108.384 14.6797 108.284 14.734 108.234 14.734C108.103 14.734 107.102 15.2496 107.102 15.3174C107.102 15.3492 106.992 15.4367 106.859 15.5121C106.638 15.6369 106.499 15.7545 105.905 16.3208C105.594 16.617 104.973 17.3614 104.919 17.5032C104.754 17.934 104.708 17.6756 104.708 16.3091V14.8839H103.175H101.641L101.66 25.7472L101.679 36.6106H103.175H104.671L104.717 30.7396C104.761 25.1755 104.804 23.9859 105.013 22.6621C105.127 21.9342 105.323 21.1664 105.394 21.1664C105.428 21.1664 105.456 21.1282 105.456 21.082C105.456 20.9339 106.059 19.5805 106.178 19.4616C106.241 19.3988 106.377 19.213 106.48 19.0492C106.723 18.6637 107.347 18.074 107.775 17.8236C107.96 17.715 108.128 17.6015 108.149 17.571C108.388 17.216 109.851 17.0913 110.719 17.3516C111.291 17.5234 111.309 17.5243 111.392 17.3866C111.438 17.3089 111.561 17.1079 111.664 16.9405C111.767 16.7731 111.918 16.5245 112 16.3881C112.083 16.2517 112.297 15.9057 112.478 15.6194C112.852 15.0243 112.876 15.0737 112.038 14.7125C111.062 14.292 110.378 14.2152 109.211 14.3965ZM132.719 14.3647C131.584 14.4827 129.445 15.0329 129.091 15.2976C129.029 15.3434 128.676 15.5238 128.307 15.6984C127.937 15.8725 127.617 16.0417 127.596 16.074C127.575 16.1058 127.384 16.2301 127.172 16.3495C126.491 16.7327 125.394 17.7119 124.752 18.5075C124.021 19.4158 123.93 19.5379 123.93 19.6124C123.93 19.655 123.818 19.8453 123.682 20.0355C123.546 20.2254 123.308 20.684 123.154 21.0542C123 21.4244 122.83 21.8112 122.778 21.914C121.981 23.4595 121.972 28.3347 122.764 29.8313C122.821 29.9399 122.995 30.3236 123.149 30.6835C123.303 31.0434 123.458 31.3377 123.493 31.3377C123.527 31.3377 123.556 31.3741 123.556 31.4181C123.556 31.4621 123.657 31.6447 123.78 31.8242C123.903 32.0032 124.004 32.1841 124.004 32.2258C124.004 32.2676 124.067 32.3456 124.144 32.3995C124.22 32.4533 124.369 32.6243 124.475 32.78C124.727 33.1525 126.115 34.5153 126.47 34.7393C126.623 34.8358 126.795 34.9614 126.854 35.0184C126.995 35.158 127.842 35.6758 127.928 35.6758C127.965 35.6758 128.066 35.7373 128.151 35.8127C128.3 35.9451 129.447 36.4239 129.614 36.4239C129.66 36.4239 129.842 36.4898 130.019 36.5706C131.359 37.1809 135.036 37.2882 137.503 36.7892C137.914 36.7061 138.267 36.6101 138.289 36.576C138.31 36.5415 138.529 36.4548 138.776 36.383C139.237 36.2493 140.093 35.9042 140.159 35.8252C140.18 35.8006 140.426 35.6646 140.707 35.5228C140.988 35.3805 141.291 35.1934 141.38 35.1064C141.47 35.0197 141.644 34.8968 141.768 34.8335C142.071 34.6782 143.391 33.415 143.652 33.0309C143.767 32.8608 143.903 32.6948 143.955 32.6616C144.296 32.4444 144.239 31.8614 143.878 31.8614C143.84 31.8614 143.552 31.681 143.237 31.4603C142.923 31.2395 142.497 30.9702 142.291 30.8616L141.917 30.6642L141.523 31.0945C141.305 31.331 141.09 31.5585 141.044 31.5998C140.998 31.6407 140.8 31.8345 140.605 32.0297C140.41 32.2249 140.227 32.3851 140.198 32.3851C140.17 32.3851 139.956 32.5328 139.723 32.7141C138.407 33.7354 136.161 34.4395 134.213 34.4409C133.263 34.4413 132.606 34.3942 132.606 34.3255C132.606 34.3026 132.361 34.243 132.063 34.1927C131.006 34.015 129.617 33.4428 128.926 32.9007C128.775 32.7818 128.615 32.684 128.573 32.684C128.442 32.684 126.877 31.0676 126.751 30.8019C126.686 30.6646 126.529 30.4371 126.403 30.2962C126.277 30.1548 126.174 30.0139 126.174 29.9825C126.174 29.9516 126.026 29.6123 125.847 29.2295C125.202 27.8546 124.92 25.2581 125.265 23.8589C125.433 23.1781 125.67 22.4027 125.723 22.3627C125.75 22.3426 125.899 22.0684 126.053 21.7538C126.207 21.4397 126.449 21.0524 126.59 20.894C126.731 20.7351 126.846 20.5691 126.847 20.5251C126.847 20.4811 126.989 20.3052 127.164 20.1343C127.34 19.9628 127.572 19.7299 127.681 19.616C128.059 19.2193 128.534 18.8495 129.196 18.4339C129.819 18.0431 130.088 17.9156 130.736 17.7047C130.88 17.6581 131.014 17.5979 131.035 17.5714C131.298 17.2317 134.412 16.9881 135.786 17.1994C136.519 17.3121 137.422 17.5216 137.471 17.5907C137.493 17.6226 137.695 17.7124 137.92 17.7904C138.432 17.9681 138.918 18.1943 138.951 18.2702C138.965 18.302 139.117 18.3985 139.287 18.4851C139.846 18.7665 140.939 19.7196 141.59 20.4933L141.937 20.9043L142.264 20.723C142.443 20.6234 142.607 20.517 142.628 20.4865C142.649 20.4565 142.918 20.2891 143.226 20.115C143.534 19.9413 143.804 19.7748 143.824 19.7456C143.845 19.7165 143.937 19.6527 144.03 19.6043C144.259 19.4836 144.198 19.1291 143.901 18.8477C143.807 18.7597 143.451 18.2553 143.451 18.2114C143.451 18.1651 142.606 17.3251 142.094 16.862C141.804 16.5981 141.118 16.1552 141.003 16.1552C140.959 16.1552 140.907 16.1117 140.886 16.0587C140.866 16.0053 140.551 15.8303 140.187 15.6692C139.822 15.5085 139.507 15.3551 139.486 15.3286C139.389 15.2034 137.028 14.5433 136.295 14.4365C135.536 14.3256 133.486 14.2848 132.719 14.3647ZM158.745 14.3306C157.843 14.423 157.216 14.5235 156.95 14.6182C156.786 14.677 156.308 14.8287 155.889 14.9548C155.47 15.0809 155.083 15.2272 155.029 15.2792C154.975 15.3313 154.662 15.5027 154.333 15.6598C154.003 15.8173 153.7 15.986 153.66 16.0349C153.618 16.0838 153.422 16.2328 153.223 16.3661C152.78 16.6618 152.572 16.8454 151.81 17.6136C150.965 18.4654 150.814 18.6323 150.663 18.8849C150.589 19.0083 150.456 19.1937 150.368 19.2964C150.069 19.6469 149.453 20.8285 149.237 21.4652C149.119 21.8148 148.993 22.1227 148.957 22.1487C148.92 22.1752 148.912 22.2313 148.938 22.2734C148.965 22.3156 148.958 22.3614 148.925 22.3753C148.365 22.6051 148.38 27.8949 148.945 29.1317C149.001 29.2551 149.103 29.5531 149.173 29.794C149.309 30.267 149.639 31.0528 149.727 31.1134C149.756 31.134 149.859 31.314 149.954 31.5128C150.537 32.7334 152.705 34.9825 153.83 35.5345C154.006 35.6211 154.195 35.7359 154.249 35.7902C154.362 35.9029 155.32 36.3489 155.449 36.3489C155.496 36.3489 155.668 36.4185 155.831 36.5038C157.216 37.2267 162.035 37.2985 163.158 36.6128C163.24 36.5625 163.442 36.4777 163.607 36.4248C164.095 36.2673 164.916 35.8854 164.916 35.8154C164.916 35.7799 164.949 35.7508 164.989 35.7508C165.109 35.7508 165.827 35.2948 166.131 35.0265C166.286 34.8901 166.442 34.7783 166.479 34.7783C166.516 34.7783 166.92 34.4099 167.377 33.9593L168.206 33.1408V34.8945V36.6483H169.665H171.123V25.7661V14.8839H169.666H168.209L168.189 16.7233L168.169 18.5627L167.773 18.0745C167.159 17.3175 165.891 16.1552 165.679 16.1552C165.639 16.1552 165.588 16.1108 165.567 16.056C165.546 16.0017 165.281 15.8281 164.979 15.6701C164.677 15.5121 164.413 15.3605 164.392 15.3335C164.281 15.1868 162.315 14.5532 161.606 14.4356C161.093 14.3508 159.22 14.2817 158.745 14.3306ZM114.506 25.7661V36.6483H116.002H117.498V25.7661V14.8839H116.002H114.506V25.7661ZM23.7756 15.6001C23.7487 15.6634 23.4804 15.8518 22.2503 16.6717C22.0035 16.8364 21.7473 17.0181 21.6813 17.0765C21.4637 17.2663 20.4567 17.9062 20.3992 17.8905C20.3687 17.8824 20.3431 17.9058 20.3431 17.9426C20.3431 17.9794 20.1668 18.1212 19.9505 18.2576C19.7346 18.3945 19.5412 18.5268 19.5206 18.552C19.4358 18.6565 18.282 19.4041 18.2304 19.3884C18.1995 19.379 18.1743 19.4028 18.1743 19.4418C18.1743 19.4809 17.989 19.6231 17.7628 19.7587C17.5367 19.8937 17.3518 20.0301 17.3518 20.062C17.3518 20.0934 17.3154 20.119 17.2715 20.119C17.2275 20.119 17.1404 20.1702 17.0785 20.2321C17.0166 20.294 16.9349 20.3259 16.8967 20.3025C16.859 20.2792 16.8281 20.2891 16.8281 20.3245C16.8281 20.3977 16.1859 20.8671 16.0859 20.8671C16.0504 20.8671 16.001 20.9196 15.9764 20.9842C15.9517 21.0484 15.9014 21.082 15.8642 21.0591C15.8269 21.0362 15.7762 21.0712 15.7506 21.1372C15.7237 21.2072 15.6573 21.2382 15.5895 21.2122C15.5258 21.1879 15.4931 21.1987 15.5164 21.2364C15.5568 21.3015 15.2799 21.4361 15.1668 21.4065C15.1372 21.3988 15.1345 21.4482 15.161 21.5169C15.1969 21.6106 15.178 21.629 15.0833 21.5927C15.0012 21.5613 14.9581 21.5828 14.9581 21.6546C14.9581 21.7152 14.9245 21.7646 14.8837 21.7646C14.7423 21.7646 14.6965 21.7875 14.5973 21.9068C14.5188 22.002 14.508 22.0033 14.5448 21.914C14.5704 21.8525 14.535 21.8776 14.4663 21.9701C14.3977 22.063 14.2944 22.1384 14.2361 22.1384C14.1782 22.1384 14.1118 22.1886 14.088 22.2501C14.0642 22.3116 14.0167 22.3443 13.9821 22.3228C13.9471 22.3017 13.8798 22.3569 13.8322 22.4458C13.7757 22.5512 13.7272 22.5781 13.6931 22.5225C13.6554 22.4619 13.5998 22.4696 13.4957 22.5499C13.3548 22.6589 13.3548 22.6607 13.4934 22.6123C13.5926 22.5773 13.62 22.5889 13.5827 22.6495C13.5527 22.6975 13.4849 22.737 13.4315 22.737C13.3781 22.737 13.2457 22.8196 13.1367 22.9201C13.0281 23.0211 12.9379 23.0799 12.9365 23.0511C12.9352 23.0224 12.8849 23.0637 12.8252 23.1427C12.7651 23.2221 12.6946 23.2656 12.6686 23.2396C12.6426 23.2131 12.5555 23.2661 12.4752 23.3572C12.3949 23.4478 12.3505 23.4801 12.3765 23.4285C12.403 23.3774 12.3886 23.3352 12.3451 23.3352C12.3015 23.3352 12.2656 23.3792 12.2656 23.4335C12.2656 23.4873 12.1647 23.6062 12.0413 23.6973L11.8169 23.8634V30.5174V37.1715H14.8087H17.8005L17.801 30.0853C17.801 23.4721 17.81 22.9852 17.9316 22.7962C18.081 22.5647 18.9453 21.8866 19.4896 21.5743C19.6916 21.4585 19.9074 21.3163 19.9693 21.2584C20.0308 21.2005 20.2067 21.0802 20.3593 20.9914C20.7901 20.741 22.1727 19.7905 22.201 19.7254C22.2153 19.6936 22.3302 19.6137 22.4572 19.5477C22.5842 19.4822 22.9163 19.2628 23.1954 19.0599C23.7671 18.6435 23.8497 18.6498 24.3931 19.1457C24.5286 19.27 24.6673 19.3714 24.701 19.3714C24.7611 19.3714 25.2067 19.6649 25.2794 19.7528C25.3 19.7775 25.5608 19.9426 25.8592 20.1199C26.1576 20.2967 26.4013 20.4672 26.4013 20.4982C26.4013 20.5624 27.2418 21.1439 27.9248 21.5528C28.177 21.704 28.4247 21.8642 28.4754 21.9095C28.5257 21.9548 28.7173 22.0931 28.9004 22.2165C29.0834 22.3403 29.3199 22.544 29.4254 22.6697L29.6175 22.8981V30.0346V37.1715H32.6456H35.6738L35.6935 30.4667L35.7128 23.7624L35.4512 23.5829C35.3072 23.4842 34.9706 23.2549 34.7031 23.0731C34.4357 22.8918 34.1207 22.6661 34.0026 22.5719C33.8851 22.4776 33.6468 22.3161 33.4736 22.2133C33.3008 22.1105 33.0944 21.9661 33.0149 21.892C32.8606 21.748 32.0856 21.2346 32.0856 21.2759C32.0856 21.2898 31.9855 21.2077 31.8635 21.0937C31.7418 20.9797 31.517 20.8271 31.3644 20.7549C31.2119 20.6826 30.9875 20.5184 30.8659 20.39C30.7443 20.2617 30.6684 20.207 30.6976 20.2689C30.7447 20.3685 30.7393 20.3685 30.65 20.2689C30.5486 20.1558 30.3471 20.027 29.98 19.8417C29.871 19.7865 29.762 19.6895 29.7373 19.6263C29.713 19.563 29.6628 19.5302 29.626 19.5531C29.5887 19.576 29.5389 19.5446 29.5156 19.4831C29.4918 19.4216 29.4209 19.3714 29.3581 19.3714C29.2953 19.3714 29.2437 19.3377 29.2437 19.2964C29.2437 19.2552 29.1979 19.2215 29.1422 19.2215C29.0866 19.2215 28.9434 19.13 28.8245 19.0182C28.7052 18.906 28.5656 18.8235 28.5144 18.8342C28.4628 18.8454 28.4206 18.7988 28.4206 18.7306C28.4206 18.6552 28.3798 18.6229 28.3147 18.648C28.2564 18.6704 28.1922 18.6458 28.172 18.5928C28.1518 18.5403 28.0145 18.4398 27.8669 18.3698C27.7188 18.2998 27.5981 18.2082 27.5981 18.1665C27.5981 18.1252 27.564 18.1117 27.5227 18.1373C27.4814 18.1629 27.4271 18.1315 27.4024 18.0673C27.3777 18.0027 27.31 17.9502 27.2512 17.9502C27.1924 17.9502 27.1251 17.8995 27.1018 17.838C27.078 17.7761 27.03 17.7258 26.995 17.7258C26.8644 17.7258 26.2518 17.3121 26.2518 17.2237C26.2518 17.173 26.2016 17.1514 26.1396 17.1752C26.0777 17.199 26.0275 17.1824 26.0275 17.1389C26.0275 17.0953 25.9067 17.0024 25.7587 16.9324C25.611 16.862 25.4728 16.7597 25.4517 16.7049C25.4306 16.6497 25.3831 16.6237 25.3458 16.6466C25.309 16.6695 25.2583 16.6358 25.2336 16.5712C25.2089 16.507 25.1569 16.4545 25.1178 16.4545C25.0034 16.4545 24.5291 16.109 24.5695 16.0551C24.5897 16.0277 24.5852 16.021 24.5596 16.0399C24.4865 16.0937 24.083 15.8626 24.083 15.767C24.083 15.7199 24.061 15.7033 24.0341 15.7302C24.0072 15.7571 23.9448 15.723 23.895 15.6553C23.8452 15.5871 23.7913 15.5624 23.7756 15.6001ZM73.6542 17.2066C74.448 17.2932 75.3235 17.4736 75.3873 17.5638C75.4093 17.5948 75.6763 17.7115 75.9805 17.8223C76.6352 18.061 77.8047 18.8275 78.3818 19.3961C78.9306 19.9373 79.4287 20.4731 79.4287 20.5229C79.4287 20.5453 79.5934 20.8083 79.7953 21.108C79.9968 21.4074 80.2513 21.888 80.3603 22.1761C80.4698 22.4637 80.6067 22.7864 80.6641 22.8923C80.7673 23.0834 80.9423 23.8652 81.0348 24.5477C81.2026 25.7881 80.9621 28.3926 80.6403 28.8225C80.6058 28.8692 80.4662 29.1995 80.3307 29.5571C80.1947 29.9148 80.0291 30.2679 79.9618 30.3424C79.895 30.4169 79.7186 30.6628 79.5701 30.889C78.664 32.268 76.6527 33.6659 74.991 34.0711C73.196 34.5086 73.2539 34.5001 72.4156 34.4525C71.5352 34.4027 71.3476 34.3812 71.2377 34.317C71.1973 34.2937 71.0295 34.2515 70.8652 34.2232C70.3016 34.1272 69.387 33.7973 68.8665 33.5025C68.5802 33.3405 68.3275 33.2077 68.3051 33.2077C67.9986 33.2077 66.0528 31.2875 65.7158 30.6525C65.5991 30.4331 65.4641 30.2199 65.4156 30.1786C65.3164 30.0947 64.8443 29.09 64.8443 28.9625C64.8443 28.9176 64.8013 28.836 64.7483 28.7817C64.37 28.3931 64.0783 26.0788 64.2403 24.7564C64.3368 23.9697 64.5872 22.8793 64.6859 22.8155C64.7209 22.7927 64.7752 22.6921 64.8066 22.5916C64.8986 22.2972 65.2967 21.4347 65.3604 21.3921C65.3927 21.3706 65.5525 21.1345 65.7158 20.8671C66.0219 20.3654 66.3418 19.9745 66.7789 19.5679C66.9171 19.4391 67.1419 19.2246 67.2788 19.0909C67.4152 18.9572 67.5481 18.8477 67.5745 18.8477C67.6006 18.8477 67.8371 18.6942 68.1 18.5066C68.363 18.3191 68.8571 18.0471 69.1981 17.9026C69.5392 17.7577 69.9278 17.5894 70.062 17.5288C70.2868 17.4274 71.1748 17.2492 71.8 17.1801C72.3371 17.1209 72.9488 17.1299 73.6542 17.2066ZM161.737 17.3166C162.107 17.3812 162.478 17.4768 162.56 17.5293C162.642 17.5813 162.949 17.7119 163.241 17.8192C163.766 18.0117 164.891 18.6987 165.327 19.0932C165.929 19.6388 166.636 20.369 166.636 20.4466C166.636 20.5013 167 21.0165 167.092 21.0914C167.137 21.1282 167.516 21.9073 167.825 22.6006C168.698 24.5571 168.475 28.07 167.35 30.0786C166.152 32.2191 163.281 34.2546 161.461 34.2546C161.387 34.2546 161.326 34.2802 161.325 34.3107C161.324 34.4642 159.318 34.4866 158.67 34.3403C157.316 34.0347 156.772 33.8467 155.997 33.4159C155.555 33.1704 155.193 32.9371 155.193 32.8972C155.193 32.8577 155.159 32.8455 155.118 32.8711C155.077 32.8967 155.043 32.8806 155.043 32.8357C155.043 32.7908 154.979 32.7298 154.901 32.7006C154.576 32.5776 153.229 31.1376 152.975 30.6408C152.908 30.5103 152.758 30.2684 152.64 30.1037C152.522 29.939 152.323 29.5356 152.197 29.2075C152.071 28.8795 151.942 28.5932 151.912 28.5721C151.832 28.516 151.614 27.5588 151.517 26.8368C151.368 25.7302 151.548 23.7835 151.865 23.0736C151.92 22.9502 152.08 22.5799 152.22 22.2506C152.36 21.9216 152.632 21.4078 152.824 21.1094C153.016 20.8105 153.173 20.5476 153.173 20.5247C153.173 20.5018 153.283 20.3739 153.416 20.2406C153.55 20.1073 153.762 19.8825 153.888 19.7407C154.363 19.2036 155.793 18.1297 156.24 17.9735C156.618 17.8416 157.18 17.6082 157.212 17.5705C157.516 17.2075 160.236 17.0549 161.737 17.3166Z" fill="white"/>
<path fill-rule="evenodd" clip-rule="evenodd" d="M11.8169 7.77836C11.8169 7.82727 12.8643 7.8533 14.8087 7.8533C16.7531 7.8533 17.8005 7.82727 17.8005 7.77836C17.8005 7.72989 16.7531 7.70387 14.8087 7.70387C12.8643 7.70387 11.8169 7.72989 11.8169 7.77836ZM29.8046 7.77836C29.7741 7.82772 30.7636 7.8533 32.717 7.8533H35.6756V14.9916C35.6756 21.7479 35.6567 22.4108 35.4745 22.1195C35.4413 22.0661 35.313 21.962 35.1896 21.8875C35.0069 21.778 35.0209 21.8027 35.2636 22.0203C35.8757 22.5701 35.825 23.2037 35.825 14.9961V7.70387H32.8381C30.9269 7.70387 29.8342 7.73079 29.8046 7.77836ZM37.7322 7.77836C37.7618 7.82637 38.9281 7.8533 40.9856 7.8533C43.0432 7.8533 44.2095 7.88022 44.2391 7.92824C44.2647 7.96908 44.3167 8.00273 44.3553 8.00273C44.3935 8.00273 44.367 7.93542 44.2965 7.8533C44.1516 7.68412 37.6281 7.60963 37.7322 7.77836ZM37.9543 8.13377C38.0194 8.2675 38.0885 8.37699 38.1083 8.37699C38.1828 8.37699 38.1347 8.25762 37.988 8.07767L37.8354 7.89055L37.9543 8.13377ZM38.8644 9.57022C38.9358 9.69093 39.0255 9.76991 39.0645 9.74613C39.1036 9.7219 39.0798 9.67119 39.012 9.63349C38.9438 9.59535 38.9057 9.53611 38.9272 9.50201C38.9483 9.46745 38.9138 9.41989 38.85 9.39521C38.7518 9.35751 38.754 9.38354 38.8644 9.57022ZM39.3751 10.3026C39.4406 10.4363 39.5097 10.5458 39.5295 10.5458C39.6035 10.5458 39.5559 10.4269 39.4092 10.2465L39.2566 10.0598L39.3751 10.3026ZM40.2403 11.6488C40.2452 11.7655 40.4498 11.9728 40.492 11.9042C40.5163 11.8651 40.4839 11.8126 40.4198 11.7884C40.3556 11.7637 40.3242 11.7094 40.3498 11.6681C40.3753 11.6268 40.3605 11.5927 40.317 11.5927C40.2735 11.5927 40.2389 11.6183 40.2403 11.6488ZM40.7963 12.4718C40.8613 12.6056 40.9309 12.7146 40.9502 12.7146C41.0247 12.7146 40.9767 12.5957 40.8299 12.4157L40.6778 12.2286L40.7963 12.4718ZM23.5405 15.6378C23.4687 15.6795 23.4104 15.7544 23.4108 15.8038C23.4117 15.8657 23.4292 15.8684 23.4669 15.8123C23.4974 15.7675 23.5894 15.693 23.6715 15.6463C23.7536 15.5996 23.7873 15.5615 23.7465 15.5615C23.7052 15.5615 23.6127 15.5956 23.5405 15.6378ZM24.6063 16.0659C24.6063 16.1395 24.976 16.4119 25.0142 16.367C25.0259 16.3531 24.9388 16.2638 24.8208 16.1682C24.7028 16.0726 24.6063 16.0264 24.6063 16.0659ZM22.1826 16.5667C22.0717 16.6694 21.9528 16.7534 21.9183 16.7534C21.8833 16.7534 21.8348 16.8063 21.8101 16.8705C21.776 16.9598 21.8137 16.9517 21.9708 16.835C22.4025 16.5146 22.5465 16.3827 22.4671 16.3813C22.4218 16.3804 22.2939 16.4639 22.1826 16.5667ZM21.3914 17.124C21.2891 17.2026 21.2218 17.2829 21.242 17.3026C21.2617 17.3224 21.3793 17.2573 21.5027 17.1586C21.7666 16.9468 21.6638 16.9149 21.3914 17.124ZM20.9099 17.4453C20.432 17.8218 20.3997 17.8698 20.7735 17.6473C20.9893 17.5189 21.1662 17.383 21.1662 17.3453C21.1662 17.2497 21.1504 17.256 20.9099 17.4453ZM20.0524 18.0292C19.9536 18.1113 19.8904 18.1952 19.9105 18.2158C19.9312 18.236 19.9904 18.2015 20.0425 18.1391C20.0945 18.0763 20.1834 18.0251 20.2404 18.0251C20.2969 18.0251 20.3431 17.9915 20.3431 17.9502C20.3431 17.8384 20.2516 17.8631 20.0524 18.0292ZM17.5492 18.3617C17.4877 18.4232 17.4038 18.4739 17.363 18.4739C17.3226 18.4739 17.2782 18.5003 17.2643 18.5331C17.2508 18.5654 17.1112 18.6704 16.9551 18.766C16.7985 18.8616 16.6845 18.9536 16.702 18.9706C16.719 18.9881 16.9133 18.8831 17.1341 18.7377C17.3549 18.5928 17.5578 18.4739 17.5851 18.4739C17.6125 18.4739 17.6542 18.4232 17.678 18.3617C17.7014 18.2998 17.7076 18.2495 17.691 18.2495C17.6749 18.2495 17.6112 18.2998 17.5492 18.3617ZM29.919 18.3002C29.9163 18.3926 30.1946 18.6112 30.515 18.7691C30.6797 18.8499 30.6756 18.8383 30.4777 18.67C30.3543 18.565 30.2233 18.4779 30.1865 18.4766C30.1501 18.4748 30.0752 18.4146 30.0209 18.3428C29.9661 18.271 29.9204 18.2517 29.919 18.3002ZM19.3151 18.5573C19.075 18.7108 19.0184 18.7754 19.1279 18.77C19.1899 18.7673 19.6552 18.3989 19.5955 18.4007C19.5749 18.4012 19.4488 18.4716 19.3151 18.5573ZM30.7865 18.9585C30.8102 19.0204 30.8565 19.0545 30.8888 19.0348C30.9215 19.0146 30.9673 19.0483 30.9911 19.1097C31.0387 19.234 31.1881 19.2632 31.1881 19.1488C31.1881 19.1088 31.088 19.024 30.9655 18.9608C30.7694 18.8593 30.7483 18.8593 30.7865 18.9585ZM31.6741 19.5491C31.7975 19.6541 31.9321 19.7398 31.9734 19.7402C32.0587 19.7402 31.8231 19.5473 31.5996 19.4337C31.517 19.392 31.5507 19.4441 31.6741 19.5491ZM17.7754 19.5706C17.6847 19.6617 17.7238 19.7411 17.8378 19.6976C17.8993 19.6738 17.95 19.6245 17.95 19.5877C17.95 19.5091 17.8467 19.4993 17.7754 19.5706ZM15.5379 19.7133C15.4248 19.7743 15.3324 19.8574 15.3324 19.8973C15.3324 20.018 15.4352 19.9767 15.6205 19.7811C15.8238 19.567 15.8171 19.5616 15.5379 19.7133ZM32.4221 20.0898C32.6918 20.2976 32.8763 20.3559 32.6465 20.1607C32.5231 20.0562 32.3885 19.9713 32.3472 19.9722C32.3064 19.9736 32.34 20.0261 32.4221 20.0898ZM14.7526 20.2774C14.6189 20.3631 14.5094 20.465 14.5094 20.5045C14.5094 20.5435 14.6274 20.4856 14.7715 20.3757C14.999 20.2025 15.0811 20.1158 15.0142 20.1203C15.0039 20.1212 14.8863 20.1917 14.7526 20.2774ZM33.0203 20.4905C33.2286 20.7239 33.5943 20.9133 33.5342 20.7562C33.5104 20.6943 33.461 20.662 33.4242 20.6849C33.387 20.7077 33.3569 20.6916 33.3569 20.649C33.3569 20.6063 33.2478 20.5157 33.1141 20.4475L32.8709 20.3232L33.0203 20.4905ZM13.9112 20.8671C13.8084 20.9474 13.7577 21.0133 13.799 21.0133C13.8403 21.0133 13.9579 20.9474 14.0606 20.8671C14.1639 20.7867 14.2141 20.7208 14.1728 20.7208C14.132 20.7208 14.014 20.7867 13.9112 20.8671ZM33.7684 20.9806C33.8505 21.0474 33.9851 21.1354 34.0677 21.1758L34.2171 21.2494L34.0677 21.1273C33.9851 21.0605 33.8505 20.9725 33.7684 20.9321L33.619 20.859L33.7684 20.9806ZM13.4445 21.1543C13.3319 21.2225 13.2237 21.3203 13.204 21.3719C13.1515 21.5088 13.1901 21.4899 13.471 21.2422C13.7537 20.9931 13.747 20.9712 13.4445 21.1543ZM34.4788 21.4545C34.4788 21.5325 34.8499 21.7924 34.8957 21.7466C34.9123 21.73 34.8252 21.642 34.7022 21.5514C34.5793 21.4603 34.4788 21.4168 34.4788 21.4545ZM48.5264 21.5963C49.5267 21.6079 51.1422 21.6079 52.1164 21.5963C53.0902 21.5846 52.2717 21.5747 50.2972 21.5747C48.3227 21.5747 47.5257 21.5846 48.5264 21.5963ZM12.5089 21.8067C12.3339 21.9117 12.1912 22.0311 12.1912 22.0724C12.1912 22.1141 12.3424 22.0392 12.5277 21.9059C12.823 21.6941 12.9114 21.6133 12.8454 21.6156C12.8351 21.616 12.6839 21.7022 12.5089 21.8067ZM35.7317 23.9024C35.7007 23.9334 35.6756 26.931 35.6756 30.5641V37.1701L32.7026 37.1903L29.7296 37.211L32.6936 37.2285C35.1164 37.2433 35.6724 37.228 35.7416 37.1446C35.8385 37.0279 35.8286 23.8055 35.7317 23.9024ZM13.2569 37.2276C14.0692 37.2397 15.3988 37.2397 16.2111 37.2276C17.0233 37.2155 16.3587 37.2056 14.7338 37.2056C13.1088 37.2056 12.4442 37.2155 13.2569 37.2276Z" fill="#17AF69"/>
<path fill-rule="evenodd" clip-rule="evenodd" d="M29.7124 10.5457C29.7124 10.7305 29.7272 10.8064 29.7447 10.7139C29.7627 10.6215 29.7627 10.4698 29.7447 10.3774C29.7272 10.2849 29.7124 10.3603 29.7124 10.5457ZM46.1461 23.1107C46.1461 23.1596 47.5547 23.1856 50.2225 23.1856C52.8899 23.1856 54.2985 23.1596 54.2985 23.1107C54.2985 23.0618 52.8899 23.0357 50.2225 23.0357C47.5547 23.0357 46.1461 23.0618 46.1461 23.1107ZM45.0493 24.8123C44.8438 25.1309 44.6176 25.4868 44.5458 25.6026C44.4745 25.7184 44.3672 25.87 44.3075 25.9391C44.1541 26.1168 43.2283 27.5142 43.1789 27.6421C43.078 27.906 43.3167 27.7099 43.5056 27.3738C43.621 27.1683 43.7408 27 43.7717 27C43.8023 27 43.8278 26.965 43.8278 26.9219C43.8278 26.8788 43.8633 26.8034 43.9068 26.7536C43.9503 26.7038 44.2362 26.2761 44.5418 25.8032C44.8478 25.3302 45.1319 24.9025 45.1732 24.8527C45.2149 24.8029 45.2486 24.7275 45.2486 24.6844C45.2486 24.6413 45.2768 24.6063 45.3114 24.6063C45.346 24.6063 45.4128 24.5224 45.4595 24.4197C45.6336 24.0378 45.411 24.2509 45.0493 24.8123ZM42.8922 28.09C42.6404 28.3907 42.587 28.4957 42.6871 28.4957C42.7244 28.4957 42.8639 28.3444 42.9967 28.1591C43.2848 27.7584 43.2108 27.7095 42.8922 28.09ZM42.1226 29.2397C41.8672 29.6077 41.6586 29.9357 41.6586 29.9689C41.6586 30.0017 41.5576 30.1466 41.4342 30.2907C41.2053 30.5586 41.16 30.6645 41.2749 30.6645C41.353 30.6645 41.7735 30.0524 41.7501 29.9729C41.7407 29.942 41.764 29.9169 41.8013 29.9169C41.8385 29.9169 41.9624 29.7567 42.0768 29.5614C42.1912 29.3662 42.3299 29.1607 42.3847 29.1055C42.5287 28.961 42.7208 28.5706 42.6481 28.5706C42.614 28.5706 42.3775 28.8717 42.1226 29.2397ZM40.9581 31.0369C40.8499 31.2007 40.7611 31.3502 40.7611 31.3699C40.7611 31.3892 40.6834 31.4888 40.5879 31.5916C40.4927 31.6944 40.3401 31.9232 40.2491 32.1005C40.158 32.2773 40.0184 32.5066 39.939 32.6094C39.685 32.9378 38.8166 34.2617 38.8166 34.3204C38.8166 34.3519 38.6986 34.5147 38.555 34.683C38.411 34.8513 38.2925 35.0173 38.2916 35.0519C38.2903 35.1156 37.916 35.7066 37.763 35.8866C37.614 36.062 37.0966 36.942 37.0966 37.0206C37.0966 37.0713 38.2117 37.0969 40.4111 37.0969H43.7255L43.901 36.7787C43.9979 36.6041 44.1738 36.3178 44.2923 36.1433C44.4112 35.9682 44.4772 35.8251 44.439 35.8251C44.4013 35.8251 44.1931 36.0943 43.9773 36.4237L43.5846 37.0219H40.407C37.5951 37.0219 37.2352 37.0089 37.2738 36.9084C37.2976 36.8456 37.4529 36.5951 37.618 36.3515C37.7836 36.1078 37.9191 35.8727 37.9191 35.8291C37.9191 35.7861 37.9528 35.7506 37.9941 35.7506C38.0349 35.7506 38.0686 35.7156 38.0686 35.6725C38.0686 35.6294 38.1049 35.5541 38.1494 35.5042C38.2171 35.4275 38.7251 34.6732 39.5719 33.3897C39.6787 33.2277 40.0139 32.7081 40.3164 32.2351C40.6193 31.7621 40.9114 31.33 40.9653 31.2748C41.1142 31.1226 41.2978 30.7394 41.2219 30.7394C41.1851 30.7394 41.0662 30.8731 40.9581 31.0369ZM45.1409 34.6355C44.9874 34.867 44.9093 35.1731 45.0489 34.9963C45.2535 34.7364 45.473 34.4169 45.473 34.3783C45.473 34.2446 45.3222 34.3613 45.1409 34.6355ZM44.7913 35.1336C44.7864 35.1641 44.7864 35.2148 44.7913 35.2458C44.7958 35.2763 44.7738 35.3019 44.7415 35.3019C44.7092 35.3019 44.623 35.4028 44.5503 35.5262C44.3529 35.8597 44.5243 35.7977 44.7527 35.4531C44.8609 35.2893 44.9497 35.1376 44.9497 35.1165C44.9497 35.055 44.8012 35.0707 44.7913 35.1336Z" fill="#9CCC2C"/>
<path fill-rule="evenodd" clip-rule="evenodd" d="M38.1185 8.28317C38.1418 8.37606 38.1907 8.45145 38.2271 8.45145C38.2634 8.45145 38.285 8.48959 38.2746 8.53581C38.2643 8.58204 38.3011 8.63633 38.3568 8.65653C38.4676 8.69692 38.4025 8.54344 38.1903 8.26477C38.0781 8.11758 38.0772 8.11803 38.1185 8.28317ZM44.6563 8.51158C44.6532 8.56543 44.7348 8.73282 44.8376 8.88449C44.9404 9.03572 45.0243 9.13175 45.0243 9.09765C45.0243 9.06354 44.9619 8.94642 44.8856 8.83693C44.8093 8.72788 44.7277 8.58787 44.7043 8.52639C44.6761 8.45055 44.6603 8.44562 44.6563 8.51158ZM39.5397 10.4524C39.563 10.5449 39.6119 10.6207 39.6483 10.6207C39.6846 10.6207 39.7142 10.671 39.7142 10.7329C39.7142 10.7944 39.7492 10.8451 39.7919 10.8451C39.8758 10.8451 39.8094 10.6939 39.6115 10.4336C39.4993 10.2864 39.4979 10.2868 39.5397 10.4524ZM41.0416 12.7644C41.0932 12.785 41.1354 12.8496 41.1354 12.908C41.1354 12.9663 41.17 13.0139 41.2126 13.0139C41.2651 13.0139 41.2642 12.9659 41.2099 12.8645C41.1659 12.7819 41.0892 12.7173 41.0389 12.7204C40.9707 12.7249 40.9712 12.7357 41.0416 12.7644ZM41.6156 13.6121C41.6394 13.674 41.6793 13.7835 41.7049 13.8553C41.7305 13.9271 41.7821 13.9863 41.8198 13.9863C41.8875 13.9863 41.8224 13.8378 41.6555 13.6121C41.5819 13.5125 41.5774 13.5125 41.6156 13.6121ZM43.0049 15.7208C43.0049 15.7445 43.0552 15.8603 43.1166 15.9783C43.1781 16.0964 43.2275 16.1421 43.2266 16.0802C43.2257 16.0187 43.1754 15.9029 43.1148 15.8231C43.0543 15.7432 43.0049 15.6974 43.0049 15.7208ZM22.4261 16.4886C22.235 16.629 22.0532 16.7206 22.0218 16.6927C21.9904 16.6645 21.989 16.6838 22.0191 16.7358C22.0689 16.8229 22.672 16.4697 22.7847 16.2875C22.8435 16.1919 22.7892 16.2225 22.4261 16.4886ZM26.3684 17.3829C26.525 17.4978 26.5959 17.4852 26.5165 17.3569C26.4896 17.3129 26.4124 17.277 26.3451 17.277C26.2432 17.277 26.2468 17.2945 26.3684 17.3829ZM44.458 17.9501C44.4813 18.0116 44.5217 18.1211 44.5468 18.1934C44.5724 18.2652 44.624 18.3239 44.6617 18.3239C44.7295 18.3239 44.6644 18.1754 44.4979 17.9501C44.4239 17.8505 44.4194 17.8505 44.458 17.9501ZM30.141 18.4536C30.2025 18.4774 30.3542 18.5708 30.4776 18.6614C30.7464 18.8584 30.8887 18.9414 30.8887 18.9019C30.8887 18.8364 30.2209 18.3993 30.1285 18.4047C30.0567 18.4092 30.0603 18.4227 30.141 18.4536ZM18.3667 19.2605C18.2873 19.3206 18.237 19.3839 18.2545 19.4014C18.272 19.4189 18.3658 19.3686 18.4628 19.2901C18.6674 19.1241 18.5817 19.098 18.3667 19.2605ZM32.6778 20.1463C32.7774 20.2688 33.0579 20.4542 33.0579 20.3976C33.0579 20.3833 32.9484 20.2917 32.8147 20.1934C32.6644 20.0835 32.6119 20.0655 32.6778 20.1463ZM14.0026 20.7292C13.5611 21.0088 13.7958 20.9509 14.2786 20.6615C14.2961 20.6512 14.2952 20.6278 14.2768 20.6094C14.2584 20.5915 14.135 20.6449 14.0026 20.7292ZM15.7335 21.0537C15.7097 21.1152 15.6549 21.1434 15.6119 21.117C15.5629 21.0865 15.5562 21.1049 15.5939 21.1659C15.6415 21.2435 15.6724 21.2386 15.7438 21.1412C15.7927 21.0739 15.8551 21.0407 15.8816 21.0676C15.9085 21.0945 15.9305 21.077 15.9305 21.029C15.9305 20.9034 15.7842 20.9218 15.7335 21.0537ZM34.5536 21.4176C34.5536 21.4383 34.6546 21.5271 34.778 21.6151C34.9014 21.7026 35.0023 21.7578 35.0023 21.7371C35.0023 21.7169 34.9014 21.6281 34.778 21.5401C34.6546 21.4522 34.5536 21.397 34.5536 21.4176ZM48.4837 21.5213C49.4606 21.5334 51.0591 21.5334 52.036 21.5213C53.0129 21.5096 52.2137 21.4998 50.2598 21.4998C48.306 21.4998 47.5068 21.5096 48.4837 21.5213Z" fill="#04A44E"/>
</svg>
