<svg width="77" height="76" viewBox="0 0 77 76" fill="none" xmlns="http://www.w3.org/2000/svg">
<rect x="0.5" width="76" height="76" rx="38" fill="#FDE7F5" fill-opacity="0.54"/>
<path d="M38.9061 19.8472C38.6476 19.7323 38.3524 19.7323 38.0939 19.8472L24.0939 26.0694C23.7327 26.2299 23.5 26.588 23.5 26.9832V36.3334C23.5 45.5834 29.9 54.2334 38.5 56.3334C47.1 54.2334 53.5 45.5834 53.5 36.3334V26.9832C53.5 26.588 53.2673 26.2299 52.9061 26.0694L38.9061 19.8472ZM38.5 37.9834H49.0298C49.6327 37.9834 50.1004 38.5138 49.9882 39.1062C48.8652 45.0355 44.9948 50.2452 39.7744 52.4216C39.1529 52.6807 38.5 52.2009 38.5 51.5275V38H27.8333C27.281 38 26.8333 37.5523 26.8333 37V29.15C26.8333 28.7548 27.0661 28.3966 27.4273 28.2361L37.094 23.9414C37.7553 23.6476 38.5 24.1316 38.5 24.8552V37.9834Z" fill="#069B40"/>
</svg>
