<svg width="26" height="27" viewBox="0 0 26 27" fill="none" xmlns="http://www.w3.org/2000/svg">
<path d="M17.7394 3.62516C18.9954 3.62891 20.1988 4.12949 21.0869 5.01759C21.975 5.90569 22.4756 7.10913 22.4793 8.36508V17.8439C22.4756 19.0999 21.975 20.3033 21.0869 21.1914C20.1988 22.0795 18.9954 22.5801 17.7394 22.5838H8.26059C7.00463 22.5801 5.80119 22.0795 4.9131 21.1914C4.025 20.3033 3.52441 19.0999 3.52066 17.8439V8.36508C3.52441 7.10913 4.025 5.90569 4.9131 5.01759C5.80119 4.12949 7.00463 3.62891 8.26059 3.62516H17.7394ZM17.7394 1.72949H8.26059C4.61094 1.72949 1.625 4.71543 1.625 8.36508V17.8439C1.625 21.4936 4.61094 24.4795 8.26059 24.4795H17.7394C21.3891 24.4795 24.375 21.4936 24.375 17.8439V8.36508C24.375 4.71543 21.3891 1.72949 17.7394 1.72949Z" fill="white"/>
<path d="M19.1613 8.36523C18.8801 8.36523 18.6052 8.28184 18.3713 8.12561C18.1375 7.96937 17.9553 7.7473 17.8476 7.48749C17.74 7.22767 17.7119 6.94178 17.7667 6.66597C17.8216 6.39015 17.957 6.1368 18.1559 5.93794C18.3547 5.73909 18.6081 5.60367 18.8839 5.54881C19.1597 5.49394 19.4456 5.5221 19.7054 5.62972C19.9652 5.73734 20.1873 5.91958 20.3435 6.15341C20.4998 6.38723 20.5832 6.66214 20.5832 6.94336C20.5836 7.1302 20.5471 7.31527 20.4757 7.48796C20.4044 7.66065 20.2997 7.81756 20.1676 7.94967C20.0355 8.08179 19.8786 8.18651 19.7059 8.25782C19.5332 8.32913 19.3481 8.36564 19.1613 8.36523ZM13 9.31281C13.75 9.31281 14.4831 9.5352 15.1066 9.95185C15.7302 10.3685 16.2162 10.9607 16.5032 11.6536C16.7902 12.3464 16.8653 13.1089 16.719 13.8444C16.5727 14.5799 16.2115 15.2556 15.6812 15.7859C15.1509 16.3162 14.4753 16.6773 13.7398 16.8236C13.0042 16.9699 12.2418 16.8948 11.5489 16.6078C10.8561 16.3209 10.2639 15.8348 9.84721 15.2113C9.43055 14.5877 9.20817 13.8546 9.20817 13.1046C9.20924 12.0993 9.60908 11.1355 10.32 10.4246C11.0308 9.71373 11.9947 9.31389 13 9.31281ZM13 7.41715C11.8751 7.41715 10.7755 7.75071 9.8402 8.37567C8.90489 9.00062 8.17591 9.88888 7.74544 10.9281C7.31496 11.9674 7.20233 13.111 7.42179 14.2142C7.64124 15.3175 8.18292 16.3309 8.97833 17.1263C9.77374 17.9217 10.7872 18.4634 11.8904 18.6829C12.9937 18.9023 14.1373 18.7897 15.1765 18.3592C16.2158 17.9287 17.104 17.1998 17.729 16.2645C18.3539 15.3292 18.6875 14.2295 18.6875 13.1046C18.6875 11.5962 18.0883 10.1496 17.0217 9.08298C15.9551 8.01637 14.5084 7.41715 13 7.41715Z" fill="white"/>
</svg>
