<svg width="26" height="27" viewBox="0 0 26 27" fill="none" xmlns="http://www.w3.org/2000/svg">
<path d="M22.5555 1.72949H3.56891C2.53145 1.72949 1.625 2.47598 1.625 3.50125V22.53C1.625 23.5609 2.53145 24.4795 3.56891 24.4795H22.5499C23.593 24.4795 24.375 23.5548 24.375 22.53V3.50125C24.3811 2.47598 23.593 1.72949 22.5555 1.72949ZM8.67699 20.6927H5.41785V10.5593H8.67699V20.6927ZM7.16016 9.01863H7.1368C6.09375 9.01863 5.41836 8.24219 5.41836 7.27023C5.41836 6.28051 6.11152 5.52234 7.17793 5.52234C8.24434 5.52234 8.89688 6.27492 8.92023 7.27023C8.91973 8.24219 8.24434 9.01863 7.16016 9.01863ZM20.5882 20.6927H17.3291V15.152C17.3291 13.8246 16.8548 12.9176 15.6757 12.9176C14.7748 12.9176 14.2416 13.527 14.0045 14.1206C13.9156 14.3339 13.8917 14.6244 13.8917 14.9209V20.6927H10.6326V10.5593H13.8917V11.9695C14.366 11.2941 15.1069 10.3222 16.8309 10.3222C18.9704 10.3222 20.5888 11.7324 20.5888 14.7727L20.5882 20.6927Z" fill="white"/>
</svg>
