<svg width="76" height="76" viewBox="0 0 76 76" fill="none" xmlns="http://www.w3.org/2000/svg">
<rect width="76" height="76" rx="38" fill="#FDE7F5"/>
<path d="M38.4061 19.8471C38.1476 19.7322 37.8524 19.7322 37.5939 19.8471L23.5939 26.0694C23.2327 26.2299 23 26.588 23 26.9832V36.3333C23 45.5833 29.4 54.2333 38 56.3333C46.6 54.2333 53 45.5833 53 36.3333V26.9832C53 26.588 52.7673 26.2299 52.4061 26.0694L38.4061 19.8471ZM38 37.9833H48.5298C49.1327 37.9833 49.6004 38.5137 49.4882 39.1061C48.3652 45.0355 44.4948 50.2452 39.2744 52.4215C38.6529 52.6806 38 52.2008 38 51.5275V38H27.3333C26.781 38 26.3333 37.5522 26.3333 37V29.1499C26.3333 28.7547 26.5661 28.3965 26.9273 28.2361L36.594 23.9413C37.2553 23.6475 38 24.1316 38 24.8552V37.9833Z" fill="#E5288E"/>
</svg>
