<svg width="32" height="32" viewBox="0 0 32 32" fill="none" xmlns="http://www.w3.org/2000/svg">
<path d="M13.3333 25.3334H8.26667C6.7732 25.3334 6.02645 25.3334 5.45603 25.0427C4.95425 24.7871 4.54631 24.3791 4.29065 23.8774C4 23.307 4 22.5602 4 21.0667V10.9334C4 9.43993 4 8.6932 4.29065 8.12277C4.54631 7.621 4.95425 7.21305 5.45603 6.9574C6.02645 6.66675 6.7732 6.66675 8.26667 6.66675H23.7333C25.2268 6.66675 25.9736 6.66675 26.544 6.9574C27.0457 7.21305 27.4537 7.621 27.7093 8.12277C28 8.6932 28 9.43995 28 10.9334V11.3334M12 12.6667V11.3334M12 12.6667H14.6668M12 12.6667C10.5104 12.6667 9.33659 12.835 9.33347 14.4434C9.33112 15.6438 9.33345 16.0001 12.0001 16.0001C14.6668 16.0001 14.6668 16.2741 14.6668 17.5557C14.6668 18.5187 14.6667 19.3334 12 19.3334M12 20.6667V19.3334M12 19.3334H9.33347M18.6667 13.3334H22.6667M18.6667 26.6667L21.3667 26.1267C21.602 26.0797 21.7197 26.0561 21.8295 26.013C21.9269 25.9749 22.0196 25.9253 22.1053 25.8654C22.2021 25.7979 22.2869 25.7131 22.4568 25.5433L28 20.0001C28.7364 19.2637 28.7364 18.0698 28 17.3334C27.2636 16.597 26.0697 16.597 25.3333 17.3334L19.7901 22.8766C19.6203 23.0465 19.5355 23.1313 19.468 23.2281C19.4081 23.3138 19.3585 23.4065 19.3204 23.5039C19.2773 23.6137 19.2537 23.7314 19.2067 23.9667L18.6667 26.6667Z" stroke="#008E10" stroke-width="2" stroke-linecap="round" stroke-linejoin="round"/>
</svg>
