<svg width="32" height="32" viewBox="0 0 32 32" fill="none" xmlns="http://www.w3.org/2000/svg">
<path d="M7.76444 10.6671C8.31773 11.1557 8.66667 11.8704 8.66667 12.6666C8.66667 14.1394 7.47276 15.3333 6 15.3333C5.2038 15.3333 4.48911 14.9843 4.00049 14.431M7.76444 10.6671C7.92192 10.6666 8.08901 10.6666 8.26667 10.6666H23.7333C23.9109 10.6666 24.0781 10.6666 24.2356 10.6671M7.76444 10.6671C6.59803 10.6707 5.9586 10.7012 5.45603 10.9572C4.95425 11.2129 4.54631 11.6208 4.29065 12.1226C4.03457 12.6252 4.00411 13.2646 4.00049 14.431M4.00049 14.431C4 14.5885 4 14.7557 4 14.9333V22.3999C4 22.5775 4 22.7447 4.00049 22.9022M4.00049 22.9022C4.48911 22.3489 5.2038 21.9999 6 21.9999C7.47276 21.9999 8.66667 23.1938 8.66667 24.6666C8.66667 25.4627 8.31773 26.1775 7.76444 26.6661M4.00049 22.9022C4.00411 24.0686 4.03457 24.7079 4.29065 25.2106C4.54631 25.7123 4.95425 26.1203 5.45603 26.3759C5.9586 26.6321 6.59803 26.6625 7.76444 26.6661M7.76444 26.6661C7.92192 26.6666 8.08901 26.6666 8.26667 26.6666H23.7333C23.9109 26.6666 24.0781 26.6666 24.2356 26.6661M28 22.9027C27.5113 22.3491 26.7964 21.9999 26 21.9999C24.5272 21.9999 23.3333 23.1938 23.3333 24.6666C23.3333 25.4627 23.6823 26.1775 24.2356 26.6661M28 22.9027C28.0005 22.7451 28 22.5778 28 22.3999V14.9333C28 14.7557 28 14.5885 27.9995 14.431M28 22.9027C27.9964 24.0687 27.9653 24.7081 27.7093 25.2106C27.4537 25.7123 27.0457 26.1203 26.544 26.3759C26.0415 26.6321 25.402 26.6625 24.2356 26.6661M27.9995 14.431C27.5109 14.9843 26.7961 15.3333 26 15.3333C24.5272 15.3333 23.3333 14.1394 23.3333 12.6666C23.3333 11.8704 23.6823 11.1557 24.2356 10.6671M27.9995 14.431C27.9959 13.2646 27.9655 12.6252 27.7093 12.1226C27.4537 11.6208 27.0457 11.2129 26.544 10.9572C26.0415 10.7012 25.402 10.6707 24.2356 10.6671M10.6667 10.6666V9.59992C10.6667 8.10645 10.6667 7.35971 10.9573 6.78928C11.213 6.28751 11.6209 5.87956 12.1227 5.62391C12.6931 5.33325 13.4399 5.33325 14.9333 5.33325H17.0667C18.5601 5.33325 19.3069 5.33325 19.8773 5.62391C20.3791 5.87956 20.7871 6.28751 21.0427 6.78928C21.3333 7.35971 21.3333 8.10645 21.3333 9.59992V10.6666M18.6667 18.6666C18.6667 20.1394 17.4728 21.3333 16 21.3333C14.5272 21.3333 13.3333 20.1394 13.3333 18.6666C13.3333 17.1938 14.5272 15.9999 16 15.9999C17.4728 15.9999 18.6667 17.1938 18.6667 18.6666Z" stroke="#FFA500" stroke-width="2" stroke-linecap="round" stroke-linejoin="round"/>
</svg>
