<svg width="18" height="18" viewBox="0 0 18 18" fill="none" xmlns="http://www.w3.org/2000/svg">
<path d="M8.95499 1.65737L7.14749 5.86487H5.33999C5.03999 5.86487 4.74749 5.88737 4.46249 5.94737L5.21249 4.14737L5.24249 4.07987L5.28749 3.95987C5.30999 3.90737 5.32499 3.86237 5.34749 3.82487C6.21749 1.80737 7.19249 1.17737 8.95499 1.65737Z" fill="#2360FF"/>
<path d="M14.0475 6.06764L14.0325 6.06014C13.5825 5.93264 13.125 5.86514 12.66 5.86514H7.965L9.6525 1.94264L9.675 1.89014C9.78 1.92764 9.8925 1.98014 10.005 2.01764L11.6625 2.71514C12.585 3.09764 13.23 3.49514 13.6275 3.97514C13.695 4.06514 13.755 4.14764 13.815 4.24514C13.8825 4.35014 13.935 4.45514 13.965 4.56764C13.995 4.63514 14.0175 4.69514 14.0325 4.76264C14.145 5.14514 14.1525 5.58014 14.0475 6.06764Z" fill="#2360FF"/>
<path d="M9.39001 13.2451H9.57751C9.80251 13.2451 9.99001 13.0426 9.99001 12.7951C9.99001 12.4801 9.90001 12.4351 9.70501 12.3601L9.39001 12.2476V13.2451Z" fill="#2360FF"/>
<path d="M13.7175 7.14023C13.38 7.04273 13.0275 6.99023 12.66 6.99023H5.33999C4.82999 6.99023 4.34999 7.08773 3.89999 7.28273C2.59499 7.84523 1.67999 9.14273 1.67999 10.6502V12.1127C1.67999 12.2927 1.69499 12.4652 1.71749 12.6452C1.88249 15.0302 3.15749 16.3052 5.54249 16.4627C5.71499 16.4852 5.88749 16.5002 6.07499 16.5002H11.925C14.7 16.5002 16.1625 15.1802 16.305 12.5552C16.3125 12.4127 16.32 12.2627 16.32 12.1127V10.6502C16.32 8.99273 15.2175 7.59773 13.7175 7.14023ZM9.95999 11.6252C10.305 11.7452 10.77 12.0002 10.77 12.7952C10.77 13.4777 10.2375 14.0252 9.57749 14.0252H9.38999V14.1902C9.38999 14.4077 9.21749 14.5802 8.99999 14.5802C8.78249 14.5802 8.60999 14.4077 8.60999 14.1902V14.0252H8.54249C7.82249 14.0252 7.22999 13.4177 7.22999 12.6677C7.22999 12.4502 7.40249 12.2777 7.61999 12.2777C7.83749 12.2777 8.00999 12.4502 8.00999 12.6677C8.00999 12.9827 8.24999 13.2452 8.54249 13.2452H8.60999V11.9777L8.03999 11.7752C7.69499 11.6552 7.22999 11.4002 7.22999 10.6052C7.22999 9.92273 7.76249 9.37523 8.42249 9.37523H8.60999V9.21023C8.60999 8.99273 8.78249 8.82023 8.99999 8.82023C9.21749 8.82023 9.38999 8.99273 9.38999 9.21023V9.37523H9.45749C10.1775 9.37523 10.77 9.98273 10.77 10.7327C10.77 10.9502 10.5975 11.1227 10.38 11.1227C10.1625 11.1227 9.98999 10.9502 9.98999 10.7327C9.98999 10.4177 9.74999 10.1552 9.45749 10.1552H9.38999V11.4227L9.95999 11.6252Z" fill="#2360FF"/>
<path d="M8.01001 10.6048C8.01001 10.9198 8.10001 10.9648 8.29501 11.0398L8.61001 11.1523V10.1548H8.42251C8.19001 10.1548 8.01001 10.3573 8.01001 10.6048Z" fill="#2360FF"/>
</svg>
