<svg width="789" height="693" viewBox="0 0 789 693" fill="none" xmlns="http://www.w3.org/2000/svg">
<g id="Enable Push Notifications">
<path id="Fill 1" fill-rule="evenodd" clip-rule="evenodd" d="M502.206 467.831L499.905 476.918L272.766 419.42L275.064 410.333C293.238 414.932 307.335 397.427 309.615 388.433L322.722 336.644C333.102 298.955 367.422 272.876 406.518 272.972C409.866 260.471 422.718 253.055 435.216 256.406C447.717 259.757 455.136 272.606 451.782 285.107C486.069 304.244 503.643 343.691 494.934 381.977L482.241 432.131C479.547 442.76 493.122 465.53 502.206 467.831Z" fill="#F1F2F7"/>
<path id="Fill 3" fill-rule="evenodd" clip-rule="evenodd" d="M345.51 447.501C347.691 470.691 368.256 487.725 391.446 485.547C404.076 484.362 415.503 477.552 422.559 467.004L345.51 447.501Z" fill="#FFDA3E"/>
<path id="Stroke 5" fill-rule="evenodd" clip-rule="evenodd" d="M714.395 379.825C714.395 551.788 574.988 691.195 403.025 691.195C231.062 691.195 91.6582 551.788 91.6582 379.825C91.6582 207.862 231.062 68.4551 403.025 68.4551C574.988 68.4551 714.395 207.862 714.395 379.825Z" stroke="#E9EAEC" stroke-dasharray="5.02 5.02"/>
<path id="Stroke 7" fill-rule="evenodd" clip-rule="evenodd" d="M634.25 379.825C634.25 507.526 530.726 611.05 403.025 611.05C275.321 611.05 171.803 507.526 171.803 379.825C171.803 252.124 275.321 148.6 403.025 148.6C530.726 148.6 634.25 252.124 634.25 379.825Z" stroke="#E9EAEC" stroke-dasharray="5.05 5.05"/>
<path id="Fill 9" fill-rule="evenodd" clip-rule="evenodd" d="M622.084 166.717C626.572 166.717 630.202 170.344 630.202 174.835C630.202 179.326 626.572 182.953 622.084 182.953C617.593 182.953 613.963 179.326 613.963 174.835C613.963 170.344 617.593 166.717 622.084 166.717ZM646.432 166.717C650.923 166.717 654.55 170.344 654.55 174.835C654.55 179.326 650.923 182.953 646.432 182.953C641.941 182.953 638.314 179.326 638.314 174.835C638.314 170.344 641.941 166.717 646.432 166.717ZM670.79 166.717C675.281 166.717 678.908 170.344 678.908 174.835C678.908 179.326 675.281 182.953 670.79 182.953C666.299 182.953 662.672 179.326 662.672 174.835C662.672 170.344 666.299 166.717 670.79 166.717ZM612.999 219.488H651.741C655.395 219.488 655.395 219.515 657.144 220.808C658.896 222.101 678.888 235.724 678.888 235.724V219.488H679.824C690.528 219.488 699.18 211.421 699.18 201.374V148.376C699.18 138.329 690.507 130.184 679.824 130.184H612.999C602.319 130.184 593.643 138.329 593.643 148.376V201.374C593.643 211.421 602.319 219.488 612.999 219.488Z" fill="url(#paint0_linear_644_14575)"/>
<path id="Fill 11" fill-rule="evenodd" clip-rule="evenodd" d="M144.078 260.26C144.078 263.197 141.708 265.567 138.768 265.567C135.834 265.567 133.464 263.197 133.464 260.26C133.464 257.323 135.834 254.95 138.768 254.95C141.708 254.95 144.078 257.323 144.078 260.26ZM128.15 260.26C128.15 263.197 125.777 265.567 122.843 265.567C119.906 265.567 117.533 263.197 117.533 260.26C117.533 257.323 119.906 254.95 122.843 254.95C125.777 254.95 128.15 257.323 128.15 260.26ZM112.23 260.26C112.23 263.197 109.857 265.567 106.92 265.567C103.986 265.567 101.613 263.197 101.613 260.26C101.613 257.323 103.986 254.95 106.92 254.95C109.857 254.95 112.23 257.323 112.23 260.26ZM157.368 277.612V242.959C157.368 236.389 151.692 231.064 144.711 231.064H101.016C94.0324 231.064 88.3594 236.389 88.3594 242.959V277.612C88.3594 284.179 94.0174 289.453 101.016 289.453H101.631V300.073C101.631 300.073 114.702 291.163 115.845 290.317C116.991 289.471 116.991 289.453 119.379 289.453H144.711C151.692 289.453 157.368 284.179 157.368 277.612Z" fill="url(#paint1_linear_644_14575)"/>
<path id="Fill 13" fill-rule="evenodd" clip-rule="evenodd" d="M345.527 447.554C347.708 470.744 368.273 487.778 391.463 485.6C404.093 484.415 415.52 477.605 422.576 467.057L345.527 447.554Z" fill="url(#paint2_linear_644_14575)"/>
<path id="Fill 15" fill-rule="evenodd" clip-rule="evenodd" d="M528.666 308.222C533.955 314.585 537.927 322.079 540.627 330.023C543.378 337.97 544.722 346.412 544.86 354.86C544.86 359.087 544.557 363.308 544.011 367.493C543.291 371.657 542.46 375.791 541.152 379.796C538.623 387.809 534.801 395.408 529.593 401.876C529.368 402.155 528.966 402.197 528.687 401.975C528.471 401.798 528.399 401.51 528.483 401.258C531.195 393.539 533.442 385.925 534.951 378.2C535.23 376.25 535.614 374.33 535.938 372.401C536.16 370.454 536.454 368.522 536.622 366.578C536.748 364.631 537 362.696 537.081 360.749C537.111 358.799 537.204 356.852 537.195 354.905C537.24 347.108 536.37 339.323 534.855 331.595C533.298 323.861 530.955 316.244 528.141 308.525C528.084 308.366 528.165 308.189 528.324 308.132C528.45 308.084 528.585 308.126 528.666 308.222Z" fill="url(#paint3_linear_644_14575)"/>
<path id="Fill 17" fill-rule="evenodd" clip-rule="evenodd" d="M558.455 310.924C563.561 316.807 567.407 323.785 570.086 331.192C572.771 338.608 574.322 346.486 574.598 354.412C574.898 362.335 573.932 370.3 571.814 377.887C569.699 385.471 566.402 392.719 561.752 398.965C561.722 399.004 561.665 399.013 561.629 398.986C561.599 398.962 561.587 398.923 561.596 398.89C563.522 391.372 565.136 384.058 566.114 376.705C567.092 369.355 567.413 362.008 567.14 354.688C566.84 347.371 565.955 340.078 564.398 332.839C562.847 325.591 560.654 318.439 558.155 311.098C558.125 311.005 558.173 310.906 558.266 310.873C558.335 310.849 558.41 310.87 558.455 310.924Z" fill="url(#paint4_linear_644_14575)"/>
<path id="Fill 19" fill-rule="evenodd" clip-rule="evenodd" d="M286.171 348.466C284.551 340.399 284.533 331.972 285.817 323.734C287.059 315.475 289.729 307.423 293.437 299.902C297.235 292.426 302.089 285.469 307.951 279.517C313.771 273.544 320.521 268.483 327.967 264.949C328.102 264.886 328.258 264.943 328.321 265.075C328.372 265.183 328.345 265.309 328.258 265.387C322.201 270.886 316.624 276.619 311.695 282.826C306.802 289.045 302.473 295.654 298.975 302.689C295.381 309.679 292.639 317.086 290.554 324.727C288.502 332.386 287.236 340.291 286.429 348.454C286.42 348.523 286.357 348.577 286.285 348.571C286.228 348.565 286.183 348.52 286.171 348.466Z" fill="url(#paint5_linear_644_14575)"/>
<path id="Fill 21" fill-rule="evenodd" clip-rule="evenodd" d="M260.741 332.519C259.208 324.944 259.181 317.051 260.294 309.323C261.443 301.595 263.738 294.002 267.125 286.931C270.476 279.848 274.802 273.221 280.007 267.416C285.188 261.602 291.176 256.52 297.848 252.68C292.4 258.104 287.396 263.762 283.031 269.846C278.681 275.936 274.898 282.359 271.832 289.115C268.796 295.88 266.36 302.906 264.623 310.157C262.838 317.405 261.767 324.842 260.996 332.507C260.987 332.576 260.927 332.627 260.852 332.621C260.798 332.615 260.75 332.573 260.741 332.519Z" fill="url(#paint6_linear_644_14575)"/>
<path id="Fill 23" fill-rule="evenodd" clip-rule="evenodd" d="M502.223 467.882C502.223 467.882 488.789 462.662 481.727 455.213C471.893 444.842 472.541 433.526 479.189 411.686C487.01 385.679 486.797 358.283 483.785 345.725C473.294 301.967 451.799 285.158 451.799 285.158C486.086 304.295 503.66 343.742 494.951 382.028L482.258 432.182C480.032 439.592 493.139 465.581 502.223 467.882L499.922 476.969L502.223 467.882Z" fill="#D8DBEA"/>
<path id="Stroke 25" d="M32.8337 421.747L27.0527 421.57" stroke="#D2D8DF" stroke-linecap="round"/>
<path id="Stroke 27" d="M28.6851 410.786L24.5391 414.659" stroke="#D2D8DF" stroke-linecap="round"/>
<path id="Stroke 29" d="M17.8819 405.782L17.7949 411.434" stroke="#D2D8DF" stroke-linecap="round"/>
<path id="Stroke 31" d="M6.74414 409.661L10.7701 413.783" stroke="#D2D8DF" stroke-linecap="round"/>
<path id="Stroke 33" d="M1.79883 420.158L7.57683 420.335" stroke="#D2D8DF" stroke-linecap="round"/>
<path id="Stroke 35" d="M5.94727 431.118L10.0963 427.245" stroke="#D2D8DF" stroke-linecap="round"/>
<path id="Stroke 37" d="M16.752 436.126L16.839 430.474" stroke="#D2D8DF" stroke-linecap="round"/>
<path id="Stroke 39" d="M27.8912 432.243L23.8652 428.121" stroke="#D2D8DF" stroke-linecap="round"/>
<path id="Stroke 41" d="M786.742 341.168L784.201 343.919" stroke="#D2D8DF" stroke-linecap="round"/>
<path id="Stroke 43" d="M774.814 343.559L776.731 345.326" stroke="#D2D8DF" stroke-linecap="round"/>
<path id="Stroke 45" d="M772.881 355.749L775.422 352.998" stroke="#D2D8DF" stroke-linecap="round"/>
<path id="Stroke 47" d="M784.803 353.359L782.889 351.592" stroke="#D2D8DF" stroke-linecap="round"/>
<path id="Stroke 49" d="M554.01 17.8398L547.863 17.6748" stroke="#D2D8DF" stroke-linecap="round"/>
<path id="Stroke 51" d="M538.107 3L538.014 8.253" stroke="#D2D8DF" stroke-linecap="round"/>
<path id="Stroke 53" d="M520.998 16.3623L527.145 16.5243" stroke="#D2D8DF" stroke-linecap="round"/>
<path id="Stroke 55" d="M536.9 31.2012L536.993 25.9482" stroke="#D2D8DF" stroke-linecap="round"/>
<path id="Fill 57" fill-rule="evenodd" clip-rule="evenodd" d="M98.8073 585.019C94.3853 586.342 87.0203 592.84 84.5002 600.544C84.0772 593.386 79.5323 584.389 74.5312 583.093C80.6332 580.936 87.2422 573.007 89.0002 566.326C88.6823 573.328 95.0392 583.495 98.8073 585.019Z" fill="#EBECEF"/>
<path id="Fill 59" fill-rule="evenodd" clip-rule="evenodd" d="M202.375 45.9762C198.964 46.5792 192.919 50.7792 190.375 56.2992C190.678 50.9322 188.071 43.8372 184.459 42.4392C189.19 41.3592 194.8 36.0252 196.687 31.2012C195.844 36.3912 199.699 44.5152 202.375 45.9762Z" fill="#EBECEF"/>
<path id="Fill 61" fill-rule="evenodd" clip-rule="evenodd" d="M654.475 84.951C649.918 84.852 646.306 81.081 646.408 76.527C646.507 71.973 650.278 68.361 654.829 68.46C659.386 68.559 662.998 72.33 662.899 76.884C662.797 81.438 659.029 85.05 654.475 84.951Z" fill="#D1D9E0"/>
<path id="Fill 63" fill-rule="evenodd" clip-rule="evenodd" d="M654.497 625.407C650.534 625.323 647.39 622.038 647.474 618.075C647.558 614.109 650.843 610.965 654.809 611.049C658.775 611.136 661.919 614.418 661.832 618.384C661.745 622.347 658.463 625.494 654.497 625.407Z" fill="#EBECEF"/>
<path id="Stroke 65" fill-rule="evenodd" clip-rule="evenodd" d="M58.2661 194.41C55.8121 194.356 53.8651 192.325 53.9191 189.868C53.9701 187.414 56.0041 185.47 58.4581 185.521C60.9121 185.575 62.8591 187.606 62.8081 190.06C62.7541 192.517 60.7201 194.464 58.2661 194.41Z" stroke="#D2D8DF" stroke-linecap="round"/>
</g>
<defs>
<linearGradient id="paint0_linear_644_14575" x1="593.643" y1="130.184" x2="593.643" y2="235.724" gradientUnits="userSpaceOnUse">
<stop stop-color="#FAD961"/>
<stop offset="1" stop-color="#F76B1C"/>
</linearGradient>
<linearGradient id="paint1_linear_644_14575" x1="122.864" y1="196.56" x2="53.8549" y2="265.569" gradientUnits="userSpaceOnUse">
<stop stop-color="#FF8960"/>
<stop offset="1" stop-color="#FF62A5"/>
</linearGradient>
<linearGradient id="paint2_linear_644_14575" x1="384.052" y1="428.437" x2="353.604" y2="489.795" gradientUnits="userSpaceOnUse">
<stop stop-color="#FF8960"/>
<stop offset="1" stop-color="#FF62A5"/>
</linearGradient>
<linearGradient id="paint3_linear_644_14575" x1="536.492" y1="261.11" x2="504.046" y2="266.887" gradientUnits="userSpaceOnUse">
<stop stop-color="#FF8960"/>
<stop offset="1" stop-color="#FF62A5"/>
</linearGradient>
<linearGradient id="paint4_linear_644_14575" x1="566.399" y1="266.794" x2="534.507" y2="272.766" gradientUnits="userSpaceOnUse">
<stop stop-color="#FF8960"/>
<stop offset="1" stop-color="#FF62A5"/>
</linearGradient>
<linearGradient id="paint5_linear_644_14575" x1="306.623" y1="223.099" x2="238.192" y2="258.642" gradientUnits="userSpaceOnUse">
<stop stop-color="#FF8960"/>
<stop offset="1" stop-color="#FF62A5"/>
</linearGradient>
<linearGradient id="paint6_linear_644_14575" x1="278.683" y1="212.709" x2="216.352" y2="242.596" gradientUnits="userSpaceOnUse">
<stop stop-color="#FF8960"/>
<stop offset="1" stop-color="#FF62A5"/>
</linearGradient>
</defs>
</svg>
