<svg width="364" height="211" viewBox="0 0 364 211" fill="none" xmlns="http://www.w3.org/2000/svg">
<path opacity="0.2" d="M322.872 187.196C355.06 220.442 365.741 248.475 362.421 271.766C359.099 295.068 341.712 313.997 316.879 328.908C267.207 358.732 188.509 372 137.11 372C85.8272 372 51.8936 356.512 30.7326 328.396C9.52527 300.218 1 259.171 1 207.743C1 156.327 9.52023 104.581 30.8106 65.7269C52.0689 26.9316 86.0387 1 137.11 1C162.793 1 179.042 4.31666 191.038 11.2508C203.025 18.1793 210.903 28.7951 219.688 43.7417C222.428 48.4028 225.249 53.4727 228.304 58.9635C244.857 88.7103 268.284 130.811 322.872 187.196Z" stroke="#008E10" stroke-width="2"/>
</svg>
