<svg width="233" height="239" viewBox="0 0 233 239" fill="none" xmlns="http://www.w3.org/2000/svg">
<path opacity="0.2" d="M26.583 120.195C6.01529 141.463 -0.735382 159.319 1.36717 174.084C3.47107 188.859 14.4911 200.91 30.3458 210.44C62.0612 229.503 112.359 238 145.222 238C177.969 238 199.565 228.104 213.022 210.204C226.525 192.243 231.98 166.038 231.98 133.112C231.98 100.196 226.53 67.1082 212.944 42.2868C199.389 17.5239 177.757 1 145.222 1C128.807 1 118.483 3.12379 110.886 7.51973C103.298 11.9102 98.295 18.6428 92.6783 28.2091C90.927 31.1919 89.1228 34.4378 87.1682 37.9542C76.5726 57.0168 61.557 84.0311 26.583 120.195Z" stroke="#008E10" stroke-width="2"/>
</svg>
