<svg width="41" height="40" viewBox="0 0 41 40" fill="none" xmlns="http://www.w3.org/2000/svg">
<rect x="0.824707" y="0.0498047" width="39.9007" height="39.9007" rx="19.9503" fill="#008E10" fill-opacity="0.15"/>
<g clip-path="url(#clip0_3439_45685)">
<path fill-rule="evenodd" clip-rule="evenodd" d="M9.44015 11.3544L11.5986 9.20192C12.1941 8.60717 13.1609 8.60717 13.7572 9.20192L16.9949 13.5069C17.4892 14.2352 17.5904 15.0647 16.9949 15.6594L15.6734 16.9772C16.6529 18.2897 17.8289 19.7207 19.1527 21.0407C20.6497 22.5332 22.3146 23.8899 23.8116 25.0044L25.0889 23.7317C25.6844 23.1369 26.5162 23.2374 27.2474 23.7317L31.5644 26.9604C32.2881 27.4592 32.1606 28.5182 31.5644 29.1129L29.4059 31.2647C28.2134 32.4542 26.6631 32.0732 25.0889 31.2647C25.0889 31.2647 20.3242 28.5977 16.2449 24.5297C12.4079 20.7032 9.44015 15.6594 9.44015 15.6594C8.8214 13.9622 8.24765 12.5432 9.44015 11.3544Z" fill="white"/>
</g>
<defs>
<clipPath id="clip0_3439_45685">
<rect width="24" height="24" fill="white" transform="matrix(-1 0 0 1 32.7451 8.02979)"/>
</clipPath>
</defs>
</svg>
