<svg width="32" height="32" viewBox="0 0 32 32" fill="none" xmlns="http://www.w3.org/2000/svg">
<path d="M11.9998 10.0001C11.9998 10.7365 12.5968 11.3334 13.3332 11.3334C14.0696 11.3334 14.6665 10.7365 14.6665 10.0001H11.9998ZM21.3332 26.6668C20.5968 26.6668 19.9998 27.2637 19.9998 28.0001C19.9998 28.7365 20.5968 29.3334 21.3332 29.3334V26.6668ZM27.7092 26.5441L28.8972 27.1494L27.7092 26.5441ZM26.5438 27.7094L25.9385 26.5214L26.5438 27.7094ZM26.5438 4.29074L25.9385 5.47874L26.5438 4.29074ZM27.7092 5.45611L26.5212 6.06143L27.7092 5.45611ZM14.7892 4.29074L14.1838 3.10272L14.7892 4.29074ZM13.6238 5.45611L12.4358 4.85079L13.6238 5.45611ZM18.6665 8.00008C17.9301 8.00008 17.3332 8.59704 17.3332 9.33342C17.3332 10.0698 17.9301 10.6668 18.6665 10.6668V8.00008ZM22.6665 10.6668C23.4029 10.6668 23.9998 10.0698 23.9998 9.33342C23.9998 8.59704 23.4029 8.00008 22.6665 8.00008V10.6668ZM18.6665 13.3334C17.9301 13.3334 17.3332 13.9304 17.3332 14.6668C17.3332 15.4032 17.9301 16.0001 18.6665 16.0001V13.3334ZM22.6665 16.0001C23.4029 16.0001 23.9998 15.4032 23.9998 14.6668C23.9998 13.9304 23.4029 13.3334 22.6665 13.3334V16.0001ZM3.10295 20.3469C2.55807 20.8422 2.51791 21.6854 3.01326 22.2304C3.50861 22.7752 4.35187 22.8153 4.89674 22.32L3.10295 20.3469ZM9.89814 15.9713L9.00125 14.9848L9.89814 15.9713ZM12.7682 15.9713L11.8713 16.958L12.7682 15.9713ZM17.7696 22.32C18.3145 22.8153 19.1577 22.7752 19.653 22.2304C20.1484 21.6854 20.1082 20.8422 19.5634 20.3469L17.7696 22.32ZM10.9454 15.193L10.5576 13.9173L10.9454 15.193ZM11.721 15.193L12.1088 13.9173L11.721 15.193ZM7.99985 18.9092C7.99985 18.1728 7.40289 17.5758 6.66651 17.5758C5.93014 17.5758 5.33318 18.1728 5.33318 18.9092H7.99985ZM15.9998 25.8668H17.3332H15.9998ZM17.3332 18.9092C17.3332 18.1728 16.7362 17.5758 15.9998 17.5758C15.2634 17.5758 14.6665 18.1728 14.6665 18.9092H17.3332ZM15.2718 27.8548L14.6665 26.6668L15.2718 27.8548ZM15.8545 27.2721L14.6665 26.6668L15.8545 27.2721ZM6.81183 27.2721L7.99985 26.6668L6.81183 27.2721ZM7.39453 27.8548L7.99985 26.6668L7.39453 27.8548ZM17.5998 5.33342H23.7332V2.66675H17.5998V5.33342ZM26.6665 8.26675V23.7334H29.3332V8.26675H26.6665ZM14.6665 10.0001V8.26675H11.9998V10.0001H14.6665ZM23.7332 26.6668H21.3332V29.3334H23.7332V26.6668ZM26.6665 23.7334C26.6665 24.5022 26.6654 24.9985 26.6346 25.3764C26.605 25.7385 26.5548 25.8728 26.5212 25.9388L28.8972 27.1494C29.1542 26.6449 29.2493 26.1206 29.2924 25.5934C29.3342 25.082 29.3332 24.4582 29.3332 23.7334H26.6665ZM23.7332 29.3334C24.458 29.3334 25.0817 29.3345 25.5932 29.2926C26.1204 29.2496 26.6446 29.1545 27.1492 28.8974L25.9385 26.5214C25.8725 26.555 25.7382 26.6053 25.3761 26.6349C24.9982 26.6657 24.502 26.6668 23.7332 26.6668V29.3334ZM26.5212 25.9388C26.3933 26.1897 26.1894 26.3936 25.9385 26.5214L27.1492 28.8974C27.9018 28.514 28.5137 27.9021 28.8972 27.1494L26.5212 25.9388ZM23.7332 5.33342C24.502 5.33342 24.9982 5.33446 25.3761 5.36532C25.7382 5.39491 25.8725 5.44515 25.9385 5.47874L27.1492 3.10272C26.6446 2.84567 26.1204 2.75058 25.5932 2.70751C25.0817 2.66571 24.458 2.66675 23.7332 2.66675V5.33342ZM29.3332 8.26675C29.3332 7.54202 29.3342 6.91827 29.2924 6.40671C29.2493 5.87959 29.1542 5.3553 28.8972 4.85079L26.5212 6.06143C26.5548 6.12735 26.605 6.26164 26.6346 6.62387C26.6654 7.00164 26.6665 7.49802 26.6665 8.26675H29.3332ZM25.9385 5.47874C26.1894 5.60658 26.3933 5.81055 26.5212 6.06143L28.8972 4.85079C28.5137 4.09814 27.9018 3.48622 27.1492 3.10272L25.9385 5.47874ZM17.5998 2.66675C16.875 2.66675 16.2513 2.66571 15.7398 2.70751C15.2126 2.75058 14.6884 2.84567 14.1838 3.10272L15.3945 5.47874C15.4605 5.44515 15.5948 5.39491 15.9569 5.36532C16.3348 5.33446 16.831 5.33342 17.5998 5.33342V2.66675ZM14.6665 8.26675C14.6665 7.49802 14.6676 7.00164 14.6984 6.62387C14.728 6.26164 14.7782 6.12735 14.8118 6.06143L12.4358 4.85079C12.1788 5.3553 12.0837 5.87959 12.0406 6.40671C11.9988 6.91827 11.9998 7.54202 11.9998 8.26675H14.6665ZM14.1838 3.10272C13.4312 3.48622 12.8193 4.09814 12.4358 4.85079L14.8118 6.06143C14.9397 5.81055 15.1436 5.60658 15.3945 5.47874L14.1838 3.10272ZM18.6665 10.6668H22.6665V8.00008H18.6665V10.6668ZM18.6665 16.0001H22.6665V13.3334H18.6665V16.0001ZM4.89674 22.32L10.795 16.958L9.00125 14.9848L3.10295 20.3469L4.89674 22.32ZM11.8713 16.958L17.7696 22.32L19.5634 20.3469L13.665 14.9848L11.8713 16.958ZM10.795 16.958C11.0639 16.7136 11.2095 16.5825 11.3213 16.4957C11.42 16.4192 11.4077 16.4461 11.3332 16.4688L10.5576 13.9173C10.196 14.0273 9.91343 14.2129 9.68702 14.3885C9.47363 14.554 9.23917 14.7685 9.00125 14.9848L10.795 16.958ZM13.665 14.9848C13.4272 14.7685 13.1927 14.554 12.9793 14.3885C12.7529 14.2129 12.4704 14.0273 12.1088 13.9173L11.3332 16.4688C11.2587 16.4461 11.2464 16.4192 11.3451 16.4957C11.4569 16.5825 11.6025 16.7136 11.8713 16.958L13.665 14.9848ZM11.3332 16.4688L12.1088 13.9173C11.6032 13.7636 11.0632 13.7636 10.5576 13.9173L11.3332 16.4688ZM5.33318 18.9092V25.8668H7.99985V18.9092H5.33318ZM8.79985 29.3334H13.8665V26.6668H8.79985V29.3334ZM17.3332 25.8668V18.9092H14.6665V25.8668H17.3332ZM13.8665 29.3334C14.2178 29.3334 14.5616 29.3345 14.8508 29.3109C15.1556 29.286 15.5153 29.2271 15.8772 29.0428L14.6665 26.6668C14.7432 26.6277 14.7736 26.6416 14.6337 26.653C14.4782 26.6657 14.2618 26.6668 13.8665 26.6668V29.3334ZM14.6665 25.8668C14.6665 26.2621 14.6654 26.4785 14.6528 26.634C14.6413 26.7738 14.6274 26.7434 14.6665 26.6668L17.0425 27.8774C17.2269 27.5156 17.2857 27.1558 17.3106 26.851C17.3342 26.5618 17.3332 26.2181 17.3332 25.8668H14.6665ZM15.8772 29.0428C16.3789 28.7872 16.7869 28.3792 17.0425 27.8774L14.6665 26.6668L15.8772 29.0428ZM5.33318 25.8668C5.33318 26.2181 5.33214 26.5618 5.35578 26.851C5.38067 27.1558 5.43943 27.5156 5.62383 27.8774L7.99985 26.6668C8.03891 26.7434 8.02501 26.7738 8.01358 26.634C8.00089 26.4785 7.99985 26.2621 7.99985 25.8668H5.33318ZM8.79985 26.6668C8.40447 26.6668 8.18814 26.6657 8.03269 26.653C7.89281 26.6416 7.92317 26.6277 7.99985 26.6668L6.78921 29.0428C7.1511 29.2271 7.51075 29.286 7.81554 29.3109C8.10477 29.3345 8.44847 29.3334 8.79985 29.3334V26.6668ZM5.62383 27.8774C5.87949 28.3792 6.28745 28.7872 6.78921 29.0428L7.99985 26.6668L5.62383 27.8774Z" fill="#2360FF"/>
</svg>
