<svg width="18" height="18" viewBox="0 0 18 18" fill="none" xmlns="http://www.w3.org/2000/svg">
<path d="M11.1675 2.5875H6.83251C6.53251 2.5875 6.29251 2.3475 6.29251 2.0475C6.29251 1.7475 6.53251 1.5 6.83251 1.5H11.1675C11.4675 1.5 11.7075 1.74 11.7075 2.04C11.7075 2.34 11.4675 2.5875 11.1675 2.5875Z" fill="#6E61E7"/>
<path d="M10.5 14.9773V12.7723C10.5 11.4148 11.415 10.4998 12.7725 10.4998H14.9775C15.15 10.4998 15.315 10.5148 15.4725 10.5448C15.4875 10.3648 15.5025 10.1848 15.5025 9.9973C15.5025 6.4048 12.585 3.4873 9 3.4873C5.415 3.4873 2.4975 6.4048 2.4975 9.9973C2.4975 13.5823 5.415 16.4998 9 16.4998C9.6375 16.4998 10.245 16.3948 10.83 16.2298C10.62 15.8773 10.5 15.4573 10.5 14.9773ZM9.5625 9.7498C9.5625 10.0573 9.3075 10.3123 9 10.3123C8.6925 10.3123 8.4375 10.0573 8.4375 9.7498V5.9998C8.4375 5.6923 8.6925 5.4373 9 5.4373C9.3075 5.4373 9.5625 5.6923 9.5625 5.9998V9.7498Z" fill="#6E61E7"/>
<path d="M14.9775 11.25H12.78C11.82 11.25 11.25 11.82 11.25 12.7725V14.9775C11.25 15.93 11.82 16.5 12.78 16.5H14.9775C15.93 16.5 16.5 15.93 16.5 14.9775V12.7725C16.5 11.82 15.93 11.25 14.9775 11.25ZM13.44 15.045C13.44 15.285 13.245 15.48 12.9975 15.48C12.7575 15.48 12.5625 15.285 12.5625 15.045V12.705C12.5625 12.465 12.7575 12.27 12.9975 12.27C13.245 12.27 13.44 12.465 13.44 12.705V15.045ZM15.1875 15.045C15.1875 15.285 14.9925 15.48 14.7525 15.48C14.5125 15.48 14.31 15.285 14.31 15.045V12.705C14.31 12.465 14.5125 12.27 14.7525 12.27C14.9925 12.27 15.1875 12.465 15.1875 12.705V15.045Z" fill="#6E61E7"/>
</svg>
