<svg width="41" height="40" viewBox="0 0 41 40" fill="none" xmlns="http://www.w3.org/2000/svg">
<rect x="0.274902" y="0.0498047" width="39.9007" height="39.9007" rx="19.9503" fill="#008E10" fill-opacity="0.15"/>
<g clip-path="url(#clip0_3439_45675)">
<path fill-rule="evenodd" clip-rule="evenodd" d="M32 12.3676C31.1182 12.7692 30.1687 13.0408 29.1727 13.1622C30.1898 12.5381 30.9702 11.5486 31.3379 10.3698C30.3856 10.9476 29.3333 11.368 28.2092 11.5934C27.3133 10.6125 26.0328 10 24.6156 10C21.8982 10 19.6936 12.2607 19.6936 15.0488C19.6936 15.4446 19.7359 15.8288 19.8204 16.1986C15.7281 15.9877 12.1007 13.9798 9.67072 10.9216C9.2467 11.6699 9.00439 12.5381 9.00439 13.4626C9.00439 15.2134 9.87357 16.7591 11.1949 17.6649C10.3892 17.6403 9.62845 17.4106 8.96355 17.035V17.0971C8.96355 19.5442 10.661 21.5854 12.9149 22.0477C12.5022 22.1661 12.0669 22.2253 11.6175 22.2253C11.3006 22.2253 10.9907 22.195 10.6906 22.1358C11.3175 24.1408 13.1347 25.6013 15.29 25.6403C13.6052 26.9953 11.4809 27.8028 9.17485 27.8028C8.7776 27.8028 8.38457 27.7797 8 27.7335C10.1793 29.1636 12.7684 30 15.5478 30C24.6057 30 29.5573 22.3077 29.5573 15.6352C29.5573 15.4157 29.5531 15.1961 29.5446 14.9809C30.5068 14.2687 31.3421 13.3803 32 12.3676Z" fill="white"/>
</g>
<defs>
<clipPath id="clip0_3439_45675">
<rect width="24" height="20" fill="white" transform="translate(8 10)"/>
</clipPath>
</defs>
</svg>
