<svg width="180" height="47" viewBox="0 0 180 47" fill="none" xmlns="http://www.w3.org/2000/svg">
<path fill-rule="evenodd" clip-rule="evenodd" d="M45.9655 23.3723C45.9013 23.4957 45.7761 23.6877 45.6864 23.7995C45.5971 23.9108 45.5181 24.062 45.5118 24.136C45.4916 24.364 45.392 24.6063 45.3188 24.6063C45.2802 24.6063 45.2488 24.6413 45.2488 24.6844C45.2488 24.7275 45.2152 24.8029 45.1734 24.8527C45.1322 24.9025 44.8481 25.3302 44.542 25.8031C44.2364 26.2761 43.9506 26.7038 43.9071 26.7536C43.8635 26.8034 43.8281 26.8788 43.8281 26.9219C43.8281 26.965 43.8025 27 43.772 27C43.741 27 43.6212 27.1682 43.5059 27.3738C43.3901 27.5793 43.2586 27.7476 43.2128 27.7476C43.1671 27.7476 43.1514 27.7691 43.1774 27.7951C43.2366 27.8544 42.7825 28.4956 42.6811 28.4956C42.6398 28.4956 42.6272 28.5167 42.6533 28.5423C42.7067 28.5957 42.5357 28.9543 42.3849 29.1055C42.3302 29.1607 42.1915 29.3662 42.0771 29.5614C41.9626 29.7566 41.8388 29.9168 41.8015 29.9168C41.7643 29.9168 41.7409 29.942 41.7504 29.9729C41.7755 30.06 41.3496 30.6645 41.2626 30.6645C41.2199 30.6645 41.2065 30.6855 41.2321 30.7116C41.285 30.7641 41.1158 31.1208 40.9655 31.2748C40.9117 31.3299 40.6195 31.7621 40.3166 32.2351C40.0142 32.7081 39.6789 33.2277 39.5721 33.3897C38.7253 34.6731 38.2174 35.4275 38.1496 35.5042C38.1052 35.554 38.0688 35.6294 38.0688 35.6725C38.0688 35.7156 38.0352 35.7506 37.9943 35.7506C37.953 35.7506 37.9194 35.786 37.9194 35.8291C37.9194 35.8726 37.7839 36.1078 37.6183 36.3515C37.4531 36.5951 37.2979 36.8455 37.2741 36.9084C37.2355 37.0089 37.5954 37.0219 40.4073 37.0219H43.5849L43.9775 36.4237C44.1934 36.0943 44.4052 35.8251 44.4483 35.8251C44.4909 35.8251 44.5044 35.8035 44.4783 35.7775C44.4204 35.7196 44.656 35.3018 44.7458 35.3018C44.7808 35.3018 44.7898 35.27 44.7655 35.2314C44.7417 35.1928 44.7651 35.134 44.8176 35.1008C44.8696 35.0671 44.9621 34.9446 45.0222 34.828C45.0823 34.7113 45.2048 34.5367 45.2946 34.4398C45.3843 34.3429 45.4387 34.245 45.4158 34.2217C45.3924 34.1988 45.4265 34.18 45.4916 34.18C45.602 34.18 46.1966 33.3583 46.3846 32.9459C46.4313 32.8427 46.4941 32.7588 46.5237 32.7588C46.5538 32.7588 46.7221 32.5146 46.8984 32.2167C47.0743 31.9183 47.2408 31.6575 47.2687 31.6369C47.3557 31.5718 47.8668 30.7398 47.8668 30.6631C47.8668 30.6227 47.8991 30.59 47.9382 30.59C47.9777 30.59 48.1024 30.4298 48.216 30.2345C48.4475 29.8347 49.3145 28.5073 49.4357 28.3664C49.4792 28.3161 49.6313 28.0805 49.774 27.8432C50.1016 27.2979 50.269 27.0915 50.3067 27.1866C50.3332 27.2535 51.1351 28.4781 51.5313 29.0566C52.0505 29.8145 52.6532 30.7506 52.6532 30.7986C52.6532 30.8296 52.7483 30.9718 52.8646 31.115C52.9803 31.2581 53.2074 31.5938 53.369 31.8613C53.5305 32.1287 53.7073 32.3944 53.7621 32.4518C53.8164 32.5093 53.96 32.7314 54.0811 32.9459C54.2023 33.1604 54.3679 33.3964 54.4495 33.4705C54.5312 33.5441 54.5981 33.6325 54.5981 33.6666C54.5981 33.737 55.1191 34.5717 55.1985 34.6287C55.2272 34.6489 55.3556 34.8522 55.4835 35.0797C55.6109 35.3072 55.7761 35.5594 55.8496 35.6406C55.9232 35.7214 56.127 36.0234 56.302 36.3115C56.477 36.5992 56.6655 36.894 56.7202 36.9658C56.8306 37.1094 63.4981 37.1749 63.4981 37.0322C63.4981 36.9968 63.4057 36.8487 63.2926 36.7033C63.1795 36.5579 62.952 36.2298 62.7878 35.9736C62.0509 34.8266 61.8719 34.5475 61.591 34.1064C61.4263 33.8479 61.2221 33.5481 61.1373 33.4404C61.0525 33.3332 60.9039 33.1101 60.8074 32.9459C60.5539 32.5142 59.6631 31.1706 59.5509 31.0513C59.4989 30.9952 59.4015 30.8435 59.3355 30.7138C59.2691 30.5837 59.0887 30.2924 58.9344 30.0663C58.609 29.5897 58.1966 28.9592 57.7887 28.3143C57.6307 28.0648 57.4791 27.8436 57.4512 27.823C57.4239 27.8023 57.2695 27.5663 57.1079 27.2988C56.9468 27.0314 56.7202 26.6957 56.604 26.5526C56.4878 26.4099 56.3931 26.2622 56.3931 26.225C56.3931 26.1882 56.2822 26.0019 56.1472 25.8121C56.0121 25.6218 55.7554 25.2332 55.5768 24.9483C55.3978 24.6629 55.1886 24.3622 55.1119 24.2796C55.0347 24.1971 54.971 24.0939 54.9697 24.0503C54.9683 24.0063 54.8386 23.7936 54.682 23.5769L54.397 23.1829L50.2394 23.1654L46.0817 23.1479L45.9655 23.3723Z" fill="#93C41C"/>
<path fill-rule="evenodd" clip-rule="evenodd" d="M94.4991 6.09092C93.8031 6.22734 93.4014 6.37229 93.1214 6.58948C92.4981 7.07234 92.2576 7.27697 92.2782 7.30703C92.2903 7.32454 92.219 7.40352 92.1194 7.48205C92.0197 7.56058 91.8631 7.81906 91.7716 8.0569C91.68 8.29428 91.5746 8.55635 91.5373 8.63848C91.3596 9.02934 91.3062 9.73567 91.269 12.2096L91.2281 14.8837H89.8159H88.4037V16.1178V17.3519H89.8249H91.2456V27V36.6481H92.7041H94.1625V27V17.3519H96.444H98.725V16.1178V14.8837H96.4776H94.2298L94.2523 12.3968C94.2796 9.36455 94.3488 9.17742 95.5465 8.89381C95.752 8.84535 95.9943 8.77131 96.085 8.73002C96.1972 8.67841 96.3156 8.68021 96.4588 8.73541C96.5741 8.77983 96.8532 8.83952 97.0794 8.86734C97.306 8.89516 97.7884 9.01498 98.1519 9.13345C99.1095 9.44533 99.0243 9.55796 99.0229 7.9842C99.0216 6.38889 99.0647 6.49435 98.3512 6.331C96.9802 6.01733 95.3858 5.9177 94.4991 6.09092ZM115.383 6.06041C113.681 6.48762 113.08 8.73406 114.332 9.98562C115.849 11.5033 118.321 10.4855 118.321 8.3432C118.321 6.73174 116.95 5.66685 115.383 6.06041ZM56.2041 7.93169C56.1292 8.09818 56.0268 8.25794 55.9766 8.28666C55.9259 8.31582 55.763 8.54783 55.6144 8.80272C55.4655 9.05716 55.3008 9.30981 55.2487 9.36366C55.115 9.50097 54.6725 10.2342 54.6725 10.3186C54.6725 10.3572 54.6258 10.4155 54.5684 10.4483C54.511 10.4815 54.3422 10.7166 54.1933 10.9715C54.0443 11.2264 53.8787 11.4786 53.8253 11.5325C53.7714 11.5863 53.587 11.8659 53.4151 12.1535C53.2437 12.4416 53.0516 12.7445 52.9893 12.8267C52.9264 12.9092 52.6235 13.3634 52.3161 13.8363C52.0083 14.3093 51.6722 14.8142 51.5694 14.9582C51.4666 15.1023 51.323 15.324 51.2512 15.4514C51.179 15.5784 50.9353 15.9571 50.7092 16.2933L50.2986 16.904L50.1644 16.7353C50.0903 16.6424 49.9063 16.3561 49.7551 16.0989C49.6039 15.8418 49.4567 15.6313 49.4284 15.6313C49.4002 15.6313 49.2678 15.4379 49.1349 15.2014C49.0017 14.965 48.7459 14.5651 48.5668 14.3134C48.3873 14.0612 48.2406 13.822 48.2406 13.782C48.2406 13.7417 48.1571 13.6187 48.0548 13.5083C47.9529 13.3984 47.8304 13.2337 47.7824 13.1421C47.7348 13.051 47.4988 12.6822 47.2578 12.3223C47.0168 11.9628 46.8194 11.642 46.8194 11.6092C46.8194 11.5769 46.7355 11.4503 46.6332 11.3283C46.4137 11.0676 45.8474 10.1912 45.8474 10.1122C45.8474 10.0826 45.7433 9.97396 45.6163 9.87164C45.3089 9.62393 44.7794 8.8449 44.8453 8.73765C44.879 8.6838 44.8646 8.67348 44.8068 8.70938C44.7484 8.74528 44.7004 8.70848 44.6744 8.60841C44.6515 8.52225 44.5999 8.45135 44.559 8.45135C44.5182 8.45135 44.5043 8.40109 44.5281 8.33916C44.555 8.26915 44.5276 8.22697 44.4549 8.22697C44.3912 8.22697 44.3531 8.18524 44.3706 8.13363C44.4567 7.8774 44.2157 7.8581 40.9856 7.85765C38.767 7.85765 37.8471 7.88099 37.9395 7.93484C38.0127 7.97702 38.0526 8.04343 38.0288 8.08203C38.0046 8.12062 38.0194 8.15248 38.0611 8.15248C38.1033 8.15248 38.2294 8.31223 38.3416 8.50744C38.4538 8.7031 38.6418 9.006 38.7594 9.18057C38.8774 9.35558 38.9568 9.49873 38.9362 9.49873C38.9156 9.49873 38.9815 9.58758 39.082 9.69663C39.183 9.80523 39.2656 9.93626 39.2656 9.98787C39.2656 10.039 39.3181 10.101 39.3827 10.1256C39.4469 10.1503 39.4783 10.2046 39.4527 10.2459C39.4271 10.2872 39.4406 10.3213 39.4823 10.3213C39.5241 10.3213 39.6506 10.481 39.7628 10.6767C39.8754 10.8719 40.1308 11.2767 40.3305 11.5755C40.5302 11.8749 40.6729 12.1526 40.6482 12.1926C40.6235 12.233 40.6554 12.2657 40.7195 12.2657C40.7837 12.2657 40.8362 12.3128 40.8362 12.3703C40.8362 12.4273 40.8887 12.4946 40.9533 12.5193C41.0175 12.5439 41.0489 12.5978 41.0233 12.6391C40.9978 12.6808 41.0117 12.7145 41.0543 12.7145C41.1835 12.7145 41.3747 13.1448 41.2652 13.1888C41.2069 13.2126 41.2172 13.2287 41.2926 13.2323C41.4339 13.2391 42.1331 14.2582 42.0685 14.3632C42.0442 14.4027 42.0766 14.435 42.1407 14.435C42.2049 14.435 42.2574 14.4816 42.2574 14.5391C42.2574 14.5965 42.3099 14.6634 42.3741 14.6881C42.4387 14.7128 42.4724 14.7635 42.4495 14.8003C42.4266 14.8375 42.458 14.8873 42.5195 14.9107C42.5809 14.9344 42.6312 15.0022 42.6312 15.0619C42.6312 15.1216 42.6734 15.1875 42.7246 15.2082C42.795 15.2369 42.7905 15.2656 42.7062 15.3253C42.6079 15.3949 42.6088 15.4052 42.7147 15.4061C42.8174 15.407 43.2294 15.9181 43.2294 16.0442C43.2294 16.0675 43.2976 16.1595 43.3811 16.2488C43.4641 16.3386 43.5157 16.4548 43.4955 16.5078C43.4753 16.5607 43.5081 16.6038 43.5686 16.6038C43.6288 16.6038 43.6781 16.6505 43.6781 16.7079C43.6781 16.7653 43.7311 16.8322 43.7953 16.8569C43.8594 16.8816 43.8935 16.9323 43.8707 16.9695C43.8473 17.0063 43.8792 17.0561 43.9407 17.0799C44.0021 17.1032 44.0524 17.1741 44.0524 17.237C44.0524 17.3002 44.0896 17.3519 44.135 17.3519C44.1807 17.3519 44.1982 17.4021 44.1749 17.464C44.1511 17.5255 44.1597 17.5762 44.1938 17.5762C44.2534 17.5762 44.8 18.3535 44.8 18.4383C44.8 18.4612 44.8673 18.5523 44.9499 18.6402C45.032 18.7286 45.0993 18.8417 45.0993 18.8911C45.0993 18.9404 45.1518 19.0015 45.2165 19.0261C45.2806 19.0508 45.312 19.1051 45.2865 19.1469C45.2604 19.1886 45.2941 19.2433 45.3605 19.2689C45.4274 19.2945 45.4642 19.3618 45.4426 19.4183C45.4211 19.4744 45.4377 19.5207 45.4799 19.5207C45.5225 19.5207 45.5369 19.5534 45.5122 19.5934C45.4606 19.6764 45.671 20.1188 45.7617 20.1188C45.7949 20.1188 45.8685 20.2117 45.9255 20.3248C45.9825 20.4379 46.1763 20.7489 46.3567 21.0163L46.6839 21.5028L50.3111 21.4866L53.9388 21.4709L54.1986 21.0392C54.3413 20.8018 54.4827 20.5905 54.5128 20.5689C54.563 20.5335 54.9593 19.8895 55.0468 19.702C55.067 19.6575 55.1603 19.5229 55.2537 19.4026C55.4794 19.1114 56.1691 18.0658 56.437 17.609C56.555 17.4075 56.6959 17.1912 56.7498 17.1288C56.8036 17.0664 57.0985 16.628 57.405 16.155C57.711 15.6821 58.0628 15.157 58.1871 14.9883C58.311 14.82 58.4124 14.6576 58.4124 14.6279C58.4124 14.5983 58.6309 14.26 58.8984 13.8767C59.1659 13.4931 59.3844 13.1507 59.3848 13.1152C59.3848 13.0802 59.4719 12.9501 59.5787 12.8267C59.6855 12.7033 59.8251 12.5013 59.8892 12.3779C59.9534 12.2545 60.1859 11.8968 60.4057 11.5827C60.6256 11.269 60.8056 10.9792 60.8056 10.9388C60.8056 10.8984 60.8823 10.7848 60.9761 10.6866C61.1395 10.5156 61.7031 9.63201 61.7031 9.54719C61.7031 9.52476 61.7843 9.41885 61.883 9.31205C61.9822 9.2048 62.12 8.99837 62.1891 8.85253C62.2582 8.70713 62.3802 8.52225 62.4606 8.44192C62.6235 8.27903 62.8999 7.81322 62.8999 7.70149C62.8999 7.65571 61.6883 7.62879 59.6204 7.62879H56.341L56.2041 7.93169ZM11.8169 15.0359V22.2185L11.9852 22.131C12.0781 22.0835 12.4775 21.8129 12.8728 21.5302C13.2686 21.2479 13.6303 21.0163 13.677 21.0163C13.7236 21.0163 13.7618 20.9858 13.7618 20.9481C13.7618 20.9104 13.9381 20.7713 14.1544 20.6394C14.3703 20.507 14.8213 20.2014 15.1569 19.9595C15.4926 19.7181 15.8 19.5207 15.8408 19.5207C15.8812 19.5207 15.9346 19.4682 15.9593 19.4035C15.984 19.3394 16.0383 19.308 16.0796 19.3335C16.1209 19.3591 16.155 19.3452 16.155 19.3026C16.155 19.2128 16.562 18.9867 16.6315 19.0374C16.6576 19.0562 16.662 19.0499 16.6423 19.0234C16.588 18.9503 17.6385 18.2328 17.7229 18.2853C17.7709 18.3144 17.7974 16.4956 17.7992 13.0919L17.8023 7.85316H14.8096H11.8169V15.0359ZM29.7301 9.70426C29.7552 10.7225 29.7929 13.0766 29.8136 14.9353C29.8459 17.832 29.867 18.3099 29.959 18.2745C30.0177 18.2516 30.0662 18.2704 30.0662 18.3162C30.0662 18.3615 30.1035 18.3988 30.1492 18.3988C30.2668 18.3988 31.1881 19.0858 31.1881 19.1738C31.1881 19.2137 31.2078 19.2267 31.2316 19.2029C31.2787 19.1554 32.4616 19.9349 32.5518 20.0726C32.5819 20.1188 32.6075 20.1314 32.6079 20.1004C32.6088 20.0699 32.8529 20.2194 33.1514 20.4325C33.6499 20.7893 35.3642 21.9587 35.5822 22.0907C35.6567 22.1355 35.6756 20.6982 35.6756 15.0004V7.85316H32.6797H29.6839L29.7301 9.70426ZM71.4634 14.3304C70.569 14.422 69.935 14.5229 69.6684 14.6163C69.5037 14.6737 69.0258 14.8254 68.6067 14.9533C68.1871 15.0812 67.7998 15.227 67.7464 15.2777C67.693 15.3284 67.3968 15.494 67.0881 15.6457C66.7798 15.7974 66.4598 15.9737 66.3777 16.037C66.2951 16.1007 66.0097 16.313 65.7432 16.5091C65.1324 16.9579 63.8055 18.2736 63.5264 18.7066C63.4106 18.887 63.2427 19.111 63.1534 19.2043C63.0646 19.2981 62.9452 19.4664 62.8891 19.5786C62.8326 19.6907 62.6311 20.0686 62.4408 20.4182C62.2506 20.7677 62.0154 21.2896 61.918 21.5773C61.8202 21.8654 61.7188 22.118 61.6923 22.1382C61.5887 22.2194 61.3293 23.7331 61.2575 24.679C61.1363 26.2703 61.375 28.6339 61.7363 29.4187C61.7964 29.5484 61.9593 29.9622 62.0989 30.3373C62.2384 30.7129 62.3942 31.0661 62.4444 31.1226C62.4951 31.1792 62.6697 31.461 62.8326 31.7491C63.3585 32.6785 64.1178 33.5854 65.0391 34.386C65.9052 35.1385 66.1022 35.2897 66.5271 35.5271C66.774 35.6653 66.993 35.8027 67.0136 35.8327C67.067 35.9095 68.2499 36.4237 68.3738 36.4237C68.4298 36.4237 68.5555 36.4794 68.6529 36.5476C69.2349 36.955 72.4619 37.2436 74.0491 37.03C74.8003 36.929 75.9881 36.6468 75.9881 36.5696C75.9881 36.5395 76.081 36.4915 76.1941 36.4632C76.5433 36.3762 77.6337 35.8861 77.6337 35.8166C77.6337 35.7802 77.6629 35.7506 77.6988 35.7506C77.8015 35.7506 78.8305 35.139 78.8305 35.0775C78.8305 35.0474 78.9732 34.928 79.1478 34.8123C79.3223 34.6969 79.785 34.2805 80.1759 33.8865L80.8871 33.1707L80.9073 34.9092L80.9271 36.6481H82.3842H83.8413V25.7659V14.8837H82.3828H80.9244V16.7299C80.9244 18.8045 80.98 18.6793 80.3877 17.9433C79.339 16.6406 77.4793 15.3482 75.9881 14.8869C75.6799 14.7913 75.2926 14.6688 75.1283 14.6145C74.4732 14.3977 72.3847 14.2357 71.4634 14.3304ZM109.211 14.3964C108.868 14.4493 108.531 14.5463 108.457 14.6131C108.384 14.6795 108.284 14.7338 108.234 14.7338C108.103 14.7338 107.102 15.2495 107.102 15.3172C107.102 15.3491 106.992 15.4366 106.859 15.512C106.638 15.6367 106.499 15.7543 105.905 16.3206C105.594 16.6168 104.973 17.3613 104.919 17.5031C104.754 17.9339 104.708 17.6754 104.708 16.309V14.8837H103.175H101.641L101.66 25.7471L101.679 36.6104H103.175H104.671L104.717 30.7394C104.761 25.1754 104.804 23.9857 105.013 22.6619C105.127 21.934 105.323 21.1662 105.394 21.1662C105.428 21.1662 105.456 21.1281 105.456 21.0819C105.456 20.9338 106.059 19.5803 106.178 19.4614C106.241 19.3986 106.377 19.2128 106.48 19.049C106.723 18.6636 107.347 18.0739 107.775 17.8235C107.96 17.7149 108.128 17.6014 108.149 17.5708C108.388 17.2159 109.851 17.0911 110.719 17.3514C111.291 17.5233 111.309 17.5242 111.392 17.3864C111.438 17.3088 111.561 17.1077 111.664 16.9404C111.767 16.773 111.918 16.5244 112 16.3879C112.083 16.2515 112.297 15.9055 112.478 15.6192C112.852 15.0242 112.876 15.0736 112.038 14.7123C111.062 14.2918 110.378 14.2151 109.211 14.3964ZM132.719 14.3645C131.584 14.4825 129.445 15.0327 129.091 15.2975C129.029 15.3432 128.676 15.5236 128.307 15.6982C127.937 15.8723 127.617 16.0415 127.596 16.0738C127.575 16.1057 127.384 16.23 127.172 16.3493C126.491 16.7326 125.394 17.7118 124.752 18.5074C124.021 19.4157 123.93 19.5377 123.93 19.6122C123.93 19.6548 123.818 19.8451 123.682 20.0354C123.546 20.2252 123.308 20.6838 123.154 21.054C123 21.4243 122.83 21.8111 122.778 21.9138C121.981 23.4593 121.972 28.3346 122.764 29.8311C122.821 29.9397 122.995 30.3234 123.149 30.6833C123.303 31.0432 123.458 31.3376 123.493 31.3376C123.527 31.3376 123.556 31.3739 123.556 31.4179C123.556 31.4619 123.657 31.6445 123.78 31.824C123.903 32.0031 124.004 32.1839 124.004 32.2257C124.004 32.2674 124.067 32.3455 124.144 32.3993C124.22 32.4532 124.369 32.6242 124.475 32.7799C124.727 33.1523 126.115 34.5152 126.47 34.7391C126.623 34.8356 126.795 34.9613 126.854 35.0182C126.995 35.1578 127.842 35.6757 127.928 35.6757C127.965 35.6757 128.066 35.7371 128.151 35.8125C128.3 35.9449 129.447 36.4237 129.614 36.4237C129.66 36.4237 129.842 36.4897 130.019 36.5705C131.359 37.1808 135.036 37.288 137.503 36.789C137.914 36.706 138.267 36.61 138.289 36.5759C138.31 36.5413 138.529 36.4547 138.776 36.3829C139.237 36.2492 140.093 35.9041 140.159 35.8251C140.18 35.8004 140.426 35.6644 140.707 35.5226C140.988 35.3804 141.291 35.1933 141.38 35.1062C141.47 35.0196 141.644 34.8966 141.768 34.8334C142.071 34.6781 143.391 33.4149 143.652 33.0307C143.767 32.8607 143.903 32.6946 143.955 32.6614C144.296 32.4442 144.239 31.8613 143.878 31.8613C143.84 31.8613 143.552 31.6809 143.237 31.4601C142.923 31.2393 142.497 30.9701 142.291 30.8615L141.917 30.664L141.523 31.0944C141.305 31.3309 141.09 31.5584 141.044 31.5997C140.998 31.6405 140.8 31.8344 140.605 32.0296C140.41 32.2248 140.227 32.385 140.198 32.385C140.17 32.385 139.956 32.5326 139.723 32.7139C138.407 33.7353 136.161 34.4394 134.213 34.4407C133.263 34.4412 132.606 34.394 132.606 34.3254C132.606 34.3025 132.361 34.2428 132.063 34.1925C131.006 34.0148 129.617 33.4427 128.926 32.9006C128.775 32.7817 128.615 32.6838 128.573 32.6838C128.442 32.6838 126.877 31.0674 126.751 30.8018C126.686 30.6645 126.529 30.437 126.403 30.296C126.277 30.1547 126.174 30.0138 126.174 29.9824C126.174 29.9514 126.026 29.6122 125.847 29.2294C125.202 27.8544 124.92 25.2579 125.265 23.8587C125.433 23.178 125.67 22.4025 125.723 22.3626C125.75 22.3424 125.899 22.0682 126.053 21.7536C126.207 21.4395 126.449 21.0522 126.59 20.8938C126.731 20.735 126.846 20.5689 126.847 20.525C126.847 20.481 126.989 20.3051 127.164 20.1341C127.34 19.9627 127.572 19.7298 127.681 19.6158C128.059 19.2191 128.534 18.8493 129.196 18.4338C129.819 18.0429 130.088 17.9155 130.736 17.7046C130.88 17.6579 131.014 17.5978 131.035 17.5713C131.298 17.2316 134.412 16.9879 135.786 17.1993C136.519 17.3119 137.422 17.5215 137.471 17.5906C137.493 17.6225 137.695 17.7122 137.92 17.7903C138.432 17.968 138.918 18.1942 138.951 18.27C138.965 18.3019 139.117 18.3983 139.287 18.4849C139.846 18.7663 140.939 19.7195 141.59 20.4931L141.937 20.9042L142.264 20.7229C142.443 20.6232 142.607 20.5169 142.628 20.4864C142.649 20.4563 142.918 20.2889 143.226 20.1148C143.534 19.9411 143.804 19.7747 143.824 19.7455C143.845 19.7163 143.937 19.6526 144.03 19.6041C144.259 19.4834 144.198 19.1289 143.901 18.8475C143.807 18.7596 143.451 18.2552 143.451 18.2112C143.451 18.165 142.606 17.3249 142.094 16.8618C141.804 16.598 141.118 16.155 141.003 16.155C140.959 16.155 140.907 16.1115 140.886 16.0586C140.866 16.0052 140.551 15.8301 140.187 15.669C139.822 15.5084 139.507 15.3549 139.486 15.3284C139.389 15.2032 137.028 14.5431 136.295 14.4363C135.536 14.3255 133.486 14.2846 132.719 14.3645ZM158.745 14.3304C157.843 14.4229 157.216 14.5234 156.95 14.6181C156.786 14.6769 156.308 14.8285 155.889 14.9546C155.47 15.0807 155.083 15.227 155.029 15.2791C154.975 15.3311 154.662 15.5026 154.333 15.6596C154.003 15.8171 153.7 15.9859 153.66 16.0348C153.618 16.0837 153.422 16.2327 153.223 16.366C152.78 16.6617 152.572 16.8452 151.81 17.6135C150.965 18.4652 150.814 18.6321 150.663 18.8848C150.589 19.0082 150.456 19.1935 150.368 19.2963C150.069 19.6468 149.453 20.8283 149.237 21.4651C149.119 21.8147 148.993 22.1225 148.957 22.1485C148.92 22.175 148.912 22.2311 148.938 22.2733C148.965 22.3155 148.958 22.3612 148.925 22.3752C148.365 22.6049 148.38 27.8948 148.945 29.1315C149.001 29.2549 149.103 29.5529 149.173 29.7939C149.309 30.2669 149.639 31.0526 149.727 31.1132C149.756 31.1339 149.859 31.3138 149.954 31.5126C150.537 32.7332 152.705 34.9823 153.83 35.5343C154.006 35.6209 154.195 35.7358 154.249 35.7901C154.362 35.9027 155.32 36.3488 155.449 36.3488C155.496 36.3488 155.668 36.4183 155.831 36.5036C157.216 37.2265 162.035 37.2983 163.158 36.6126C163.24 36.5624 163.442 36.4776 163.607 36.4246C164.095 36.2671 164.916 35.8852 164.916 35.8152C164.916 35.7798 164.949 35.7506 164.989 35.7506C165.109 35.7506 165.827 35.2947 166.131 35.0263C166.286 34.8899 166.442 34.7782 166.479 34.7782C166.516 34.7782 166.92 34.4097 167.377 33.9592L168.206 33.1407V34.8944V36.6481H169.665H171.123V25.7659V14.8837H169.666H168.209L168.189 16.7232L168.169 18.5626L167.773 18.0743C167.159 17.3173 165.891 16.155 165.679 16.155C165.639 16.155 165.588 16.1106 165.567 16.0559C165.546 16.0016 165.281 15.8279 164.979 15.6699C164.677 15.512 164.413 15.3603 164.392 15.3334C164.281 15.1866 162.315 14.553 161.606 14.4354C161.093 14.3506 159.22 14.2815 158.745 14.3304ZM114.506 25.7659V36.6481H116.002H117.498V25.7659V14.8837H116.002H114.506V25.7659ZM23.7756 15.5999C23.7487 15.6632 23.4804 15.8517 22.2503 16.6715C22.0035 16.8362 21.7473 17.018 21.6813 17.0763C21.4637 17.2661 20.4567 17.9061 20.3992 17.8904C20.3687 17.8823 20.3431 17.9056 20.3431 17.9424C20.3431 17.9792 20.1668 18.121 19.9505 18.2574C19.7346 18.3943 19.5412 18.5267 19.5206 18.5518C19.4358 18.6564 18.282 19.404 18.2304 19.3883C18.1995 19.3789 18.1743 19.4026 18.1743 19.4417C18.1743 19.4807 17.989 19.623 17.7628 19.7585C17.5367 19.8936 17.3518 20.03 17.3518 20.0619C17.3518 20.0933 17.3154 20.1188 17.2715 20.1188C17.2275 20.1188 17.1404 20.17 17.0785 20.2319C17.0166 20.2939 16.9349 20.3257 16.8967 20.3024C16.859 20.2791 16.8281 20.2889 16.8281 20.3244C16.8281 20.3975 16.1859 20.8669 16.0859 20.8669C16.0504 20.8669 16.001 20.9194 15.9764 20.984C15.9517 21.0482 15.9014 21.0819 15.8642 21.059C15.8269 21.0361 15.7762 21.0711 15.7506 21.1371C15.7237 21.2071 15.6573 21.238 15.5895 21.212C15.5258 21.1878 15.4931 21.1985 15.5164 21.2362C15.5568 21.3013 15.2799 21.4359 15.1668 21.4063C15.1372 21.3987 15.1345 21.448 15.161 21.5167C15.1969 21.6105 15.178 21.6289 15.0833 21.5925C15.0012 21.5611 14.9581 21.5827 14.9581 21.6545C14.9581 21.715 14.9245 21.7644 14.8837 21.7644C14.7423 21.7644 14.6965 21.7873 14.5973 21.9067C14.5188 22.0018 14.508 22.0031 14.5448 21.9138C14.5704 21.8524 14.535 21.8775 14.4663 21.9699C14.3977 22.0628 14.2944 22.1382 14.2361 22.1382C14.1782 22.1382 14.1118 22.1885 14.088 22.25C14.0642 22.3114 14.0167 22.3442 13.9821 22.3227C13.9471 22.3016 13.8798 22.3568 13.8322 22.4456C13.7757 22.5511 13.7272 22.578 13.6931 22.5224C13.6554 22.4618 13.5998 22.4694 13.4957 22.5497C13.3548 22.6588 13.3548 22.6606 13.4934 22.6121C13.5926 22.5771 13.62 22.5888 13.5827 22.6493C13.5527 22.6974 13.4849 22.7369 13.4315 22.7369C13.3781 22.7369 13.2457 22.8194 13.1367 22.9199C13.0281 23.0209 12.9379 23.0797 12.9365 23.051C12.9352 23.0223 12.8849 23.0635 12.8252 23.1425C12.7651 23.222 12.6946 23.2655 12.6686 23.2395C12.6426 23.213 12.5555 23.2659 12.4752 23.357C12.3949 23.4477 12.3505 23.48 12.3765 23.4284C12.403 23.3772 12.3886 23.335 12.3451 23.335C12.3015 23.335 12.2656 23.379 12.2656 23.4333C12.2656 23.4872 12.1647 23.6061 12.0413 23.6972L11.8169 23.8632V30.5173V37.1713H14.8087H17.8005L17.801 30.0851C17.801 23.4719 17.81 22.985 17.9316 22.7961C18.081 22.5645 18.9453 21.8865 19.4896 21.5741C19.6916 21.4584 19.9074 21.3161 19.9693 21.2582C20.0308 21.2003 20.2067 21.0801 20.3593 20.9912C20.7901 20.7408 22.1727 19.7904 22.201 19.7253C22.2153 19.6934 22.3302 19.6136 22.4572 19.5476C22.5842 19.4821 22.9163 19.2626 23.1954 19.0598C23.7671 18.6434 23.8497 18.6496 24.3931 19.1455C24.5286 19.2698 24.6673 19.3712 24.701 19.3712C24.7611 19.3712 25.2067 19.6647 25.2794 19.7527C25.3 19.7773 25.5608 19.9425 25.8592 20.1197C26.1576 20.2966 26.4013 20.4671 26.4013 20.498C26.4013 20.5622 27.2418 21.1438 27.9248 21.5526C28.177 21.7038 28.4247 21.864 28.4754 21.9094C28.5257 21.9547 28.7173 22.0929 28.9004 22.2163C29.0834 22.3402 29.3199 22.5439 29.4254 22.6695L29.6175 22.898V30.0344V37.1713H32.6456H35.6738L35.6935 30.4666L35.7128 23.7622L35.4512 23.5827C35.3072 23.484 34.9706 23.2547 34.7031 23.073C34.4357 22.8917 34.1207 22.666 34.0026 22.5717C33.8851 22.4775 33.6468 22.3159 33.4736 22.2132C33.3008 22.1104 33.0944 21.9659 33.0149 21.8919C32.8606 21.7478 32.0856 21.2344 32.0856 21.2757C32.0856 21.2896 31.9855 21.2075 31.8635 21.0935C31.7418 20.9795 31.517 20.827 31.3644 20.7547C31.2119 20.6825 30.9875 20.5182 30.8659 20.3899C30.7443 20.2615 30.6684 20.2068 30.6976 20.2687C30.7447 20.3684 30.7393 20.3684 30.65 20.2687C30.5486 20.1556 30.3471 20.0269 29.98 19.8415C29.871 19.7863 29.762 19.6894 29.7373 19.6261C29.713 19.5628 29.6628 19.5301 29.626 19.553C29.5887 19.5759 29.5389 19.5444 29.5156 19.483C29.4918 19.4215 29.4209 19.3712 29.3581 19.3712C29.2953 19.3712 29.2437 19.3376 29.2437 19.2963C29.2437 19.255 29.1979 19.2213 29.1422 19.2213C29.0866 19.2213 28.9434 19.1298 28.8245 19.0181C28.7052 18.9059 28.5656 18.8233 28.5144 18.8341C28.4628 18.8453 28.4206 18.7986 28.4206 18.7304C28.4206 18.655 28.3798 18.6227 28.3147 18.6478C28.2564 18.6703 28.1922 18.6456 28.172 18.5926C28.1518 18.5401 28.0145 18.4396 27.8669 18.3696C27.7188 18.2996 27.5981 18.2081 27.5981 18.1663C27.5981 18.125 27.564 18.1116 27.5227 18.1372C27.4814 18.1627 27.4271 18.1313 27.4024 18.0672C27.3777 18.0025 27.31 17.95 27.2512 17.95C27.1924 17.95 27.1251 17.8993 27.1018 17.8379C27.078 17.7759 27.03 17.7257 26.995 17.7257C26.8644 17.7257 26.2518 17.3119 26.2518 17.2235C26.2518 17.1728 26.2016 17.1513 26.1396 17.175C26.0777 17.1988 26.0275 17.1822 26.0275 17.1387C26.0275 17.0952 25.9067 17.0023 25.7587 16.9323C25.611 16.8618 25.4728 16.7595 25.4517 16.7048C25.4306 16.6496 25.3831 16.6235 25.3458 16.6464C25.309 16.6693 25.2583 16.6356 25.2336 16.571C25.2089 16.5069 25.1569 16.4544 25.1178 16.4544C25.0034 16.4544 24.5291 16.1088 24.5695 16.055C24.5897 16.0276 24.5852 16.0209 24.5596 16.0397C24.4865 16.0936 24.083 15.8625 24.083 15.7669C24.083 15.7197 24.061 15.7031 24.0341 15.7301C24.0072 15.757 23.9448 15.7229 23.895 15.6551C23.8452 15.5869 23.7913 15.5622 23.7756 15.5999ZM73.6542 17.2065C74.448 17.2931 75.3235 17.4735 75.3873 17.5637C75.4093 17.5946 75.6763 17.7113 75.9805 17.8221C76.6352 18.0609 77.8047 18.8273 78.3818 19.3959C78.9306 19.9371 79.4287 20.4729 79.4287 20.5227C79.4287 20.5452 79.5934 20.8081 79.7953 21.1079C79.9968 21.4072 80.2513 21.8878 80.3603 22.1759C80.4698 22.4636 80.6067 22.7862 80.6641 22.8921C80.7673 23.0833 80.9423 23.865 81.0348 24.5476C81.2026 25.7879 80.9621 28.3924 80.6403 28.8223C80.6058 28.869 80.4662 29.1993 80.3307 29.557C80.1947 29.9146 80.0291 30.2678 79.9618 30.3423C79.895 30.4168 79.7186 30.6627 79.5701 30.8888C78.664 32.2679 76.6527 33.6657 74.991 34.0709C73.196 34.5085 73.2539 34.4999 72.4156 34.4524C71.5352 34.4026 71.3476 34.381 71.2377 34.3168C71.1973 34.2935 71.0295 34.2513 70.8652 34.2231C70.3016 34.127 69.387 33.7972 68.8665 33.5024C68.5802 33.3404 68.3275 33.2075 68.3051 33.2075C67.9986 33.2075 66.0528 31.2873 65.7158 30.6524C65.5991 30.4329 65.4641 30.2198 65.4156 30.1785C65.3164 30.0946 64.8443 29.0898 64.8443 28.9624C64.8443 28.9175 64.8013 28.8358 64.7483 28.7815C64.37 28.3929 64.0783 26.0787 64.2403 24.7562C64.3368 23.9696 64.5872 22.8791 64.6859 22.8154C64.7209 22.7925 64.7752 22.692 64.8066 22.5915C64.8986 22.2971 65.2967 21.4346 65.3604 21.3919C65.3927 21.3704 65.5525 21.1344 65.7158 20.8669C66.0219 20.3652 66.3418 19.9743 66.7789 19.5678C66.9171 19.439 67.1419 19.2245 67.2788 19.0908C67.4152 18.957 67.5481 18.8475 67.5745 18.8475C67.6006 18.8475 67.8371 18.6941 68.1 18.5065C68.363 18.3189 68.8571 18.047 69.1981 17.9025C69.5392 17.7575 69.9278 17.5892 70.062 17.5287C70.2868 17.4272 71.1748 17.2491 71.8 17.18C72.3371 17.1207 72.9488 17.1297 73.6542 17.2065ZM161.737 17.3164C162.107 17.381 162.478 17.4766 162.56 17.5291C162.642 17.5812 162.949 17.7118 163.241 17.819C163.766 18.0115 164.891 18.6986 165.327 19.093C165.929 19.6387 166.636 20.3688 166.636 20.4464C166.636 20.5012 167 21.0163 167.092 21.0913C167.137 21.1281 167.516 21.9071 167.825 22.6004C168.698 24.557 168.475 28.0698 167.35 30.0784C166.152 32.2189 163.281 34.2545 161.461 34.2545C161.387 34.2545 161.326 34.2801 161.325 34.3106C161.324 34.464 159.318 34.4865 158.67 34.3402C157.316 34.0346 156.772 33.8466 155.997 33.4158C155.555 33.1703 155.193 32.9369 155.193 32.897C155.193 32.8575 155.159 32.8454 155.118 32.871C155.077 32.8966 155.043 32.8804 155.043 32.8355C155.043 32.7906 154.979 32.7296 154.901 32.7005C154.576 32.5775 153.229 31.1375 152.975 30.6407C152.908 30.5101 152.758 30.2682 152.64 30.1035C152.522 29.9388 152.323 29.5354 152.197 29.2074C152.071 28.8793 151.942 28.593 151.912 28.5719C151.832 28.5159 151.614 27.5587 151.517 26.8366C151.368 25.73 151.548 23.7833 151.865 23.0734C151.92 22.95 152.08 22.5798 152.22 22.2504C152.36 21.9215 152.632 21.4077 152.824 21.1092C153.016 20.8104 153.173 20.5474 153.173 20.5245C153.173 20.5016 153.283 20.3737 153.416 20.2405C153.55 20.1072 153.762 19.8824 153.888 19.7406C154.363 19.2034 155.793 18.1295 156.24 17.9734C156.618 17.8414 157.18 17.6081 157.212 17.5704C157.516 17.2074 160.236 17.0548 161.737 17.3164Z" fill="#049434"/>
<path fill-rule="evenodd" clip-rule="evenodd" d="M11.8169 7.77824C11.8169 7.82715 12.8643 7.85318 14.8087 7.85318C16.7531 7.85318 17.8005 7.82715 17.8005 7.77824C17.8005 7.72977 16.7531 7.70374 14.8087 7.70374C12.8643 7.70374 11.8169 7.72977 11.8169 7.77824ZM29.8046 7.77824C29.7741 7.8276 30.7636 7.85318 32.717 7.85318H35.6756V14.9914C35.6756 21.7478 35.6567 22.4106 35.4745 22.1194C35.4413 22.066 35.313 21.9619 35.1896 21.8874C35.0069 21.7779 35.0209 21.8026 35.2636 22.0202C35.8757 22.5699 35.825 23.2036 35.825 14.9959V7.70374H32.8381C30.9269 7.70374 29.8342 7.73067 29.8046 7.77824ZM37.7322 7.77824C37.7618 7.82625 38.9281 7.85318 40.9856 7.85318C43.0432 7.85318 44.2095 7.8801 44.2391 7.92812C44.2647 7.96896 44.3167 8.00261 44.3553 8.00261C44.3935 8.00261 44.367 7.9353 44.2965 7.85318C44.1516 7.684 37.6281 7.60951 37.7322 7.77824ZM37.9543 8.13365C38.0194 8.26737 38.0885 8.37687 38.1083 8.37687C38.1828 8.37687 38.1347 8.2575 37.988 8.07755L37.8354 7.89042L37.9543 8.13365ZM38.8644 9.5701C38.9358 9.69081 39.0255 9.76979 39.0645 9.74601C39.1036 9.72177 39.0798 9.67106 39.012 9.63337C38.9438 9.59522 38.9057 9.53599 38.9272 9.50189C38.9483 9.46733 38.9138 9.41976 38.85 9.39508C38.7518 9.35739 38.754 9.38342 38.8644 9.5701ZM39.3751 10.3025C39.4406 10.4362 39.5097 10.5457 39.5295 10.5457C39.6035 10.5457 39.5559 10.4268 39.4092 10.2464L39.2566 10.0597L39.3751 10.3025ZM40.2403 11.6487C40.2452 11.7654 40.4498 11.9727 40.492 11.904C40.5163 11.865 40.4839 11.8125 40.4198 11.7883C40.3556 11.7636 40.3242 11.7093 40.3498 11.668C40.3753 11.6267 40.3605 11.5926 40.317 11.5926C40.2735 11.5926 40.2389 11.6182 40.2403 11.6487ZM40.7963 12.4717C40.8613 12.6054 40.9309 12.7145 40.9502 12.7145C41.0247 12.7145 40.9767 12.5956 40.8299 12.4156L40.6778 12.2285L40.7963 12.4717ZM23.5405 15.6376C23.4687 15.6794 23.4104 15.7543 23.4108 15.8037C23.4117 15.8656 23.4292 15.8683 23.4669 15.8122C23.4974 15.7673 23.5894 15.6928 23.6715 15.6462C23.7536 15.5995 23.7873 15.5614 23.7465 15.5614C23.7052 15.5614 23.6127 15.5955 23.5405 15.6376ZM24.6063 16.0658C24.6063 16.1393 24.976 16.4117 25.0142 16.3669C25.0259 16.353 24.9388 16.2636 24.8208 16.1681C24.7028 16.0725 24.6063 16.0263 24.6063 16.0658ZM22.1826 16.5666C22.0717 16.6693 21.9528 16.7532 21.9183 16.7532C21.8833 16.7532 21.8348 16.8062 21.8101 16.8704C21.776 16.9597 21.8137 16.9516 21.9708 16.8349C22.4025 16.5145 22.5465 16.3826 22.4671 16.3812C22.4218 16.3803 22.2939 16.4638 22.1826 16.5666ZM21.3914 17.1239C21.2891 17.2024 21.2218 17.2828 21.242 17.3025C21.2617 17.3223 21.3793 17.2572 21.5027 17.1585C21.7666 16.9466 21.6638 16.9148 21.3914 17.1239ZM20.9099 17.4452C20.432 17.8217 20.3997 17.8697 20.7735 17.6471C20.9893 17.5188 21.1662 17.3828 21.1662 17.3451C21.1662 17.2496 21.1504 17.2558 20.9099 17.4452ZM20.0524 18.029C19.9536 18.1112 19.8904 18.1951 19.9105 18.2157C19.9312 18.2359 19.9904 18.2014 20.0425 18.139C20.0945 18.0762 20.1834 18.025 20.2404 18.025C20.2969 18.025 20.3431 17.9913 20.3431 17.9501C20.3431 17.8383 20.2516 17.863 20.0524 18.029ZM17.5492 18.3616C17.4877 18.423 17.4038 18.4737 17.363 18.4737C17.3226 18.4737 17.2782 18.5002 17.2643 18.533C17.2508 18.5653 17.1112 18.6703 16.9551 18.7659C16.7985 18.8615 16.6845 18.9535 16.702 18.9705C16.719 18.988 16.9133 18.883 17.1341 18.7376C17.3549 18.5927 17.5578 18.4737 17.5851 18.4737C17.6125 18.4737 17.6542 18.423 17.678 18.3616C17.7014 18.2996 17.7076 18.2494 17.691 18.2494C17.6749 18.2494 17.6112 18.2996 17.5492 18.3616ZM29.919 18.3001C29.9163 18.3925 30.1946 18.6111 30.515 18.769C30.6797 18.8498 30.6756 18.8381 30.4777 18.6698C30.3543 18.5648 30.2233 18.4778 30.1865 18.4764C30.1501 18.4746 30.0752 18.4145 30.0209 18.3427C29.9661 18.2709 29.9204 18.2516 29.919 18.3001ZM19.3151 18.5572C19.075 18.7107 19.0184 18.7753 19.1279 18.7699C19.1899 18.7672 19.6552 18.3988 19.5955 18.4006C19.5749 18.401 19.4488 18.4715 19.3151 18.5572ZM30.7865 18.9584C30.8102 19.0203 30.8565 19.0544 30.8888 19.0347C30.9215 19.0145 30.9673 19.0481 30.9911 19.1096C31.0387 19.2339 31.1881 19.2631 31.1881 19.1487C31.1881 19.1087 31.088 19.0239 30.9655 18.9606C30.7694 18.8592 30.7483 18.8592 30.7865 18.9584ZM31.6741 19.5489C31.7975 19.654 31.9321 19.7397 31.9734 19.7401C32.0587 19.7401 31.8231 19.5472 31.5996 19.4336C31.517 19.3919 31.5507 19.4439 31.6741 19.5489ZM17.7754 19.5705C17.6847 19.6616 17.7238 19.741 17.8378 19.6975C17.8993 19.6737 17.95 19.6243 17.95 19.5875C17.95 19.509 17.8467 19.4991 17.7754 19.5705ZM15.5379 19.7132C15.4248 19.7742 15.3324 19.8572 15.3324 19.8972C15.3324 20.0179 15.4352 19.9766 15.6205 19.781C15.8238 19.5669 15.8171 19.5615 15.5379 19.7132ZM32.4221 20.0897C32.6918 20.2975 32.8763 20.3558 32.6465 20.1606C32.5231 20.056 32.3885 19.9712 32.3472 19.9721C32.3064 19.9735 32.34 20.026 32.4221 20.0897ZM14.7526 20.2773C14.6189 20.363 14.5094 20.4648 14.5094 20.5043C14.5094 20.5434 14.6274 20.4855 14.7715 20.3755C14.999 20.2023 15.0811 20.1157 15.0142 20.1202C15.0039 20.1211 14.8863 20.1916 14.7526 20.2773ZM33.0203 20.4904C33.2286 20.7238 33.5943 20.9131 33.5342 20.7561C33.5104 20.6942 33.461 20.6618 33.4242 20.6847C33.387 20.7076 33.3569 20.6915 33.3569 20.6488C33.3569 20.6062 33.2478 20.5156 33.1141 20.4473L32.8709 20.323L33.0203 20.4904ZM13.9112 20.8669C13.8084 20.9473 13.7577 21.0132 13.799 21.0132C13.8403 21.0132 13.9579 20.9473 14.0606 20.8669C14.1639 20.7866 14.2141 20.7206 14.1728 20.7206C14.132 20.7206 14.014 20.7866 13.9112 20.8669ZM33.7684 20.9805C33.8505 21.0473 33.9851 21.1353 34.0677 21.1757L34.2171 21.2493L34.0677 21.1272C33.9851 21.0603 33.8505 20.9724 33.7684 20.932L33.619 20.8588L33.7684 20.9805ZM13.4445 21.1541C13.3319 21.2223 13.2237 21.3202 13.204 21.3718C13.1515 21.5086 13.1901 21.4898 13.471 21.2421C13.7537 20.993 13.747 20.971 13.4445 21.1541ZM34.4788 21.4543C34.4788 21.5324 34.8499 21.7923 34.8957 21.7465C34.9123 21.7299 34.8252 21.6419 34.7022 21.5513C34.5793 21.4602 34.4788 21.4166 34.4788 21.4543ZM48.5264 21.5961C49.5267 21.6078 51.1422 21.6078 52.1164 21.5961C53.0902 21.5845 52.2717 21.5746 50.2972 21.5746C48.3227 21.5746 47.5257 21.5845 48.5264 21.5961ZM12.5089 21.8066C12.3339 21.9116 12.1912 22.031 12.1912 22.0723C12.1912 22.114 12.3424 22.0391 12.5277 21.9058C12.823 21.694 12.9114 21.6132 12.8454 21.6154C12.8351 21.6159 12.6839 21.7021 12.5089 21.8066ZM35.7317 23.9023C35.7007 23.9332 35.6756 26.9309 35.6756 30.564V37.17L32.7026 37.1902L29.7296 37.2109L32.6936 37.2284C35.1164 37.2432 35.6724 37.2279 35.7416 37.1444C35.8385 37.0278 35.8286 23.8053 35.7317 23.9023ZM13.2569 37.2275C14.0692 37.2396 15.3988 37.2396 16.2111 37.2275C17.0233 37.2153 16.3587 37.2055 14.7338 37.2055C13.1088 37.2055 12.4442 37.2153 13.2569 37.2275Z" fill="#17AF69"/>
<path fill-rule="evenodd" clip-rule="evenodd" d="M29.7124 10.5457C29.7124 10.7305 29.7272 10.8064 29.7447 10.7139C29.7627 10.6215 29.7627 10.4698 29.7447 10.3774C29.7272 10.2849 29.7124 10.3603 29.7124 10.5457ZM46.1461 23.1107C46.1461 23.1596 47.5547 23.1856 50.2225 23.1856C52.8899 23.1856 54.2985 23.1596 54.2985 23.1107C54.2985 23.0618 52.8899 23.0357 50.2225 23.0357C47.5547 23.0357 46.1461 23.0618 46.1461 23.1107ZM45.0493 24.8123C44.8438 25.1309 44.6176 25.4868 44.5458 25.6026C44.4745 25.7184 44.3672 25.87 44.3075 25.9391C44.1541 26.1168 43.2283 27.5142 43.1789 27.6421C43.078 27.906 43.3167 27.7099 43.5056 27.3738C43.621 27.1683 43.7408 27 43.7717 27C43.8023 27 43.8278 26.965 43.8278 26.9219C43.8278 26.8788 43.8633 26.8034 43.9068 26.7536C43.9503 26.7038 44.2362 26.2761 44.5418 25.8032C44.8478 25.3302 45.1319 24.9025 45.1732 24.8527C45.2149 24.8029 45.2486 24.7275 45.2486 24.6844C45.2486 24.6413 45.2768 24.6063 45.3114 24.6063C45.346 24.6063 45.4128 24.5224 45.4595 24.4197C45.6336 24.0378 45.411 24.2509 45.0493 24.8123ZM42.8922 28.09C42.6404 28.3907 42.587 28.4957 42.6871 28.4957C42.7244 28.4957 42.8639 28.3444 42.9967 28.1591C43.2848 27.7584 43.2108 27.7095 42.8922 28.09ZM42.1226 29.2397C41.8672 29.6077 41.6586 29.9357 41.6586 29.9689C41.6586 30.0017 41.5576 30.1466 41.4342 30.2907C41.2053 30.5586 41.16 30.6645 41.2749 30.6645C41.353 30.6645 41.7735 30.0524 41.7501 29.9729C41.7407 29.942 41.764 29.9169 41.8013 29.9169C41.8385 29.9169 41.9624 29.7567 42.0768 29.5614C42.1912 29.3662 42.3299 29.1607 42.3847 29.1055C42.5287 28.961 42.7208 28.5706 42.6481 28.5706C42.614 28.5706 42.3775 28.8717 42.1226 29.2397ZM40.9581 31.0369C40.8499 31.2007 40.7611 31.3502 40.7611 31.3699C40.7611 31.3892 40.6834 31.4888 40.5879 31.5916C40.4927 31.6944 40.3401 31.9232 40.2491 32.1005C40.158 32.2773 40.0184 32.5066 39.939 32.6094C39.685 32.9378 38.8166 34.2617 38.8166 34.3204C38.8166 34.3519 38.6986 34.5147 38.555 34.683C38.411 34.8513 38.2925 35.0173 38.2916 35.0519C38.2903 35.1156 37.916 35.7066 37.763 35.8866C37.614 36.062 37.0966 36.942 37.0966 37.0206C37.0966 37.0713 38.2117 37.0969 40.4111 37.0969H43.7255L43.901 36.7787C43.9979 36.6041 44.1738 36.3178 44.2923 36.1433C44.4112 35.9682 44.4772 35.8251 44.439 35.8251C44.4013 35.8251 44.1931 36.0943 43.9773 36.4237L43.5846 37.0219H40.407C37.5951 37.0219 37.2352 37.0089 37.2738 36.9084C37.2976 36.8456 37.4529 36.5951 37.618 36.3515C37.7836 36.1078 37.9191 35.8727 37.9191 35.8291C37.9191 35.7861 37.9528 35.7506 37.9941 35.7506C38.0349 35.7506 38.0686 35.7156 38.0686 35.6725C38.0686 35.6294 38.1049 35.5541 38.1494 35.5042C38.2171 35.4275 38.7251 34.6732 39.5719 33.3897C39.6787 33.2277 40.0139 32.7081 40.3164 32.2351C40.6193 31.7621 40.9114 31.33 40.9653 31.2748C41.1142 31.1226 41.2978 30.7394 41.2219 30.7394C41.1851 30.7394 41.0662 30.8731 40.9581 31.0369ZM45.1409 34.6355C44.9874 34.867 44.9093 35.1731 45.0489 34.9963C45.2535 34.7364 45.473 34.4169 45.473 34.3783C45.473 34.2446 45.3222 34.3613 45.1409 34.6355ZM44.7913 35.1336C44.7864 35.1641 44.7864 35.2148 44.7913 35.2458C44.7958 35.2763 44.7738 35.3019 44.7415 35.3019C44.7092 35.3019 44.623 35.4028 44.5503 35.5262C44.3529 35.8597 44.5243 35.7977 44.7527 35.4531C44.8609 35.2893 44.9497 35.1376 44.9497 35.1165C44.9497 35.055 44.8012 35.0707 44.7913 35.1336Z" fill="#9CCC2C"/>
<path fill-rule="evenodd" clip-rule="evenodd" d="M38.1185 8.28305C38.1418 8.37594 38.1907 8.45133 38.2271 8.45133C38.2634 8.45133 38.285 8.48947 38.2746 8.53569C38.2643 8.58191 38.3011 8.63621 38.3568 8.65641C38.4676 8.69679 38.4025 8.54332 38.1903 8.26465C38.0781 8.11746 38.0772 8.11791 38.1185 8.28305ZM44.6563 8.51146C44.6532 8.56531 44.7348 8.73269 44.8376 8.88437C44.9404 9.0356 45.0243 9.13163 45.0243 9.09753C45.0243 9.06342 44.9619 8.9463 44.8856 8.8368C44.8093 8.72776 44.7277 8.58775 44.7043 8.52627C44.6761 8.45043 44.6603 8.44549 44.6563 8.51146ZM39.5397 10.4523C39.563 10.5447 39.6119 10.6206 39.6483 10.6206C39.6846 10.6206 39.7142 10.6708 39.7142 10.7328C39.7142 10.7943 39.7492 10.845 39.7919 10.845C39.8758 10.845 39.8094 10.6937 39.6115 10.4335C39.4993 10.2863 39.4979 10.2867 39.5397 10.4523ZM41.0416 12.7643C41.0932 12.7849 41.1354 12.8495 41.1354 12.9079C41.1354 12.9662 41.17 13.0138 41.2126 13.0138C41.2651 13.0138 41.2642 12.9658 41.2099 12.8643C41.1659 12.7818 41.0892 12.7171 41.0389 12.7203C40.9707 12.7248 40.9712 12.7355 41.0416 12.7643ZM41.6156 13.612C41.6394 13.6739 41.6793 13.7834 41.7049 13.8552C41.7305 13.927 41.7821 13.9862 41.8198 13.9862C41.8875 13.9862 41.8224 13.8377 41.6555 13.612C41.5819 13.5123 41.5774 13.5123 41.6156 13.612ZM43.0049 15.7206C43.0049 15.7444 43.0552 15.8602 43.1166 15.9782C43.1781 16.0962 43.2275 16.142 43.2266 16.0801C43.2257 16.0186 43.1754 15.9028 43.1148 15.8229C43.0543 15.7431 43.0049 15.6973 43.0049 15.7206ZM22.4261 16.4884C22.235 16.6289 22.0532 16.7204 22.0218 16.6926C21.9904 16.6644 21.989 16.6836 22.0191 16.7357C22.0689 16.8228 22.672 16.4696 22.7847 16.2874C22.8435 16.1918 22.7892 16.2223 22.4261 16.4884ZM26.3684 17.3828C26.525 17.4977 26.5959 17.4851 26.5165 17.3568C26.4896 17.3128 26.4124 17.2769 26.3451 17.2769C26.2432 17.2769 26.2468 17.2944 26.3684 17.3828ZM44.458 17.95C44.4813 18.0115 44.5217 18.121 44.5468 18.1932C44.5724 18.265 44.624 18.3238 44.6617 18.3238C44.7295 18.3238 44.6644 18.1753 44.4979 17.95C44.4239 17.8504 44.4194 17.8504 44.458 17.95ZM30.141 18.4535C30.2025 18.4773 30.3542 18.5706 30.4776 18.6613C30.7464 18.8583 30.8887 18.9413 30.8887 18.9018C30.8887 18.8363 30.2209 18.3992 30.1285 18.4046C30.0567 18.4091 30.0603 18.4226 30.141 18.4535ZM18.3667 19.2604C18.2873 19.3205 18.237 19.3838 18.2545 19.4013C18.272 19.4188 18.3658 19.3685 18.4628 19.29C18.6674 19.1239 18.5817 19.0979 18.3667 19.2604ZM32.6778 20.1462C32.7774 20.2687 33.0579 20.454 33.0579 20.3975C33.0579 20.3831 32.9484 20.2916 32.8147 20.1933C32.6644 20.0834 32.6119 20.0654 32.6778 20.1462ZM14.0026 20.7291C13.5611 21.0087 13.7958 20.9508 14.2786 20.6614C14.2961 20.651 14.2952 20.6277 14.2768 20.6093C14.2584 20.5914 14.135 20.6448 14.0026 20.7291ZM15.7335 21.0536C15.7097 21.1151 15.6549 21.1433 15.6119 21.1168C15.5629 21.0863 15.5562 21.1047 15.5939 21.1658C15.6415 21.2434 15.6724 21.2385 15.7438 21.1411C15.7927 21.0738 15.8551 21.0406 15.8816 21.0675C15.9085 21.0944 15.9305 21.0769 15.9305 21.0289C15.9305 20.9032 15.7842 20.9216 15.7335 21.0536ZM34.5536 21.4175C34.5536 21.4382 34.6546 21.527 34.778 21.615C34.9014 21.7025 35.0023 21.7577 35.0023 21.737C35.0023 21.7168 34.9014 21.628 34.778 21.54C34.6546 21.4521 34.5536 21.3969 34.5536 21.4175ZM48.4837 21.5212C49.4606 21.5333 51.0591 21.5333 52.036 21.5212C53.0129 21.5095 52.2137 21.4996 50.2598 21.4996C48.306 21.4996 47.5068 21.5095 48.4837 21.5212Z" fill="#04A44E"/>
</svg>
