<svg width="49" height="49" viewBox="0 0 49 49" fill="none" xmlns="http://www.w3.org/2000/svg">
<circle cx="24.18" cy="24.18" r="24.18" fill="white" fill-opacity="0.1"/>
<path d="M33.9506 30.9366H13.2851C13.1691 30.9366 13.0742 31.0315 13.0742 31.1474V32.6235C13.0742 32.7395 13.1691 32.8344 13.2851 32.8344H33.9506C34.0665 32.8344 34.1614 32.7395 34.1614 32.6235V31.1474C34.1614 31.0315 34.0665 30.9366 33.9506 30.9366ZM14.4897 27.6364L15.5362 28.6776C15.6179 28.7593 15.7523 28.7593 15.834 28.6776L22.0205 22.5122L24.5931 25.077C24.7516 25.234 24.9657 25.3221 25.1888 25.3221C25.4119 25.3221 25.626 25.234 25.7845 25.077L32.7486 18.1393C32.8303 18.0575 32.8303 17.9231 32.7486 17.8414L31.7021 16.7976C31.6625 16.7583 31.609 16.7363 31.5532 16.7363C31.4974 16.7363 31.4439 16.7583 31.4043 16.7976L25.1915 22.992L22.6162 20.4272C22.4577 20.2702 22.2436 20.1821 22.0205 20.1821C21.7973 20.1821 21.5833 20.2702 21.4248 20.4272L14.4897 27.3386C14.47 27.358 14.4543 27.3812 14.4436 27.4068C14.433 27.4323 14.4275 27.4598 14.4275 27.4875C14.4275 27.5152 14.433 27.5426 14.4436 27.5682C14.4543 27.5938 14.47 27.6169 14.4897 27.6364Z" fill="white"/>
</svg>
