<svg width="49" height="49" viewBox="0 0 49 49" fill="none" xmlns="http://www.w3.org/2000/svg">
<circle cx="24.1812" cy="24.1812" r="24.1812" fill="white" fill-opacity="0.1"/>
<path fill-rule="evenodd" clip-rule="evenodd" d="M33 18H17C15.8954 18 15 18.8954 15 20V28C15 29.1046 15.8954 30 17 30H33C34.1046 30 35 29.1046 35 28V20C35 18.8954 34.1046 18 33 18ZM17 16C14.7909 16 13 17.7909 13 20V28C13 30.2091 14.7909 32 17 32H33C35.2091 32 37 30.2091 37 28V20C37 17.7909 35.2091 16 33 16H17Z" fill="white"/>
<path d="M36 22C36 22.5523 35.5523 23 35 23C32.2386 23 30 20.7614 30 18C30 17.4477 30.4477 17 31 17C31.5523 17 32 17.4477 32 18C32 19.6569 33.3431 21 35 21C35.5523 21 36 21.4477 36 22Z" fill="white"/>
<path d="M15 25C14.4477 25 14 25.4477 14 26C14 26.5523 14.4477 27 15 27C16.6569 27 18 28.3431 18 30C18 30.5523 18.4477 31 19 31C19.5523 31 20 30.5523 20 30C20 27.2386 17.7614 25 15 25Z" fill="white"/>
<path d="M35 25C35.5523 25 36 25.4477 36 26C36 26.5523 35.5523 27 35 27C33.3431 27 32 28.3431 32 30C32 30.5523 31.5523 31 31 31C30.4477 31 30 30.5523 30 30C30 27.2386 32.2386 25 35 25Z" fill="white"/>
<path d="M15 23C14.4477 23 14 22.5523 14 22C14 21.4477 14.4477 21 15 21C16.6569 21 18 19.6569 18 18C18 17.4477 18.4477 17 19 17C19.5523 17 20 17.4477 20 18C20 20.7614 17.7614 23 15 23Z" fill="white"/>
<path fill-rule="evenodd" clip-rule="evenodd" d="M25 26C26.1046 26 27 25.1046 27 24C27 22.8954 26.1046 22 25 22C23.8954 22 23 22.8954 23 24C23 25.1046 23.8954 26 25 26ZM25 28C27.2091 28 29 26.2091 29 24C29 21.7909 27.2091 20 25 20C22.7909 20 21 21.7909 21 24C21 26.2091 22.7909 28 25 28Z" fill="white"/>
</svg>
