<svg width="160" height="160" viewBox="0 0 160 160" fill="none" xmlns="http://www.w3.org/2000/svg">
<rect width="160" height="160" rx="80" fill="#6060D8"/>
<mask id="mask0_3738_46684" style="mask-type:alpha" maskUnits="userSpaceOnUse" x="0" y="0" width="160" height="160">
<circle cx="79.7377" cy="79.7377" r="79.7377" fill="#FADFA6"/>
</mask>
<g mask="url(#mask0_3738_46684)">
<path d="M123.451 145.569C123.085 145.83 122.667 146.092 122.301 146.353C121.883 146.614 121.517 146.876 121.098 147.085C120.732 147.294 120.419 147.503 120.053 147.713C120 147.765 119.948 147.765 119.896 147.817C118.693 148.549 117.438 149.229 116.183 149.856C115.817 150.065 115.399 150.275 115.033 150.431C115.033 150.431 114.981 150.484 114.929 150.484C114.51 150.693 114.092 150.902 113.674 151.111C112.837 151.53 111.948 151.896 111.112 152.262C110.693 152.471 110.223 152.628 109.804 152.784C109.386 152.941 108.915 153.15 108.497 153.307C108.079 153.464 107.608 153.673 107.19 153.83C107.19 153.83 107.19 153.83 107.138 153.83C106.719 153.987 106.249 154.144 105.831 154.301C104.889 154.614 103.896 154.928 102.955 155.242C102.641 155.347 102.275 155.451 101.961 155.556C100.968 155.869 99.9743 156.131 98.9809 156.34C98.6148 156.445 98.2488 156.497 97.8305 156.601C96.8894 156.811 95.8959 157.02 94.9547 157.229C94.7456 157.281 94.5887 157.281 94.3795 157.333C94.0658 157.386 93.6998 157.438 93.3861 157.49C92.9155 157.543 92.4972 157.647 92.0266 157.699C91.8175 157.752 91.6083 157.752 91.3992 157.804C91.1377 157.856 90.824 157.909 90.5103 157.909C89.6737 158.013 88.7848 158.118 87.9482 158.222C87.6867 158.275 87.373 158.275 87.1116 158.327H87.0593C86.6933 158.379 86.3273 158.379 85.9612 158.431C85.5952 158.484 85.2292 158.484 84.8632 158.484C84.6541 158.484 84.3926 158.536 84.1835 158.536C83.7652 158.536 83.3992 158.588 83.0331 158.588C82.5103 158.588 82.0397 158.641 81.5168 158.641C80.9939 158.641 80.5233 158.641 80.0005 158.641C79.6344 158.641 79.2684 158.641 78.9024 158.641C56.8371 158.327 37.0201 148.967 22.8501 134.118C22.8501 134.118 22.8501 134.065 22.7979 134.065C21.2292 132.654 22.5887 125.124 28.9155 120.366C36.8632 114.353 55.8959 110.588 55.8959 110.588C55.8959 110.588 63.2684 109.386 90.6148 115.085C106.615 118.431 118.798 123.294 125.595 136.471C127.007 139.19 128.419 143.373 123.451 145.569Z" fill="white"/>
<path d="M90.7714 114.51C100.811 116.549 111.53 118.745 119.791 125.385C122.562 127.634 124.392 130.928 125.909 134.117C126.641 135.686 127.373 137.307 127.948 139.032C128.262 140.183 128.732 141.49 128.471 142.849C128.418 143.215 128.105 143.686 127.843 143.947C126.641 145.15 125.334 145.882 124.026 146.823C116.34 152.157 107.503 155.921 98.3531 157.908C77.961 162.353 55.8956 158.902 37.961 148.183C32.0002 144.575 26.51 140.183 21.8041 135.006C21.2812 134.379 21.2812 133.333 21.2812 132.653C21.3335 131.085 21.7518 129.568 22.2747 128.157C23.5296 124.915 25.1505 121.673 27.9218 119.425C29.9087 118.065 32.0525 116.915 34.2486 115.974C41.1505 113.046 48.4185 111.006 55.8956 110.17C56.5231 110.117 56.6277 111.006 56.0002 111.111C48.8368 112.575 41.7257 114.771 35.0852 117.751C32.6799 118.954 30.1179 120 28.1832 121.882C26.3531 123.869 25.046 126.327 24.0002 128.836C23.3205 130.353 22.8499 132.758 23.059 133.961C26.3531 137.882 30.2224 141.333 34.4054 144.313C57.3074 160.313 92.0786 161.359 116.445 148.026C118.641 146.823 120.785 145.464 122.824 144.052C123.817 143.372 124.863 142.797 125.647 142.013C125.7 141.961 125.647 142.013 125.647 142.065C125.647 142.117 125.595 142.17 125.595 142.17C125.647 141.542 125.438 140.706 125.177 139.869C124.235 136.836 122.719 133.647 121.098 130.876C118.536 126.745 114.196 124.13 109.804 122.039C106.771 120.627 103.582 119.529 100.34 118.483C97.0982 117.438 93.8041 116.549 90.51 115.764C89.6734 115.555 89.9348 114.353 90.7714 114.51Z" fill="black"/>
<path d="M140.811 177.987H8.57617C8.57617 177.987 16.367 161.568 19.818 142.849C22.2232 129.882 24.001 122.3 30.7461 118.117C35.5043 115.189 48.8899 110.954 58.4062 109.594C62.2755 109.071 69.9618 108.496 76.6023 109.019C81.6219 109.647 91.9749 112.575 95.9487 113.673C101.91 115.346 114.825 120.313 120.524 125.542C122.772 127.634 128.106 138.091 131.557 153.254C135.53 170.509 140.811 177.987 140.811 177.987Z" fill="white"/>
<path d="M142.014 178.614C102.641 178.928 47.4256 179.66 8.62818 179.608C7.47785 179.66 6.64125 178.353 7.16412 177.307C8.1053 175.32 8.99419 173.281 9.83079 171.189C13.5955 161.882 16.785 152.313 18.7197 142.483C20.2883 134.797 21.5432 126.222 27.3471 120.418C28.968 118.797 30.955 117.542 32.9942 116.601C37.1249 114.719 41.3602 113.15 45.6478 111.791C54.2752 108.967 63.4256 107.764 72.5236 107.921C77.0726 107.921 81.6739 108.653 86.1184 109.699C88.053 110.065 90.772 110.902 92.6543 111.425L94.2752 111.895C94.589 112.052 94.6935 112.679 94.8504 112.993C94.955 113.202 95.0595 113.255 95.2164 113.307C95.4779 113.359 95.8961 112.993 96.1576 113.098C101.439 114.666 106.511 116.967 111.373 119.529C114.824 121.464 118.38 123.346 121.203 126.17C123.661 129.307 125.648 132.81 127.478 136.366C131.922 145.516 133.177 155.869 136.576 165.333C137.831 168.941 139.295 172.549 141.073 175.947L141.439 176.627L141.648 176.993L141.752 177.15L141.805 177.255C142.118 177.464 142.223 178.248 142.014 178.614ZM139.609 177.359C139.347 177.673 139.399 178.353 139.609 178.614L139.556 178.509L139.452 178.3L139.243 177.934C137.099 174.17 135.582 170.143 134.223 166.065C130.667 155.398 129.517 144 124.497 133.856C123.243 131.294 121.988 128.679 120.105 126.536C119.007 125.542 117.805 124.706 116.55 123.921C110.903 120.47 104.576 118.117 98.3537 115.869C97.8308 115.66 96.5236 115.242 96.0007 115.085C95.5824 114.98 95.4256 114.928 95.321 114.405C95.2164 113.987 95.1118 113.464 94.6412 113.673C94.3798 113.777 93.9092 114.405 93.5955 114.353C92.5497 114.091 89.7785 113.359 88.7327 113.098C84.7066 112.052 80.7327 110.745 76.6543 109.96C64.1053 108.862 51.5563 111.058 39.5824 114.771C35.4517 116.183 30.9027 117.49 27.9223 120.889C22.7458 127.32 21.8569 138.143 20.236 146.143C17.9877 157.281 14.589 168.104 10.0399 178.614L8.57589 176.313C46.4321 176.47 101.229 176.941 139.609 177.359Z" fill="black"/>
<path d="M56.7851 114.876C55.1642 115.032 53.4387 115.398 51.9747 116.235C51.8178 116.34 51.6087 116.078 51.7655 115.974C53.125 114.771 54.8505 114.091 56.5237 113.568C56.8897 113.464 57.2557 113.673 57.308 114.039C57.4649 114.457 57.2034 114.876 56.7851 114.876Z" fill="black"/>
<path d="M60.9679 121.569C59.0855 121.987 57.2554 122.876 55.7391 124.131C54.5365 124.34 57.5692 121.883 57.7783 121.778C58.6672 121.151 59.5561 120.68 60.6018 120.262C60.9156 120.157 61.3339 120.314 61.4384 120.628C61.6476 121.098 61.3862 121.517 60.9679 121.569Z" fill="black"/>
<path d="M67.7132 128.261C66.1969 129.464 64.8897 131.085 64.0531 132.863C64.0008 132.967 63.8439 133.019 63.7393 132.967C63.6348 132.915 63.5825 132.81 63.6348 132.706C63.9485 131.712 64.3668 130.719 64.942 129.83C65.5171 128.889 66.1446 128.052 66.8766 127.268C67.138 127.006 67.5563 127.006 67.8178 127.268C68.0792 127.529 68.0792 128.052 67.7132 128.261Z" fill="black"/>
<path d="M79.0071 133.438C78.1182 135.32 77.4385 137.36 77.3339 139.451C77.3339 139.817 76.7065 139.817 76.7065 139.451C76.6019 137.778 76.8633 136.105 77.3339 134.536C77.5954 133.909 77.6477 132.235 78.6934 132.549C79.0071 132.654 79.164 133.072 79.0071 133.438Z" fill="black"/>
<path d="M90.9811 133.647C91.2948 134.379 93.7 140.235 92.5497 140.288C92.3928 140.288 92.236 140.183 92.236 140.026C92.1837 139.503 92.0268 139.033 91.8177 138.51C91.2948 137.046 90.5628 135.582 89.7785 134.222C89.4124 133.438 90.6151 132.81 90.9811 133.647Z" fill="black"/>
<path d="M95.9481 122.092C97.8827 122.458 99.5036 123.608 100.706 125.072C100.759 125.124 100.759 125.281 100.706 125.334C100.654 125.386 100.549 125.386 100.445 125.334C99.1899 124.236 97.5167 123.451 95.8435 123.399C94.85 123.347 95.0069 121.935 95.9481 122.092Z" fill="black"/>
<path d="M94.0652 115.974C95.6861 116.392 97.2025 117.072 98.4051 118.222C98.5096 118.327 98.5096 118.484 98.4051 118.588C98.3005 118.693 98.1959 118.693 98.0913 118.64C96.8364 117.804 95.3201 117.386 93.856 117.281C92.9149 117.176 93.124 115.765 94.0652 115.974Z" fill="black"/>
<path d="M95.9473 129.464C97.4113 130.667 98.8754 131.921 99.8165 133.595C99.8688 133.647 99.8165 133.752 99.7643 133.804C99.712 133.856 99.6074 133.804 99.5551 133.752C98.4048 132.34 96.8362 131.399 95.2675 130.51C94.4309 130.091 95.163 128.889 95.9473 129.464Z" fill="black"/>
<path d="M95.686 128.419C94.588 133.805 87.4769 137.046 75.503 132.184C63.0586 127.164 57.673 115.19 56.3135 111.635C63.686 97.8308 58.5618 88.2622 58.5618 88.2622C75.5553 86.7981 90.405 106.667 90.405 106.667L92.7056 116.497C92.9148 117.334 93.3331 118.066 93.9605 118.589C95.0586 120.524 96.3658 124.968 95.686 128.419Z" fill="white"/>
<path d="M56.0523 111.792C57.0458 110.275 57.6732 108.497 58.0915 106.772C58.8758 103.164 59.1373 99.504 59.1896 95.8439V94.4844C59.0327 93.1249 58.5621 91.7132 58.0392 90.4583C57.3595 88.7851 59.817 87.7393 60.6013 89.4125C60.7059 89.6217 60.7059 89.9877 60.7059 90.1968C60.8628 97.3079 61.1765 106.458 56.6798 112.367C56.366 112.68 55.7386 112.21 56.0523 111.792Z" fill="black"/>
<path d="M90.9807 106.563C91.765 107.034 92.0265 107.661 92.131 108.288C92.4448 109.543 92.3402 110.903 92.6539 112.21C92.9153 113.465 93.6997 114.667 93.9088 115.975C94.1702 117.334 94.9546 120.21 95.2683 121.622C95.3729 121.935 95.1637 122.301 94.7977 122.354C94.5885 122.406 94.4317 122.354 94.2748 122.249C93.5951 121.674 93.2814 121.099 92.8631 120.367C92.1833 119.112 91.7127 117.962 91.2944 116.55C90.9284 115.295 91.0853 113.935 90.7716 112.628C90.5101 111.373 89.7781 110.171 89.5166 108.864C89.3598 108.236 89.3075 107.556 89.7781 106.772C90.0918 106.458 90.6147 106.354 90.9807 106.563Z" fill="black"/>
<path d="M94.7448 120.367C84.7579 119.844 76.601 116.707 68.6533 102.537C75.3461 108.445 83.2416 110.693 91.5553 111.739L92.6533 116.55C92.8625 117.386 94.1174 119.844 94.7448 120.367Z" fill="black"/>
<path d="M94.3268 118.432C96.1046 121.778 97.1504 125.961 96.0523 129.674C95.2157 132.288 92.8105 134.223 90.1961 134.955C84.1307 136.576 77.1242 134.014 71.7386 131.138C65.0981 127.425 60.183 121.203 57.0458 114.406C56.8366 113.883 57.5687 113.464 57.8824 113.987C58.9804 116.183 60.2353 118.327 61.6471 120.262C63.0589 122.249 64.6798 124.079 66.5098 125.7C71.8432 130.51 79.0589 133.491 86.2745 133.491C93.6994 133.281 96.5229 129.36 94.7974 122.144C94.536 120.994 94.1177 119.791 93.5425 118.798C93.2288 118.38 94.0131 117.909 94.3268 118.432Z" fill="black"/>
<path d="M114.562 55.6345C115.503 60.0267 115.974 63.5822 113.412 75.2947C110.902 86.9548 115.765 98.7195 103.425 109.438C95.1112 116.654 80.5753 118.014 68.9674 110.118C65.0459 107.452 64.0001 95.0071 60.9151 90.2489C59.6079 88.262 58.8236 91.4515 55.8432 88.1574C51.7125 83.6607 46.7452 74.6149 49.2027 58.6149C53.1766 32.6803 73.7256 29.6476 88.9413 32.5234C104.209 35.3992 112.052 44.079 114.562 55.6345Z" fill="white"/>
<path d="M58.406 92.759C57.2034 90.7721 55.687 89.0466 54.2753 87.2165C52.1838 84.393 50.6152 81.1512 49.5694 77.8047C45.0727 63.478 47.4779 44.8113 60.7589 35.8701C73.0465 27.5564 96.5237 30.0662 107.295 40.1054C112.681 44.9681 115.661 52.027 116.288 59.1381C116.602 63.8962 115.452 68.4976 114.458 73.0989C113.308 77.5956 113.047 82.0923 113.047 86.7459C112.994 91.3995 112.785 96.2623 111.007 100.654C108.288 107.347 102.589 112.785 95.7393 115.086C86.7459 118.223 76.1315 116.445 68.7589 110.432C68.4452 110.171 68.7589 109.752 69.125 109.909C78.7982 115.4 91.504 116.341 100.916 110.014C106.511 106.249 110.38 100.288 111.269 93.5956C112.001 89.0466 111.792 84.4453 112.21 79.844C112.367 77.8047 112.942 74.9812 113.36 72.942C113.988 69.5433 114.406 66.1446 114.354 62.7459C114.301 59.3995 113.569 56.1054 112.576 52.9159C109.125 41.5694 99.2426 34.8766 87.8439 33.0466C70.7982 30.0662 55.8962 36.393 51.4518 54.1185C49.5171 62.7982 48.0008 72.3668 51.6609 80.7851C52.9681 83.9747 55.1119 86.6936 57.5694 89.0466L59.9746 91.6087C61.0204 92.6544 59.2426 94.0139 58.406 92.759Z" fill="black"/>
<path d="M64.5754 76.1312C64.5754 76.1312 62.9545 68.2881 55.3205 69.2293C48.7322 70.0659 46.4316 85.8567 61.3858 90.2489" fill="white"/>
<path d="M60.706 83.3994C59.5034 82.7197 58.6668 81.5694 58.6145 80.1576C58.6668 79.1118 58.8237 77.9092 58.5622 76.8635C58.4054 75.87 57.3596 75.6086 56.5753 75.6609C55.7387 75.8177 55.2158 76.8635 55.059 77.7001C55.059 77.7524 55.0067 77.9092 55.0067 77.9615C54.9544 78.223 54.5361 78.223 54.4315 77.9615C53.7518 75.9223 55.2681 73.6739 57.4642 73.9354C60.5491 74.1445 60.9674 77.3864 60.3923 79.8439C60.0786 80.8896 60.4969 81.8308 61.072 82.7197L61.1766 82.8766C61.438 83.1903 61.0197 83.6086 60.706 83.3994Z" fill="black"/>
<path d="M102.537 70.5891C103.321 74.3016 104.785 77.7525 106.615 80.9944C108.236 84.9682 104.053 88.7329 100.341 88.5761C99.9222 88.5761 99.87 88.0009 100.236 87.8963C102.589 87.1643 104.733 85.5957 105.099 83.1905C105.256 82.4584 105.046 81.831 104.68 81.2035C102.955 77.9617 101.909 74.2493 102.171 70.5891C102.171 70.3277 102.537 70.3277 102.537 70.5891Z" fill="black"/>
<path d="M64.3143 76.1837C63.1117 73.0988 60.4973 70.1707 56.9941 70.2229C56.6803 70.1707 56.1575 70.2752 55.8437 70.2752C54.9548 70.3275 54.2228 70.6412 53.5431 71.2687C50.1967 74.6151 50.7718 80.5236 53.4908 84.236C54.432 85.5432 55.6346 86.6935 56.9941 87.6347C58.3535 88.5759 59.8699 89.3079 61.4908 89.9354C61.8568 90.0399 61.6999 90.6151 61.3339 90.5628C57.8307 89.8308 54.4843 88.1053 52.1836 85.2295C48.628 80.9419 47.896 73.7785 52.1313 69.5955C53.0725 68.7589 54.3797 68.1314 55.6869 68.1314C56.1052 68.1314 56.7326 68.0269 57.1509 68.1314C59.347 68.236 61.4385 69.334 62.798 71.0595C64.0006 72.5236 64.6803 74.3014 64.8895 76.0791C64.8895 76.3929 64.4189 76.4974 64.3143 76.1837Z" fill="black"/>
<path d="M99.0313 93.5427C98.1424 94.1702 96.8352 93.6473 95.894 94.0656C95.2143 94.2748 94.1163 95.2159 92.5476 95.1114C91.2927 95.0068 90.6653 94.3793 89.6195 93.9088C88.5215 93.5427 87.3712 92.863 86.6391 91.9741C86.4823 91.8172 86.4823 91.6081 86.6391 91.4512C86.8483 91.2421 87.0574 91.399 87.2666 91.5035C87.7372 91.765 88.1032 91.9741 88.4692 92.0787C88.8352 92.1833 89.2012 92.0787 89.7764 92.0787C90.3515 92.0264 91.1881 92.2878 91.711 92.7061C92.077 92.9676 92.4953 93.1244 92.8091 93.1767C93.6457 93.3336 94.6914 92.6539 95.5803 92.5493C96.2078 92.4447 96.8875 92.497 97.4104 92.6539C97.9333 92.8107 98.2993 92.9153 98.7176 92.8107C99.1882 92.7061 99.4496 93.3336 99.0313 93.5427Z" fill="black"/>
<path d="M91.0849 63.7906C92.2352 63.6861 92.8104 62.3266 92.183 61.2808C91.8169 60.758 91.3464 60.2874 90.6666 60.0259C88.6797 59.3985 82.196 60.8103 79.3725 64.0521C76.8627 67.0325 85.8562 64.2612 91.0849 63.7906Z" fill="black"/>
<path d="M104.889 64.627C104 64.3655 103.739 63.0583 104.471 62.2217C104.837 61.8034 105.36 61.4374 105.935 61.3328C107.713 61.0191 111.791 62.64 112.941 65.725C113.987 68.3917 109.125 65.6727 104.889 64.627Z" fill="black"/>
<path d="M83.033 75.9213C81.7781 75.869 80.837 74.8233 80.9415 73.5684L80.9938 72.1043C81.0461 70.8494 82.0919 69.9082 83.3468 70.0128C84.6017 70.0651 85.5428 71.1109 85.4383 72.3658L85.386 73.8298C85.3337 75.0324 84.2879 75.9736 83.033 75.9213Z" fill="black"/>
<path d="M105.046 76.7058C103.895 76.6535 103.007 75.6601 103.059 74.5097L103.111 73.1502C103.163 71.9999 104.157 71.111 105.307 71.1633C106.458 71.2156 107.346 72.2091 107.294 73.3594L107.242 74.7189C107.19 75.8692 106.196 76.7581 105.046 76.7058Z" fill="black"/>
<path d="M87.7383 73.0977C86.0128 71.9474 84.1304 71.1631 82.0389 71.5814C81.3592 71.686 80.6795 71.8951 80.2612 72.3657C80.1043 72.5749 79.7383 72.5226 79.7383 72.2089C79.7906 71.1631 80.6795 70.4834 81.5161 70.0651C83.137 69.2285 85.3853 69.3853 86.8494 70.4834C87.3723 70.7971 89.15 72.7317 88.2089 73.15C87.9997 73.2546 87.8951 73.2023 87.7383 73.0977Z" fill="black"/>
<path d="M102.692 73.3594C102.692 71.1633 105.411 70.379 107.085 71.1633C108.026 71.5816 108.705 72.4182 108.967 73.4117C109.071 73.7254 108.601 73.9868 108.392 73.7254C107.503 72.6796 105.987 72.1568 104.784 72.7842C104.418 72.9934 104.366 73.1502 104.261 73.3594C104.261 74.4051 102.745 74.3529 102.692 73.3594Z" fill="black"/>
<path d="M121.307 59.1371C119.843 63.6861 116.34 67.5031 114.092 70.0652C114.615 67.6077 114.144 66.1437 114.249 64.4182C114.405 62.0652 115.242 59.4508 115.085 58.4051C114.981 57.4639 114.771 56.575 114.562 55.6339C114.301 54.4835 113.987 53.3855 113.621 52.2874C105.412 60.2874 91.3466 52.392 91.3466 52.392C91.3466 52.392 88.3662 54.8495 83.1374 54.2744C77.5427 53.6992 76.0263 50.2482 76.0263 50.2482C74.51 60.8103 64.5231 56.7842 66.3531 67.294C66.876 70.1698 66.876 72.941 64.4185 75.8169C64.0002 74.3528 61.961 68.392 55.2682 69.2286C48.9414 70.0129 46.5361 84.6535 59.608 89.6731C59.4512 94.5358 59.974 101.124 59.4512 99.3986C55.791 88.1044 48.4708 89.8822 45.0198 81.3593C43.3989 77.2809 43.6603 73.6731 44.4969 71.0064C45.3335 68.4443 45.2812 65.6731 44.4446 63.111C43.5035 60.1306 42.7714 55.6338 44.4969 50.1959C47.425 40.8887 53.6995 38.745 55.3205 37.6469C56.9414 36.5489 56.1571 26.5097 67.5035 23.3724C76.5492 20.8626 83.3466 26.1436 85.3335 25.7776C87.3204 25.4116 101.229 16.2613 111.948 24.8887C122.301 33.2548 118.432 43.1371 118.432 43.1371C118.432 43.1371 124.863 48.1044 121.307 59.1371Z" fill="black"/>
<path d="M91.5033 82.4056C89.0981 82.4578 81.6732 82.5101 79.3726 82.5624C75.3987 82.6147 72.4183 79.1637 72.7843 75.2421C72.8366 73.935 72.7843 72.1049 72.8366 70.7977C72.9412 67.399 75.9739 64.5232 79.3726 64.6278L88.2092 64.7323C88.8889 64.7323 90.8235 64.7846 91.5033 64.7846C94.3268 64.7323 96.9935 66.8238 97.6209 69.5951C97.8301 70.3794 97.7778 71.216 97.7778 71.8957V76.3402C97.7255 79.6343 94.7974 82.4578 91.5033 82.4056ZM91.5033 81.2552C94.2222 81.3598 96.732 79.0069 96.7843 76.2879C96.8366 74.8761 96.7843 73.3598 96.7843 71.8957C97.0981 68.7062 94.6928 65.7781 91.451 65.8827C89.2026 65.935 81.6732 65.9872 79.3203 66.0395C76.4967 66.0395 74.0915 68.6016 74.3007 71.4252C74.3007 71.7912 74.3007 72.7323 74.3007 73.0984C74.353 74.2487 74.1961 76.2356 74.4575 77.2814C74.9804 79.4774 77.0719 81.1506 79.3203 81.1506H80.4183C81.9347 81.1506 89.9347 81.2552 91.5033 81.2552Z" fill="black"/>
<path d="M112.575 66.1439L108.444 66.1961C107.294 66.2484 105.934 66.0393 104.941 66.719C104 67.3465 103.581 68.4968 103.634 69.5948C103.634 70.9543 103.634 72.3661 103.581 73.7256L103.529 73.5164C104.261 76.0785 105.254 78.536 106.771 80.6798L106.248 80.3661C106.666 80.4707 107.398 80.4707 107.817 80.4707C109.385 80.5229 111.215 80.6275 112.784 80.6275C114.248 80.6275 115.66 79.5295 115.973 78.0654C116.078 77.6471 116.078 76.9151 116.078 76.4968C116.078 74.2484 116.13 72.0524 116.026 69.804C116.13 67.8171 114.614 66.0393 112.575 66.1439ZM112.575 64.5752C115.346 64.5752 117.281 67.2419 116.81 69.8563C116.705 72.1046 116.758 74.3007 116.758 76.5491C117.019 79.1635 115.451 81.5164 112.732 81.7256C111.581 81.7778 110.483 81.7778 109.385 81.8301C108.81 81.8301 107.398 81.9347 106.875 81.9347C106.614 81.987 106.196 81.9347 105.934 81.9347C105.725 81.9347 105.516 81.7779 105.411 81.621C103.79 79.2158 102.64 76.5491 101.96 73.7778C101.96 72.0001 101.803 70.2223 101.96 68.4445C102.274 66.353 104.156 64.5752 106.3 64.5229C107.764 64.4707 111.111 64.5752 112.575 64.5752Z" fill="black"/>
<path d="M97.2021 69.3858C98.6139 68.7584 100.183 68.4969 101.751 68.6015C102.274 68.6538 102.797 68.8107 103.268 69.229L103.947 69.8041C104.627 70.3793 103.79 71.3728 103.111 70.7976C102.274 70.0656 101.281 70.1701 100.287 70.2224C99.2937 70.327 98.3525 70.5362 97.4113 70.9022C96.5224 71.2682 95.9473 69.961 96.7839 69.5427L97.2021 69.3858Z" fill="black"/>
<path d="M73.6731 71.2683C73.3071 72.1049 72.8888 72.2095 72.2091 72.1572L70.6927 72.2095C67.66 72.2095 64.5751 72.1572 61.5424 71.6866C60.4966 71.6343 60.4444 70.1703 61.4901 70.118L73.6208 69.6997C73.9868 69.6997 74.2483 70.0657 74.0914 70.3794L73.6731 71.2683Z" fill="black"/>
<path d="M150.693 44.0785C182.432 105.203 126.641 174.17 60.1314 157.333C30.2752 149.909 6.27518 124.026 1.30786 93.6471C-4.3392 63.4249 9.30785 30.9543 34.8242 13.8563C69.8046 -10.196 118.275 -2.19602 143.321 32.2092C143.478 32.3661 143.425 32.6275 143.216 32.7844C143.059 32.9412 142.798 32.8889 142.641 32.6798C139.19 28.2354 135.269 24.2092 130.981 20.6014C123.922 14.5883 115.661 9.88241 106.929 6.69287C62.4843 -9.4117 13.7 17.3595 3.97452 63.8432C-7.00587 115.922 37.2817 163.869 90.0922 156.706C130.824 151.582 161.099 113.987 157.752 73.0981C157.02 63.2157 154.406 53.438 150.066 44.4445C149.961 44.2876 150.066 44.0785 150.223 43.9739C150.38 43.8693 150.589 43.9216 150.693 44.0785Z" fill="black"/>
</g>
</svg>
