<svg width="18" height="18" viewBox="0 0 18 18" fill="none" xmlns="http://www.w3.org/2000/svg">
<path d="M16.5 11.25C16.5 14.1525 14.1525 16.5 11.25 16.5L12.0375 15.1875" stroke="#0099C2" stroke-width="1.5" stroke-linecap="round" stroke-linejoin="round"/>
<path d="M1.5 6.75C1.5 3.8475 3.8475 1.5 6.75 1.5L5.9625 2.8125" stroke="#0099C2" stroke-width="1.5" stroke-linecap="round" stroke-linejoin="round"/>
<path d="M16.5 3.15V3.2325C16.5 3.4425 16.335 3.6075 16.125 3.6075H9.375C9.165 3.6075 9 3.4425 9 3.2325V3.15C9 1.83 9.33 1.5 10.665 1.5H14.835C16.17 1.5 16.5 1.83 16.5 3.15Z" fill="#0099C2"/>
<path d="M9.375 4.35742C9.165 4.35742 9 4.52242 9 4.73242V5.48242V6.22492C9 7.54492 9.33 7.87492 10.665 7.87492H14.835C16.17 7.87492 16.5 7.54492 16.5 6.22492V5.48242V4.73242C16.5 4.52242 16.335 4.35742 16.125 4.35742H9.375Z" fill="#0099C2"/>
<path d="M9 11.775V11.8575C9 12.0675 8.835 12.2325 8.625 12.2325H1.875C1.665 12.2325 1.5 12.0675 1.5 11.8575V11.775C1.5 10.455 1.83 10.125 3.165 10.125H7.335C8.67 10.125 9 10.455 9 11.775Z" fill="#0099C2"/>
<path d="M1.875 12.9824C1.665 12.9824 1.5 13.1474 1.5 13.3574V14.1074V14.8499C1.5 16.1699 1.83 16.4999 3.165 16.4999H7.335C8.67 16.4999 9 16.1699 9 14.8499V14.1074V13.3574C9 13.1474 8.835 12.9824 8.625 12.9824H1.875Z" fill="#0099C2"/>
</svg>
