<svg width="18" height="18" viewBox="0 0 18 18" fill="none" xmlns="http://www.w3.org/2000/svg">
<path d="M16.44 12.5624C16.1925 14.5574 14.5575 16.1924 12.5625 16.4399C11.355 16.5899 10.23 16.2599 9.35249 15.6149C8.84999 15.2474 8.96999 14.4674 9.56999 14.2874C11.8275 13.6049 13.605 11.8199 14.295 9.56245C14.475 8.96995 15.255 8.84995 15.6225 9.34495C16.26 10.2299 16.59 11.3549 16.44 12.5624Z" fill="#FFA500"/>
<path d="M7.4925 1.5C4.185 1.5 1.5 4.185 1.5 7.4925C1.5 10.8 4.185 13.485 7.4925 13.485C10.8 13.485 13.485 10.8 13.485 7.4925C13.4775 4.185 10.8 1.5 7.4925 1.5ZM6.7875 6.6525L8.595 7.2825C9.2475 7.515 9.5625 7.9725 9.5625 8.6775C9.5625 9.4875 8.9175 10.155 8.13 10.155H8.0625V10.1925C8.0625 10.5 7.8075 10.755 7.5 10.755C7.1925 10.755 6.9375 10.5 6.9375 10.1925V10.1475C6.105 10.11 5.4375 9.4125 5.4375 8.5425C5.4375 8.235 5.6925 7.98 6 7.98C6.3075 7.98 6.5625 8.235 6.5625 8.5425C6.5625 8.8125 6.7575 9.03 6.9975 9.03H8.1225C8.295 9.03 8.43 8.8725 8.43 8.6775C8.43 8.415 8.385 8.4 8.2125 8.34L6.405 7.71C5.76 7.485 5.4375 7.0275 5.4375 6.315C5.4375 5.505 6.0825 4.8375 6.87 4.8375H6.9375V4.8075C6.9375 4.5 7.1925 4.245 7.5 4.245C7.8075 4.245 8.0625 4.5 8.0625 4.8075V4.8525C8.895 4.89 9.5625 5.5875 9.5625 6.4575C9.5625 6.765 9.3075 7.02 9 7.02C8.6925 7.02 8.4375 6.765 8.4375 6.4575C8.4375 6.1875 8.2425 5.97 8.0025 5.97H6.8775C6.705 5.97 6.57 6.1275 6.57 6.3225C6.5625 6.5775 6.6075 6.5925 6.7875 6.6525Z" fill="#FFA500"/>
</svg>
