<svg width="312" height="273" viewBox="0 0 312 273" fill="none" xmlns="http://www.w3.org/2000/svg">
<path opacity="0.2" d="M238.455 42.4541C274.062 46.6163 294.213 58.1948 303.641 73.7945C313.073 89.4005 311.924 109.28 304.338 130.399C289.164 172.643 248.462 219.186 217.63 244.385C186.868 269.528 158.919 276.875 132.441 270.384C105.904 263.879 80.6661 243.436 55.4522 212.587C30.2436 181.745 9.98456 146.527 3.70642 112.783C-2.56225 79.0886 5.10094 46.8786 35.7364 21.8393C51.1424 9.24754 62.5153 3.27072 73.1111 1.54847C83.6985 -0.172401 93.6286 2.33334 106.226 6.99192C110.155 8.4447 114.333 10.1027 118.858 11.8984C143.371 21.6267 178.065 35.3952 238.455 42.4541Z" stroke="#008E10" stroke-width="1.54945"/>
</svg>
