<svg width="41" height="40" viewBox="0 0 41 40" fill="none" xmlns="http://www.w3.org/2000/svg">
<rect x="0.549805" y="0.0498047" width="39.9007" height="39.9007" rx="19.9503" fill="#008E10" fill-opacity="0.15"/>
<g clip-path="url(#clip0_3439_45680)">
<path fill-rule="evenodd" clip-rule="evenodd" d="M19.9971 10C14.4843 10 10 14.4855 10 19.9999C10 22.1868 10.7053 24.215 11.9042 25.8612L10.6582 29.5766L14.5019 28.3481C16.0827 29.3946 17.9693 30 20.0029 30C25.5157 30 30 25.5143 30 20.0001C30 14.4857 25.5157 10.0002 20.0029 10.0002H19.9971V10ZM17.2054 15.0795C17.0115 14.6151 16.8645 14.5975 16.5707 14.5856C16.4707 14.5798 16.3593 14.574 16.2357 14.574C15.8535 14.574 15.4539 14.6856 15.2129 14.9325C14.9192 15.2323 14.1903 15.9318 14.1903 17.3663C14.1903 18.8008 15.2365 20.1882 15.3775 20.3823C15.5244 20.5761 17.417 23.5626 20.3555 24.7798C22.6535 25.7321 23.3354 25.6439 23.8584 25.5322C24.6224 25.3676 25.5804 24.803 25.8214 24.1213C26.0624 23.4392 26.0624 22.8572 25.9918 22.7337C25.9213 22.6103 25.7272 22.5399 25.4335 22.3928C25.1397 22.2458 23.7114 21.5403 23.441 21.4462C23.1765 21.3463 22.9239 21.3817 22.7242 21.6639C22.442 22.0578 22.1658 22.4576 21.9424 22.6985C21.7661 22.8867 21.478 22.9102 21.2371 22.8102C20.9139 22.6751 20.0089 22.3574 18.8921 21.3639C18.0281 20.5939 17.4404 19.6357 17.2701 19.3477C17.0995 19.0539 17.2524 18.8831 17.3875 18.7245C17.5344 18.5422 17.6754 18.4129 17.8224 18.2424C17.9694 18.072 18.0516 17.9837 18.1457 17.7838C18.2457 17.5898 18.175 17.3899 18.1045 17.2429C18.034 17.0959 17.4464 15.6614 17.2054 15.0795Z" fill="white"/>
</g>
<defs>
<clipPath id="clip0_3439_45680">
<rect width="20" height="20" fill="white" transform="translate(10 10)"/>
</clipPath>
</defs>
</svg>
